<svg width="1440" height="52" viewBox="0 0 1440 52" fill="none" xmlns="http://www.w3.org/2000/svg">
<rect y="0.523438" width="1440" height="51.4766" fill="#1D6BF3"/>
<path d="M-99.374 26.582H-100.31V32H-102.596V19.112H-100.31V24.638H-99.302L-95.198 19.112H-92.768L-97.484 25.448L-92.588 32H-95.288L-99.374 26.582ZM-88.7051 30.506C-88.4171 30.506 -88.1591 30.464 -87.9311 30.38C-87.7031 30.296 -87.4991 30.194 -87.3191 30.074C-87.1271 29.942 -86.9651 29.798 -86.8331 29.642C-86.6891 29.486 -86.5691 29.33 -86.4731 29.174V27.752H-87.5351C-88.4351 27.752 -89.0771 27.884 -89.4611 28.148C-89.8451 28.412 -90.0371 28.772 -90.0371 29.228C-90.0371 29.624 -89.9231 29.936 -89.6951 30.164C-89.4671 30.392 -89.1371 30.506 -88.7051 30.506ZM-86.2391 32C-86.2631 31.844 -86.2931 31.64 -86.3291 31.388C-86.3531 31.136 -86.3711 30.896 -86.3831 30.668C-86.5151 30.86 -86.6711 31.046 -86.8511 31.226C-87.0311 31.406 -87.2411 31.568 -87.4811 31.712C-87.7211 31.856 -87.9971 31.97 -88.3091 32.054C-88.6091 32.138 -88.9451 32.18 -89.3171 32.18C-89.7131 32.18 -90.0911 32.12 -90.4511 32C-90.7991 31.892 -91.1051 31.724 -91.3691 31.496C-91.6331 31.268 -91.8431 30.986 -91.9991 30.65C-92.1431 30.314 -92.2151 29.918 -92.2151 29.462C-92.2151 28.454 -91.8431 27.686 -91.0991 27.158C-90.3551 26.618 -89.2031 26.348 -87.6431 26.348H-86.4731V25.88C-86.4731 25.268 -86.6351 24.848 -86.9591 24.62C-87.2831 24.38 -87.7751 24.26 -88.4351 24.26C-89.0111 24.26 -89.5391 24.338 -90.0191 24.494C-90.4871 24.65 -90.9131 24.83 -91.2971 25.034L-91.7471 23.306C-91.3631 23.102 -90.8651 22.916 -90.2531 22.748C-89.6291 22.568 -88.9391 22.478 -88.1831 22.478C-86.9471 22.478 -85.9871 22.736 -85.3031 23.252C-84.6191 23.756 -84.2771 24.572 -84.2771 25.7V30.488C-84.2771 30.596 -84.2771 30.722 -84.2771 30.866C-84.2651 30.998 -84.2591 31.136 -84.2591 31.28C-84.2471 31.424 -84.2411 31.562 -84.2411 31.694C-84.2291 31.814 -84.2171 31.916 -84.2051 32H-86.2391ZM-77.5979 22.658H-75.4019V26.492H-74.6639L-72.0359 22.658H-69.8039L-72.9359 27.158L-69.6239 32H-72.1799L-74.6999 28.238H-75.4019V32H-77.5979V28.238H-78.2999L-80.8919 32H-83.3759L-80.0459 27.23L-83.2139 22.658H-80.9099L-78.3359 26.492H-77.5979V22.658ZM-62.5509 24.422H-65.3229C-65.3829 25.874 -65.4849 27.068 -65.6289 28.004C-65.7729 28.928 -66.0009 29.672 -66.3129 30.236H-62.5509V24.422ZM-60.8769 32H-67.3749L-67.5189 34.664H-69.4449V30.236H-68.5989C-68.3349 29.996 -68.1249 29.666 -67.9689 29.246C-67.8009 28.826 -67.6689 28.304 -67.5729 27.68C-67.4649 27.056 -67.3869 26.33 -67.3389 25.502C-67.2909 24.674 -67.2429 23.726 -67.1949 22.658H-60.3549V30.236H-58.8069V34.664H-60.7149L-60.8769 32ZM-46.9072 32H-49.1032V22.658H-46.9072V32ZM-55.4212 27.338V30.308H-54.2332C-53.6692 30.308 -53.2132 30.194 -52.8652 29.966C-52.5172 29.738 -52.3432 29.36 -52.3432 28.832C-52.3432 28.304 -52.4992 27.926 -52.8112 27.698C-53.1232 27.458 -53.5732 27.338 -54.1612 27.338H-55.4212ZM-57.5992 22.658H-55.4212V25.646H-54.1612C-52.8772 25.646 -51.8812 25.898 -51.1732 26.402C-50.4532 26.906 -50.0932 27.686 -50.0932 28.742C-50.0932 29.294 -50.1952 29.774 -50.3992 30.182C-50.6032 30.59 -50.8912 30.932 -51.2632 31.208C-51.6232 31.472 -52.0612 31.67 -52.5772 31.802C-53.0812 31.934 -53.6332 32 -54.2332 32H-57.5992V22.658ZM-40.5075 21.578C-41.0115 21.578 -41.4495 21.512 -41.8215 21.38C-42.1935 21.236 -42.5055 21.044 -42.7575 20.804C-43.0095 20.564 -43.1955 20.288 -43.3155 19.976C-43.4355 19.652 -43.4955 19.304 -43.4955 18.932H-41.5875C-41.5875 19.352 -41.4915 19.652 -41.2995 19.832C-41.1075 20.012 -40.8435 20.102 -40.5075 20.102C-40.1715 20.102 -39.9075 20.012 -39.7155 19.832C-39.5235 19.652 -39.4275 19.352 -39.4275 18.932H-37.5195C-37.5195 19.304 -37.5855 19.652 -37.7175 19.976C-37.8375 20.288 -38.0235 20.564 -38.2755 20.804C-38.5155 21.044 -38.8215 21.236 -39.1935 21.38C-39.5655 21.512 -40.0035 21.578 -40.5075 21.578ZM-44.8635 22.658H-42.7035V29.12L-38.2395 22.658H-36.0975V32H-38.2575V25.556L-42.7035 32H-44.8635V22.658ZM-28.9266 25.142V32H-30.8706V22.658H-27.8826L-25.4346 28.346L-22.8606 22.658H-19.9626V32H-22.1406V25.142L-24.8406 31.136H-26.3526L-28.9266 25.142ZM-13.8384 32.18C-14.4984 32.18 -15.1104 32.072 -15.6744 31.856C-16.2384 31.64 -16.7304 31.328 -17.1504 30.92C-17.5584 30.5 -17.8824 29.99 -18.1224 29.39C-18.3624 28.79 -18.4824 28.1 -18.4824 27.32C-18.4824 26.54 -18.3624 25.85 -18.1224 25.25C-17.8824 24.65 -17.5584 24.146 -17.1504 23.738C-16.7304 23.318 -16.2384 23.006 -15.6744 22.802C-15.1104 22.586 -14.4984 22.478 -13.8384 22.478C-13.1784 22.478 -12.5604 22.586 -11.9844 22.802C-11.4084 23.006 -10.9104 23.318 -10.4904 23.738C-10.0704 24.146 -9.74042 24.65 -9.50042 25.25C-9.26042 25.85 -9.14042 26.54 -9.14042 27.32C-9.14042 28.1 -9.26042 28.79 -9.50042 29.39C-9.74042 29.99 -10.0704 30.5 -10.4904 30.92C-10.9104 31.328 -11.4084 31.64 -11.9844 31.856C-12.5604 32.072 -13.1784 32.18 -13.8384 32.18ZM-13.8384 30.398C-13.1304 30.398 -12.5484 30.152 -12.0924 29.66C-11.6244 29.156 -11.3904 28.376 -11.3904 27.32C-11.3904 26.804 -11.4564 26.354 -11.5884 25.97C-11.7084 25.586 -11.8764 25.268 -12.0924 25.016C-12.3084 24.764 -12.5664 24.578 -12.8664 24.458C-13.1664 24.326 -13.4904 24.26 -13.8384 24.26C-14.5224 24.26 -15.0924 24.512 -15.5484 25.016C-16.0044 25.508 -16.2324 26.276 -16.2324 27.32C-16.2324 28.376 -16.0044 29.156 -15.5484 29.66C-15.0924 30.152 -14.5224 30.398 -13.8384 30.398ZM-3.38942 22.658H-1.19342V26.492H-0.455419L2.17258 22.658H4.40458L1.27258 27.158L4.58458 32H2.02858L-0.491419 28.238H-1.19342V32H-3.38942V28.238H-4.09142L-6.68342 32H-9.16742L-5.83742 27.23L-9.00542 22.658H-6.70142L-4.12742 26.492H-3.38942V22.658ZM9.22478 24.17C8.60078 24.17 8.08478 24.35 7.67678 24.71C7.28078 25.07 7.01678 25.61 6.88478 26.33H11.1868C11.2108 25.61 11.0428 25.07 10.6828 24.71C10.3348 24.35 9.84878 24.17 9.22478 24.17ZM13.1128 31.28C13.0528 31.328 12.9328 31.4 12.7528 31.496C12.5848 31.592 12.3568 31.694 12.0688 31.802C11.7928 31.898 11.4568 31.982 11.0608 32.054C10.6648 32.138 10.2088 32.18 9.69278 32.18C7.97678 32.18 6.69278 31.754 5.84078 30.902C5.00078 30.05 4.58078 28.856 4.58078 27.32C4.58078 26.564 4.69478 25.886 4.92278 25.286C5.15078 24.686 5.46878 24.182 5.87678 23.774C6.28478 23.354 6.77078 23.036 7.33478 22.82C7.91078 22.592 8.54078 22.478 9.22478 22.478C9.92078 22.478 10.5508 22.592 11.1148 22.82C11.6788 23.048 12.1408 23.39 12.5008 23.846C12.8728 24.302 13.1308 24.872 13.2748 25.556C13.4188 26.24 13.4188 27.032 13.2748 27.932H6.84878C6.93278 28.748 7.20878 29.36 7.67678 29.768C8.15678 30.176 8.86478 30.38 9.80078 30.38C10.1848 30.38 10.5328 30.35 10.8448 30.29C11.1688 30.218 11.4448 30.14 11.6728 30.056C11.9128 29.96 12.1108 29.87 12.2668 29.786C12.4348 29.69 12.5548 29.612 12.6268 29.552L13.1128 31.28ZM19.03 24.422V32H16.852V24.422H14.098V22.658H21.838V24.422H19.03ZM25.8194 19.112L25.5494 28.166H23.8214L23.5694 19.112H25.8194ZM24.6854 32.126C24.4814 32.126 24.2894 32.084 24.1094 32C23.9294 31.928 23.7734 31.826 23.6414 31.694C23.5094 31.562 23.4014 31.412 23.3174 31.244C23.2454 31.064 23.2094 30.878 23.2094 30.686C23.2094 30.29 23.3474 29.954 23.6234 29.678C23.9114 29.402 24.2654 29.264 24.6854 29.264C25.1054 29.264 25.4534 29.402 25.7294 29.678C26.0054 29.954 26.1434 30.29 26.1434 30.686C26.1434 30.878 26.1074 31.064 26.0354 31.244C25.9634 31.412 25.8614 31.562 25.7294 31.694C25.5974 31.826 25.4414 31.928 25.2614 32C25.0814 32.084 24.8894 32.126 24.6854 32.126Z" fill="white"/>
<path fill-rule="evenodd" clip-rule="evenodd" d="M68.9647 36C74.4681 36 78.9294 31.299 78.9294 25.5C78.9294 19.701 74.4681 15 68.9647 15C63.4613 15 59 19.701 59 25.5C59 31.299 63.4613 36 68.9647 36ZM69.4254 20.8804H70.4339V31.8105H72.4509V19.2105H69.4254C66.4 19.2105 64.8153 20.8804 64.8153 23.3093C64.8153 25.2828 65.6797 26.3455 67.2644 27.5599L64.5271 31.8105H66.8322L69.7136 27.1045L68.7051 26.3455C67.4085 25.4346 66.8322 24.6756 66.8322 23.1575C66.8322 21.7913 67.6966 20.8804 69.4254 20.8804Z" fill="white"/>
<path d="M84.2676 17.3594V32.9969H86.8513V19.4744H91.4635V32.9969H94.0472V17.3594H84.2676ZM98.5232 21.6794H96.1743V36.2594H98.7153V31.6694C99.3559 32.6819 100.295 33.2219 101.384 33.2219C103.861 33.2219 105.57 31.1294 105.57 27.3269C105.57 23.5469 103.904 21.4544 101.513 21.4544C100.317 21.4544 99.3346 22.0394 98.6513 23.1419L98.5232 21.6794ZM100.744 31.1069C99.3986 31.1069 98.7153 29.9594 98.7153 27.3494C98.7153 24.7169 99.4413 23.5694 100.872 23.5694C102.26 23.5694 102.943 24.7169 102.943 27.3269C102.943 29.9594 102.217 31.1069 100.744 31.1069ZM115.192 25.2794C115.192 22.5344 113.868 21.4994 111.178 21.4994C109.491 21.4994 108.167 22.0619 107.399 22.5344V24.7619C108.082 24.2219 109.577 23.6369 110.879 23.6369C112.096 23.6369 112.651 24.0869 112.651 25.3019V25.9319H112.246C108.359 25.9319 106.63 27.2819 106.63 29.5769C106.63 31.8719 107.954 33.1544 109.918 33.1544C111.413 33.1544 112.053 32.6369 112.545 32.0969H112.651C112.673 32.3894 112.758 32.7719 112.844 32.9969H115.32C115.235 32.0744 115.192 31.1519 115.192 30.2294V25.2794ZM112.651 30.2969C112.331 30.7919 111.733 31.1969 110.836 31.1969C109.769 31.1969 109.235 30.5219 109.235 29.5094C109.235 28.1819 110.11 27.7094 112.288 27.7094H112.651V30.2969ZM123.535 32.9969H126.417L122.339 26.8994L125.926 21.6794H123.364L119.776 26.8994V21.6794H117.235V32.9969H119.776V27.4394L123.535 32.9969ZM134.832 23.7944V21.6794H126.312V23.7944H129.301V32.9969H131.843V23.7944H134.832ZM136.336 21.6794V32.9969H138.535L142.464 25.9994V32.9969H144.941V21.6794H142.742L138.813 28.6769V21.6794H136.336ZM153.374 32.9969H156.257L152.178 26.8994L155.766 21.6794H153.203L149.616 26.8994V21.6794H147.075V32.9969H149.616V27.4394L153.374 32.9969ZM158.493 36.4844C160.863 36.4844 161.738 34.7069 162.464 32.3894L165.817 21.6794H163.361L160.991 30.1844L158.621 21.6794H155.952L159.646 33.4919C159.368 34.0319 158.962 34.3694 158.258 34.3694C157.788 34.3694 157.382 34.2119 157.105 33.9194V36.1019C157.105 36.1019 157.489 36.4844 158.493 36.4844ZM175.941 32.9969H178.418L178.376 21.6794H174.895L172.568 29.2169L170.475 21.6794H166.781V32.9969H168.938V24.5369L171.265 32.9969H173.336L175.941 24.5369V32.9969Z" fill="white"/>
<path d="M216.626 26.582H215.69V32H213.404V19.112H215.69V24.638H216.698L220.802 19.112H223.232L218.516 25.448L223.412 32H220.712L216.626 26.582ZM227.295 30.506C227.583 30.506 227.841 30.464 228.069 30.38C228.297 30.296 228.501 30.194 228.681 30.074C228.873 29.942 229.035 29.798 229.167 29.642C229.311 29.486 229.431 29.33 229.527 29.174V27.752H228.465C227.565 27.752 226.923 27.884 226.539 28.148C226.155 28.412 225.963 28.772 225.963 29.228C225.963 29.624 226.077 29.936 226.305 30.164C226.533 30.392 226.863 30.506 227.295 30.506ZM229.761 32C229.737 31.844 229.707 31.64 229.671 31.388C229.647 31.136 229.629 30.896 229.617 30.668C229.485 30.86 229.329 31.046 229.149 31.226C228.969 31.406 228.759 31.568 228.519 31.712C228.279 31.856 228.003 31.97 227.691 32.054C227.391 32.138 227.055 32.18 226.683 32.18C226.287 32.18 225.909 32.12 225.549 32C225.201 31.892 224.895 31.724 224.631 31.496C224.367 31.268 224.157 30.986 224.001 30.65C223.857 30.314 223.785 29.918 223.785 29.462C223.785 28.454 224.157 27.686 224.901 27.158C225.645 26.618 226.797 26.348 228.357 26.348H229.527V25.88C229.527 25.268 229.365 24.848 229.041 24.62C228.717 24.38 228.225 24.26 227.565 24.26C226.989 24.26 226.461 24.338 225.981 24.494C225.513 24.65 225.087 24.83 224.703 25.034L224.253 23.306C224.637 23.102 225.135 22.916 225.747 22.748C226.371 22.568 227.061 22.478 227.817 22.478C229.053 22.478 230.013 22.736 230.697 23.252C231.381 23.756 231.723 24.572 231.723 25.7V30.488C231.723 30.596 231.723 30.722 231.723 30.866C231.735 30.998 231.741 31.136 231.741 31.28C231.753 31.424 231.759 31.562 231.759 31.694C231.771 31.814 231.783 31.916 231.795 32H229.761ZM238.402 22.658H240.598V26.492H241.336L243.964 22.658H246.196L243.064 27.158L246.376 32H243.82L241.3 28.238H240.598V32H238.402V28.238H237.7L235.108 32H232.624L235.954 27.23L232.786 22.658H235.09L237.664 26.492H238.402V22.658ZM253.449 24.422H250.677C250.617 25.874 250.515 27.068 250.371 28.004C250.227 28.928 249.999 29.672 249.687 30.236H253.449V24.422ZM255.123 32H248.625L248.481 34.664H246.555V30.236H247.401C247.665 29.996 247.875 29.666 248.031 29.246C248.199 28.826 248.331 28.304 248.427 27.68C248.535 27.056 248.613 26.33 248.661 25.502C248.709 24.674 248.757 23.726 248.805 22.658H255.645V30.236H257.193V34.664H255.285L255.123 32ZM269.093 32H266.897V22.658H269.093V32ZM260.579 27.338V30.308H261.767C262.331 30.308 262.787 30.194 263.135 29.966C263.483 29.738 263.657 29.36 263.657 28.832C263.657 28.304 263.501 27.926 263.189 27.698C262.877 27.458 262.427 27.338 261.839 27.338H260.579ZM258.401 22.658H260.579V25.646H261.839C263.123 25.646 264.119 25.898 264.827 26.402C265.547 26.906 265.907 27.686 265.907 28.742C265.907 29.294 265.805 29.774 265.601 30.182C265.397 30.59 265.109 30.932 264.737 31.208C264.377 31.472 263.939 31.67 263.423 31.802C262.919 31.934 262.367 32 261.767 32H258.401V22.658ZM275.492 21.578C274.988 21.578 274.55 21.512 274.178 21.38C273.806 21.236 273.494 21.044 273.242 20.804C272.99 20.564 272.804 20.288 272.684 19.976C272.564 19.652 272.504 19.304 272.504 18.932H274.412C274.412 19.352 274.508 19.652 274.7 19.832C274.892 20.012 275.156 20.102 275.492 20.102C275.828 20.102 276.092 20.012 276.284 19.832C276.476 19.652 276.572 19.352 276.572 18.932H278.48C278.48 19.304 278.414 19.652 278.282 19.976C278.162 20.288 277.976 20.564 277.724 20.804C277.484 21.044 277.178 21.236 276.806 21.38C276.434 21.512 275.996 21.578 275.492 21.578ZM271.136 22.658H273.296V29.12L277.76 22.658H279.902V32H277.742V25.556L273.296 32H271.136V22.658ZM287.073 25.142V32H285.129V22.658H288.117L290.565 28.346L293.139 22.658H296.037V32H293.859V25.142L291.159 31.136H289.647L287.073 25.142ZM302.162 32.18C301.502 32.18 300.89 32.072 300.326 31.856C299.762 31.64 299.27 31.328 298.85 30.92C298.442 30.5 298.118 29.99 297.878 29.39C297.638 28.79 297.518 28.1 297.518 27.32C297.518 26.54 297.638 25.85 297.878 25.25C298.118 24.65 298.442 24.146 298.85 23.738C299.27 23.318 299.762 23.006 300.326 22.802C300.89 22.586 301.502 22.478 302.162 22.478C302.822 22.478 303.44 22.586 304.016 22.802C304.592 23.006 305.09 23.318 305.51 23.738C305.93 24.146 306.26 24.65 306.5 25.25C306.74 25.85 306.86 26.54 306.86 27.32C306.86 28.1 306.74 28.79 306.5 29.39C306.26 29.99 305.93 30.5 305.51 30.92C305.09 31.328 304.592 31.64 304.016 31.856C303.44 32.072 302.822 32.18 302.162 32.18ZM302.162 30.398C302.87 30.398 303.452 30.152 303.908 29.66C304.376 29.156 304.61 28.376 304.61 27.32C304.61 26.804 304.544 26.354 304.412 25.97C304.292 25.586 304.124 25.268 303.908 25.016C303.692 24.764 303.434 24.578 303.134 24.458C302.834 24.326 302.51 24.26 302.162 24.26C301.478 24.26 300.908 24.512 300.452 25.016C299.996 25.508 299.768 26.276 299.768 27.32C299.768 28.376 299.996 29.156 300.452 29.66C300.908 30.152 301.478 30.398 302.162 30.398ZM312.611 22.658H314.807V26.492H315.545L318.173 22.658H320.405L317.273 27.158L320.585 32H318.029L315.509 28.238H314.807V32H312.611V28.238H311.909L309.317 32H306.833L310.163 27.23L306.995 22.658H309.299L311.873 26.492H312.611V22.658ZM325.225 24.17C324.601 24.17 324.085 24.35 323.677 24.71C323.281 25.07 323.017 25.61 322.885 26.33H327.187C327.211 25.61 327.043 25.07 326.683 24.71C326.335 24.35 325.849 24.17 325.225 24.17ZM329.113 31.28C329.053 31.328 328.933 31.4 328.753 31.496C328.585 31.592 328.357 31.694 328.069 31.802C327.793 31.898 327.457 31.982 327.061 32.054C326.665 32.138 326.209 32.18 325.693 32.18C323.977 32.18 322.693 31.754 321.841 30.902C321.001 30.05 320.581 28.856 320.581 27.32C320.581 26.564 320.695 25.886 320.923 25.286C321.151 24.686 321.469 24.182 321.877 23.774C322.285 23.354 322.771 23.036 323.335 22.82C323.911 22.592 324.541 22.478 325.225 22.478C325.921 22.478 326.551 22.592 327.115 22.82C327.679 23.048 328.141 23.39 328.501 23.846C328.873 24.302 329.131 24.872 329.275 25.556C329.419 26.24 329.419 27.032 329.275 27.932H322.849C322.933 28.748 323.209 29.36 323.677 29.768C324.157 30.176 324.865 30.38 325.801 30.38C326.185 30.38 326.533 30.35 326.845 30.29C327.169 30.218 327.445 30.14 327.673 30.056C327.913 29.96 328.111 29.87 328.267 29.786C328.435 29.69 328.555 29.612 328.627 29.552L329.113 31.28ZM335.03 24.422V32H332.852V24.422H330.098V22.658H337.838V24.422H335.03ZM341.819 19.112L341.549 28.166H339.821L339.569 19.112H341.819ZM340.685 32.126C340.481 32.126 340.289 32.084 340.109 32C339.929 31.928 339.773 31.826 339.641 31.694C339.509 31.562 339.401 31.412 339.317 31.244C339.245 31.064 339.209 30.878 339.209 30.686C339.209 30.29 339.347 29.954 339.623 29.678C339.911 29.402 340.265 29.264 340.685 29.264C341.105 29.264 341.453 29.402 341.729 29.678C342.005 29.954 342.143 30.29 342.143 30.686C342.143 30.878 342.107 31.064 342.035 31.244C341.963 31.412 341.861 31.562 341.729 31.694C341.597 31.826 341.441 31.928 341.261 32C341.081 32.084 340.889 32.126 340.685 32.126Z" fill="white"/>
<path fill-rule="evenodd" clip-rule="evenodd" d="M384.965 36C390.468 36 394.929 31.299 394.929 25.5C394.929 19.701 390.468 15 384.965 15C379.461 15 375 19.701 375 25.5C375 31.299 379.461 36 384.965 36ZM385.425 20.8804H386.434V31.8105H388.451V19.2105H385.425C382.4 19.2105 380.815 20.8804 380.815 23.3093C380.815 25.2828 381.68 26.3455 383.264 27.5599L380.527 31.8105H382.832L385.714 27.1045L384.705 26.3455C383.409 25.4346 382.832 24.6756 382.832 23.1575C382.832 21.7913 383.697 20.8804 385.425 20.8804Z" fill="white"/>
<path d="M400.268 17.3594V32.9969H402.851V19.4744H407.464V32.9969H410.047V17.3594H400.268ZM414.523 21.6794H412.174V36.2594H414.715V31.6694C415.356 32.6819 416.295 33.2219 417.384 33.2219C419.861 33.2219 421.57 31.1294 421.57 27.3269C421.57 23.5469 419.904 21.4544 417.513 21.4544C416.317 21.4544 415.335 22.0394 414.651 23.1419L414.523 21.6794ZM416.744 31.1069C415.399 31.1069 414.715 29.9594 414.715 27.3494C414.715 24.7169 415.441 23.5694 416.872 23.5694C418.26 23.5694 418.943 24.7169 418.943 27.3269C418.943 29.9594 418.217 31.1069 416.744 31.1069ZM431.192 25.2794C431.192 22.5344 429.868 21.4994 427.178 21.4994C425.491 21.4994 424.167 22.0619 423.399 22.5344V24.7619C424.082 24.2219 425.577 23.6369 426.879 23.6369C428.096 23.6369 428.651 24.0869 428.651 25.3019V25.9319H428.246C424.359 25.9319 422.63 27.2819 422.63 29.5769C422.63 31.8719 423.954 33.1544 425.918 33.1544C427.413 33.1544 428.053 32.6369 428.545 32.0969H428.651C428.673 32.3894 428.758 32.7719 428.844 32.9969H431.32C431.235 32.0744 431.192 31.1519 431.192 30.2294V25.2794ZM428.651 30.2969C428.331 30.7919 427.733 31.1969 426.836 31.1969C425.769 31.1969 425.235 30.5219 425.235 29.5094C425.235 28.1819 426.11 27.7094 428.288 27.7094H428.651V30.2969ZM439.535 32.9969H442.417L438.339 26.8994L441.926 21.6794H439.364L435.776 26.8994V21.6794H433.235V32.9969H435.776V27.4394L439.535 32.9969ZM450.832 23.7944V21.6794H442.312V23.7944H445.301V32.9969H447.843V23.7944H450.832ZM452.336 21.6794V32.9969H454.535L458.464 25.9994V32.9969H460.941V21.6794H458.742L454.813 28.6769V21.6794H452.336ZM469.374 32.9969H472.257L468.178 26.8994L471.766 21.6794H469.203L465.616 26.8994V21.6794H463.075V32.9969H465.616V27.4394L469.374 32.9969ZM474.493 36.4844C476.863 36.4844 477.738 34.7069 478.464 32.3894L481.817 21.6794H479.361L476.991 30.1844L474.621 21.6794H471.952L475.646 33.4919C475.368 34.0319 474.962 34.3694 474.258 34.3694C473.788 34.3694 473.382 34.2119 473.105 33.9194V36.1019C473.105 36.1019 473.489 36.4844 474.493 36.4844ZM491.941 32.9969H494.418L494.376 21.6794H490.895L488.568 29.2169L486.475 21.6794H482.781V32.9969H484.938V24.5369L487.265 32.9969H489.336L491.941 24.5369V32.9969Z" fill="white"/>
<path d="M532.626 26.582H531.69V32H529.404V19.112H531.69V24.638H532.698L536.802 19.112H539.232L534.516 25.448L539.412 32H536.712L532.626 26.582ZM543.295 30.506C543.583 30.506 543.841 30.464 544.069 30.38C544.297 30.296 544.501 30.194 544.681 30.074C544.873 29.942 545.035 29.798 545.167 29.642C545.311 29.486 545.431 29.33 545.527 29.174V27.752H544.465C543.565 27.752 542.923 27.884 542.539 28.148C542.155 28.412 541.963 28.772 541.963 29.228C541.963 29.624 542.077 29.936 542.305 30.164C542.533 30.392 542.863 30.506 543.295 30.506ZM545.761 32C545.737 31.844 545.707 31.64 545.671 31.388C545.647 31.136 545.629 30.896 545.617 30.668C545.485 30.86 545.329 31.046 545.149 31.226C544.969 31.406 544.759 31.568 544.519 31.712C544.279 31.856 544.003 31.97 543.691 32.054C543.391 32.138 543.055 32.18 542.683 32.18C542.287 32.18 541.909 32.12 541.549 32C541.201 31.892 540.895 31.724 540.631 31.496C540.367 31.268 540.157 30.986 540.001 30.65C539.857 30.314 539.785 29.918 539.785 29.462C539.785 28.454 540.157 27.686 540.901 27.158C541.645 26.618 542.797 26.348 544.357 26.348H545.527V25.88C545.527 25.268 545.365 24.848 545.041 24.62C544.717 24.38 544.225 24.26 543.565 24.26C542.989 24.26 542.461 24.338 541.981 24.494C541.513 24.65 541.087 24.83 540.703 25.034L540.253 23.306C540.637 23.102 541.135 22.916 541.747 22.748C542.371 22.568 543.061 22.478 543.817 22.478C545.053 22.478 546.013 22.736 546.697 23.252C547.381 23.756 547.723 24.572 547.723 25.7V30.488C547.723 30.596 547.723 30.722 547.723 30.866C547.735 30.998 547.741 31.136 547.741 31.28C547.753 31.424 547.759 31.562 547.759 31.694C547.771 31.814 547.783 31.916 547.795 32H545.761ZM554.402 22.658H556.598V26.492H557.336L559.964 22.658H562.196L559.064 27.158L562.376 32H559.82L557.3 28.238H556.598V32H554.402V28.238H553.7L551.108 32H548.624L551.954 27.23L548.786 22.658H551.09L553.664 26.492H554.402V22.658ZM569.449 24.422H566.677C566.617 25.874 566.515 27.068 566.371 28.004C566.227 28.928 565.999 29.672 565.687 30.236H569.449V24.422ZM571.123 32H564.625L564.481 34.664H562.555V30.236H563.401C563.665 29.996 563.875 29.666 564.031 29.246C564.199 28.826 564.331 28.304 564.427 27.68C564.535 27.056 564.613 26.33 564.661 25.502C564.709 24.674 564.757 23.726 564.805 22.658H571.645V30.236H573.193V34.664H571.285L571.123 32ZM585.093 32H582.897V22.658H585.093V32ZM576.579 27.338V30.308H577.767C578.331 30.308 578.787 30.194 579.135 29.966C579.483 29.738 579.657 29.36 579.657 28.832C579.657 28.304 579.501 27.926 579.189 27.698C578.877 27.458 578.427 27.338 577.839 27.338H576.579ZM574.401 22.658H576.579V25.646H577.839C579.123 25.646 580.119 25.898 580.827 26.402C581.547 26.906 581.907 27.686 581.907 28.742C581.907 29.294 581.805 29.774 581.601 30.182C581.397 30.59 581.109 30.932 580.737 31.208C580.377 31.472 579.939 31.67 579.423 31.802C578.919 31.934 578.367 32 577.767 32H574.401V22.658ZM591.492 21.578C590.988 21.578 590.55 21.512 590.178 21.38C589.806 21.236 589.494 21.044 589.242 20.804C588.99 20.564 588.804 20.288 588.684 19.976C588.564 19.652 588.504 19.304 588.504 18.932H590.412C590.412 19.352 590.508 19.652 590.7 19.832C590.892 20.012 591.156 20.102 591.492 20.102C591.828 20.102 592.092 20.012 592.284 19.832C592.476 19.652 592.572 19.352 592.572 18.932H594.48C594.48 19.304 594.414 19.652 594.282 19.976C594.162 20.288 593.976 20.564 593.724 20.804C593.484 21.044 593.178 21.236 592.806 21.38C592.434 21.512 591.996 21.578 591.492 21.578ZM587.136 22.658H589.296V29.12L593.76 22.658H595.902V32H593.742V25.556L589.296 32H587.136V22.658ZM603.073 25.142V32H601.129V22.658H604.117L606.565 28.346L609.139 22.658H612.037V32H609.859V25.142L607.159 31.136H605.647L603.073 25.142ZM618.162 32.18C617.502 32.18 616.89 32.072 616.326 31.856C615.762 31.64 615.27 31.328 614.85 30.92C614.442 30.5 614.118 29.99 613.878 29.39C613.638 28.79 613.518 28.1 613.518 27.32C613.518 26.54 613.638 25.85 613.878 25.25C614.118 24.65 614.442 24.146 614.85 23.738C615.27 23.318 615.762 23.006 616.326 22.802C616.89 22.586 617.502 22.478 618.162 22.478C618.822 22.478 619.44 22.586 620.016 22.802C620.592 23.006 621.09 23.318 621.51 23.738C621.93 24.146 622.26 24.65 622.5 25.25C622.74 25.85 622.86 26.54 622.86 27.32C622.86 28.1 622.74 28.79 622.5 29.39C622.26 29.99 621.93 30.5 621.51 30.92C621.09 31.328 620.592 31.64 620.016 31.856C619.44 32.072 618.822 32.18 618.162 32.18ZM618.162 30.398C618.87 30.398 619.452 30.152 619.908 29.66C620.376 29.156 620.61 28.376 620.61 27.32C620.61 26.804 620.544 26.354 620.412 25.97C620.292 25.586 620.124 25.268 619.908 25.016C619.692 24.764 619.434 24.578 619.134 24.458C618.834 24.326 618.51 24.26 618.162 24.26C617.478 24.26 616.908 24.512 616.452 25.016C615.996 25.508 615.768 26.276 615.768 27.32C615.768 28.376 615.996 29.156 616.452 29.66C616.908 30.152 617.478 30.398 618.162 30.398ZM628.611 22.658H630.807V26.492H631.545L634.173 22.658H636.405L633.273 27.158L636.585 32H634.029L631.509 28.238H630.807V32H628.611V28.238H627.909L625.317 32H622.833L626.163 27.23L622.995 22.658H625.299L627.873 26.492H628.611V22.658ZM641.225 24.17C640.601 24.17 640.085 24.35 639.677 24.71C639.281 25.07 639.017 25.61 638.885 26.33H643.187C643.211 25.61 643.043 25.07 642.683 24.71C642.335 24.35 641.849 24.17 641.225 24.17ZM645.113 31.28C645.053 31.328 644.933 31.4 644.753 31.496C644.585 31.592 644.357 31.694 644.069 31.802C643.793 31.898 643.457 31.982 643.061 32.054C642.665 32.138 642.209 32.18 641.693 32.18C639.977 32.18 638.693 31.754 637.841 30.902C637.001 30.05 636.581 28.856 636.581 27.32C636.581 26.564 636.695 25.886 636.923 25.286C637.151 24.686 637.469 24.182 637.877 23.774C638.285 23.354 638.771 23.036 639.335 22.82C639.911 22.592 640.541 22.478 641.225 22.478C641.921 22.478 642.551 22.592 643.115 22.82C643.679 23.048 644.141 23.39 644.501 23.846C644.873 24.302 645.131 24.872 645.275 25.556C645.419 26.24 645.419 27.032 645.275 27.932H638.849C638.933 28.748 639.209 29.36 639.677 29.768C640.157 30.176 640.865 30.38 641.801 30.38C642.185 30.38 642.533 30.35 642.845 30.29C643.169 30.218 643.445 30.14 643.673 30.056C643.913 29.96 644.111 29.87 644.267 29.786C644.435 29.69 644.555 29.612 644.627 29.552L645.113 31.28ZM651.03 24.422V32H648.852V24.422H646.098V22.658H653.838V24.422H651.03ZM657.819 19.112L657.549 28.166H655.821L655.569 19.112H657.819ZM656.685 32.126C656.481 32.126 656.289 32.084 656.109 32C655.929 31.928 655.773 31.826 655.641 31.694C655.509 31.562 655.401 31.412 655.317 31.244C655.245 31.064 655.209 30.878 655.209 30.686C655.209 30.29 655.347 29.954 655.623 29.678C655.911 29.402 656.265 29.264 656.685 29.264C657.105 29.264 657.453 29.402 657.729 29.678C658.005 29.954 658.143 30.29 658.143 30.686C658.143 30.878 658.107 31.064 658.035 31.244C657.963 31.412 657.861 31.562 657.729 31.694C657.597 31.826 657.441 31.928 657.261 32C657.081 32.084 656.889 32.126 656.685 32.126Z" fill="white"/>
<path fill-rule="evenodd" clip-rule="evenodd" d="M700.965 36C706.468 36 710.929 31.299 710.929 25.5C710.929 19.701 706.468 15 700.965 15C695.461 15 691 19.701 691 25.5C691 31.299 695.461 36 700.965 36ZM701.425 20.8804H702.434V31.8105H704.451V19.2105H701.425C698.4 19.2105 696.815 20.8804 696.815 23.3093C696.815 25.2828 697.68 26.3455 699.264 27.5599L696.527 31.8105H698.832L701.714 27.1045L700.705 26.3455C699.409 25.4346 698.832 24.6756 698.832 23.1575C698.832 21.7913 699.697 20.8804 701.425 20.8804Z" fill="white"/>
<path d="M716.268 17.3594V32.9969H718.851V19.4744H723.464V32.9969H726.047V17.3594H716.268ZM730.523 21.6794H728.174V36.2594H730.715V31.6694C731.356 32.6819 732.295 33.2219 733.384 33.2219C735.861 33.2219 737.57 31.1294 737.57 27.3269C737.57 23.5469 735.904 21.4544 733.513 21.4544C732.317 21.4544 731.335 22.0394 730.651 23.1419L730.523 21.6794ZM732.744 31.1069C731.399 31.1069 730.715 29.9594 730.715 27.3494C730.715 24.7169 731.441 23.5694 732.872 23.5694C734.26 23.5694 734.943 24.7169 734.943 27.3269C734.943 29.9594 734.217 31.1069 732.744 31.1069ZM747.192 25.2794C747.192 22.5344 745.868 21.4994 743.178 21.4994C741.491 21.4994 740.167 22.0619 739.399 22.5344V24.7619C740.082 24.2219 741.577 23.6369 742.879 23.6369C744.096 23.6369 744.651 24.0869 744.651 25.3019V25.9319H744.246C740.359 25.9319 738.63 27.2819 738.63 29.5769C738.63 31.8719 739.954 33.1544 741.918 33.1544C743.413 33.1544 744.053 32.6369 744.545 32.0969H744.651C744.673 32.3894 744.758 32.7719 744.844 32.9969H747.32C747.235 32.0744 747.192 31.1519 747.192 30.2294V25.2794ZM744.651 30.2969C744.331 30.7919 743.733 31.1969 742.836 31.1969C741.769 31.1969 741.235 30.5219 741.235 29.5094C741.235 28.1819 742.11 27.7094 744.288 27.7094H744.651V30.2969ZM755.535 32.9969H758.417L754.339 26.8994L757.926 21.6794H755.364L751.776 26.8994V21.6794H749.235V32.9969H751.776V27.4394L755.535 32.9969ZM766.832 23.7944V21.6794H758.312V23.7944H761.301V32.9969H763.843V23.7944H766.832ZM768.336 21.6794V32.9969H770.535L774.464 25.9994V32.9969H776.941V21.6794H774.742L770.813 28.6769V21.6794H768.336ZM785.374 32.9969H788.257L784.178 26.8994L787.766 21.6794H785.203L781.616 26.8994V21.6794H779.075V32.9969H781.616V27.4394L785.374 32.9969ZM790.493 36.4844C792.863 36.4844 793.738 34.7069 794.464 32.3894L797.817 21.6794H795.361L792.991 30.1844L790.621 21.6794H787.952L791.646 33.4919C791.368 34.0319 790.962 34.3694 790.258 34.3694C789.788 34.3694 789.382 34.2119 789.105 33.9194V36.1019C789.105 36.1019 789.489 36.4844 790.493 36.4844ZM807.941 32.9969H810.418L810.376 21.6794H806.895L804.568 29.2169L802.475 21.6794H798.781V32.9969H800.938V24.5369L803.265 32.9969H805.336L807.941 24.5369V32.9969Z" fill="white"/>
<path d="M848.626 26.582H847.69V32H845.404V19.112H847.69V24.638H848.698L852.802 19.112H855.232L850.516 25.448L855.412 32H852.712L848.626 26.582ZM859.295 30.506C859.583 30.506 859.841 30.464 860.069 30.38C860.297 30.296 860.501 30.194 860.681 30.074C860.873 29.942 861.035 29.798 861.167 29.642C861.311 29.486 861.431 29.33 861.527 29.174V27.752H860.465C859.565 27.752 858.923 27.884 858.539 28.148C858.155 28.412 857.963 28.772 857.963 29.228C857.963 29.624 858.077 29.936 858.305 30.164C858.533 30.392 858.863 30.506 859.295 30.506ZM861.761 32C861.737 31.844 861.707 31.64 861.671 31.388C861.647 31.136 861.629 30.896 861.617 30.668C861.485 30.86 861.329 31.046 861.149 31.226C860.969 31.406 860.759 31.568 860.519 31.712C860.279 31.856 860.003 31.97 859.691 32.054C859.391 32.138 859.055 32.18 858.683 32.18C858.287 32.18 857.909 32.12 857.549 32C857.201 31.892 856.895 31.724 856.631 31.496C856.367 31.268 856.157 30.986 856.001 30.65C855.857 30.314 855.785 29.918 855.785 29.462C855.785 28.454 856.157 27.686 856.901 27.158C857.645 26.618 858.797 26.348 860.357 26.348H861.527V25.88C861.527 25.268 861.365 24.848 861.041 24.62C860.717 24.38 860.225 24.26 859.565 24.26C858.989 24.26 858.461 24.338 857.981 24.494C857.513 24.65 857.087 24.83 856.703 25.034L856.253 23.306C856.637 23.102 857.135 22.916 857.747 22.748C858.371 22.568 859.061 22.478 859.817 22.478C861.053 22.478 862.013 22.736 862.697 23.252C863.381 23.756 863.723 24.572 863.723 25.7V30.488C863.723 30.596 863.723 30.722 863.723 30.866C863.735 30.998 863.741 31.136 863.741 31.28C863.753 31.424 863.759 31.562 863.759 31.694C863.771 31.814 863.783 31.916 863.795 32H861.761ZM870.402 22.658H872.598V26.492H873.336L875.964 22.658H878.196L875.064 27.158L878.376 32H875.82L873.3 28.238H872.598V32H870.402V28.238H869.7L867.108 32H864.624L867.954 27.23L864.786 22.658H867.09L869.664 26.492H870.402V22.658ZM885.449 24.422H882.677C882.617 25.874 882.515 27.068 882.371 28.004C882.227 28.928 881.999 29.672 881.687 30.236H885.449V24.422ZM887.123 32H880.625L880.481 34.664H878.555V30.236H879.401C879.665 29.996 879.875 29.666 880.031 29.246C880.199 28.826 880.331 28.304 880.427 27.68C880.535 27.056 880.613 26.33 880.661 25.502C880.709 24.674 880.757 23.726 880.805 22.658H887.645V30.236H889.193V34.664H887.285L887.123 32ZM901.093 32H898.897V22.658H901.093V32ZM892.579 27.338V30.308H893.767C894.331 30.308 894.787 30.194 895.135 29.966C895.483 29.738 895.657 29.36 895.657 28.832C895.657 28.304 895.501 27.926 895.189 27.698C894.877 27.458 894.427 27.338 893.839 27.338H892.579ZM890.401 22.658H892.579V25.646H893.839C895.123 25.646 896.119 25.898 896.827 26.402C897.547 26.906 897.907 27.686 897.907 28.742C897.907 29.294 897.805 29.774 897.601 30.182C897.397 30.59 897.109 30.932 896.737 31.208C896.377 31.472 895.939 31.67 895.423 31.802C894.919 31.934 894.367 32 893.767 32H890.401V22.658ZM907.492 21.578C906.988 21.578 906.55 21.512 906.178 21.38C905.806 21.236 905.494 21.044 905.242 20.804C904.99 20.564 904.804 20.288 904.684 19.976C904.564 19.652 904.504 19.304 904.504 18.932H906.412C906.412 19.352 906.508 19.652 906.7 19.832C906.892 20.012 907.156 20.102 907.492 20.102C907.828 20.102 908.092 20.012 908.284 19.832C908.476 19.652 908.572 19.352 908.572 18.932H910.48C910.48 19.304 910.414 19.652 910.282 19.976C910.162 20.288 909.976 20.564 909.724 20.804C909.484 21.044 909.178 21.236 908.806 21.38C908.434 21.512 907.996 21.578 907.492 21.578ZM903.136 22.658H905.296V29.12L909.76 22.658H911.902V32H909.742V25.556L905.296 32H903.136V22.658ZM919.073 25.142V32H917.129V22.658H920.117L922.565 28.346L925.139 22.658H928.037V32H925.859V25.142L923.159 31.136H921.647L919.073 25.142ZM934.162 32.18C933.502 32.18 932.89 32.072 932.326 31.856C931.762 31.64 931.27 31.328 930.85 30.92C930.442 30.5 930.118 29.99 929.878 29.39C929.638 28.79 929.518 28.1 929.518 27.32C929.518 26.54 929.638 25.85 929.878 25.25C930.118 24.65 930.442 24.146 930.85 23.738C931.27 23.318 931.762 23.006 932.326 22.802C932.89 22.586 933.502 22.478 934.162 22.478C934.822 22.478 935.44 22.586 936.016 22.802C936.592 23.006 937.09 23.318 937.51 23.738C937.93 24.146 938.26 24.65 938.5 25.25C938.74 25.85 938.86 26.54 938.86 27.32C938.86 28.1 938.74 28.79 938.5 29.39C938.26 29.99 937.93 30.5 937.51 30.92C937.09 31.328 936.592 31.64 936.016 31.856C935.44 32.072 934.822 32.18 934.162 32.18ZM934.162 30.398C934.87 30.398 935.452 30.152 935.908 29.66C936.376 29.156 936.61 28.376 936.61 27.32C936.61 26.804 936.544 26.354 936.412 25.97C936.292 25.586 936.124 25.268 935.908 25.016C935.692 24.764 935.434 24.578 935.134 24.458C934.834 24.326 934.51 24.26 934.162 24.26C933.478 24.26 932.908 24.512 932.452 25.016C931.996 25.508 931.768 26.276 931.768 27.32C931.768 28.376 931.996 29.156 932.452 29.66C932.908 30.152 933.478 30.398 934.162 30.398ZM944.611 22.658H946.807V26.492H947.545L950.173 22.658H952.405L949.273 27.158L952.585 32H950.029L947.509 28.238H946.807V32H944.611V28.238H943.909L941.317 32H938.833L942.163 27.23L938.995 22.658H941.299L943.873 26.492H944.611V22.658ZM957.225 24.17C956.601 24.17 956.085 24.35 955.677 24.71C955.281 25.07 955.017 25.61 954.885 26.33H959.187C959.211 25.61 959.043 25.07 958.683 24.71C958.335 24.35 957.849 24.17 957.225 24.17ZM961.113 31.28C961.053 31.328 960.933 31.4 960.753 31.496C960.585 31.592 960.357 31.694 960.069 31.802C959.793 31.898 959.457 31.982 959.061 32.054C958.665 32.138 958.209 32.18 957.693 32.18C955.977 32.18 954.693 31.754 953.841 30.902C953.001 30.05 952.581 28.856 952.581 27.32C952.581 26.564 952.695 25.886 952.923 25.286C953.151 24.686 953.469 24.182 953.877 23.774C954.285 23.354 954.771 23.036 955.335 22.82C955.911 22.592 956.541 22.478 957.225 22.478C957.921 22.478 958.551 22.592 959.115 22.82C959.679 23.048 960.141 23.39 960.501 23.846C960.873 24.302 961.131 24.872 961.275 25.556C961.419 26.24 961.419 27.032 961.275 27.932H954.849C954.933 28.748 955.209 29.36 955.677 29.768C956.157 30.176 956.865 30.38 957.801 30.38C958.185 30.38 958.533 30.35 958.845 30.29C959.169 30.218 959.445 30.14 959.673 30.056C959.913 29.96 960.111 29.87 960.267 29.786C960.435 29.69 960.555 29.612 960.627 29.552L961.113 31.28ZM967.03 24.422V32H964.852V24.422H962.098V22.658H969.838V24.422H967.03ZM973.819 19.112L973.549 28.166H971.821L971.569 19.112H973.819ZM972.685 32.126C972.481 32.126 972.289 32.084 972.109 32C971.929 31.928 971.773 31.826 971.641 31.694C971.509 31.562 971.401 31.412 971.317 31.244C971.245 31.064 971.209 30.878 971.209 30.686C971.209 30.29 971.347 29.954 971.623 29.678C971.911 29.402 972.265 29.264 972.685 29.264C973.105 29.264 973.453 29.402 973.729 29.678C974.005 29.954 974.143 30.29 974.143 30.686C974.143 30.878 974.107 31.064 974.035 31.244C973.963 31.412 973.861 31.562 973.729 31.694C973.597 31.826 973.441 31.928 973.261 32C973.081 32.084 972.889 32.126 972.685 32.126Z" fill="white"/>
<path fill-rule="evenodd" clip-rule="evenodd" d="M1016.96 36C1022.47 36 1026.93 31.299 1026.93 25.5C1026.93 19.701 1022.47 15 1016.96 15C1011.46 15 1007 19.701 1007 25.5C1007 31.299 1011.46 36 1016.96 36ZM1017.43 20.8804H1018.43V31.8105H1020.45V19.2105H1017.43C1014.4 19.2105 1012.82 20.8804 1012.82 23.3093C1012.82 25.2828 1013.68 26.3455 1015.26 27.5599L1012.53 31.8105H1014.83L1017.71 27.1045L1016.71 26.3455C1015.41 25.4346 1014.83 24.6756 1014.83 23.1575C1014.83 21.7913 1015.7 20.8804 1017.43 20.8804Z" fill="white"/>
<path d="M1032.27 17.3594V32.9969H1034.85V19.4744H1039.46V32.9969H1042.05V17.3594H1032.27ZM1046.52 21.6794H1044.17V36.2594H1046.72V31.6694C1047.36 32.6819 1048.3 33.2219 1049.38 33.2219C1051.86 33.2219 1053.57 31.1294 1053.57 27.3269C1053.57 23.5469 1051.9 21.4544 1049.51 21.4544C1048.32 21.4544 1047.33 22.0394 1046.65 23.1419L1046.52 21.6794ZM1048.74 31.1069C1047.4 31.1069 1046.72 29.9594 1046.72 27.3494C1046.72 24.7169 1047.44 23.5694 1048.87 23.5694C1050.26 23.5694 1050.94 24.7169 1050.94 27.3269C1050.94 29.9594 1050.22 31.1069 1048.74 31.1069ZM1063.19 25.2794C1063.19 22.5344 1061.87 21.4994 1059.18 21.4994C1057.49 21.4994 1056.17 22.0619 1055.4 22.5344V24.7619C1056.08 24.2219 1057.58 23.6369 1058.88 23.6369C1060.1 23.6369 1060.65 24.0869 1060.65 25.3019V25.9319H1060.25C1056.36 25.9319 1054.63 27.2819 1054.63 29.5769C1054.63 31.8719 1055.95 33.1544 1057.92 33.1544C1059.41 33.1544 1060.05 32.6369 1060.54 32.0969H1060.65C1060.67 32.3894 1060.76 32.7719 1060.84 32.9969H1063.32C1063.24 32.0744 1063.19 31.1519 1063.19 30.2294V25.2794ZM1060.65 30.2969C1060.33 30.7919 1059.73 31.1969 1058.84 31.1969C1057.77 31.1969 1057.23 30.5219 1057.23 29.5094C1057.23 28.1819 1058.11 27.7094 1060.29 27.7094H1060.65V30.2969ZM1071.53 32.9969H1074.42L1070.34 26.8994L1073.93 21.6794H1071.36L1067.78 26.8994V21.6794H1065.24V32.9969H1067.78V27.4394L1071.53 32.9969ZM1082.83 23.7944V21.6794H1074.31V23.7944H1077.3V32.9969H1079.84V23.7944H1082.83ZM1084.34 21.6794V32.9969H1086.54L1090.46 25.9994V32.9969H1092.94V21.6794H1090.74L1086.81 28.6769V21.6794H1084.34ZM1101.37 32.9969H1104.26L1100.18 26.8994L1103.77 21.6794H1101.2L1097.62 26.8994V21.6794H1095.08V32.9969H1097.62V27.4394L1101.37 32.9969ZM1106.49 36.4844C1108.86 36.4844 1109.74 34.7069 1110.46 32.3894L1113.82 21.6794H1111.36L1108.99 30.1844L1106.62 21.6794H1103.95L1107.65 33.4919C1107.37 34.0319 1106.96 34.3694 1106.26 34.3694C1105.79 34.3694 1105.38 34.2119 1105.1 33.9194V36.1019C1105.1 36.1019 1105.49 36.4844 1106.49 36.4844ZM1123.94 32.9969H1126.42L1126.38 21.6794H1122.9L1120.57 29.2169L1118.48 21.6794H1114.78V32.9969H1116.94V24.5369L1119.27 32.9969H1121.34L1123.94 24.5369V32.9969Z" fill="white"/>
<path d="M1164.63 26.582H1163.69V32H1161.4V19.112H1163.69V24.638H1164.7L1168.8 19.112H1171.23L1166.52 25.448L1171.41 32H1168.71L1164.63 26.582ZM1175.29 30.506C1175.58 30.506 1175.84 30.464 1176.07 30.38C1176.3 30.296 1176.5 30.194 1176.68 30.074C1176.87 29.942 1177.03 29.798 1177.17 29.642C1177.31 29.486 1177.43 29.33 1177.53 29.174V27.752H1176.46C1175.56 27.752 1174.92 27.884 1174.54 28.148C1174.15 28.412 1173.96 28.772 1173.96 29.228C1173.96 29.624 1174.08 29.936 1174.3 30.164C1174.53 30.392 1174.86 30.506 1175.29 30.506ZM1177.76 32C1177.74 31.844 1177.71 31.64 1177.67 31.388C1177.65 31.136 1177.63 30.896 1177.62 30.668C1177.48 30.86 1177.33 31.046 1177.15 31.226C1176.97 31.406 1176.76 31.568 1176.52 31.712C1176.28 31.856 1176 31.97 1175.69 32.054C1175.39 32.138 1175.05 32.18 1174.68 32.18C1174.29 32.18 1173.91 32.12 1173.55 32C1173.2 31.892 1172.89 31.724 1172.63 31.496C1172.37 31.268 1172.16 30.986 1172 30.65C1171.86 30.314 1171.78 29.918 1171.78 29.462C1171.78 28.454 1172.16 27.686 1172.9 27.158C1173.64 26.618 1174.8 26.348 1176.36 26.348H1177.53V25.88C1177.53 25.268 1177.36 24.848 1177.04 24.62C1176.72 24.38 1176.22 24.26 1175.56 24.26C1174.99 24.26 1174.46 24.338 1173.98 24.494C1173.51 24.65 1173.09 24.83 1172.7 25.034L1172.25 23.306C1172.64 23.102 1173.13 22.916 1173.75 22.748C1174.37 22.568 1175.06 22.478 1175.82 22.478C1177.05 22.478 1178.01 22.736 1178.7 23.252C1179.38 23.756 1179.72 24.572 1179.72 25.7V30.488C1179.72 30.596 1179.72 30.722 1179.72 30.866C1179.73 30.998 1179.74 31.136 1179.74 31.28C1179.75 31.424 1179.76 31.562 1179.76 31.694C1179.77 31.814 1179.78 31.916 1179.79 32H1177.76ZM1186.4 22.658H1188.6V26.492H1189.34L1191.96 22.658H1194.2L1191.06 27.158L1194.38 32H1191.82L1189.3 28.238H1188.6V32H1186.4V28.238H1185.7L1183.11 32H1180.62L1183.95 27.23L1180.79 22.658H1183.09L1185.66 26.492H1186.4V22.658ZM1201.45 24.422H1198.68C1198.62 25.874 1198.52 27.068 1198.37 28.004C1198.23 28.928 1198 29.672 1197.69 30.236H1201.45V24.422ZM1203.12 32H1196.63L1196.48 34.664H1194.56V30.236H1195.4C1195.67 29.996 1195.88 29.666 1196.03 29.246C1196.2 28.826 1196.33 28.304 1196.43 27.68C1196.54 27.056 1196.61 26.33 1196.66 25.502C1196.71 24.674 1196.76 23.726 1196.81 22.658H1203.65V30.236H1205.19V34.664H1203.29L1203.12 32ZM1217.09 32H1214.9V22.658H1217.09V32ZM1208.58 27.338V30.308H1209.77C1210.33 30.308 1210.79 30.194 1211.13 29.966C1211.48 29.738 1211.66 29.36 1211.66 28.832C1211.66 28.304 1211.5 27.926 1211.19 27.698C1210.88 27.458 1210.43 27.338 1209.84 27.338H1208.58ZM1206.4 22.658H1208.58V25.646H1209.84C1211.12 25.646 1212.12 25.898 1212.83 26.402C1213.55 26.906 1213.91 27.686 1213.91 28.742C1213.91 29.294 1213.8 29.774 1213.6 30.182C1213.4 30.59 1213.11 30.932 1212.74 31.208C1212.38 31.472 1211.94 31.67 1211.42 31.802C1210.92 31.934 1210.37 32 1209.77 32H1206.4V22.658ZM1223.49 21.578C1222.99 21.578 1222.55 21.512 1222.18 21.38C1221.81 21.236 1221.49 21.044 1221.24 20.804C1220.99 20.564 1220.8 20.288 1220.68 19.976C1220.56 19.652 1220.5 19.304 1220.5 18.932H1222.41C1222.41 19.352 1222.51 19.652 1222.7 19.832C1222.89 20.012 1223.16 20.102 1223.49 20.102C1223.83 20.102 1224.09 20.012 1224.28 19.832C1224.48 19.652 1224.57 19.352 1224.57 18.932H1226.48C1226.48 19.304 1226.41 19.652 1226.28 19.976C1226.16 20.288 1225.98 20.564 1225.72 20.804C1225.48 21.044 1225.18 21.236 1224.81 21.38C1224.43 21.512 1224 21.578 1223.49 21.578ZM1219.14 22.658H1221.3V29.12L1225.76 22.658H1227.9V32H1225.74V25.556L1221.3 32H1219.14V22.658ZM1235.07 25.142V32H1233.13V22.658H1236.12L1238.57 28.346L1241.14 22.658H1244.04V32H1241.86V25.142L1239.16 31.136H1237.65L1235.07 25.142ZM1250.16 32.18C1249.5 32.18 1248.89 32.072 1248.33 31.856C1247.76 31.64 1247.27 31.328 1246.85 30.92C1246.44 30.5 1246.12 29.99 1245.88 29.39C1245.64 28.79 1245.52 28.1 1245.52 27.32C1245.52 26.54 1245.64 25.85 1245.88 25.25C1246.12 24.65 1246.44 24.146 1246.85 23.738C1247.27 23.318 1247.76 23.006 1248.33 22.802C1248.89 22.586 1249.5 22.478 1250.16 22.478C1250.82 22.478 1251.44 22.586 1252.02 22.802C1252.59 23.006 1253.09 23.318 1253.51 23.738C1253.93 24.146 1254.26 24.65 1254.5 25.25C1254.74 25.85 1254.86 26.54 1254.86 27.32C1254.86 28.1 1254.74 28.79 1254.5 29.39C1254.26 29.99 1253.93 30.5 1253.51 30.92C1253.09 31.328 1252.59 31.64 1252.02 31.856C1251.44 32.072 1250.82 32.18 1250.16 32.18ZM1250.16 30.398C1250.87 30.398 1251.45 30.152 1251.91 29.66C1252.38 29.156 1252.61 28.376 1252.61 27.32C1252.61 26.804 1252.54 26.354 1252.41 25.97C1252.29 25.586 1252.12 25.268 1251.91 25.016C1251.69 24.764 1251.43 24.578 1251.13 24.458C1250.83 24.326 1250.51 24.26 1250.16 24.26C1249.48 24.26 1248.91 24.512 1248.45 25.016C1248 25.508 1247.77 26.276 1247.77 27.32C1247.77 28.376 1248 29.156 1248.45 29.66C1248.91 30.152 1249.48 30.398 1250.16 30.398ZM1260.61 22.658H1262.81V26.492H1263.54L1266.17 22.658H1268.4L1265.27 27.158L1268.58 32H1266.03L1263.51 28.238H1262.81V32H1260.61V28.238H1259.91L1257.32 32H1254.83L1258.16 27.23L1254.99 22.658H1257.3L1259.87 26.492H1260.61V22.658ZM1273.22 24.17C1272.6 24.17 1272.08 24.35 1271.68 24.71C1271.28 25.07 1271.02 25.61 1270.88 26.33H1275.19C1275.21 25.61 1275.04 25.07 1274.68 24.71C1274.33 24.35 1273.85 24.17 1273.22 24.17ZM1277.11 31.28C1277.05 31.328 1276.93 31.4 1276.75 31.496C1276.58 31.592 1276.36 31.694 1276.07 31.802C1275.79 31.898 1275.46 31.982 1275.06 32.054C1274.66 32.138 1274.21 32.18 1273.69 32.18C1271.98 32.18 1270.69 31.754 1269.84 30.902C1269 30.05 1268.58 28.856 1268.58 27.32C1268.58 26.564 1268.69 25.886 1268.92 25.286C1269.15 24.686 1269.47 24.182 1269.88 23.774C1270.28 23.354 1270.77 23.036 1271.33 22.82C1271.91 22.592 1272.54 22.478 1273.22 22.478C1273.92 22.478 1274.55 22.592 1275.11 22.82C1275.68 23.048 1276.14 23.39 1276.5 23.846C1276.87 24.302 1277.13 24.872 1277.27 25.556C1277.42 26.24 1277.42 27.032 1277.27 27.932H1270.85C1270.93 28.748 1271.21 29.36 1271.68 29.768C1272.16 30.176 1272.86 30.38 1273.8 30.38C1274.18 30.38 1274.53 30.35 1274.84 30.29C1275.17 30.218 1275.44 30.14 1275.67 30.056C1275.91 29.96 1276.11 29.87 1276.27 29.786C1276.43 29.69 1276.55 29.612 1276.63 29.552L1277.11 31.28ZM1283.03 24.422V32H1280.85V24.422H1278.1V22.658H1285.84V24.422H1283.03ZM1289.82 19.112L1289.55 28.166H1287.82L1287.57 19.112H1289.82ZM1288.69 32.126C1288.48 32.126 1288.29 32.084 1288.11 32C1287.93 31.928 1287.77 31.826 1287.64 31.694C1287.51 31.562 1287.4 31.412 1287.32 31.244C1287.25 31.064 1287.21 30.878 1287.21 30.686C1287.21 30.29 1287.35 29.954 1287.62 29.678C1287.91 29.402 1288.27 29.264 1288.69 29.264C1289.11 29.264 1289.45 29.402 1289.73 29.678C1290.01 29.954 1290.14 30.29 1290.14 30.686C1290.14 30.878 1290.11 31.064 1290.04 31.244C1289.96 31.412 1289.86 31.562 1289.73 31.694C1289.6 31.826 1289.44 31.928 1289.26 32C1289.08 32.084 1288.89 32.126 1288.69 32.126Z" fill="white"/>
<path fill-rule="evenodd" clip-rule="evenodd" d="M1332.96 36C1338.47 36 1342.93 31.299 1342.93 25.5C1342.93 19.701 1338.47 15 1332.96 15C1327.46 15 1323 19.701 1323 25.5C1323 31.299 1327.46 36 1332.96 36ZM1333.43 20.8804H1334.43V31.8105H1336.45V19.2105H1333.43C1330.4 19.2105 1328.82 20.8804 1328.82 23.3093C1328.82 25.2828 1329.68 26.3455 1331.26 27.5599L1328.53 31.8105H1330.83L1333.71 27.1045L1332.71 26.3455C1331.41 25.4346 1330.83 24.6756 1330.83 23.1575C1330.83 21.7913 1331.7 20.8804 1333.43 20.8804Z" fill="white"/>
<path d="M1348.27 17.3594V32.9969H1350.85V19.4744H1355.46V32.9969H1358.05V17.3594H1348.27ZM1362.52 21.6794H1360.17V36.2594H1362.72V31.6694C1363.36 32.6819 1364.3 33.2219 1365.38 33.2219C1367.86 33.2219 1369.57 31.1294 1369.57 27.3269C1369.57 23.5469 1367.9 21.4544 1365.51 21.4544C1364.32 21.4544 1363.33 22.0394 1362.65 23.1419L1362.52 21.6794ZM1364.74 31.1069C1363.4 31.1069 1362.72 29.9594 1362.72 27.3494C1362.72 24.7169 1363.44 23.5694 1364.87 23.5694C1366.26 23.5694 1366.94 24.7169 1366.94 27.3269C1366.94 29.9594 1366.22 31.1069 1364.74 31.1069ZM1379.19 25.2794C1379.19 22.5344 1377.87 21.4994 1375.18 21.4994C1373.49 21.4994 1372.17 22.0619 1371.4 22.5344V24.7619C1372.08 24.2219 1373.58 23.6369 1374.88 23.6369C1376.1 23.6369 1376.65 24.0869 1376.65 25.3019V25.9319H1376.25C1372.36 25.9319 1370.63 27.2819 1370.63 29.5769C1370.63 31.8719 1371.95 33.1544 1373.92 33.1544C1375.41 33.1544 1376.05 32.6369 1376.54 32.0969H1376.65C1376.67 32.3894 1376.76 32.7719 1376.84 32.9969H1379.32C1379.24 32.0744 1379.19 31.1519 1379.19 30.2294V25.2794ZM1376.65 30.2969C1376.33 30.7919 1375.73 31.1969 1374.84 31.1969C1373.77 31.1969 1373.23 30.5219 1373.23 29.5094C1373.23 28.1819 1374.11 27.7094 1376.29 27.7094H1376.65V30.2969ZM1387.53 32.9969H1390.42L1386.34 26.8994L1389.93 21.6794H1387.36L1383.78 26.8994V21.6794H1381.24V32.9969H1383.78V27.4394L1387.53 32.9969ZM1398.83 23.7944V21.6794H1390.31V23.7944H1393.3V32.9969H1395.84V23.7944H1398.83ZM1400.34 21.6794V32.9969H1402.54L1406.46 25.9994V32.9969H1408.94V21.6794H1406.74L1402.81 28.6769V21.6794H1400.34ZM1417.37 32.9969H1420.26L1416.18 26.8994L1419.77 21.6794H1417.2L1413.62 26.8994V21.6794H1411.08V32.9969H1413.62V27.4394L1417.37 32.9969ZM1422.49 36.4844C1424.86 36.4844 1425.74 34.7069 1426.46 32.3894L1429.82 21.6794H1427.36L1424.99 30.1844L1422.62 21.6794H1419.95L1423.65 33.4919C1423.37 34.0319 1422.96 34.3694 1422.26 34.3694C1421.79 34.3694 1421.38 34.2119 1421.1 33.9194V36.1019C1421.1 36.1019 1421.49 36.4844 1422.49 36.4844ZM1439.94 32.9969H1442.42L1442.38 21.6794H1438.9L1436.57 29.2169L1434.48 21.6794H1430.78V32.9969H1432.94V24.5369L1435.27 32.9969H1437.34L1439.94 24.5369V32.9969Z" fill="white"/>
</svg>
