<svg width="62" height="63" viewBox="0 0 62 63" fill="none" xmlns="http://www.w3.org/2000/svg">
<path d="M31 20.2578V55.1328M31 20.2578C32.9375 12.6095 40.2552 8.70427 56.1875 8.63283C56.4422 8.63187 56.6946 8.68133 56.9301 8.77835C57.1656 8.87538 57.3796 9.01806 57.5597 9.19816C57.7398 9.37827 57.8825 9.59224 57.9795 9.82774C58.0765 10.0632 58.126 10.3156 58.125 10.5703V45.4453C58.125 45.9592 57.9209 46.452 57.5575 46.8153C57.1942 47.1787 56.7014 47.3828 56.1875 47.3828C40.6875 47.3828 34.6994 50.5083 31 55.1328C27.3224 50.5313 21.3125 47.3828 5.81251 47.3828C4.61611 47.3828 3.87501 46.408 3.87501 45.2116V10.5703C3.87405 10.3156 3.92351 10.0632 4.02054 9.82774C4.11757 9.59224 4.26025 9.37827 4.44035 9.19816C4.62046 9.01806 4.83443 8.87538 5.06993 8.77835C5.30543 8.68133 5.55781 8.63187 5.81251 8.63283C21.7448 8.70427 29.0625 12.6095 31 20.2578Z" stroke="#1D6BF3" stroke-width="3" stroke-linecap="round" stroke-linejoin="round"/>
</svg>
