<svg width="18" height="13" viewBox="0 0 18 13" fill="none" xmlns="http://www.w3.org/2000/svg">
<path d="M6.12261 10.1698L2.20361 6.25079C2.01608 6.06332 1.76178 5.958 1.49661 5.958C1.23145 5.958 0.97714 6.06332 0.789613 6.25079C0.602141 6.43831 0.496826 6.69262 0.496826 6.95779C0.496826 7.22295 0.602141 7.47726 0.789613 7.66479L4.70861 11.5838C4.89434 11.7696 5.11486 11.917 5.35756 12.0175C5.60026 12.1181 5.8604 12.1699 6.12311 12.1699C6.38582 12.1699 6.64596 12.1181 6.88867 12.0175C7.13137 11.917 7.35189 11.7696 7.53761 11.5838L16.7896 2.33179C16.9771 2.14426 17.0824 1.88995 17.0824 1.62479C17.0824 1.35962 16.9771 1.10531 16.7896 0.917786V0.917786C16.6021 0.730315 16.3478 0.625 16.0826 0.625C15.8174 0.625 15.5631 0.730315 15.3756 0.917786L6.12261 10.1698Z" fill="#1D6BF3"/>
</svg>
