<svg width="100" height="100" viewBox="0 0 100 100" fill="none" xmlns="http://www.w3.org/2000/svg">
<path d="M24.1034 79.4141C23.0617 79.4141 21.9867 79.3016 20.8867 79.0724L21.4992 76.1307C25.8326 77.0307 29.4534 75.7516 32.2576 72.3266C34.4659 69.6307 35.3451 66.5682 35.3534 66.5391L38.2492 67.3474C38.2076 67.4932 37.2242 70.9682 34.6492 74.1516C31.8326 77.6307 28.2284 79.4182 24.1034 79.4182V79.4141Z" fill="#1A1B22"/>
<path d="M16.8369 75.0168L17.5577 72.8418L14.4619 71.8168C13.8619 71.6168 13.2119 71.9418 13.016 72.5418C12.816 73.1418 13.141 73.7918 13.741 73.9876L16.8369 75.0126V75.0168Z" fill="white"/>
<path d="M17.0329 75.4116L13.6412 74.2866C13.2704 74.1657 12.9704 73.9032 12.7954 73.5574C12.6204 73.2116 12.5912 72.8157 12.7162 72.4449C12.9704 71.6824 13.7954 71.2657 14.5579 71.5199L17.9496 72.6449L17.0329 75.4116ZM14.1037 72.0699C13.7537 72.0699 13.4287 72.2907 13.3121 72.6407C13.2412 72.8532 13.2579 73.0782 13.3579 73.2782C13.4579 73.4782 13.6287 73.6241 13.8412 73.6949L16.6371 74.6241L17.1621 73.0449L14.3662 72.1157C14.2787 72.0866 14.1912 72.0741 14.1037 72.0741V72.0699Z" fill="#1A1B22"/>
<path d="M15.3369 79.5324L16.0577 77.3574L12.9619 76.3324C12.3619 76.1324 11.7119 76.4574 11.516 77.0574C11.316 77.6574 11.641 78.3074 12.241 78.5033L15.3369 79.5283V79.5324Z" fill="white"/>
<path d="M15.5329 79.9272L12.1412 78.8022C11.7704 78.6814 11.4704 78.4189 11.2954 78.073C11.1204 77.723 11.0912 77.3314 11.2162 76.9605C11.4704 76.198 12.2954 75.7814 13.0579 76.0355L16.4496 77.1605L15.5287 79.9272H15.5329ZM12.6037 76.5855C12.2537 76.5855 11.9287 76.8064 11.8121 77.1564C11.7412 77.3689 11.7579 77.5939 11.8579 77.7939C11.9579 77.9939 12.1287 78.1397 12.3412 78.2105L15.1371 79.1397L15.6621 77.5605L12.8662 76.6314C12.7787 76.6022 12.6912 76.5897 12.6037 76.5897V76.5855Z" fill="#1A1B22"/>
<path d="M22.7115 78.5635L22.8865 78.0344C23.4532 76.3344 22.5282 74.4969 20.8282 73.9302L17.2199 72.7344L14.999 79.4219L18.6074 80.6177C20.3074 81.1844 22.1449 80.2594 22.7115 78.5594V78.5635Z" fill="white"/>
<path d="M19.6366 81.0984C19.2574 81.0984 18.8824 81.0359 18.5116 80.9151L14.6074 79.6193L17.0241 72.3359L20.9283 73.6318C22.7908 74.2484 23.8033 76.2693 23.1866 78.1318L23.0116 78.6609C22.7116 79.5651 22.0783 80.2943 21.2283 80.7193C20.7241 80.9693 20.1824 81.0984 19.6366 81.0984ZM15.3949 79.2234L18.7074 80.3234C19.4491 80.5693 20.2449 80.5151 20.9449 80.1609C21.6449 79.8109 22.1658 79.2068 22.4158 78.4609L22.5908 77.9318C23.0991 76.3984 22.2658 74.7318 20.7324 74.2234L17.4199 73.1234L15.3949 79.2193V79.2234Z" fill="#1A1B22"/>
<path d="M75.8958 79.4182C71.7708 79.4182 68.1667 77.6307 65.35 74.1516C62.775 70.9682 61.7917 67.4932 61.75 67.3474L64.6458 66.5391C64.6542 66.5682 65.5333 69.6307 67.7417 72.3266C70.5458 75.7516 74.1667 77.0307 78.5 76.1307L79.1125 79.0724C78.0083 79.3016 76.9333 79.4141 75.8958 79.4141V79.4182Z" fill="#1A1B22"/>
<path d="M83.1622 75.0246L82.4414 72.8496L85.5372 71.8246C86.1372 71.6246 86.7872 71.9496 86.9831 72.5496C87.1831 73.1496 86.8581 73.7996 86.2581 73.9955L83.1622 75.0205V75.0246Z" fill="white"/>
<path d="M82.9665 75.4194L82.0498 72.6527L85.4415 71.5277C86.204 71.2736 87.029 71.6902 87.2831 72.4527C87.404 72.8236 87.379 73.2194 87.204 73.5652C87.029 73.9152 86.729 74.1736 86.3581 74.2944L82.9665 75.4194ZM82.8373 73.0486L83.3623 74.6277L86.1581 73.6986C86.3706 73.6277 86.5415 73.4819 86.6415 73.2819C86.7415 73.0819 86.7581 72.8569 86.6873 72.6444C86.5415 72.2069 86.0706 71.9694 85.6331 72.1152L82.8373 73.0444V73.0486Z" fill="#1A1B22"/>
<path d="M84.6622 79.5403L83.9414 77.3653L87.0372 76.3402C87.6372 76.1402 88.2872 76.4653 88.4831 77.0653C88.6831 77.6653 88.3581 78.3153 87.7581 78.5111L84.6622 79.5361V79.5403Z" fill="white"/>
<path d="M84.4667 79.935L83.5459 77.1684L86.9376 76.0434C87.7001 75.7892 88.5251 76.2059 88.7792 76.9684C88.9001 77.3392 88.8751 77.735 88.7001 78.0809C88.5251 78.4267 88.2251 78.6892 87.8542 78.81L84.4626 79.935H84.4667ZM84.3376 77.5642L84.8626 79.1433L87.6584 78.2142C87.8709 78.1433 88.0417 77.9975 88.1417 77.7975C88.2417 77.5975 88.2584 77.3725 88.1876 77.16C88.0417 76.7225 87.5709 76.485 87.1334 76.6308L84.3376 77.56V77.5642Z" fill="#1A1B22"/>
<path d="M77.288 78.5714L77.113 78.0422C76.5464 76.3422 77.4714 74.5047 79.1714 73.938L82.7797 72.7422L85.0005 79.4297L81.3922 80.6255C79.6922 81.1922 77.8547 80.2672 77.288 78.5672V78.5714Z" fill="white"/>
<path d="M80.3626 81.1062C79.8167 81.1062 79.2751 80.9771 78.7709 80.7271C77.9209 80.3021 77.2876 79.5687 76.9876 78.6687L76.8126 78.1396C76.1959 76.2771 77.2084 74.2604 79.0709 73.6396L82.9751 72.3438L85.3917 79.6271L81.4876 80.9229C81.1209 81.0437 80.7417 81.1062 80.3626 81.1062ZM82.5792 73.1354L79.2667 74.2354C77.7334 74.7437 76.8959 76.4063 77.4084 77.9438L77.5834 78.4729C77.8292 79.2188 78.3501 79.8187 79.0542 80.1729C79.7542 80.5229 80.5501 80.5812 81.2917 80.3354L84.6042 79.2354L82.5792 73.1396V73.1354Z" fill="#1A1B22"/>
<path d="M63.812 63.5625C62.2412 63.5625 60.7412 63.3542 59.3662 62.9917L60.137 60.0875C66.037 61.65 74.0204 59.8042 78.737 49.9375L81.4495 51.2333C77.062 60.4167 69.937 63.5625 63.812 63.5625Z" fill="#1A1B22"/>
<path d="M80.7619 45.8761L78.6494 44.9844L79.9161 41.9803C80.1619 41.3969 80.8327 41.1261 81.4161 41.3719C81.9994 41.6178 82.2703 42.2886 82.0244 42.8719L80.7578 45.8761H80.7619Z" fill="white"/>
<path d="M80.9287 46.2838L78.2412 45.1505L79.6287 41.8588C79.9412 41.1171 80.7995 40.7713 81.537 41.0838C82.2787 41.3963 82.6245 42.2546 82.3162 42.9921L80.9287 46.2838ZM79.062 44.8171L80.5954 45.463L81.7412 42.7463C81.9204 42.3255 81.7204 41.8338 81.2954 41.6546C80.8745 41.4755 80.3829 41.6755 80.2037 42.0963L79.0579 44.813L79.062 44.8171Z" fill="#1A1B22"/>
<path d="M85.1447 47.7277L83.0322 46.836L84.2989 43.8318C84.5447 43.2485 85.2156 42.9777 85.7989 43.2235C86.3822 43.4693 86.6531 44.1402 86.4072 44.7235L85.1406 47.7277H85.1447Z" fill="white"/>
<path d="M85.3115 48.1353L82.624 47.002L84.0115 43.7104C84.324 42.9687 85.1824 42.6229 85.9199 42.9354C86.2782 43.0854 86.5574 43.3687 86.7032 43.7312C86.849 44.0937 86.849 44.4895 86.6949 44.8479L85.3074 48.1395L85.3115 48.1353ZM83.4449 46.6687L84.9782 47.3145L86.124 44.5979C86.2115 44.3937 86.2115 44.1645 86.1282 43.9604C86.0449 43.7562 85.8865 43.5937 85.6824 43.5062C85.4782 43.4187 85.249 43.4187 85.0449 43.502C84.8407 43.5854 84.6782 43.7437 84.5907 43.9479L83.4449 46.6645V46.6687Z" fill="#1A1B22"/>
<path d="M79.5537 52.6312L79.0412 52.4146C77.3912 51.7187 76.6162 49.8146 77.312 48.1604L78.7912 44.6562L85.287 47.3937L83.8079 50.8979C83.112 52.5479 81.2079 53.3229 79.5537 52.6271V52.6312Z" fill="white"/>
<path d="M80.8119 53.2C80.3494 53.2 79.8828 53.1083 79.4328 52.9208L78.9203 52.7042C78.0453 52.3333 77.3661 51.6458 77.0078 50.7667C76.6494 49.8875 76.6578 48.9208 77.0244 48.0417L78.6244 44.25L85.6953 47.2333L84.0953 51.025C83.5203 52.3833 82.1994 53.2 80.8119 53.2ZM79.6744 52.3458C81.1661 52.975 82.8869 52.275 83.5161 50.7833L84.8744 47.5667L78.9578 45.0708L77.6036 48.2875C77.2994 49.0083 77.2953 49.8083 77.5869 50.5333C77.8828 51.2583 78.4411 51.825 79.1661 52.1292L79.6786 52.3458H79.6744Z" fill="#1A1B22"/>
<path d="M36.3787 63.5625C30.2537 63.5625 23.1329 60.4167 18.7412 51.2333L21.4537 49.9375C26.1704 59.8042 34.1537 61.65 40.0537 60.0875L40.8245 62.9917C39.4495 63.3542 37.9454 63.5625 36.3787 63.5625Z" fill="#1A1B22"/>
<path d="M19.4294 45.8761L21.5419 44.9844L20.2752 41.9803C20.0294 41.3969 19.3585 41.1261 18.7752 41.3719C18.1919 41.6178 17.921 42.2886 18.1669 42.8719L19.4335 45.8761H19.4294Z" fill="white"/>
<path d="M19.2624 46.2874L17.8749 42.9957C17.7249 42.6374 17.7208 42.2415 17.8666 41.879C18.0124 41.5165 18.2916 41.2374 18.6499 41.0832C19.3916 40.7707 20.2458 41.1207 20.5583 41.8582L21.9458 45.1499L19.2583 46.2832L19.2624 46.2874ZM19.2166 41.5957C19.1083 41.5957 18.9999 41.6165 18.8958 41.6624C18.6916 41.7499 18.5333 41.9082 18.4499 42.1165C18.3666 42.3249 18.3666 42.5499 18.4499 42.754L19.5958 45.4707L21.1291 44.8249L19.9833 42.1082C19.8499 41.7915 19.5374 41.5999 19.2166 41.5999V41.5957Z" fill="#1A1B22"/>
<path d="M15.0456 47.7277L17.1581 46.836L15.8914 43.8318C15.6456 43.2485 14.9747 42.9777 14.3914 43.2235C13.8081 43.4693 13.5372 44.1402 13.7831 44.7235L15.0497 47.7277H15.0456Z" fill="white"/>
<path d="M14.8789 48.1348L13.4914 44.8431C13.1789 44.1014 13.5289 43.2473 14.2664 42.9348C15.0081 42.6223 15.8622 42.9723 16.1747 43.7098L17.5622 47.0014L14.8747 48.1348H14.8789ZM14.8331 43.4431C14.7247 43.4431 14.6164 43.4639 14.5081 43.5098C14.3039 43.5973 14.1456 43.7556 14.0622 43.9639C13.9789 44.1723 13.9789 44.3973 14.0664 44.6014L15.2122 47.3181L16.7456 46.6723L15.5997 43.9556C15.4664 43.6389 15.1581 43.4473 14.8331 43.4473V43.4431Z" fill="#1A1B22"/>
<path d="M20.6367 52.6391L21.1492 52.4224C22.7992 51.7266 23.5742 49.8224 22.8783 48.1682L21.3992 44.6641L14.9033 47.4016L16.3825 50.9057C17.0783 52.5557 18.9825 53.3307 20.6367 52.6349V52.6391Z" fill="white"/>
<path d="M19.3784 53.2078C17.9909 53.2078 16.6701 52.3911 16.0951 51.0328L14.4951 47.2411L21.5659 44.2578L23.1659 48.0495C23.9284 49.8578 23.0785 51.9495 21.2701 52.712L20.7576 52.9286C20.3076 53.1203 19.8409 53.2078 19.3784 53.2078ZM15.3159 47.5745L16.6743 50.7911C17.3035 52.2828 19.0243 52.9828 20.516 52.3536L21.0285 52.137C22.5201 51.5078 23.2201 49.7828 22.591 48.2953L21.2368 45.0786L15.3201 47.5745H15.3159Z" fill="#1A1B22"/>
<path d="M71.9914 39.7406C75.1256 39.7406 77.6664 37.1998 77.6664 34.0656C77.6664 30.9314 75.1256 28.3906 71.9914 28.3906C68.8572 28.3906 66.3164 30.9314 66.3164 34.0656C66.3164 37.1998 68.8572 39.7406 71.9914 39.7406Z" fill="#1D6BF3"/>
<path d="M27.8371 39.7406C30.9713 39.7406 33.5121 37.1998 33.5121 34.0656C33.5121 30.9314 30.9713 28.3906 27.8371 28.3906C24.7029 28.3906 22.1621 30.9314 22.1621 34.0656C22.1621 37.1998 24.7029 39.7406 27.8371 39.7406Z" fill="#1D6BF3"/>
<path d="M49.9623 84.6281C42.5957 84.6281 36.454 77.1948 35.8123 71.199L32.4582 53.3406C32.1873 51.9073 33.2873 50.5781 34.7498 50.5781H65.179C66.6373 50.5781 67.7415 51.9031 67.4706 53.3406L64.1165 71.199C63.4748 77.1906 57.3332 84.6281 49.9665 84.6281H49.9623Z" fill="white"/>
<path d="M49.9621 84.9443C42.6412 84.9443 36.1787 77.5776 35.4995 71.2359L32.1496 53.4026C32.0037 52.6276 32.2079 51.8359 32.7121 51.2276C33.2162 50.6193 33.9579 50.2734 34.7454 50.2734H65.1746C65.9621 50.2734 66.7037 50.6234 67.2079 51.2276C67.7121 51.8359 67.9162 52.6276 67.7704 53.4026L64.4162 71.2609C63.7412 77.5734 57.2746 84.9443 49.9579 84.9443H49.9621ZM34.7454 50.8984C34.1412 50.8984 33.5746 51.1651 33.1912 51.6276C32.8079 52.0901 32.6495 52.6984 32.762 53.2901L36.1162 71.1484C36.7704 77.2526 42.9579 84.3234 49.9579 84.3234C56.9579 84.3234 63.1496 77.2568 63.7996 71.1734L67.1579 53.2901C67.2704 52.6984 67.112 52.0943 66.7287 51.6276C66.3454 51.1651 65.7787 50.8984 65.1746 50.8984H34.7454Z" fill="#1A1B22"/>
<path d="M49.9622 55.4224C59.733 55.4224 67.6538 53.8535 67.6538 51.9182C67.6538 49.9829 59.733 48.4141 49.9622 48.4141C40.1913 48.4141 32.2705 49.9829 32.2705 51.9182C32.2705 53.8535 40.1913 55.4224 49.9622 55.4224Z" fill="#1A1B22"/>
<path d="M49.9624 51.1833C62.5913 51.1833 72.829 43.1674 72.829 33.2792C72.829 23.391 62.5913 15.375 49.9624 15.375C37.3335 15.375 27.0957 23.391 27.0957 33.2792C27.0957 43.1674 37.3335 51.1833 49.9624 51.1833Z" fill="white"/>
<path d="M49.9624 51.4922C37.179 51.4922 26.7832 43.3172 26.7832 33.2714C26.7832 23.2255 37.1832 15.0547 49.9624 15.0547C62.7415 15.0547 73.1415 23.2297 73.1415 33.2714C73.1415 43.313 62.7415 51.4922 49.9624 51.4922ZM49.9624 15.6797C37.5249 15.6797 27.4082 23.5714 27.4082 33.2714C27.4082 42.9714 37.5249 50.8672 49.9624 50.8672C62.3999 50.8672 72.5165 42.9755 72.5165 33.2714C72.5165 23.5672 62.3999 15.6797 49.9624 15.6797Z" fill="#1A1B22"/>
<path d="M49.9626 46.0823C58.9947 46.0823 66.3167 42.0099 66.3167 36.9865C66.3167 31.963 58.9947 27.8906 49.9626 27.8906C40.9304 27.8906 33.6084 31.963 33.6084 36.9865C33.6084 42.0099 40.9304 46.0823 49.9626 46.0823Z" fill="#1A1B22"/>
<path d="M39.1126 38.9068C39.9433 38.9068 40.6167 38.2333 40.6167 37.4026C40.6167 36.5719 39.9433 35.8984 39.1126 35.8984C38.2818 35.8984 37.6084 36.5719 37.6084 37.4026C37.6084 38.2333 38.2818 38.9068 39.1126 38.9068Z" fill="white"/>
<path d="M61.3079 38.9068C62.1386 38.9068 62.812 38.2333 62.812 37.4026C62.812 36.5719 62.1386 35.8984 61.3079 35.8984C60.4771 35.8984 59.8037 36.5719 59.8037 37.4026C59.8037 38.2333 60.4771 38.9068 61.3079 38.9068Z" fill="white"/>
</svg>
