<svg width="25" height="25" viewBox="0 0 25 25" fill="none" xmlns="http://www.w3.org/2000/svg">
<g clip-path="url(#clip0_5315_37858)">
<path d="M22.6983 9.14442H21.1856V7.63163C21.1856 6.70711 20.4335 5.95495 19.509 5.95495H17.9962V4.4423C17.9962 3.51473 17.2437 2.76562 16.3196 2.76562H2.05167C1.12945 2.76567 0.375 3.51239 0.375 4.4423V14.3485C0.375 15.273 1.12716 16.0252 2.05167 16.0252H3.56437V17.538C3.56437 18.4625 4.31653 19.2146 5.24105 19.2146H6.75375V20.7273C6.75375 21.6519 7.50591 22.404 8.43042 22.404H22.6984C23.6229 22.404 24.375 21.6519 24.375 20.7273V10.8211C24.375 9.89658 23.6228 9.14442 22.6983 9.14442ZM15.1093 4.43995L9.18563 10.2453L3.26208 4.44009L15.1093 4.43995ZM2.04942 14.3485L2.04975 5.59641L8.59964 12.0154C8.92519 12.3345 9.44616 12.3344 9.77161 12.0154L16.3215 5.59636L16.3197 14.3507L2.04942 14.3485ZM5.2388 17.5379V16.0252H16.3197C17.2442 16.0252 17.9963 15.2731 17.9963 14.3485V7.62966L19.5112 7.63013C19.5112 7.63013 19.5112 7.63064 19.5112 7.63167L19.509 17.5401L5.2388 17.5379ZM22.6983 20.7295L8.42817 20.7272V19.2145H19.509C20.4336 19.2145 21.1857 18.4624 21.1857 17.5379V10.8191L22.7006 10.8195C22.7006 10.8195 22.7007 10.82 22.7007 10.8211L22.6983 20.7295Z" fill="black"/>
</g>
<defs>
<clipPath id="clip0_5315_37858">
<rect width="24" height="24" fill="white" transform="translate(0.375 0.585938)"/>
</clipPath>
</defs>
</svg>
