<svg width="645" height="646" viewBox="0 0 645 646" fill="none" xmlns="http://www.w3.org/2000/svg">
<path d="M358.718 209.629C358.718 209.629 384.456 202.12 397.919 192.749C402.506 189.546 408.915 191.618 410.821 196.87C416.045 211.285 420.787 234.316 402.221 242.762" fill="white"/>
<path d="M402.646 244.346C401.884 244.55 401.059 244.181 400.722 243.432C400.341 242.604 400.719 241.641 401.547 241.26C418.293 233.642 414.999 213.219 409.273 197.44C408.542 195.39 406.927 193.849 404.848 193.203C402.79 192.552 400.611 192.886 398.85 194.107C385.33 203.516 360.239 210.897 359.191 211.223L359.149 211.234C358.281 211.467 357.395 210.955 357.147 210.114C356.915 209.246 357.394 208.324 358.256 208.07C358.51 208.002 383.892 200.52 396.971 191.411C399.572 189.602 402.796 189.102 405.848 190.076C408.9 191.051 411.277 193.318 412.359 196.341C421.102 220.5 417.747 237.532 402.9 244.278C402.815 244.301 402.731 244.323 402.646 244.346Z" fill="#1A1B22"/>
<path d="M528.742 365.896C540.915 411.326 473.699 472.856 377.355 498.671C281.011 524.487 192.036 504.808 179.863 459.378C167.69 413.947 235.921 356.207 332.265 330.392C428.609 304.577 516.575 320.486 528.742 365.896Z" fill="#1A1B22"/>
<path d="M248.931 239.046C248.931 239.046 222.887 245.412 206.542 244.028C200.968 243.548 196.454 248.547 197.429 254.049C200.112 269.144 207.521 291.46 227.823 289.492" fill="white"/>
<path d="M228.27 291.073C228.27 291.073 228.1 291.119 228.016 291.141C211.785 292.722 200.364 279.65 195.855 254.357C195.287 251.219 196.206 248.045 198.362 245.675C200.502 243.332 203.56 242.127 206.717 242.393C222.598 243.742 248.315 237.509 248.575 237.462C249.443 237.23 250.34 237.783 250.557 238.678C250.789 239.546 250.251 240.416 249.383 240.649L249.341 240.66C248.277 240.923 222.835 247.082 206.437 245.667C204.302 245.49 202.248 246.29 200.791 247.883C199.335 249.476 198.712 251.64 199.078 253.765C202.03 270.287 209.367 289.626 227.679 287.851C228.586 287.767 229.379 288.439 229.479 289.32C229.562 290.137 229.032 290.869 228.27 291.073Z" fill="#1A1B22"/>
<path d="M434.96 327.261C437.504 316.006 437.473 304.374 434.427 293.006C430.053 276.684 420.068 263.046 406.433 252.972C394.201 243.906 383.082 232.977 373.814 220.235C354.995 194.374 324.499 180.99 295.305 188.813C266.112 196.635 246.393 223.474 243.026 255.279C241.371 270.948 237.206 285.973 231.146 299.94C224.38 315.503 222.552 332.307 226.92 348.607C229.971 359.997 243.309 378.613 243.309 378.613C227.056 405.091 213.811 421.709 226.766 456.085C227.617 458.33 229.343 460.114 231.575 460.991C246.494 466.795 307.578 486.958 370.664 470.054C433.75 453.15 476.396 405.352 486.54 392.741C488.087 390.806 488.709 388.302 488.216 385.87C480.506 348.797 434.96 327.261 434.96 327.261Z" fill="white"/>
<path d="M371.089 471.644C305.378 489.251 242.842 467.14 230.962 462.518C228.329 461.499 226.236 459.36 225.218 456.66C212.997 424.176 223.562 407.209 238.191 383.731C239.221 382.07 240.266 380.384 241.327 378.67C238.598 374.75 228.072 359.26 225.326 349.013C221.004 332.882 222.495 315.669 229.625 299.26C235.828 284.982 239.783 270.105 241.386 255.086C244.937 221.597 265.935 194.96 294.874 187.205C323.813 179.451 355.322 192.042 375.137 219.247C384.04 231.474 394.877 242.365 407.409 251.623C421.788 262.269 431.686 276.43 436.009 292.561C438.953 303.548 439.223 314.889 436.821 326.333C444.248 330.083 482.632 350.974 489.8 385.516C490.396 388.419 489.681 391.424 487.785 393.748C479.802 403.669 436.689 454.044 371.062 471.628L371.089 471.644ZM295.725 190.381C268.098 197.783 248.055 223.325 244.656 255.435C243.032 270.799 238.976 285.977 232.656 300.581C225.818 316.299 224.399 332.766 228.528 348.178C231.467 359.144 244.524 377.473 244.665 377.662L245.291 378.561L244.722 379.485C243.46 381.547 242.223 383.535 241.001 385.496C226.864 408.185 216.645 424.582 228.298 455.54C228.988 457.352 230.4 458.811 232.171 459.494C243.875 464.05 305.512 485.857 370.25 468.511C434.987 451.164 477.39 401.525 485.253 391.749C486.513 390.186 486.995 388.174 486.59 386.24C479.146 350.411 434.697 328.989 434.236 328.795L433.041 328.23L433.334 326.95C435.896 315.599 435.739 304.341 432.829 293.481C428.699 278.07 419.243 264.539 405.456 254.324C392.665 244.864 381.579 233.721 372.491 221.227C353.487 195.098 323.363 183.021 295.736 190.423L295.725 190.381Z" fill="#1A1B22"/>
<path d="M271.633 303.615C275.725 302.518 278.154 298.312 277.057 294.22C275.961 290.128 271.755 287.699 267.662 288.796C263.57 289.892 261.142 294.099 262.238 298.191C263.335 302.283 267.541 304.711 271.633 303.615Z" fill="#1A1B22"/>
<path d="M375.101 274.576C379.193 273.479 381.621 269.273 380.525 265.181C379.428 261.089 375.222 258.66 371.13 259.757C367.038 260.853 364.61 265.06 365.706 269.152C366.803 273.244 371.009 275.672 375.101 274.576Z" fill="#1A1B22"/>
<path d="M339.367 323.703L348.329 307.869C352.321 300.833 345.859 292.467 338.047 294.56L313.384 301.169C305.572 303.262 304.159 313.737 311.134 317.836L326.813 327.067C331.205 329.657 336.858 328.142 339.367 323.703Z" fill="#1A1B22"/>
<path d="M332.776 332.297L317.089 336.5L323.692 361.142L339.378 356.938L332.776 332.297Z" fill="white"/>
<path d="M341.391 358.099L322.529 363.153L315.075 335.336L333.938 330.282L341.391 358.099ZM324.853 359.127L337.365 355.774L331.613 334.308L319.102 337.661L324.853 359.127Z" fill="#1A1B22"/>
<path d="M353.288 326.797L337.602 331L344.204 355.642L359.891 351.438L353.288 326.797Z" fill="white"/>
<path d="M361.905 352.599L343.042 357.653L335.589 329.836L354.451 324.782L361.905 352.599ZM345.367 353.627L357.878 350.274L352.127 328.808L339.615 332.161L345.367 353.627Z" fill="#1A1B22"/>
<path d="M288.68 344.451C288.68 344.451 325.547 368.062 333.179 328.125L288.68 344.451Z" fill="white"/>
<path d="M316.997 352.25C303.618 355.835 288.492 346.296 287.804 345.845C287.036 345.348 286.811 344.342 287.309 343.573C287.806 342.804 288.812 342.58 289.581 343.078C289.748 343.192 306.233 353.568 318.594 348.214C325.165 345.387 329.542 338.519 331.6 327.825C331.771 326.94 332.633 326.346 333.518 326.517C334.404 326.688 334.998 327.55 334.827 328.436C332.575 340.27 327.552 347.947 319.905 351.244C318.97 351.653 317.992 351.983 317.019 352.244L316.997 352.25Z" fill="#1A1B22"/>
<path d="M382.037 319.435C382.037 319.435 361.915 358.317 335.337 327.547L382.037 319.435Z" fill="white"/>
<path d="M361.411 340.343C360.437 340.604 359.446 340.801 358.433 340.914C350.161 341.882 341.979 337.767 334.106 328.622C333.515 327.941 333.598 326.898 334.28 326.307C334.961 325.716 336.004 325.799 336.595 326.481C343.703 334.718 350.928 338.478 358.053 337.635C371.408 336.076 380.497 318.847 380.59 318.686C381.006 317.871 381.99 317.562 382.805 317.979C383.62 318.396 383.929 319.379 383.512 320.194C383.136 320.908 374.812 336.752 361.432 340.337L361.411 340.343Z" fill="#1A1B22"/>
<path d="M272.848 439.997L277.143 440.08C293.512 440.397 306.534 453.933 306.216 470.302L306.072 477.752C305.956 483.734 300.997 488.505 295.015 488.389L253.096 487.577C247.114 487.461 242.344 482.502 242.46 476.52L242.604 469.07C242.921 452.701 256.458 439.679 272.826 439.996L272.848 439.997Z" fill="white"/>
<path d="M298.489 489.624C297.367 489.925 296.178 490.062 294.992 490.039L253.07 489.224C246.183 489.095 240.68 483.377 240.809 476.49L240.95 469.056C241.271 451.794 255.595 438.017 272.863 438.359L277.149 438.436C285.52 438.598 293.307 442.003 299.097 448.03C304.887 454.057 308.008 461.979 307.84 470.328L307.699 477.763C307.638 481.092 306.271 484.204 303.875 486.525C302.343 488.002 300.489 489.043 298.456 489.588L298.489 489.624ZM265.034 442.59C253.285 445.738 244.516 456.37 244.258 469.122L244.117 476.557C244.073 479.019 244.99 481.338 246.694 483.127C248.393 484.896 250.686 485.915 253.148 485.959L295.07 486.774C297.533 486.817 299.851 485.901 301.641 484.196C303.409 482.497 304.428 480.205 304.472 477.743L304.613 470.308C304.763 462.825 301.981 455.743 296.792 450.349C291.602 444.955 284.613 441.904 277.131 441.754L272.844 441.677C270.154 441.627 267.544 441.963 265.067 442.627L265.034 442.59Z" fill="#1A1B22"/>
<path d="M263.434 489.369C263.286 489.409 263.138 489.449 262.972 489.425C262.058 489.398 261.338 488.66 261.365 487.746L261.707 470.137C261.734 469.223 262.472 468.503 263.386 468.53C264.301 468.557 265.021 469.295 264.994 470.21L264.652 487.818C264.649 488.568 264.133 489.182 263.434 489.369Z" fill="#1A1B22"/>
<path d="M284.967 489.799C284.819 489.839 284.671 489.879 284.506 489.855C283.591 489.828 282.871 489.09 282.898 488.175L283.24 470.567C283.246 469.658 284.01 468.954 284.92 468.96C285.834 468.987 286.554 469.725 286.527 470.64L286.185 488.248C286.182 488.997 285.666 489.612 284.967 489.799Z" fill="#1A1B22"/>
<path d="M432.789 396.669L436.356 394.276C449.951 385.154 468.38 388.783 477.502 402.378L481.654 408.566C484.987 413.534 483.658 420.286 478.689 423.619L443.873 446.979C438.905 450.313 432.154 448.984 428.82 444.015L424.668 437.827C415.546 424.232 419.175 405.803 432.771 396.681L432.789 396.669Z" fill="white"/>
<path d="M441.067 450.059C436.05 451.404 430.505 449.509 427.446 444.951L423.291 438.758C418.639 431.813 416.946 423.463 418.563 415.27C420.174 407.056 424.903 399.98 431.848 395.329L435.407 392.946C442.351 388.294 450.701 386.601 458.894 388.218C467.088 389.834 474.185 394.558 478.836 401.503L482.991 407.695C484.846 410.466 485.513 413.804 484.866 417.063C484.225 420.343 482.348 423.161 479.556 425.021L444.744 448.371C443.572 449.161 442.316 449.725 441.025 450.071L441.067 450.059ZM445.638 391.838C442.695 392.626 439.862 393.907 437.265 395.647L433.706 398.03C427.492 402.191 423.271 408.54 421.832 415.869C420.398 423.219 421.895 430.669 426.061 436.904L430.216 443.097C433.046 447.307 438.775 448.45 442.986 445.62L477.798 422.27C479.838 420.906 481.227 418.809 481.697 416.415C482.162 413.998 481.685 411.54 480.3 409.506L476.145 403.313C471.984 397.099 465.634 392.878 458.305 391.439C454.044 390.606 449.729 390.764 445.665 391.853L445.638 391.838Z" fill="#1A1B22"/>
<path d="M452.534 443.065C451.878 443.241 451.15 442.982 450.742 442.388L440.926 427.774C440.43 427.022 440.631 425.993 441.382 425.496C442.134 425 443.164 425.2 443.66 425.952L453.475 440.567C453.972 441.318 453.771 442.348 453.019 442.844C452.867 442.953 452.703 443.02 452.534 443.065Z" fill="#1A1B22"/>
<path d="M470.402 431.081C469.746 431.257 469.018 430.998 468.61 430.404L458.795 415.79C458.298 415.038 458.499 414.008 459.251 413.512C460.003 413.015 461.032 413.216 461.528 413.968L471.344 428.582C471.84 429.334 471.639 430.363 470.887 430.86C470.735 430.969 470.571 431.035 470.402 431.081Z" fill="#1A1B22"/>
<path d="M305.604 227.083C343.216 217.005 371.937 202.228 369.753 194.079C367.57 185.93 335.309 187.494 297.696 197.572C260.084 207.65 231.363 222.427 233.546 230.576C235.73 238.725 267.991 237.161 305.604 227.083Z" fill="#1D6BF3"/>
<path d="M288.201 162.128C312.695 155.564 331.399 145.941 329.976 140.633C328.554 135.325 307.544 136.342 283.05 142.905C258.556 149.469 239.852 159.092 241.275 164.4C242.697 169.708 263.706 168.691 288.201 162.128Z" fill="#1D6BF3"/>
<path d="M337.204 199.283L264.337 218.807L240.745 164.547L330.505 140.496L337.204 199.283Z" fill="#1D6BF3"/>
<path d="M351.964 403.232C310.323 414.39 272.05 398.575 271.483 398.318C270.642 397.976 270.264 396.988 270.612 396.169C270.954 395.329 271.915 394.935 272.761 395.298C273.607 395.662 357.357 430.218 410.45 358.405C410.985 357.694 412.003 357.512 412.741 358.063C413.473 358.593 413.618 359.643 413.082 360.354C394.78 385.112 372.938 397.59 351.958 403.211L351.964 403.232Z" fill="#1A1B22"/>
<path d="M239.98 271.345C214.47 278.18 198.05 248.909 197.88 248.614L200.767 247.023C200.91 247.303 216.138 274.33 239.15 268.164C239.51 268.068 239.87 267.971 240.23 267.875L241.207 271.016C240.805 271.124 240.387 271.259 239.985 271.366L239.98 271.345Z" fill="#1A1B22"/>
<path d="M383.829 232.802C383.427 232.91 383.024 233.017 382.595 233.11L381.871 229.9C382.231 229.804 382.591 229.707 382.951 229.611C405.942 223.451 404.633 192.739 404.617 192.426L407.905 192.248C407.926 192.583 409.327 225.924 383.817 232.759L383.829 232.802Z" fill="#1A1B22"/>
</svg>
