<svg width="1010" height="468" viewBox="0 0 1010 468" fill="none" xmlns="http://www.w3.org/2000/svg">
<rect x="347" y="167" width="168" height="52" rx="8" fill="#FFCE92"/>
<path d="M369.512 183.512H359.56V203H355.496V180.088H373.576V203H369.512V183.512ZM385.407 203.32C384.234 203.32 383.146 203.128 382.143 202.744C381.141 202.36 380.266 201.805 379.519 201.08C378.794 200.333 378.218 199.427 377.791 198.36C377.365 197.293 377.151 196.067 377.151 194.68C377.151 193.293 377.365 192.067 377.791 191C378.218 189.933 378.794 189.037 379.519 188.312C380.266 187.565 381.141 187.011 382.143 186.648C383.146 186.264 384.234 186.072 385.407 186.072C386.581 186.072 387.679 186.264 388.703 186.648C389.727 187.011 390.613 187.565 391.359 188.312C392.106 189.037 392.693 189.933 393.119 191C393.546 192.067 393.759 193.293 393.759 194.68C393.759 196.067 393.546 197.293 393.119 198.36C392.693 199.427 392.106 200.333 391.359 201.08C390.613 201.805 389.727 202.36 388.703 202.744C387.679 203.128 386.581 203.32 385.407 203.32ZM385.407 200.152C386.666 200.152 387.701 199.715 388.511 198.84C389.343 197.944 389.759 196.557 389.759 194.68C389.759 193.763 389.642 192.963 389.407 192.28C389.194 191.597 388.895 191.032 388.511 190.584C388.127 190.136 387.669 189.805 387.135 189.592C386.602 189.357 386.026 189.24 385.407 189.24C384.191 189.24 383.178 189.688 382.367 190.584C381.557 191.459 381.151 192.824 381.151 194.68C381.151 196.557 381.557 197.944 382.367 198.84C383.178 199.715 384.191 200.152 385.407 200.152ZM400.444 190.808V203H396.988V186.392H402.3L406.652 196.504L411.228 186.392H416.38V203H412.508V190.808L407.708 201.464H405.02L400.444 190.808ZM427.907 203.32C426.734 203.32 425.646 203.128 424.643 202.744C423.641 202.36 422.766 201.805 422.019 201.08C421.294 200.333 420.718 199.427 420.291 198.36C419.865 197.293 419.651 196.067 419.651 194.68C419.651 193.293 419.865 192.067 420.291 191C420.718 189.933 421.294 189.037 422.019 188.312C422.766 187.565 423.641 187.011 424.643 186.648C425.646 186.264 426.734 186.072 427.907 186.072C429.081 186.072 430.179 186.264 431.203 186.648C432.227 187.011 433.113 187.565 433.859 188.312C434.606 189.037 435.193 189.933 435.619 191C436.046 192.067 436.259 193.293 436.259 194.68C436.259 196.067 436.046 197.293 435.619 198.36C435.193 199.427 434.606 200.333 433.859 201.08C433.113 201.805 432.227 202.36 431.203 202.744C430.179 203.128 429.081 203.32 427.907 203.32ZM427.907 200.152C429.166 200.152 430.201 199.715 431.011 198.84C431.843 197.944 432.259 196.557 432.259 194.68C432.259 193.763 432.142 192.963 431.907 192.28C431.694 191.597 431.395 191.032 431.011 190.584C430.627 190.136 430.169 189.805 429.635 189.592C429.102 189.357 428.526 189.24 427.907 189.24C426.691 189.24 425.678 189.688 424.867 190.584C424.057 191.459 423.651 192.824 423.651 194.68C423.651 196.557 424.057 197.944 424.867 198.84C425.678 199.715 426.691 200.152 427.907 200.152ZM443.36 189.528V203H439.488V186.392H450.176V189.528H443.36ZM458.269 200.344C458.781 200.344 459.239 200.269 459.645 200.12C460.05 199.971 460.413 199.789 460.733 199.576C461.074 199.341 461.362 199.085 461.597 198.808C461.853 198.531 462.066 198.253 462.237 197.976V195.448H460.349C458.749 195.448 457.607 195.683 456.925 196.152C456.242 196.621 455.901 197.261 455.901 198.072C455.901 198.776 456.103 199.331 456.509 199.736C456.914 200.141 457.501 200.344 458.269 200.344ZM462.653 203C462.61 202.723 462.557 202.36 462.493 201.912C462.45 201.464 462.418 201.037 462.397 200.632C462.162 200.973 461.885 201.304 461.565 201.624C461.245 201.944 460.871 202.232 460.445 202.488C460.018 202.744 459.527 202.947 458.973 203.096C458.439 203.245 457.842 203.32 457.181 203.32C456.477 203.32 455.805 203.213 455.165 203C454.546 202.808 454.002 202.509 453.533 202.104C453.063 201.699 452.69 201.197 452.413 200.6C452.157 200.003 452.029 199.299 452.029 198.488C452.029 196.696 452.69 195.331 454.013 194.392C455.335 193.432 457.383 192.952 460.157 192.952H462.237V192.12C462.237 191.032 461.949 190.285 461.373 189.88C460.797 189.453 459.922 189.24 458.749 189.24C457.725 189.24 456.786 189.379 455.933 189.656C455.101 189.933 454.343 190.253 453.661 190.616L452.861 187.544C453.543 187.181 454.429 186.851 455.516 186.552C456.626 186.232 457.853 186.072 459.197 186.072C461.394 186.072 463.101 186.531 464.317 187.448C465.533 188.344 466.141 189.795 466.141 191.8V200.312C466.141 200.504 466.141 200.728 466.141 200.984C466.162 201.219 466.173 201.464 466.173 201.72C466.194 201.976 466.205 202.221 466.205 202.456C466.226 202.669 466.247 202.851 466.269 203H462.653ZM477.439 189.08C476.329 189.08 475.412 189.4 474.687 190.04C473.983 190.68 473.513 191.64 473.279 192.92H480.927C480.969 191.64 480.671 190.68 480.031 190.04C479.412 189.4 478.548 189.08 477.439 189.08ZM484.351 201.72C484.244 201.805 484.031 201.933 483.711 202.104C483.412 202.275 483.007 202.456 482.495 202.648C482.004 202.819 481.407 202.968 480.703 203.096C479.999 203.245 479.188 203.32 478.271 203.32C475.22 203.32 472.937 202.563 471.423 201.048C469.929 199.533 469.183 197.411 469.183 194.68C469.183 193.336 469.385 192.131 469.791 191.064C470.196 189.997 470.761 189.101 471.487 188.376C472.212 187.629 473.076 187.064 474.079 186.68C475.103 186.275 476.223 186.072 477.439 186.072C478.676 186.072 479.796 186.275 480.799 186.68C481.801 187.085 482.623 187.693 483.263 188.504C483.924 189.315 484.383 190.328 484.639 191.544C484.895 192.76 484.895 194.168 484.639 195.768H473.215C473.364 197.219 473.855 198.307 474.687 199.032C475.54 199.757 476.799 200.12 478.463 200.12C479.145 200.12 479.764 200.067 480.319 199.96C480.895 199.832 481.385 199.693 481.791 199.544C482.217 199.373 482.569 199.213 482.847 199.064C483.145 198.893 483.359 198.755 483.487 198.648L484.351 201.72ZM491.6 190.808V203H488.144V186.392H493.456L497.808 196.504L502.384 186.392H507.536V203H503.664V190.808L498.864 201.464H496.176L491.6 190.808Z" fill="#1A1B22"/>
<path d="M525.921 203.32C524.598 203.32 523.393 203.128 522.305 202.744C521.217 202.36 520.289 201.805 519.521 201.08C518.753 200.333 518.155 199.427 517.729 198.36C517.302 197.293 517.089 196.077 517.089 194.712C517.089 193.368 517.302 192.163 517.729 191.096C518.155 190.008 518.753 189.101 519.521 188.376C520.289 187.629 521.206 187.064 522.273 186.68C523.339 186.275 524.502 186.072 525.761 186.072C526.913 186.072 527.915 186.2 528.769 186.456C529.643 186.691 530.347 187 530.881 187.384L530.081 190.392C529.526 190.072 528.918 189.805 528.257 189.592C527.617 189.357 526.817 189.24 525.857 189.24C524.385 189.24 523.222 189.699 522.369 190.616C521.515 191.512 521.089 192.877 521.089 194.712C521.089 196.483 521.526 197.827 522.401 198.744C523.275 199.661 524.491 200.12 526.049 200.12C526.923 200.12 527.67 200.013 528.289 199.8C528.907 199.587 529.494 199.32 530.049 199L530.849 202.008C530.294 202.371 529.622 202.68 528.833 202.936C528.043 203.192 527.073 203.32 525.921 203.32ZM541.854 189.528V203H537.982V189.528H533.086V186.392H546.846V189.528H541.854ZM552.569 208.984C552.078 208.984 551.587 208.941 551.097 208.856C550.606 208.792 550.211 208.696 549.913 208.568L550.393 205.432C550.627 205.517 550.905 205.592 551.225 205.656C551.545 205.72 551.918 205.752 552.345 205.752C553.006 205.752 553.561 205.603 554.009 205.304C554.457 205.027 554.851 204.589 555.193 203.992L548.729 186.392H552.857L557.209 199.064L561.529 186.392H565.177L559.385 202.808C559.022 203.811 558.638 204.696 558.233 205.464C557.827 206.232 557.358 206.872 556.825 207.384C556.291 207.917 555.673 208.312 554.969 208.568C554.286 208.845 553.486 208.984 552.569 208.984ZM577.045 189.528H572.117C572.01 192.109 571.829 194.232 571.573 195.896C571.317 197.539 570.911 198.861 570.357 199.864H577.045V189.528ZM580.021 203H568.469L568.213 207.736H564.789V199.864H566.293C566.762 199.437 567.135 198.851 567.413 198.104C567.711 197.357 567.946 196.429 568.117 195.32C568.309 194.211 568.447 192.92 568.533 191.448C568.618 189.976 568.703 188.291 568.789 186.392H580.949V199.864H583.701V207.736H580.309L580.021 203ZM593.314 189.08C592.204 189.08 591.287 189.4 590.562 190.04C589.858 190.68 589.388 191.64 589.154 192.92H596.802C596.844 191.64 596.546 190.68 595.906 190.04C595.287 189.4 594.423 189.08 593.314 189.08ZM600.226 201.72C600.119 201.805 599.906 201.933 599.586 202.104C599.287 202.275 598.882 202.456 598.37 202.648C597.879 202.819 597.282 202.968 596.578 203.096C595.874 203.245 595.063 203.32 594.146 203.32C591.095 203.32 588.812 202.563 587.298 201.048C585.804 199.533 585.058 197.411 585.058 194.68C585.058 193.336 585.26 192.131 585.666 191.064C586.071 189.997 586.636 189.101 587.362 188.376C588.087 187.629 588.951 187.064 589.954 186.68C590.978 186.275 592.098 186.072 593.314 186.072C594.551 186.072 595.671 186.275 596.674 186.68C597.676 187.085 598.498 187.693 599.138 188.504C599.799 189.315 600.258 190.328 600.514 191.544C600.77 192.76 600.77 194.168 600.514 195.768H589.09C589.239 197.219 589.73 198.307 590.562 199.032C591.415 199.757 592.674 200.12 594.338 200.12C595.02 200.12 595.639 200.067 596.194 199.96C596.77 199.832 597.26 199.693 597.666 199.544C598.092 199.373 598.444 199.213 598.722 199.064C599.02 198.893 599.234 198.755 599.362 198.648L600.226 201.72ZM614.835 196.056H607.891V203H604.019V186.392H607.891V192.92H614.835V186.392H618.739V203H614.835V196.056ZM630.604 189.528V203H626.732V189.528H621.836V186.392H635.596V189.528H630.604ZM643.644 200.344C644.156 200.344 644.614 200.269 645.02 200.12C645.425 199.971 645.788 199.789 646.108 199.576C646.449 199.341 646.737 199.085 646.972 198.808C647.228 198.531 647.441 198.253 647.612 197.976V195.448H645.724C644.124 195.448 642.982 195.683 642.3 196.152C641.617 196.621 641.276 197.261 641.276 198.072C641.276 198.776 641.478 199.331 641.884 199.736C642.289 200.141 642.876 200.344 643.644 200.344ZM648.028 203C647.985 202.723 647.932 202.36 647.868 201.912C647.825 201.464 647.793 201.037 647.772 200.632C647.537 200.973 647.26 201.304 646.94 201.624C646.62 201.944 646.246 202.232 645.82 202.488C645.393 202.744 644.902 202.947 644.348 203.096C643.814 203.245 643.217 203.32 642.556 203.32C641.852 203.32 641.18 203.213 640.54 203C639.921 202.808 639.377 202.509 638.908 202.104C638.438 201.699 638.065 201.197 637.788 200.6C637.532 200.003 637.404 199.299 637.404 198.488C637.404 196.696 638.065 195.331 639.388 194.392C640.71 193.432 642.758 192.952 645.532 192.952H647.612V192.12C647.612 191.032 647.324 190.285 646.748 189.88C646.172 189.453 645.297 189.24 644.124 189.24C643.1 189.24 642.161 189.379 641.308 189.656C640.476 189.933 639.718 190.253 639.036 190.616L638.236 187.544C638.918 187.181 639.804 186.851 640.891 186.552C642.001 186.232 643.228 186.072 644.572 186.072C646.769 186.072 648.476 186.531 649.692 187.448C650.908 188.344 651.516 189.795 651.516 191.8V200.312C651.516 200.504 651.516 200.728 651.516 200.984C651.537 201.219 651.548 201.464 651.548 201.72C651.569 201.976 651.58 202.221 651.58 202.456C651.601 202.669 651.622 202.851 651.644 203H648.028ZM659.038 190.808V203H655.582V186.392H660.894L665.246 196.504L669.822 186.392H674.974V203H671.102V190.808L666.302 201.464H663.614L659.038 190.808Z" fill="white"/>
<path d="M332.892 254.28C331.529 254.28 330.251 254.056 329.056 253.608C327.88 253.16 326.853 252.507 325.976 251.648C325.099 250.771 324.408 249.697 323.904 248.428C323.4 247.14 323.148 245.656 323.148 243.976C323.148 242.296 323.4 240.821 323.904 239.552C324.408 238.264 325.099 237.191 325.976 236.332C326.853 235.455 327.88 234.792 329.056 234.344C330.251 233.896 331.529 233.672 332.892 233.672C334.273 233.672 335.552 233.896 336.728 234.344C337.923 234.773 338.959 235.417 339.836 236.276C340.713 237.116 341.404 238.18 341.908 239.468C342.412 240.737 342.664 242.212 342.664 243.892C342.664 245.572 342.412 247.056 341.908 248.344C341.404 249.632 340.713 250.715 339.836 251.592C338.959 252.469 337.923 253.141 336.728 253.608C335.552 254.056 334.273 254.28 332.892 254.28ZM332.892 251.256C333.751 251.256 334.553 251.125 335.3 250.864C336.047 250.603 336.681 250.183 337.204 249.604C337.745 249.025 338.165 248.279 338.464 247.364C338.781 246.431 338.94 245.301 338.94 243.976C338.94 242.651 338.781 241.521 338.464 240.588C338.165 239.655 337.745 238.899 337.204 238.32C336.681 237.741 336.047 237.321 335.3 237.06C334.553 236.799 333.751 236.668 332.892 236.668C332.033 236.668 331.24 236.799 330.512 237.06C329.784 237.321 329.149 237.741 328.608 238.32C328.067 238.899 327.637 239.655 327.32 240.588C327.021 241.521 326.872 242.651 326.872 243.976C326.872 245.301 327.021 246.431 327.32 247.364C327.637 248.279 328.067 249.025 328.608 249.604C329.149 250.183 329.784 250.603 330.512 250.864C331.24 251.125 332.033 251.256 332.892 251.256ZM352.976 251.48C354.096 251.48 355.002 251.088 355.692 250.304C356.402 249.501 356.756 248.307 356.756 246.72C356.756 245.133 356.402 243.948 355.692 243.164C355.002 242.361 354.096 241.96 352.976 241.96C352.416 241.96 351.894 242.063 351.408 242.268C350.942 242.455 350.531 242.744 350.176 243.136C349.84 243.528 349.57 244.023 349.364 244.62C349.159 245.217 349.056 245.917 349.056 246.72C349.056 247.523 349.159 248.223 349.364 248.82C349.57 249.417 349.84 249.912 350.176 250.304C350.531 250.696 350.942 250.995 351.408 251.2C351.894 251.387 352.416 251.48 352.976 251.48ZM353.816 254.28C352.715 254.28 351.772 254.037 350.988 253.552C350.204 253.048 349.57 252.376 349.084 251.536V258.956H345.696V239.468H348.832L349.028 241.988C349.514 241.129 350.148 240.448 350.932 239.944C351.735 239.44 352.715 239.188 353.872 239.188C354.731 239.188 355.543 239.347 356.308 239.664C357.092 239.963 357.774 240.429 358.352 241.064C358.931 241.68 359.388 242.464 359.724 243.416C360.079 244.349 360.256 245.451 360.256 246.72C360.256 248.008 360.079 249.128 359.724 250.08C359.388 251.013 358.922 251.797 358.324 252.432C357.746 253.048 357.064 253.515 356.28 253.832C355.496 254.131 354.675 254.28 353.816 254.28ZM366.53 242.212V254H363.142V239.468H372.494V242.212H366.53ZM379.575 251.676C380.023 251.676 380.424 251.611 380.779 251.48C381.133 251.349 381.451 251.191 381.731 251.004C382.029 250.799 382.281 250.575 382.487 250.332C382.711 250.089 382.897 249.847 383.047 249.604V247.392H381.395C379.995 247.392 378.996 247.597 378.399 248.008C377.801 248.419 377.503 248.979 377.503 249.688C377.503 250.304 377.68 250.789 378.035 251.144C378.389 251.499 378.903 251.676 379.575 251.676ZM383.411 254C383.373 253.757 383.327 253.44 383.271 253.048C383.233 252.656 383.205 252.283 383.187 251.928C382.981 252.227 382.739 252.516 382.459 252.796C382.179 253.076 381.852 253.328 381.479 253.552C381.105 253.776 380.676 253.953 380.191 254.084C379.724 254.215 379.201 254.28 378.623 254.28C378.007 254.28 377.419 254.187 376.859 254C376.317 253.832 375.841 253.571 375.431 253.216C375.02 252.861 374.693 252.423 374.451 251.9C374.227 251.377 374.115 250.761 374.115 250.052C374.115 248.484 374.693 247.289 375.851 246.468C377.008 245.628 378.8 245.208 381.227 245.208H383.047V244.48C383.047 243.528 382.795 242.875 382.291 242.52C381.787 242.147 381.021 241.96 379.995 241.96C379.099 241.96 378.277 242.081 377.531 242.324C376.803 242.567 376.14 242.847 375.543 243.164L374.843 240.476C375.44 240.159 376.215 239.869 377.167 239.608C378.137 239.328 379.211 239.188 380.387 239.188C382.309 239.188 383.803 239.589 384.867 240.392C385.931 241.176 386.463 242.445 386.463 244.2V251.648C386.463 251.816 386.463 252.012 386.463 252.236C386.481 252.441 386.491 252.656 386.491 252.88C386.509 253.104 386.519 253.319 386.519 253.524C386.537 253.711 386.556 253.869 386.575 254H383.411ZM399.485 247.924H393.409V254H390.021V239.468H393.409V245.18H399.485V239.468H402.901V254H399.485V247.924ZM406.618 239.468H409.978V249.52L416.922 239.468H420.254V254H416.894V243.976L409.978 254H406.618V239.468ZM428.013 254.28C426.725 254.28 425.67 254.159 424.849 253.916C424.046 253.655 423.439 253.375 423.029 253.076L423.981 250.444C424.429 250.724 424.979 250.985 425.633 251.228C426.286 251.452 427.042 251.564 427.901 251.564C428.778 251.564 429.487 251.415 430.029 251.116C430.589 250.817 430.869 250.332 430.869 249.66C430.869 249.007 430.635 248.54 430.169 248.26C429.702 247.98 428.965 247.84 427.957 247.84H425.885V245.292H428.013C428.797 245.292 429.394 245.161 429.805 244.9C430.215 244.62 430.421 244.181 430.421 243.584C430.421 242.949 430.178 242.511 429.693 242.268C429.207 242.025 428.61 241.904 427.901 241.904C427.117 241.904 426.407 242.016 425.773 242.24C425.138 242.445 424.578 242.697 424.093 242.996L423.421 240.392C423.887 240.112 424.522 239.841 425.325 239.58C426.146 239.319 427.098 239.188 428.181 239.188C429.991 239.188 431.363 239.515 432.297 240.168C433.249 240.821 433.725 241.773 433.725 243.024C433.725 243.976 433.454 244.713 432.913 245.236C432.371 245.759 431.587 246.141 430.561 246.384C431.811 246.552 432.735 246.907 433.333 247.448C433.949 247.989 434.257 248.783 434.257 249.828C434.257 250.593 434.089 251.256 433.753 251.816C433.417 252.376 432.959 252.843 432.381 253.216C431.821 253.571 431.158 253.832 430.393 254C429.646 254.187 428.853 254.28 428.013 254.28ZM443.626 254.28C442.599 254.28 441.647 254.112 440.77 253.776C439.893 253.44 439.127 252.955 438.474 252.32C437.839 251.667 437.335 250.873 436.962 249.94C436.589 249.007 436.402 247.933 436.402 246.72C436.402 245.507 436.589 244.433 436.962 243.5C437.335 242.567 437.839 241.783 438.474 241.148C439.127 240.495 439.893 240.009 440.77 239.692C441.647 239.356 442.599 239.188 443.626 239.188C444.653 239.188 445.614 239.356 446.51 239.692C447.406 240.009 448.181 240.495 448.834 241.148C449.487 241.783 450.001 242.567 450.374 243.5C450.747 244.433 450.934 245.507 450.934 246.72C450.934 247.933 450.747 249.007 450.374 249.94C450.001 250.873 449.487 251.667 448.834 252.32C448.181 252.955 447.406 253.44 446.51 253.776C445.614 254.112 444.653 254.28 443.626 254.28ZM443.626 251.508C444.727 251.508 445.633 251.125 446.342 250.36C447.07 249.576 447.434 248.363 447.434 246.72C447.434 245.917 447.331 245.217 447.126 244.62C446.939 244.023 446.678 243.528 446.342 243.136C446.006 242.744 445.605 242.455 445.138 242.268C444.671 242.063 444.167 241.96 443.626 241.96C442.562 241.96 441.675 242.352 440.966 243.136C440.257 243.901 439.902 245.096 439.902 246.72C439.902 248.363 440.257 249.576 440.966 250.36C441.675 251.125 442.562 251.508 443.626 251.508ZM457.119 241.988V245.376H459.331C460.096 245.376 460.712 245.236 461.179 244.956C461.645 244.676 461.879 244.256 461.879 243.696C461.879 243.043 461.673 242.595 461.263 242.352C460.871 242.109 460.292 241.988 459.527 241.988H457.119ZM457.119 247.728V251.48H459.471C460.329 251.48 461.02 251.349 461.543 251.088C462.084 250.827 462.355 250.341 462.355 249.632C462.355 248.96 462.112 248.475 461.627 248.176C461.16 247.877 460.404 247.728 459.359 247.728H457.119ZM453.759 239.468H459.723C461.608 239.468 462.999 239.767 463.895 240.364C464.809 240.943 465.267 241.848 465.267 243.08C465.267 243.976 465.015 244.685 464.511 245.208C464.007 245.731 463.251 246.113 462.243 246.356C463.456 246.561 464.352 246.944 464.931 247.504C465.528 248.045 465.827 248.829 465.827 249.856C465.827 251.275 465.267 252.32 464.147 252.992C463.027 253.664 461.533 254 459.667 254H453.759V239.468ZM473.528 251.676C473.976 251.676 474.377 251.611 474.732 251.48C475.087 251.349 475.404 251.191 475.684 251.004C475.983 250.799 476.235 250.575 476.44 250.332C476.664 250.089 476.851 249.847 477 249.604V247.392H475.348C473.948 247.392 472.949 247.597 472.352 248.008C471.755 248.419 471.456 248.979 471.456 249.688C471.456 250.304 471.633 250.789 471.988 251.144C472.343 251.499 472.856 251.676 473.528 251.676ZM477.364 254C477.327 253.757 477.28 253.44 477.224 253.048C477.187 252.656 477.159 252.283 477.14 251.928C476.935 252.227 476.692 252.516 476.412 252.796C476.132 253.076 475.805 253.328 475.432 253.552C475.059 253.776 474.629 253.953 474.144 254.084C473.677 254.215 473.155 254.28 472.576 254.28C471.96 254.28 471.372 254.187 470.812 254C470.271 253.832 469.795 253.571 469.384 253.216C468.973 252.861 468.647 252.423 468.404 251.9C468.18 251.377 468.068 250.761 468.068 250.052C468.068 248.484 468.647 247.289 469.804 246.468C470.961 245.628 472.753 245.208 475.18 245.208H477V244.48C477 243.528 476.748 242.875 476.244 242.52C475.74 242.147 474.975 241.96 473.948 241.96C473.052 241.96 472.231 242.081 471.484 242.324C470.756 242.567 470.093 242.847 469.496 243.164L468.796 240.476C469.393 240.159 470.168 239.869 471.12 239.608C472.091 239.328 473.164 239.188 474.34 239.188C476.263 239.188 477.756 239.589 478.82 240.392C479.884 241.176 480.416 242.445 480.416 244.2V251.648C480.416 251.816 480.416 252.012 480.416 252.236C480.435 252.441 480.444 252.656 480.444 252.88C480.463 253.104 480.472 253.319 480.472 253.524C480.491 253.711 480.509 253.869 480.528 254H477.364ZM490.364 242.212V254H486.976V242.212H482.692V239.468H494.732V242.212H490.364ZM500.841 246.748V251.368H502.885C503.763 251.368 504.472 251.191 505.013 250.836C505.555 250.481 505.825 249.893 505.825 249.072C505.825 248.251 505.583 247.663 505.097 247.308C504.612 246.935 503.912 246.748 502.997 246.748H500.841ZM497.425 239.468H500.841V244.116H502.997C504.995 244.116 506.544 244.508 507.645 245.292C508.765 246.076 509.325 247.289 509.325 248.932C509.325 249.791 509.167 250.537 508.849 251.172C508.532 251.807 508.084 252.339 507.505 252.768C506.945 253.179 506.264 253.487 505.461 253.692C504.677 253.897 503.819 254 502.885 254H497.425V239.468ZM526.598 242.212H520.83V254H517.442V239.468H529.986V254H526.598V242.212ZM540.067 254.28C539.041 254.28 538.089 254.112 537.211 253.776C536.334 253.44 535.569 252.955 534.915 252.32C534.281 251.667 533.777 250.873 533.403 249.94C533.03 249.007 532.843 247.933 532.843 246.72C532.843 245.507 533.03 244.433 533.403 243.5C533.777 242.567 534.281 241.783 534.915 241.148C535.569 240.495 536.334 240.009 537.211 239.692C538.089 239.356 539.041 239.188 540.067 239.188C541.094 239.188 542.055 239.356 542.951 239.692C543.847 240.009 544.622 240.495 545.275 241.148C545.929 241.783 546.442 242.567 546.815 243.5C547.189 244.433 547.375 245.507 547.375 246.72C547.375 247.933 547.189 249.007 546.815 249.94C546.442 250.873 545.929 251.667 545.275 252.32C544.622 252.955 543.847 253.44 542.951 253.776C542.055 254.112 541.094 254.28 540.067 254.28ZM540.067 251.508C541.169 251.508 542.074 251.125 542.783 250.36C543.511 249.576 543.875 248.363 543.875 246.72C543.875 245.917 543.773 245.217 543.567 244.62C543.381 244.023 543.119 243.528 542.783 243.136C542.447 242.744 542.046 242.455 541.579 242.268C541.113 242.063 540.609 241.96 540.067 241.96C539.003 241.96 538.117 242.352 537.407 243.136C536.698 243.901 536.343 245.096 536.343 246.72C536.343 248.363 536.698 249.576 537.407 250.36C538.117 251.125 539.003 251.508 540.067 251.508ZM550.2 239.468H553.56V249.52L560.504 239.468H563.836V254H560.476V243.976L553.56 254H550.2V239.468ZM574.423 254.28C573.266 254.28 572.211 254.112 571.259 253.776C570.307 253.44 569.495 252.955 568.823 252.32C568.151 251.667 567.628 250.873 567.255 249.94C566.882 249.007 566.695 247.943 566.695 246.748C566.695 245.572 566.882 244.517 567.255 243.584C567.628 242.632 568.151 241.839 568.823 241.204C569.495 240.551 570.298 240.056 571.231 239.72C572.164 239.365 573.182 239.188 574.283 239.188C575.291 239.188 576.168 239.3 576.915 239.524C577.68 239.729 578.296 240 578.763 240.336L578.063 242.968C577.578 242.688 577.046 242.455 576.467 242.268C575.907 242.063 575.207 241.96 574.367 241.96C573.079 241.96 572.062 242.361 571.315 243.164C570.568 243.948 570.195 245.143 570.195 246.748C570.195 248.297 570.578 249.473 571.343 250.276C572.108 251.079 573.172 251.48 574.535 251.48C575.3 251.48 575.954 251.387 576.495 251.2C577.036 251.013 577.55 250.78 578.035 250.5L578.735 253.132C578.25 253.449 577.662 253.72 576.971 253.944C576.28 254.168 575.431 254.28 574.423 254.28ZM586.348 248.148H585.088V254H581.7V239.468H585.088V245.432H586.432L590.968 239.468H594.496L589.092 246.44L594.776 254H590.744L586.348 248.148ZM609.679 251.48C610.799 251.48 611.705 251.088 612.395 250.304C613.105 249.501 613.459 248.307 613.459 246.72C613.459 245.133 613.105 243.948 612.395 243.164C611.705 242.361 610.799 241.96 609.679 241.96C609.119 241.96 608.597 242.063 608.111 242.268C607.645 242.455 607.234 242.744 606.879 243.136C606.543 243.528 606.273 244.023 606.067 244.62C605.862 245.217 605.759 245.917 605.759 246.72C605.759 247.523 605.862 248.223 606.067 248.82C606.273 249.417 606.543 249.912 606.879 250.304C607.234 250.696 607.645 250.995 608.111 251.2C608.597 251.387 609.119 251.48 609.679 251.48ZM610.519 254.28C609.418 254.28 608.475 254.037 607.691 253.552C606.907 253.048 606.273 252.376 605.787 251.536V258.956H602.399V239.468H605.535L605.731 241.988C606.217 241.129 606.851 240.448 607.635 239.944C608.438 239.44 609.418 239.188 610.575 239.188C611.434 239.188 612.246 239.347 613.011 239.664C613.795 239.963 614.477 240.429 615.055 241.064C615.634 241.68 616.091 242.464 616.427 243.416C616.782 244.349 616.959 245.451 616.959 246.72C616.959 248.008 616.782 249.128 616.427 250.08C616.091 251.013 615.625 251.797 615.027 252.432C614.449 253.048 613.767 253.515 612.983 253.832C612.199 254.131 611.378 254.28 610.519 254.28ZM624.356 251.676C624.804 251.676 625.205 251.611 625.56 251.48C625.915 251.349 626.232 251.191 626.512 251.004C626.811 250.799 627.063 250.575 627.268 250.332C627.492 250.089 627.679 249.847 627.828 249.604V247.392H626.176C624.776 247.392 623.777 247.597 623.18 248.008C622.583 248.419 622.284 248.979 622.284 249.688C622.284 250.304 622.461 250.789 622.816 251.144C623.171 251.499 623.684 251.676 624.356 251.676ZM628.192 254C628.155 253.757 628.108 253.44 628.052 253.048C628.015 252.656 627.987 252.283 627.968 251.928C627.763 252.227 627.52 252.516 627.24 252.796C626.96 253.076 626.633 253.328 626.26 253.552C625.887 253.776 625.457 253.953 624.972 254.084C624.505 254.215 623.983 254.28 623.404 254.28C622.788 254.28 622.2 254.187 621.64 254C621.099 253.832 620.623 253.571 620.212 253.216C619.801 252.861 619.475 252.423 619.232 251.9C619.008 251.377 618.896 250.761 618.896 250.052C618.896 248.484 619.475 247.289 620.632 246.468C621.789 245.628 623.581 245.208 626.008 245.208H627.828V244.48C627.828 243.528 627.576 242.875 627.072 242.52C626.568 242.147 625.803 241.96 624.776 241.96C623.88 241.96 623.059 242.081 622.312 242.324C621.584 242.567 620.921 242.847 620.324 243.164L619.624 240.476C620.221 240.159 620.996 239.869 621.948 239.608C622.919 239.328 623.992 239.188 625.168 239.188C627.091 239.188 628.584 239.589 629.648 240.392C630.712 241.176 631.244 242.445 631.244 244.2V251.648C631.244 251.816 631.244 252.012 631.244 252.236C631.263 252.441 631.272 252.656 631.272 252.88C631.291 253.104 631.3 253.319 631.3 253.524C631.319 253.711 631.337 253.869 631.356 254H628.192ZM641.634 254.28C640.551 254.28 639.552 254.103 638.638 253.748C637.742 253.393 636.958 252.852 636.286 252.124C635.632 251.396 635.119 250.481 634.746 249.38C634.391 248.279 634.214 246.991 634.214 245.516C634.214 244.191 634.27 242.987 634.382 241.904C634.494 240.821 634.68 239.851 634.942 238.992C635.222 238.133 635.586 237.377 636.034 236.724C636.5 236.071 637.088 235.511 637.798 235.044C638.656 234.503 639.562 234.139 640.514 233.952C641.466 233.765 642.455 233.653 643.482 233.616C644.396 233.56 645.162 233.476 645.778 233.364C646.394 233.252 646.907 233.093 647.318 232.888L647.794 235.856C647.402 236.117 646.907 236.304 646.31 236.416C645.712 236.509 644.844 236.593 643.706 236.668C642.772 236.724 641.932 236.808 641.186 236.92C640.439 237.032 639.767 237.293 639.17 237.704C638.46 238.189 637.938 238.88 637.602 239.776C637.266 240.672 637.051 241.764 636.958 243.052C637.835 240.719 639.636 239.552 642.362 239.552C643.22 239.552 644.032 239.72 644.798 240.056C645.563 240.373 646.235 240.84 646.814 241.456C647.392 242.072 647.85 242.828 648.186 243.724C648.54 244.62 648.718 245.637 648.718 246.776C648.718 247.989 648.531 249.063 648.158 249.996C647.803 250.929 647.308 251.713 646.674 252.348C646.039 252.983 645.283 253.468 644.406 253.804C643.547 254.121 642.623 254.28 641.634 254.28ZM641.522 251.48C642.586 251.48 643.463 251.107 644.154 250.36C644.863 249.595 645.218 248.419 645.218 246.832C645.218 246.048 645.124 245.376 644.938 244.816C644.751 244.237 644.49 243.761 644.154 243.388C643.818 242.996 643.416 242.707 642.95 242.52C642.483 242.333 641.979 242.24 641.438 242.24C640.355 242.24 639.459 242.613 638.75 243.36C638.04 244.107 637.686 245.255 637.686 246.804C637.686 248.409 638.05 249.595 638.778 250.36C639.506 251.107 640.42 251.48 641.522 251.48ZM657.919 254.28C656.892 254.28 655.94 254.112 655.063 253.776C654.186 253.44 653.42 252.955 652.767 252.32C652.132 251.667 651.628 250.873 651.255 249.94C650.882 249.007 650.695 247.933 650.695 246.72C650.695 245.507 650.882 244.433 651.255 243.5C651.628 242.567 652.132 241.783 652.767 241.148C653.42 240.495 654.186 240.009 655.063 239.692C655.94 239.356 656.892 239.188 657.919 239.188C658.946 239.188 659.907 239.356 660.803 239.692C661.699 240.009 662.474 240.495 663.127 241.148C663.78 241.783 664.294 242.567 664.667 243.5C665.04 244.433 665.227 245.507 665.227 246.72C665.227 247.933 665.04 249.007 664.667 249.94C664.294 250.873 663.78 251.667 663.127 252.32C662.474 252.955 661.699 253.44 660.803 253.776C659.907 254.112 658.946 254.28 657.919 254.28ZM657.919 251.508C659.02 251.508 659.926 251.125 660.635 250.36C661.363 249.576 661.727 248.363 661.727 246.72C661.727 245.917 661.624 245.217 661.419 244.62C661.232 244.023 660.971 243.528 660.635 243.136C660.299 242.744 659.898 242.455 659.431 242.268C658.964 242.063 658.46 241.96 657.919 241.96C656.855 241.96 655.968 242.352 655.259 243.136C654.55 243.901 654.195 245.096 654.195 246.72C654.195 248.363 654.55 249.576 655.259 250.36C655.968 251.125 656.855 251.508 657.919 251.508ZM674.36 242.212V254H670.972V242.212H666.688V239.468H678.728V242.212H674.36ZM698.11 254H694.694V239.468H698.11V254ZM684.866 246.748V251.368H686.714C687.591 251.368 688.3 251.191 688.842 250.836C689.383 250.481 689.654 249.893 689.654 249.072C689.654 248.251 689.411 247.663 688.926 247.308C688.44 246.935 687.74 246.748 686.826 246.748H684.866ZM681.478 239.468H684.866V244.116H686.826C688.823 244.116 690.372 244.508 691.474 245.292C692.594 246.076 693.154 247.289 693.154 248.932C693.154 249.791 692.995 250.537 692.678 251.172C692.36 251.807 691.912 252.339 691.334 252.768C690.774 253.179 690.092 253.487 689.29 253.692C688.506 253.897 687.647 254 686.714 254H681.478V239.468ZM705.293 232.832V257.36H702.549V232.832H705.293Z" fill="white"/>
<path d="M834.5 216C834.5 231.956 825.699 247.219 809.643 261.164C793.588 275.108 770.328 287.688 741.541 298.262C683.972 319.41 604.408 332.5 516.5 332.5C428.592 332.5 349.028 319.41 291.459 298.262C262.672 287.688 239.412 275.108 223.357 261.164C207.301 247.219 198.5 231.956 198.5 216C198.5 200.044 207.301 184.781 223.357 170.836C239.412 156.892 262.672 144.312 291.459 133.738C349.028 112.59 428.592 99.5 516.5 99.5C604.408 99.5 683.972 112.59 741.541 133.738C770.328 144.312 793.588 156.892 809.643 170.836C825.699 184.781 834.5 200.044 834.5 216Z" stroke="#B5B5B7"/>
<path d="M914.512 263.051C912.083 286.161 898.991 307.083 877.313 325.131C855.632 343.181 825.387 358.333 788.728 369.885C715.412 392.988 616.535 401.664 509.481 390.412C402.427 379.16 307.514 350.116 240.603 312.274C207.147 293.353 180.713 272.245 163.259 250.081C145.807 227.921 137.351 204.733 139.78 181.624C142.209 158.515 155.301 137.592 176.979 119.544C198.66 101.494 228.905 86.3423 265.564 74.7904C338.88 51.6873 437.757 43.0115 544.811 54.2634C651.865 65.5152 746.778 94.5592 813.689 132.401C847.145 151.322 873.579 172.43 891.033 194.594C908.485 216.755 916.941 239.942 914.512 263.051Z" stroke="#B5B5B7"/>
<path d="M1008.72 190.403C1014.22 253.359 963.339 315.407 876.231 364.793C789.165 414.155 666.086 450.755 527.632 462.869C389.178 474.982 261.613 460.309 167.298 426.816C72.9377 393.307 12.0519 341.038 6.54392 278.081C1.0359 215.124 51.9203 153.077 139.028 103.691C226.094 54.3292 349.174 17.7283 487.628 5.61518C626.082 -6.49797 753.647 8.1743 847.961 41.6674C942.322 75.1769 1003.21 127.446 1008.72 190.403Z" stroke="#B5B5B7"/>
<path d="M987 249L991.299 260.701L1003 265L991.299 269.299L987 281L982.701 269.299L971 265L982.701 260.701L987 249Z" fill="#5A9BFF"/>
<path d="M9 119.508L11.4183 126.09L18 128.508L11.4183 130.926L9 137.508L6.58169 130.926L0 128.508L6.58169 126.09L9 119.508Z" fill="#87CC9E"/>
<path d="M59 319L61.4183 325.582L68 328L61.4183 330.418L59 337L56.5817 330.418L50 328L56.5817 325.582L59 319Z" fill="#FFF9D3"/>
<path d="M447 86.5078L451.299 98.2086L463 102.508L451.299 106.807L447 118.508L442.701 106.807L431 102.508L442.701 98.2086L447 86.5078Z" fill="#7F67D2"/>
<path d="M912.727 45L918.101 59.626L932.727 65L918.101 70.374L912.727 85L907.353 70.374L892.727 65L907.353 59.626L912.727 45Z" fill="#FFBFFD" fill-opacity="0.87"/>
<rect x="168" y="18" width="183" height="44" rx="20" fill="#87CC9E"/>
<path d="M218.588 45.16C217.703 45.16 216.903 45.0267 216.188 44.76C215.474 44.4933 214.86 44.1093 214.348 43.608C213.847 43.096 213.458 42.4773 213.18 41.752C212.914 41.016 212.78 40.1893 212.78 39.272C212.78 38.344 212.908 37.5173 213.164 36.792C213.431 36.0667 213.81 35.4533 214.3 34.952C214.802 34.44 215.41 34.0507 216.124 33.784C216.839 33.5173 217.655 33.384 218.572 33.384C219.362 33.384 220.034 33.464 220.588 33.624C221.154 33.7733 221.602 33.9493 221.932 34.152V35.88C221.516 35.6133 221.015 35.4107 220.428 35.272C219.852 35.1227 219.255 35.048 218.636 35.048C217.346 35.048 216.386 35.4 215.756 36.104C215.138 36.7973 214.828 37.8533 214.828 39.272C214.828 42.088 216.13 43.496 218.732 43.496C219.34 43.496 219.911 43.4213 220.444 43.272C220.988 43.1227 221.484 42.888 221.932 42.568V44.28C221.634 44.504 221.202 44.7067 220.636 44.888C220.071 45.0693 219.388 45.16 218.588 45.16ZM227.424 38.2V45H225.568V38.2H223.056V36.696H229.984V38.2H227.424ZM235.98 43.544C235.895 43.736 235.778 43.928 235.628 44.12C235.49 44.312 235.314 44.488 235.1 44.648C234.898 44.7973 234.652 44.92 234.364 45.016C234.076 45.112 233.74 45.16 233.356 45.16C232.994 45.16 232.658 45.1067 232.348 45C232.039 44.904 231.767 44.7547 231.532 44.552C231.308 44.3493 231.127 44.0987 230.988 43.8C230.86 43.4907 230.796 43.1387 230.796 42.744C230.796 41.8373 231.132 41.16 231.804 40.712C232.476 40.2533 233.426 40.024 234.652 40.024H235.916V39.512C235.916 38.968 235.778 38.5947 235.5 38.392C235.223 38.1787 234.764 38.072 234.124 38.072C233.58 38.072 233.068 38.152 232.588 38.312C232.119 38.4613 231.703 38.6373 231.34 38.84V37.288C231.671 37.1067 232.108 36.936 232.652 36.776C233.196 36.616 233.788 36.536 234.428 36.536C235.495 36.536 236.316 36.76 236.892 37.208C237.479 37.6453 237.772 38.3493 237.772 39.32V43.656C237.772 43.752 237.772 43.864 237.772 43.992C237.783 44.1093 237.788 44.232 237.788 44.36C237.799 44.488 237.81 44.6107 237.82 44.728C237.831 44.8347 237.842 44.9253 237.852 45H236.14C236.108 44.8507 236.076 44.6427 236.044 44.376C236.023 44.1093 236.007 43.8693 235.996 43.656L235.98 43.544ZM233.868 43.72C234.263 43.72 234.588 43.64 234.844 43.48C235.111 43.3093 235.324 43.1173 235.484 42.904C235.644 42.68 235.756 42.4613 235.82 42.248C235.884 42.0347 235.916 41.8853 235.916 41.8V41.24H234.764C234.028 41.24 233.49 41.3573 233.148 41.592C232.807 41.816 232.636 42.136 232.636 42.552C232.636 42.9147 232.738 43.2027 232.94 43.416C233.154 43.6187 233.463 43.72 233.868 43.72ZM245.902 36.696V40.12H246.59L248.974 36.696H250.878L248.046 40.68L251.038 45H248.862L246.542 41.624H245.902V45H244.046V41.624H243.406L241.038 45H238.926L241.918 40.76L239.07 36.696H241.038L243.374 40.12H244.046V36.696H245.902ZM254.114 42.488L257.954 36.696H259.778V45H257.938V39.24L254.13 45H252.274V36.696H254.114V42.488ZM266.444 45.16C265.815 45.16 265.271 45.0213 264.812 44.744C264.364 44.456 264.001 44.072 263.724 43.592V47.832H261.868V36.696H263.564L263.692 38.168C263.969 37.6667 264.337 37.272 264.796 36.984C265.255 36.6853 265.815 36.536 266.476 36.536C266.967 36.536 267.431 36.6267 267.868 36.808C268.316 36.9787 268.705 37.2453 269.036 37.608C269.367 37.96 269.628 38.408 269.82 38.952C270.023 39.4853 270.124 40.1147 270.124 40.84C270.124 41.576 270.023 42.216 269.82 42.76C269.628 43.2933 269.361 43.7413 269.02 44.104C268.689 44.456 268.3 44.7227 267.852 44.904C267.404 45.0747 266.935 45.16 266.444 45.16ZM265.996 43.608C266.657 43.608 267.191 43.384 267.596 42.936C268.012 42.4773 268.22 41.7787 268.22 40.84C268.22 39.912 268.012 39.2187 267.596 38.76C267.191 38.3013 266.663 38.072 266.012 38.072C265.681 38.072 265.377 38.1307 265.1 38.248C264.823 38.3547 264.577 38.5253 264.364 38.76C264.161 38.9947 264.001 39.288 263.884 39.64C263.767 39.9813 263.708 40.3813 263.708 40.84C263.708 41.3093 263.767 41.72 263.884 42.072C264.001 42.4133 264.161 42.7013 264.364 42.936C264.567 43.16 264.807 43.3307 265.084 43.448C265.372 43.5547 265.676 43.608 265.996 43.608ZM275.296 45.16C274.71 45.16 274.166 45.064 273.664 44.872C273.163 44.68 272.726 44.4027 272.352 44.04C271.99 43.6667 271.702 43.2133 271.488 42.68C271.286 42.1467 271.184 41.5333 271.184 40.84C271.184 40.1467 271.286 39.5333 271.488 39C271.702 38.4667 271.99 38.0187 272.352 37.656C272.726 37.2827 273.163 37.0053 273.664 36.824C274.166 36.632 274.71 36.536 275.296 36.536C275.883 36.536 276.427 36.632 276.928 36.824C277.43 37.0053 277.867 37.2827 278.24 37.656C278.614 38.0187 278.907 38.4667 279.12 39C279.334 39.5333 279.44 40.1467 279.44 40.84C279.44 41.5333 279.334 42.1467 279.12 42.68C278.907 43.2133 278.614 43.6667 278.24 44.04C277.867 44.4027 277.43 44.68 276.928 44.872C276.427 45.064 275.883 45.16 275.296 45.16ZM275.296 43.608C275.936 43.608 276.464 43.384 276.88 42.936C277.307 42.488 277.52 41.7893 277.52 40.84C277.52 39.9013 277.307 39.208 276.88 38.76C276.464 38.3013 275.936 38.072 275.296 38.072C274.667 38.072 274.139 38.3013 273.712 38.76C273.296 39.208 273.088 39.9013 273.088 40.84C273.088 41.7893 273.296 42.488 273.712 42.936C274.139 43.384 274.667 43.608 275.296 43.608ZM280.993 36.696H284.385C286.486 36.696 287.537 37.3893 287.537 38.776C287.537 39.288 287.393 39.6933 287.105 39.992C286.828 40.28 286.417 40.4987 285.873 40.648C286.545 40.744 287.046 40.952 287.377 41.272C287.708 41.592 287.873 42.0453 287.873 42.632C287.873 43.0373 287.788 43.3893 287.617 43.688C287.446 43.9867 287.206 44.232 286.897 44.424C286.598 44.616 286.23 44.76 285.793 44.856C285.356 44.952 284.876 45 284.353 45H280.993V36.696ZM282.833 38.12V40.088H284.193C284.641 40.088 285.004 40.008 285.281 39.848C285.558 39.6773 285.697 39.432 285.697 39.112C285.697 38.7387 285.574 38.4827 285.329 38.344C285.094 38.1947 284.748 38.12 284.289 38.12H282.833ZM282.833 41.4V43.576H284.257C284.769 43.576 285.18 43.5013 285.489 43.352C285.809 43.2027 285.969 42.9253 285.969 42.52C285.969 42.1147 285.825 41.8267 285.537 41.656C285.26 41.4853 284.817 41.4 284.209 41.4H282.833ZM292.272 41.624H291.552V45H289.696V36.696H291.552V40.12H292.336L294.976 36.696H296.928L293.792 40.696L297.056 45H294.864L292.272 41.624ZM300.13 42.488L303.97 36.696H305.794V45H303.954V39.24L300.146 45H298.29V36.696H300.13V42.488Z" fill="#1A1B22"/>
<rect x="121.564" y="383" width="192" height="64" rx="20" fill="#FFBFFD" fill-opacity="0.87"/>
<path d="M180.711 398.528H184.615C185.98 398.528 187.02 398.741 187.735 399.168C188.449 399.595 188.807 400.315 188.807 401.328C188.807 401.744 188.748 402.107 188.631 402.416C188.513 402.715 188.343 402.976 188.119 403.2C187.905 403.413 187.644 403.589 187.335 403.728C187.025 403.867 186.684 403.973 186.311 404.048C187.271 404.165 187.996 404.427 188.487 404.832C188.977 405.237 189.223 405.856 189.223 406.688C189.223 407.285 189.105 407.797 188.871 408.224C188.636 408.64 188.311 408.981 187.895 409.248C187.479 409.504 186.988 409.696 186.423 409.824C185.857 409.941 185.244 410 184.583 410H180.711V398.528ZM182.647 400.208V403.264H184.711C185.351 403.264 185.868 403.131 186.263 402.864C186.657 402.587 186.855 402.155 186.855 401.568C186.855 401.035 186.673 400.677 186.311 400.496C185.959 400.304 185.457 400.208 184.807 400.208H182.647ZM182.647 404.928V408.336H184.775C185.137 408.336 185.468 408.309 185.767 408.256C186.065 408.192 186.321 408.096 186.535 407.968C186.748 407.829 186.913 407.653 187.031 407.44C187.148 407.216 187.207 406.944 187.207 406.624C187.207 405.995 186.999 405.557 186.583 405.312C186.177 405.056 185.521 404.928 184.615 404.928H182.647ZM195.771 408.544C195.686 408.736 195.569 408.928 195.419 409.12C195.281 409.312 195.105 409.488 194.891 409.648C194.689 409.797 194.443 409.92 194.155 410.016C193.867 410.112 193.531 410.16 193.147 410.16C192.785 410.16 192.449 410.107 192.139 410C191.83 409.904 191.558 409.755 191.323 409.552C191.099 409.349 190.918 409.099 190.779 408.8C190.651 408.491 190.587 408.139 190.587 407.744C190.587 406.837 190.923 406.16 191.595 405.712C192.267 405.253 193.217 405.024 194.443 405.024H195.707V404.512C195.707 403.968 195.569 403.595 195.291 403.392C195.014 403.179 194.555 403.072 193.915 403.072C193.371 403.072 192.859 403.152 192.379 403.312C191.91 403.461 191.494 403.637 191.131 403.84V402.288C191.462 402.107 191.899 401.936 192.443 401.776C192.987 401.616 193.579 401.536 194.219 401.536C195.286 401.536 196.107 401.76 196.683 402.208C197.27 402.645 197.563 403.349 197.563 404.32V408.656C197.563 408.752 197.563 408.864 197.563 408.992C197.574 409.109 197.579 409.232 197.579 409.36C197.59 409.488 197.601 409.611 197.611 409.728C197.622 409.835 197.633 409.925 197.643 410H195.931C195.899 409.851 195.867 409.643 195.835 409.376C195.814 409.109 195.798 408.869 195.787 408.656L195.771 408.544ZM193.659 408.72C194.054 408.72 194.379 408.64 194.635 408.48C194.902 408.309 195.115 408.117 195.275 407.904C195.435 407.68 195.547 407.461 195.611 407.248C195.675 407.035 195.707 406.885 195.707 406.8V406.24H194.555C193.819 406.24 193.281 406.357 192.939 406.592C192.598 406.816 192.427 407.136 192.427 407.552C192.427 407.915 192.529 408.203 192.731 408.416C192.945 408.619 193.254 408.72 193.659 408.72ZM202.141 406.624H201.421V410H199.565V401.696H201.421V405.12H202.205L204.845 401.696H206.797L203.661 405.696L206.925 410H204.733L202.141 406.624ZM212.787 408.544C212.702 408.736 212.584 408.928 212.435 409.12C212.296 409.312 212.12 409.488 211.907 409.648C211.704 409.797 211.459 409.92 211.171 410.016C210.883 410.112 210.547 410.16 210.163 410.16C209.8 410.16 209.464 410.107 209.155 410C208.846 409.904 208.574 409.755 208.339 409.552C208.115 409.349 207.934 409.099 207.795 408.8C207.667 408.491 207.603 408.139 207.603 407.744C207.603 406.837 207.939 406.16 208.611 405.712C209.283 405.253 210.232 405.024 211.459 405.024H212.723V404.512C212.723 403.968 212.584 403.595 212.307 403.392C212.03 403.179 211.571 403.072 210.931 403.072C210.387 403.072 209.875 403.152 209.395 403.312C208.926 403.461 208.51 403.637 208.147 403.84V402.288C208.478 402.107 208.915 401.936 209.459 401.776C210.003 401.616 210.595 401.536 211.235 401.536C212.302 401.536 213.123 401.76 213.699 402.208C214.286 402.645 214.579 403.349 214.579 404.32V408.656C214.579 408.752 214.579 408.864 214.579 408.992C214.59 409.109 214.595 409.232 214.595 409.36C214.606 409.488 214.616 409.611 214.627 409.728C214.638 409.835 214.648 409.925 214.659 410H212.947C212.915 409.851 212.883 409.643 212.851 409.376C212.83 409.109 212.814 408.869 212.803 408.656L212.787 408.544ZM210.675 408.72C211.07 408.72 211.395 408.64 211.651 408.48C211.918 408.309 212.131 408.117 212.291 407.904C212.451 407.68 212.563 407.461 212.627 407.248C212.691 407.035 212.723 406.885 212.723 406.8V406.24H211.571C210.835 406.24 210.296 406.357 209.955 406.592C209.614 406.816 209.443 407.136 209.443 407.552C209.443 407.915 209.544 408.203 209.747 408.416C209.96 408.619 210.27 408.72 210.675 408.72ZM221.941 406.496H218.437V410H216.581V401.696H218.437V404.992H221.941V401.696H223.797V410H221.941V406.496ZM229.702 410.16C229.03 410.16 228.427 410.064 227.894 409.872C227.361 409.669 226.907 409.387 226.534 409.024C226.161 408.651 225.873 408.197 225.67 407.664C225.467 407.131 225.366 406.523 225.366 405.84C225.366 405.168 225.467 404.565 225.67 404.032C225.873 403.499 226.161 403.051 226.534 402.688C226.907 402.315 227.366 402.032 227.91 401.84C228.454 401.637 229.062 401.536 229.734 401.536C230.31 401.536 230.811 401.6 231.238 401.728C231.675 401.856 232.022 402.016 232.278 402.208V403.744C231.947 403.531 231.585 403.365 231.19 403.248C230.806 403.131 230.358 403.072 229.846 403.072C228.129 403.072 227.27 403.995 227.27 405.84C227.27 407.685 228.113 408.608 229.798 408.608C230.342 408.608 230.806 408.549 231.19 408.432C231.585 408.304 231.947 408.144 232.278 407.952V409.488C232.001 409.669 231.654 409.829 231.238 409.968C230.822 410.096 230.31 410.16 229.702 410.16ZM235.827 407.488L239.667 401.696H241.491V410H239.651V404.24L235.843 410H233.987V401.696H235.827V407.488ZM245.421 407.488L249.261 401.696H251.085V410H249.245V404.24L245.437 410H243.581V401.696H245.421V407.488ZM170.376 430.16C169.79 430.16 169.246 430.064 168.744 429.872C168.243 429.68 167.806 429.403 167.432 429.04C167.07 428.667 166.782 428.213 166.568 427.68C166.366 427.147 166.264 426.533 166.264 425.84C166.264 425.147 166.366 424.533 166.568 424C166.782 423.467 167.07 423.019 167.432 422.656C167.806 422.283 168.243 422.005 168.744 421.824C169.246 421.632 169.79 421.536 170.376 421.536C170.963 421.536 171.507 421.632 172.008 421.824C172.51 422.005 172.947 422.283 173.32 422.656C173.694 423.019 173.987 423.467 174.2 424C174.414 424.533 174.52 425.147 174.52 425.84C174.52 426.533 174.414 427.147 174.2 427.68C173.987 428.213 173.694 428.667 173.32 429.04C172.947 429.403 172.51 429.68 172.008 429.872C171.507 430.064 170.963 430.16 170.376 430.16ZM170.376 428.608C171.016 428.608 171.544 428.384 171.96 427.936C172.387 427.488 172.6 426.789 172.6 425.84C172.6 424.901 172.387 424.208 171.96 423.76C171.544 423.301 171.016 423.072 170.376 423.072C169.747 423.072 169.219 423.301 168.792 423.76C168.376 424.208 168.168 424.901 168.168 425.84C168.168 426.789 168.376 427.488 168.792 427.936C169.219 428.384 169.747 428.608 170.376 428.608ZM179.582 423.2V430H177.726V423.2H175.214V421.696H182.142V423.2H179.582ZM187.265 418.528H196.241V430H194.289V420.208H189.201V430H187.265V418.528ZM203.279 428.544C203.194 428.736 203.076 428.928 202.927 429.12C202.788 429.312 202.612 429.488 202.399 429.648C202.196 429.797 201.951 429.92 201.663 430.016C201.375 430.112 201.039 430.16 200.655 430.16C200.292 430.16 199.956 430.107 199.647 430C199.338 429.904 199.066 429.755 198.831 429.552C198.607 429.349 198.426 429.099 198.287 428.8C198.159 428.491 198.095 428.139 198.095 427.744C198.095 426.837 198.431 426.16 199.103 425.712C199.775 425.253 200.724 425.024 201.951 425.024H203.215V424.512C203.215 423.968 203.076 423.595 202.799 423.392C202.522 423.179 202.063 423.072 201.423 423.072C200.879 423.072 200.367 423.152 199.887 423.312C199.418 423.461 199.002 423.637 198.639 423.84V422.288C198.97 422.107 199.407 421.936 199.951 421.776C200.495 421.616 201.087 421.536 201.727 421.536C202.794 421.536 203.615 421.76 204.191 422.208C204.778 422.645 205.071 423.349 205.071 424.32V428.656C205.071 428.752 205.071 428.864 205.071 428.992C205.082 429.109 205.087 429.232 205.087 429.36C205.098 429.488 205.108 429.611 205.119 429.728C205.13 429.835 205.14 429.925 205.151 430H203.439C203.407 429.851 203.375 429.643 203.343 429.376C203.322 429.109 203.306 428.869 203.295 428.656L203.279 428.544ZM201.167 428.72C201.562 428.72 201.887 428.64 202.143 428.48C202.41 428.309 202.623 428.117 202.783 427.904C202.943 427.68 203.055 427.461 203.119 427.248C203.183 427.035 203.215 426.885 203.215 426.8V426.24H202.063C201.327 426.24 200.788 426.357 200.447 426.592C200.106 426.816 199.935 427.136 199.935 427.552C199.935 427.915 200.036 428.203 200.239 428.416C200.452 428.619 200.762 428.72 201.167 428.72ZM211.649 430.16C211.02 430.16 210.476 430.021 210.017 429.744C209.569 429.456 209.207 429.072 208.929 428.592V432.832H207.073V421.696H208.769L208.897 423.168C209.175 422.667 209.543 422.272 210.001 421.984C210.46 421.685 211.02 421.536 211.681 421.536C212.172 421.536 212.636 421.627 213.073 421.808C213.521 421.979 213.911 422.245 214.241 422.608C214.572 422.96 214.833 423.408 215.025 423.952C215.228 424.485 215.329 425.115 215.329 425.84C215.329 426.576 215.228 427.216 215.025 427.76C214.833 428.293 214.567 428.741 214.225 429.104C213.895 429.456 213.505 429.723 213.057 429.904C212.609 430.075 212.14 430.16 211.649 430.16ZM211.201 428.608C211.863 428.608 212.396 428.384 212.801 427.936C213.217 427.477 213.425 426.779 213.425 425.84C213.425 424.912 213.217 424.219 212.801 423.76C212.396 423.301 211.868 423.072 211.217 423.072C210.887 423.072 210.583 423.131 210.305 423.248C210.028 423.355 209.783 423.525 209.569 423.76C209.367 423.995 209.207 424.288 209.089 424.64C208.972 424.981 208.913 425.381 208.913 425.84C208.913 426.309 208.972 426.72 209.089 427.072C209.207 427.413 209.367 427.701 209.569 427.936C209.772 428.16 210.012 428.331 210.289 428.448C210.577 428.555 210.881 428.608 211.201 428.608ZM220.457 423.2V430H218.601V423.2H216.089V421.696H223.017V423.2H220.457ZM229.793 426.496H226.289V430H224.433V421.696H226.289V424.992H229.793V421.696H231.649V430H229.793V426.496ZM238.881 420.368C238.572 420.368 238.316 420.267 238.113 420.064C237.911 419.851 237.809 419.6 237.809 419.312C237.809 419.013 237.911 418.763 238.113 418.56C238.316 418.357 238.572 418.256 238.881 418.256C239.191 418.256 239.447 418.357 239.649 418.56C239.852 418.763 239.953 419.013 239.953 419.312C239.953 419.6 239.852 419.851 239.649 420.064C239.447 420.267 239.191 420.368 238.881 420.368ZM235.617 420.368C235.319 420.368 235.068 420.267 234.865 420.064C234.663 419.851 234.561 419.6 234.561 419.312C234.561 419.013 234.663 418.763 234.865 418.56C235.068 418.357 235.319 418.256 235.617 418.256C235.927 418.256 236.183 418.357 236.385 418.56C236.599 418.763 236.705 419.013 236.705 419.312C236.705 419.6 236.599 419.851 236.385 420.064C236.183 420.267 235.927 420.368 235.617 420.368ZM240.673 429.392C240.556 429.467 240.412 429.552 240.241 429.648C240.071 429.733 239.868 429.813 239.633 429.888C239.399 429.963 239.127 430.027 238.817 430.08C238.508 430.133 238.156 430.16 237.761 430.16C236.236 430.16 235.095 429.781 234.337 429.024C233.591 428.267 233.217 427.205 233.217 425.84C233.217 425.168 233.319 424.565 233.521 424.032C233.724 423.499 234.007 423.051 234.369 422.688C234.732 422.315 235.164 422.032 235.665 421.84C236.167 421.637 236.716 421.536 237.313 421.536C237.932 421.536 238.487 421.637 238.977 421.84C239.479 422.043 239.889 422.347 240.209 422.752C240.529 423.157 240.748 423.659 240.865 424.256C240.993 424.853 240.999 425.552 240.881 426.352H235.137C235.212 427.109 235.463 427.68 235.889 428.064C236.316 428.437 236.983 428.624 237.889 428.624C238.551 428.624 239.1 428.544 239.537 428.384C239.985 428.213 240.364 428.037 240.673 427.856V429.392ZM237.313 423.008C236.769 423.008 236.311 423.173 235.937 423.504C235.564 423.835 235.319 424.325 235.201 424.976H239.105C239.127 424.304 238.977 423.808 238.657 423.488C238.337 423.168 237.889 423.008 237.313 423.008ZM247.18 430.16C246.551 430.16 246.007 430.021 245.548 429.744C245.1 429.456 244.738 429.072 244.46 428.592V432.832H242.604V421.696H244.3L244.428 423.168C244.706 422.667 245.074 422.272 245.532 421.984C245.991 421.685 246.551 421.536 247.212 421.536C247.703 421.536 248.167 421.627 248.604 421.808C249.052 421.979 249.442 422.245 249.772 422.608C250.103 422.96 250.364 423.408 250.556 423.952C250.759 424.485 250.86 425.115 250.86 425.84C250.86 426.576 250.759 427.216 250.556 427.76C250.364 428.293 250.098 428.741 249.756 429.104C249.426 429.456 249.036 429.723 248.588 429.904C248.14 430.075 247.671 430.16 247.18 430.16ZM246.732 428.608C247.394 428.608 247.927 428.384 248.332 427.936C248.748 427.477 248.956 426.779 248.956 425.84C248.956 424.912 248.748 424.219 248.332 423.76C247.927 423.301 247.399 423.072 246.748 423.072C246.418 423.072 246.114 423.131 245.836 423.248C245.559 423.355 245.314 423.525 245.1 423.76C244.898 423.995 244.738 424.288 244.62 424.64C244.503 424.981 244.444 425.381 244.444 425.84C244.444 426.309 244.503 426.72 244.62 427.072C244.738 427.413 244.898 427.701 245.1 427.936C245.303 428.16 245.543 428.331 245.82 428.448C246.108 428.555 246.412 428.608 246.732 428.608ZM256.033 430.16C255.446 430.16 254.902 430.064 254.401 429.872C253.899 429.68 253.462 429.403 253.089 429.04C252.726 428.667 252.438 428.213 252.225 427.68C252.022 427.147 251.921 426.533 251.921 425.84C251.921 425.147 252.022 424.533 252.225 424C252.438 423.467 252.726 423.019 253.089 422.656C253.462 422.283 253.899 422.005 254.401 421.824C254.902 421.632 255.446 421.536 256.033 421.536C256.619 421.536 257.163 421.632 257.665 421.824C258.166 422.005 258.603 422.283 258.977 422.656C259.35 423.019 259.643 423.467 259.857 424C260.07 424.533 260.177 425.147 260.177 425.84C260.177 426.533 260.07 427.147 259.857 427.68C259.643 428.213 259.35 428.667 258.977 429.04C258.603 429.403 258.166 429.68 257.665 429.872C257.163 430.064 256.619 430.16 256.033 430.16ZM256.033 428.608C256.673 428.608 257.201 428.384 257.617 427.936C258.043 427.488 258.257 426.789 258.257 425.84C258.257 424.901 258.043 424.208 257.617 423.76C257.201 423.301 256.673 423.072 256.033 423.072C255.403 423.072 254.875 423.301 254.449 423.76C254.033 424.208 253.825 424.901 253.825 425.84C253.825 426.789 254.033 427.488 254.449 427.936C254.875 428.384 255.403 428.608 256.033 428.608ZM261.729 421.696H265.121C267.223 421.696 268.273 422.389 268.273 423.776C268.273 424.288 268.129 424.693 267.841 424.992C267.564 425.28 267.153 425.499 266.609 425.648C267.281 425.744 267.783 425.952 268.113 426.272C268.444 426.592 268.609 427.045 268.609 427.632C268.609 428.037 268.524 428.389 268.353 428.688C268.183 428.987 267.943 429.232 267.633 429.424C267.335 429.616 266.967 429.76 266.529 429.856C266.092 429.952 265.612 430 265.089 430H261.729V421.696ZM263.569 423.12V425.088H264.929C265.377 425.088 265.74 425.008 266.017 424.848C266.295 424.677 266.433 424.432 266.433 424.112C266.433 423.739 266.311 423.483 266.065 423.344C265.831 423.195 265.484 423.12 265.025 423.12H263.569ZM263.569 426.4V428.576H264.993C265.505 428.576 265.916 428.501 266.225 428.352C266.545 428.203 266.705 427.925 266.705 427.52C266.705 427.115 266.561 426.827 266.273 426.656C265.996 426.485 265.553 426.4 264.945 426.4H263.569Z" fill="#1A1B22"/>
<rect x="607" y="361" width="179" height="44" rx="20" fill="#FFF9D3"/>
<path d="M658.203 384.144L661.611 376.528H664.011V388H662.059V379.376L658.971 386.24L657.899 386.256H657.211L654.187 379.264V388H652.427V376.528H655.019L658.203 384.144ZM671.051 386.544C670.965 386.736 670.848 386.928 670.699 387.12C670.56 387.312 670.384 387.488 670.171 387.648C669.968 387.797 669.723 387.92 669.435 388.016C669.147 388.112 668.811 388.16 668.427 388.16C668.064 388.16 667.728 388.107 667.419 388C667.109 387.904 666.837 387.755 666.603 387.552C666.379 387.349 666.197 387.099 666.059 386.8C665.931 386.491 665.867 386.139 665.867 385.744C665.867 384.837 666.203 384.16 666.875 383.712C667.547 383.253 668.496 383.024 669.723 383.024H670.987V382.512C670.987 381.968 670.848 381.595 670.571 381.392C670.293 381.179 669.835 381.072 669.195 381.072C668.651 381.072 668.139 381.152 667.659 381.312C667.189 381.461 666.773 381.637 666.411 381.84V380.288C666.741 380.107 667.179 379.936 667.723 379.776C668.267 379.616 668.859 379.536 669.499 379.536C670.565 379.536 671.387 379.76 671.963 380.208C672.549 380.645 672.843 381.349 672.843 382.32V386.656C672.843 386.752 672.843 386.864 672.843 386.992C672.853 387.109 672.859 387.232 672.859 387.36C672.869 387.488 672.88 387.611 672.891 387.728C672.901 387.835 672.912 387.925 672.923 388H671.211C671.179 387.851 671.147 387.643 671.115 387.376C671.093 387.109 671.077 386.869 671.067 386.656L671.051 386.544ZM668.939 386.72C669.333 386.72 669.659 386.64 669.915 386.48C670.181 386.309 670.395 386.117 670.555 385.904C670.715 385.68 670.827 385.461 670.891 385.248C670.955 385.035 670.987 384.885 670.987 384.8V384.24H669.835C669.099 384.24 668.56 384.357 668.219 384.592C667.877 384.816 667.707 385.136 667.707 385.552C667.707 385.915 667.808 386.203 668.011 386.416C668.224 386.619 668.533 386.72 668.939 386.72ZM678.669 388.16C677.997 388.16 677.394 388.064 676.861 387.872C676.327 387.669 675.874 387.387 675.501 387.024C675.127 386.651 674.839 386.197 674.637 385.664C674.434 385.131 674.333 384.523 674.333 383.84C674.333 383.168 674.434 382.565 674.637 382.032C674.839 381.499 675.127 381.051 675.501 380.688C675.874 380.315 676.333 380.032 676.877 379.84C677.421 379.637 678.029 379.536 678.701 379.536C679.277 379.536 679.778 379.6 680.205 379.728C680.642 379.856 680.989 380.016 681.245 380.208V381.744C680.914 381.531 680.551 381.365 680.157 381.248C679.773 381.131 679.325 381.072 678.813 381.072C677.095 381.072 676.237 381.995 676.237 383.84C676.237 385.685 677.079 386.608 678.765 386.608C679.309 386.608 679.773 386.549 680.157 386.432C680.551 386.304 680.914 386.144 681.245 385.952V387.488C680.967 387.669 680.621 387.829 680.205 387.968C679.789 388.096 679.277 388.16 678.669 388.16ZM686.666 381.2V388H684.81V381.2H682.298V379.696H689.226V381.2H686.666ZM697.382 387.392C697.265 387.467 697.121 387.552 696.95 387.648C696.78 387.733 696.577 387.813 696.342 387.888C696.108 387.963 695.836 388.027 695.526 388.08C695.217 388.133 694.865 388.16 694.47 388.16C692.945 388.16 691.804 387.781 691.046 387.024C690.3 386.267 689.926 385.205 689.926 383.84C689.926 383.168 690.028 382.565 690.23 382.032C690.433 381.499 690.716 381.051 691.078 380.688C691.441 380.315 691.873 380.032 692.374 379.84C692.876 379.637 693.425 379.536 694.022 379.536C694.641 379.536 695.196 379.637 695.686 379.84C696.188 380.043 696.598 380.347 696.918 380.752C697.238 381.157 697.457 381.659 697.574 382.256C697.702 382.853 697.708 383.552 697.59 384.352H691.846C691.921 385.109 692.172 385.68 692.598 386.064C693.025 386.437 693.692 386.624 694.598 386.624C695.26 386.624 695.809 386.544 696.246 386.384C696.694 386.213 697.073 386.037 697.382 385.856V387.392ZM694.022 381.008C693.478 381.008 693.02 381.173 692.646 381.504C692.273 381.835 692.028 382.325 691.91 382.976H695.814C695.836 382.304 695.686 381.808 695.366 381.488C695.046 381.168 694.598 381.008 694.022 381.008ZM703.889 388.16C703.26 388.16 702.716 388.021 702.257 387.744C701.809 387.456 701.447 387.072 701.169 386.592V390.832H699.313V379.696H701.009L701.137 381.168C701.415 380.667 701.783 380.272 702.241 379.984C702.7 379.685 703.26 379.536 703.921 379.536C704.412 379.536 704.876 379.627 705.313 379.808C705.761 379.979 706.151 380.245 706.481 380.608C706.812 380.96 707.073 381.408 707.265 381.952C707.468 382.485 707.569 383.115 707.569 383.84C707.569 384.576 707.468 385.216 707.265 385.76C707.073 386.293 706.807 386.741 706.465 387.104C706.135 387.456 705.745 387.723 705.297 387.904C704.849 388.075 704.38 388.16 703.889 388.16ZM703.441 386.608C704.103 386.608 704.636 386.384 705.041 385.936C705.457 385.477 705.665 384.779 705.665 383.84C705.665 382.912 705.457 382.219 705.041 381.76C704.636 381.301 704.108 381.072 703.457 381.072C703.127 381.072 702.823 381.131 702.545 381.248C702.268 381.355 702.023 381.525 701.809 381.76C701.607 381.995 701.447 382.288 701.329 382.64C701.212 382.981 701.153 383.381 701.153 383.84C701.153 384.309 701.212 384.72 701.329 385.072C701.447 385.413 701.607 385.701 701.809 385.936C702.012 386.16 702.252 386.331 702.529 386.448C702.817 386.555 703.121 386.608 703.441 386.608ZM712.966 388.16C712.294 388.16 711.691 388.064 711.158 387.872C710.624 387.669 710.171 387.387 709.798 387.024C709.424 386.651 709.136 386.197 708.934 385.664C708.731 385.131 708.63 384.523 708.63 383.84C708.63 383.168 708.731 382.565 708.934 382.032C709.136 381.499 709.424 381.051 709.798 380.688C710.171 380.315 710.63 380.032 711.174 379.84C711.718 379.637 712.326 379.536 712.998 379.536C713.574 379.536 714.075 379.6 714.502 379.728C714.939 379.856 715.286 380.016 715.542 380.208V381.744C715.211 381.531 714.848 381.365 714.454 381.248C714.07 381.131 713.622 381.072 713.11 381.072C711.392 381.072 710.534 381.995 710.534 383.84C710.534 385.685 711.376 386.608 713.062 386.608C713.606 386.608 714.07 386.549 714.454 386.432C714.848 386.304 715.211 386.144 715.542 385.952V387.488C715.264 387.669 714.918 387.829 714.502 387.968C714.086 388.096 713.574 388.16 712.966 388.16ZM719.827 384.624H719.107V388H717.251V379.696H719.107V383.12H719.891L722.531 379.696H724.483L721.347 383.696L724.611 388H722.419L719.827 384.624ZM730.472 386.544C730.387 386.736 730.27 386.928 730.12 387.12C729.982 387.312 729.806 387.488 729.592 387.648C729.39 387.797 729.144 387.92 728.856 388.016C728.568 388.112 728.232 388.16 727.848 388.16C727.486 388.16 727.15 388.107 726.84 388C726.531 387.904 726.259 387.755 726.024 387.552C725.8 387.349 725.619 387.099 725.48 386.8C725.352 386.491 725.288 386.139 725.288 385.744C725.288 384.837 725.624 384.16 726.296 383.712C726.968 383.253 727.918 383.024 729.144 383.024H730.408V382.512C730.408 381.968 730.27 381.595 729.992 381.392C729.715 381.179 729.256 381.072 728.616 381.072C728.072 381.072 727.56 381.152 727.08 381.312C726.611 381.461 726.195 381.637 725.832 381.84V380.288C726.163 380.107 726.6 379.936 727.144 379.776C727.688 379.616 728.28 379.536 728.92 379.536C729.987 379.536 730.808 379.76 731.384 380.208C731.971 380.645 732.264 381.349 732.264 382.32V386.656C732.264 386.752 732.264 386.864 732.264 386.992C732.275 387.109 732.28 387.232 732.28 387.36C732.291 387.488 732.302 387.611 732.312 387.728C732.323 387.835 732.334 387.925 732.344 388H730.632C730.6 387.851 730.568 387.643 730.536 387.376C730.515 387.109 730.499 386.869 730.488 386.656L730.472 386.544ZM728.36 386.72C728.755 386.72 729.08 386.64 729.336 386.48C729.603 386.309 729.816 386.117 729.976 385.904C730.136 385.68 730.248 385.461 730.312 385.248C730.376 385.035 730.408 384.885 730.408 384.8V384.24H729.256C728.52 384.24 727.982 384.357 727.64 384.592C727.299 384.816 727.128 385.136 727.128 385.552C727.128 385.915 727.23 386.203 727.432 386.416C727.646 386.619 727.955 386.72 728.36 386.72ZM734.171 382.416C734.171 381.968 734.256 381.573 734.427 381.232C734.597 380.891 734.832 380.608 735.131 380.384C735.44 380.149 735.808 379.979 736.235 379.872C736.672 379.755 737.152 379.696 737.675 379.696H740.763V388H738.907V385.184H737.723L735.755 388H733.675L735.963 384.784C735.387 384.613 734.944 384.336 734.635 383.952C734.325 383.568 734.171 383.056 734.171 382.416ZM738.907 383.712V381.168H737.819C737.307 381.168 736.885 381.264 736.555 381.456C736.235 381.648 736.075 381.968 736.075 382.416C736.075 382.875 736.219 383.205 736.507 383.408C736.805 383.611 737.227 383.712 737.771 383.712H738.907Z" fill="#1A1B22"/>
</svg>
