<svg width="579" height="378" viewBox="0 0 579 378" fill="none" xmlns="http://www.w3.org/2000/svg">
<path d="M467.5 187C467.5 197.047 462.714 206.661 453.972 215.452C445.227 224.244 432.548 232.186 416.841 238.866C385.429 252.225 341.998 260.5 294 260.5C246.002 260.5 202.571 252.225 171.159 238.866C155.452 232.186 142.773 224.244 134.028 215.452C125.286 206.661 120.5 197.047 120.5 187C120.5 176.953 125.286 167.339 134.028 158.548C142.773 149.756 155.452 141.814 171.159 135.134C202.571 121.775 246.002 113.5 294 113.5C341.998 113.5 385.429 121.775 416.841 135.134C432.548 141.814 445.227 149.756 453.972 158.548C462.714 167.339 467.5 176.953 467.5 187Z" stroke="#B5B5B7"/>
<path d="M506.197 219.007C502.644 252.809 475.768 281.019 434.989 299.252C394.223 317.478 339.656 325.683 280.957 319.513C222.258 313.344 170.589 293.973 134.504 267.669C98.406 241.356 77.983 208.175 81.5357 174.373C85.0885 140.571 111.964 112.361 152.744 94.128C193.51 75.9013 248.076 67.6968 306.775 73.8664C365.475 80.0359 417.143 99.4061 453.229 125.71C489.326 152.023 509.749 185.205 506.197 219.007Z" stroke="#B5B5B7"/>
<path d="M563.782 165.306C567.732 210.451 540.703 254.087 493.625 288.131C446.556 322.168 379.518 346.555 303.668 353.191C227.817 359.827 157.563 347.452 105.298 322.105C53.0235 296.753 18.8285 258.474 14.8788 213.329C10.9291 168.183 37.9574 124.547 85.0359 90.5031C132.105 56.4659 199.142 32.0792 274.993 25.4431C350.844 18.807 421.098 31.1823 473.362 56.5289C525.637 81.8808 559.832 120.16 563.782 165.306Z" stroke="#B5B5B7"/>
<rect x="186.5" y="153" width="103.856" height="32" rx="8" fill="#FFCE92"/>
<path d="M200.1 163.82H193.88V176H191.34V161.68H202.64V176H200.1V163.82ZM210.035 176.2C209.301 176.2 208.621 176.08 207.995 175.84C207.368 175.6 206.821 175.253 206.355 174.8C205.901 174.333 205.541 173.767 205.275 173.1C205.008 172.433 204.875 171.667 204.875 170.8C204.875 169.933 205.008 169.167 205.275 168.5C205.541 167.833 205.901 167.273 206.355 166.82C206.821 166.353 207.368 166.007 207.995 165.78C208.621 165.54 209.301 165.42 210.035 165.42C210.768 165.42 211.455 165.54 212.095 165.78C212.735 166.007 213.288 166.353 213.755 166.82C214.221 167.273 214.588 167.833 214.855 168.5C215.121 169.167 215.255 169.933 215.255 170.8C215.255 171.667 215.121 172.433 214.855 173.1C214.588 173.767 214.221 174.333 213.755 174.8C213.288 175.253 212.735 175.6 212.095 175.84C211.455 176.08 210.768 176.2 210.035 176.2ZM210.035 174.22C210.821 174.22 211.468 173.947 211.975 173.4C212.495 172.84 212.755 171.973 212.755 170.8C212.755 170.227 212.681 169.727 212.535 169.3C212.401 168.873 212.215 168.52 211.975 168.24C211.735 167.96 211.448 167.753 211.115 167.62C210.781 167.473 210.421 167.4 210.035 167.4C209.275 167.4 208.641 167.68 208.135 168.24C207.628 168.787 207.375 169.64 207.375 170.8C207.375 171.973 207.628 172.84 208.135 173.4C208.641 173.947 209.275 174.22 210.035 174.22ZM219.433 168.38V176H217.273V165.62H220.593L223.313 171.94L226.173 165.62H229.393V176H226.973V168.38L223.973 175.04H222.293L219.433 168.38ZM236.597 176.2C235.864 176.2 235.184 176.08 234.557 175.84C233.931 175.6 233.384 175.253 232.917 174.8C232.464 174.333 232.104 173.767 231.837 173.1C231.571 172.433 231.437 171.667 231.437 170.8C231.437 169.933 231.571 169.167 231.837 168.5C232.104 167.833 232.464 167.273 232.917 166.82C233.384 166.353 233.931 166.007 234.557 165.78C235.184 165.54 235.864 165.42 236.597 165.42C237.331 165.42 238.017 165.54 238.657 165.78C239.297 166.007 239.851 166.353 240.317 166.82C240.784 167.273 241.151 167.833 241.417 168.5C241.684 169.167 241.817 169.933 241.817 170.8C241.817 171.667 241.684 172.433 241.417 173.1C241.151 173.767 240.784 174.333 240.317 174.8C239.851 175.253 239.297 175.6 238.657 175.84C238.017 176.08 237.331 176.2 236.597 176.2ZM236.597 174.22C237.384 174.22 238.031 173.947 238.537 173.4C239.057 172.84 239.317 171.973 239.317 170.8C239.317 170.227 239.244 169.727 239.097 169.3C238.964 168.873 238.777 168.52 238.537 168.24C238.297 167.96 238.011 167.753 237.677 167.62C237.344 167.473 236.984 167.4 236.597 167.4C235.837 167.4 235.204 167.68 234.697 168.24C234.191 168.787 233.937 169.64 233.937 170.8C233.937 171.973 234.191 172.84 234.697 173.4C235.204 173.947 235.837 174.22 236.597 174.22ZM246.255 167.58V176H243.835V165.62H250.515V167.58H246.255ZM255.573 174.34C255.893 174.34 256.18 174.293 256.433 174.2C256.686 174.107 256.913 173.993 257.113 173.86C257.326 173.713 257.506 173.553 257.653 173.38C257.813 173.207 257.946 173.033 258.053 172.86V171.28H256.873C255.873 171.28 255.16 171.427 254.733 171.72C254.306 172.013 254.093 172.413 254.093 172.92C254.093 173.36 254.22 173.707 254.473 173.96C254.726 174.213 255.093 174.34 255.573 174.34ZM258.313 176C258.286 175.827 258.253 175.6 258.213 175.32C258.186 175.04 258.166 174.773 258.153 174.52C258.006 174.733 257.833 174.94 257.633 175.14C257.433 175.34 257.2 175.52 256.933 175.68C256.666 175.84 256.36 175.967 256.013 176.06C255.68 176.153 255.306 176.2 254.893 176.2C254.453 176.2 254.033 176.133 253.633 176C253.246 175.88 252.906 175.693 252.613 175.44C252.32 175.187 252.086 174.873 251.913 174.5C251.753 174.127 251.673 173.687 251.673 173.18C251.673 172.06 252.086 171.207 252.913 170.62C253.74 170.02 255.02 169.72 256.753 169.72H258.053V169.2C258.053 168.52 257.873 168.053 257.513 167.8C257.153 167.533 256.606 167.4 255.873 167.4C255.233 167.4 254.646 167.487 254.113 167.66C253.593 167.833 253.12 168.033 252.693 168.26L252.193 166.34C252.62 166.113 253.173 165.907 253.853 165.72C254.546 165.52 255.313 165.42 256.153 165.42C257.526 165.42 258.593 165.707 259.353 166.28C260.113 166.84 260.493 167.747 260.493 169V174.32C260.493 174.44 260.493 174.58 260.493 174.74C260.506 174.887 260.513 175.04 260.513 175.2C260.526 175.36 260.533 175.513 260.533 175.66C260.546 175.793 260.56 175.907 260.573 176H258.313ZM267.554 167.3C266.861 167.3 266.288 167.5 265.834 167.9C265.394 168.3 265.101 168.9 264.954 169.7H269.734C269.761 168.9 269.574 168.3 269.174 167.9C268.788 167.5 268.248 167.3 267.554 167.3ZM271.874 175.2C271.808 175.253 271.674 175.333 271.474 175.44C271.288 175.547 271.034 175.66 270.714 175.78C270.408 175.887 270.034 175.98 269.594 176.06C269.154 176.153 268.648 176.2 268.074 176.2C266.168 176.2 264.741 175.727 263.794 174.78C262.861 173.833 262.394 172.507 262.394 170.8C262.394 169.96 262.521 169.207 262.774 168.54C263.028 167.873 263.381 167.313 263.834 166.86C264.288 166.393 264.828 166.04 265.454 165.8C266.094 165.547 266.794 165.42 267.554 165.42C268.328 165.42 269.028 165.547 269.654 165.8C270.281 166.053 270.794 166.433 271.194 166.94C271.608 167.447 271.894 168.08 272.054 168.84C272.214 169.6 272.214 170.48 272.054 171.48H264.914C265.008 172.387 265.314 173.067 265.834 173.52C266.368 173.973 267.154 174.2 268.194 174.2C268.621 174.2 269.008 174.167 269.354 174.1C269.714 174.02 270.021 173.933 270.274 173.84C270.541 173.733 270.761 173.633 270.934 173.54C271.121 173.433 271.254 173.347 271.334 173.28L271.874 175.2ZM276.405 168.38V176H274.245V165.62H277.565L280.285 171.94L283.145 165.62H286.365V176H283.945V168.38L280.945 175.04H279.265L276.405 168.38Z" fill="#1A1B22"/>
<path d="M297.856 176.2C297.029 176.2 296.276 176.08 295.596 175.84C294.916 175.6 294.336 175.253 293.856 174.8C293.376 174.333 293.002 173.767 292.736 173.1C292.469 172.433 292.336 171.673 292.336 170.82C292.336 169.98 292.469 169.227 292.736 168.56C293.002 167.88 293.376 167.313 293.856 166.86C294.336 166.393 294.909 166.04 295.576 165.8C296.242 165.547 296.969 165.42 297.756 165.42C298.476 165.42 299.102 165.5 299.636 165.66C300.182 165.807 300.622 166 300.956 166.24L300.456 168.12C300.109 167.92 299.729 167.753 299.316 167.62C298.916 167.473 298.416 167.4 297.816 167.4C296.896 167.4 296.169 167.687 295.636 168.26C295.102 168.82 294.836 169.673 294.836 170.82C294.836 171.927 295.109 172.767 295.656 173.34C296.202 173.913 296.962 174.2 297.936 174.2C298.482 174.2 298.949 174.133 299.336 174C299.722 173.867 300.089 173.7 300.436 173.5L300.936 175.38C300.589 175.607 300.169 175.8 299.676 175.96C299.182 176.12 298.576 176.2 297.856 176.2ZM307.814 167.58V176H305.394V167.58H302.334V165.62H310.934V167.58H307.814ZM314.511 179.74C314.204 179.74 313.897 179.713 313.591 179.66C313.284 179.62 313.037 179.56 312.851 179.48L313.151 177.52C313.297 177.573 313.471 177.62 313.671 177.66C313.871 177.7 314.104 177.72 314.371 177.72C314.784 177.72 315.131 177.627 315.411 177.44C315.691 177.267 315.937 176.993 316.151 176.62L312.111 165.62H314.691L317.411 173.54L320.111 165.62H322.391L318.771 175.88C318.544 176.507 318.304 177.06 318.051 177.54C317.797 178.02 317.504 178.42 317.171 178.74C316.837 179.073 316.451 179.32 316.011 179.48C315.584 179.653 315.084 179.74 314.511 179.74ZM329.808 167.58H326.728C326.662 169.193 326.548 170.52 326.388 171.56C326.228 172.587 325.975 173.413 325.628 174.04H329.808V167.58ZM331.668 176H324.448L324.288 178.96H322.148V174.04H323.088C323.382 173.773 323.615 173.407 323.788 172.94C323.975 172.473 324.122 171.893 324.228 171.2C324.348 170.507 324.435 169.7 324.488 168.78C324.542 167.86 324.595 166.807 324.648 165.62H332.248V174.04H333.968V178.96H331.848L331.668 176ZM339.976 167.3C339.283 167.3 338.71 167.5 338.256 167.9C337.816 168.3 337.523 168.9 337.376 169.7H342.156C342.183 168.9 341.996 168.3 341.596 167.9C341.21 167.5 340.67 167.3 339.976 167.3ZM344.296 175.2C344.23 175.253 344.096 175.333 343.896 175.44C343.71 175.547 343.456 175.66 343.136 175.78C342.83 175.887 342.456 175.98 342.016 176.06C341.576 176.153 341.07 176.2 340.496 176.2C338.59 176.2 337.163 175.727 336.216 174.78C335.283 173.833 334.816 172.507 334.816 170.8C334.816 169.96 334.943 169.207 335.196 168.54C335.45 167.873 335.803 167.313 336.256 166.86C336.71 166.393 337.25 166.04 337.876 165.8C338.516 165.547 339.216 165.42 339.976 165.42C340.75 165.42 341.45 165.547 342.076 165.8C342.703 166.053 343.216 166.433 343.616 166.94C344.03 167.447 344.316 168.08 344.476 168.84C344.636 169.6 344.636 170.48 344.476 171.48H337.336C337.43 172.387 337.736 173.067 338.256 173.52C338.79 173.973 339.576 174.2 340.616 174.2C341.043 174.2 341.43 174.167 341.776 174.1C342.136 174.02 342.443 173.933 342.696 173.84C342.963 173.733 343.183 173.633 343.356 173.54C343.543 173.433 343.676 173.347 343.756 173.28L344.296 175.2ZM353.427 171.66H349.087V176H346.667V165.62H349.087V169.7H353.427V165.62H355.867V176H353.427V171.66ZM363.283 167.58V176H360.863V167.58H357.803V165.62H366.403V167.58H363.283ZM371.432 174.34C371.752 174.34 372.039 174.293 372.292 174.2C372.546 174.107 372.772 173.993 372.972 173.86C373.186 173.713 373.366 173.553 373.512 173.38C373.672 173.207 373.806 173.033 373.912 172.86V171.28H372.732C371.732 171.28 371.019 171.427 370.592 171.72C370.166 172.013 369.952 172.413 369.952 172.92C369.952 173.36 370.079 173.707 370.332 173.96C370.586 174.213 370.952 174.34 371.432 174.34ZM374.172 176C374.146 175.827 374.112 175.6 374.072 175.32C374.046 175.04 374.026 174.773 374.012 174.52C373.866 174.733 373.692 174.94 373.492 175.14C373.292 175.34 373.059 175.52 372.792 175.68C372.526 175.84 372.219 175.967 371.872 176.06C371.539 176.153 371.166 176.2 370.752 176.2C370.312 176.2 369.892 176.133 369.492 176C369.106 175.88 368.766 175.693 368.472 175.44C368.179 175.187 367.946 174.873 367.772 174.5C367.612 174.127 367.532 173.687 367.532 173.18C367.532 172.06 367.946 171.207 368.772 170.62C369.599 170.02 370.879 169.72 372.612 169.72H373.912V169.2C373.912 168.52 373.732 168.053 373.372 167.8C373.012 167.533 372.466 167.4 371.732 167.4C371.092 167.4 370.506 167.487 369.972 167.66C369.452 167.833 368.979 168.033 368.552 168.26L368.052 166.34C368.479 166.113 369.032 165.907 369.712 165.72C370.406 165.52 371.172 165.42 372.012 165.42C373.386 165.42 374.452 165.707 375.212 166.28C375.972 166.84 376.352 167.747 376.352 169V174.32C376.352 174.44 376.352 174.58 376.352 174.74C376.366 174.887 376.372 175.04 376.372 175.2C376.386 175.36 376.392 175.513 376.392 175.66C376.406 175.793 376.419 175.907 376.432 176H374.172ZM381.054 168.38V176H378.894V165.62H382.214L384.934 171.94L387.794 165.62H391.014V176H388.594V168.38L385.594 175.04H383.914L381.054 168.38Z" fill="white"/>
<path d="M172.002 209.18C171.126 209.18 170.304 209.036 169.536 208.748C168.78 208.46 168.12 208.04 167.556 207.488C166.992 206.924 166.548 206.234 166.224 205.418C165.9 204.59 165.738 203.636 165.738 202.556C165.738 201.476 165.9 200.528 166.224 199.712C166.548 198.884 166.992 198.194 167.556 197.642C168.12 197.078 168.78 196.652 169.536 196.364C170.304 196.076 171.126 195.932 172.002 195.932C172.89 195.932 173.712 196.076 174.468 196.364C175.236 196.64 175.902 197.054 176.466 197.606C177.03 198.146 177.474 198.83 177.798 199.658C178.122 200.474 178.284 201.422 178.284 202.502C178.284 203.582 178.122 204.536 177.798 205.364C177.474 206.192 177.03 206.888 176.466 207.452C175.902 208.016 175.236 208.448 174.468 208.748C173.712 209.036 172.89 209.18 172.002 209.18ZM172.002 207.236C172.554 207.236 173.07 207.152 173.55 206.984C174.03 206.816 174.438 206.546 174.774 206.174C175.122 205.802 175.392 205.322 175.584 204.734C175.788 204.134 175.89 203.408 175.89 202.556C175.89 201.704 175.788 200.978 175.584 200.378C175.392 199.778 175.122 199.292 174.774 198.92C174.438 198.548 174.03 198.278 173.55 198.11C173.07 197.942 172.554 197.858 172.002 197.858C171.45 197.858 170.94 197.942 170.472 198.11C170.004 198.278 169.596 198.548 169.248 198.92C168.9 199.292 168.624 199.778 168.42 200.378C168.228 200.978 168.132 201.704 168.132 202.556C168.132 203.408 168.228 204.134 168.42 204.734C168.624 205.322 168.9 205.802 169.248 206.174C169.596 206.546 170.004 206.816 170.472 206.984C170.94 207.152 171.45 207.236 172.002 207.236ZM184.913 207.38C185.633 207.38 186.215 207.128 186.659 206.624C187.115 206.108 187.343 205.34 187.343 204.32C187.343 203.3 187.115 202.538 186.659 202.034C186.215 201.518 185.633 201.26 184.913 201.26C184.553 201.26 184.217 201.326 183.905 201.458C183.605 201.578 183.341 201.764 183.113 202.016C182.897 202.268 182.723 202.586 182.591 202.97C182.459 203.354 182.393 203.804 182.393 204.32C182.393 204.836 182.459 205.286 182.591 205.67C182.723 206.054 182.897 206.372 183.113 206.624C183.341 206.876 183.605 207.068 183.905 207.2C184.217 207.32 184.553 207.38 184.913 207.38ZM185.453 209.18C184.745 209.18 184.139 209.024 183.635 208.712C183.131 208.388 182.723 207.956 182.411 207.416V212.186H180.233V199.658H182.249L182.375 201.278C182.687 200.726 183.095 200.288 183.599 199.964C184.115 199.64 184.745 199.478 185.489 199.478C186.041 199.478 186.563 199.58 187.055 199.784C187.559 199.976 187.997 200.276 188.369 200.684C188.741 201.08 189.035 201.584 189.251 202.196C189.479 202.796 189.593 203.504 189.593 204.32C189.593 205.148 189.479 205.868 189.251 206.48C189.035 207.08 188.735 207.584 188.351 207.992C187.979 208.388 187.541 208.688 187.037 208.892C186.533 209.084 186.005 209.18 185.453 209.18ZM193.626 201.422V209H191.448V199.658H197.46V201.422H193.626ZM202.012 207.506C202.3 207.506 202.558 207.464 202.786 207.38C203.014 207.296 203.218 207.194 203.398 207.074C203.59 206.942 203.752 206.798 203.884 206.642C204.028 206.486 204.148 206.33 204.244 206.174V204.752H203.182C202.282 204.752 201.64 204.884 201.256 205.148C200.872 205.412 200.68 205.772 200.68 206.228C200.68 206.624 200.794 206.936 201.022 207.164C201.25 207.392 201.58 207.506 202.012 207.506ZM204.478 209C204.454 208.844 204.424 208.64 204.388 208.388C204.364 208.136 204.346 207.896 204.334 207.668C204.202 207.86 204.046 208.046 203.866 208.226C203.686 208.406 203.476 208.568 203.236 208.712C202.996 208.856 202.72 208.97 202.408 209.054C202.108 209.138 201.772 209.18 201.4 209.18C201.004 209.18 200.626 209.12 200.266 209C199.918 208.892 199.612 208.724 199.348 208.496C199.084 208.268 198.874 207.986 198.718 207.65C198.574 207.314 198.502 206.918 198.502 206.462C198.502 205.454 198.874 204.686 199.618 204.158C200.362 203.618 201.514 203.348 203.074 203.348H204.244V202.88C204.244 202.268 204.082 201.848 203.758 201.62C203.434 201.38 202.942 201.26 202.282 201.26C201.706 201.26 201.178 201.338 200.698 201.494C200.23 201.65 199.804 201.83 199.42 202.034L198.97 200.306C199.354 200.102 199.852 199.916 200.464 199.748C201.088 199.568 201.778 199.478 202.534 199.478C203.77 199.478 204.73 199.736 205.414 200.252C206.098 200.756 206.44 201.572 206.44 202.7V207.488C206.44 207.596 206.44 207.722 206.44 207.866C206.452 207.998 206.458 208.136 206.458 208.28C206.47 208.424 206.476 208.562 206.476 208.694C206.488 208.814 206.5 208.916 206.512 209H204.478ZM214.811 205.094H210.905V209H208.727V199.658H210.905V203.33H214.811V199.658H217.007V209H214.811V205.094ZM219.397 199.658H221.557V206.12L226.021 199.658H228.163V209H226.003V202.556L221.557 209H219.397V199.658ZM233.151 209.18C232.323 209.18 231.645 209.102 231.117 208.946C230.601 208.778 230.211 208.598 229.947 208.406L230.559 206.714C230.847 206.894 231.201 207.062 231.621 207.218C232.041 207.362 232.527 207.434 233.079 207.434C233.643 207.434 234.099 207.338 234.447 207.146C234.807 206.954 234.987 206.642 234.987 206.21C234.987 205.79 234.837 205.49 234.537 205.31C234.237 205.13 233.763 205.04 233.115 205.04H231.783V203.402H233.151C233.655 203.402 234.039 203.318 234.303 203.15C234.567 202.97 234.699 202.688 234.699 202.304C234.699 201.896 234.543 201.614 234.231 201.458C233.919 201.302 233.535 201.224 233.079 201.224C232.575 201.224 232.119 201.296 231.711 201.44C231.303 201.572 230.943 201.734 230.631 201.926L230.199 200.252C230.499 200.072 230.907 199.898 231.423 199.73C231.951 199.562 232.563 199.478 233.259 199.478C234.423 199.478 235.305 199.688 235.905 200.108C236.517 200.528 236.823 201.14 236.823 201.944C236.823 202.556 236.649 203.03 236.301 203.366C235.953 203.702 235.449 203.948 234.789 204.104C235.593 204.212 236.187 204.44 236.571 204.788C236.967 205.136 237.165 205.646 237.165 206.318C237.165 206.81 237.057 207.236 236.841 207.596C236.625 207.956 236.331 208.256 235.959 208.496C235.599 208.724 235.173 208.892 234.681 209C234.201 209.12 233.691 209.18 233.151 209.18ZM243.188 209.18C242.528 209.18 241.916 209.072 241.352 208.856C240.788 208.64 240.296 208.328 239.876 207.92C239.468 207.5 239.144 206.99 238.904 206.39C238.664 205.79 238.544 205.1 238.544 204.32C238.544 203.54 238.664 202.85 238.904 202.25C239.144 201.65 239.468 201.146 239.876 200.738C240.296 200.318 240.788 200.006 241.352 199.802C241.916 199.586 242.528 199.478 243.188 199.478C243.848 199.478 244.466 199.586 245.042 199.802C245.618 200.006 246.116 200.318 246.536 200.738C246.956 201.146 247.286 201.65 247.526 202.25C247.766 202.85 247.886 203.54 247.886 204.32C247.886 205.1 247.766 205.79 247.526 206.39C247.286 206.99 246.956 207.5 246.536 207.92C246.116 208.328 245.618 208.64 245.042 208.856C244.466 209.072 243.848 209.18 243.188 209.18ZM243.188 207.398C243.896 207.398 244.478 207.152 244.934 206.66C245.402 206.156 245.636 205.376 245.636 204.32C245.636 203.804 245.57 203.354 245.438 202.97C245.318 202.586 245.15 202.268 244.934 202.016C244.718 201.764 244.46 201.578 244.16 201.458C243.86 201.326 243.536 201.26 243.188 201.26C242.504 201.26 241.934 201.512 241.478 202.016C241.022 202.508 240.794 203.276 240.794 204.32C240.794 205.376 241.022 206.156 241.478 206.66C241.934 207.152 242.504 207.398 243.188 207.398ZM251.862 201.278V203.456H253.284C253.776 203.456 254.172 203.366 254.472 203.186C254.772 203.006 254.922 202.736 254.922 202.376C254.922 201.956 254.79 201.668 254.526 201.512C254.274 201.356 253.902 201.278 253.41 201.278H251.862ZM251.862 204.968V207.38H253.374C253.926 207.38 254.37 207.296 254.706 207.128C255.054 206.96 255.228 206.648 255.228 206.192C255.228 205.76 255.072 205.448 254.76 205.256C254.46 205.064 253.974 204.968 253.302 204.968H251.862ZM249.702 199.658H253.536C254.748 199.658 255.642 199.85 256.218 200.234C256.806 200.606 257.1 201.188 257.1 201.98C257.1 202.556 256.938 203.012 256.614 203.348C256.29 203.684 255.804 203.93 255.156 204.086C255.936 204.218 256.512 204.464 256.884 204.824C257.268 205.172 257.46 205.676 257.46 206.336C257.46 207.248 257.1 207.92 256.38 208.352C255.66 208.784 254.7 209 253.5 209H249.702V199.658ZM262.411 207.506C262.699 207.506 262.957 207.464 263.185 207.38C263.413 207.296 263.617 207.194 263.797 207.074C263.989 206.942 264.151 206.798 264.283 206.642C264.427 206.486 264.547 206.33 264.643 206.174V204.752H263.581C262.681 204.752 262.039 204.884 261.655 205.148C261.271 205.412 261.079 205.772 261.079 206.228C261.079 206.624 261.193 206.936 261.421 207.164C261.649 207.392 261.979 207.506 262.411 207.506ZM264.877 209C264.853 208.844 264.823 208.64 264.787 208.388C264.763 208.136 264.745 207.896 264.733 207.668C264.601 207.86 264.445 208.046 264.265 208.226C264.085 208.406 263.875 208.568 263.635 208.712C263.395 208.856 263.119 208.97 262.807 209.054C262.507 209.138 262.171 209.18 261.799 209.18C261.403 209.18 261.025 209.12 260.665 209C260.317 208.892 260.011 208.724 259.747 208.496C259.483 208.268 259.273 207.986 259.117 207.65C258.973 207.314 258.901 206.918 258.901 206.462C258.901 205.454 259.273 204.686 260.017 204.158C260.761 203.618 261.913 203.348 263.473 203.348H264.643V202.88C264.643 202.268 264.481 201.848 264.157 201.62C263.833 201.38 263.341 201.26 262.681 201.26C262.105 201.26 261.577 201.338 261.097 201.494C260.629 201.65 260.203 201.83 259.819 202.034L259.369 200.306C259.753 200.102 260.251 199.916 260.863 199.748C261.487 199.568 262.177 199.478 262.933 199.478C264.169 199.478 265.129 199.736 265.813 200.252C266.497 200.756 266.839 201.572 266.839 202.7V207.488C266.839 207.596 266.839 207.722 266.839 207.866C266.851 207.998 266.857 208.136 266.857 208.28C266.869 208.424 266.875 208.562 266.875 208.694C266.887 208.814 266.899 208.916 266.911 209H264.877ZM273.234 201.422V209H271.056V201.422H268.302V199.658H276.042V201.422H273.234ZM279.97 204.338V207.308H281.284C281.848 207.308 282.304 207.194 282.652 206.966C283 206.738 283.174 206.36 283.174 205.832C283.174 205.304 283.018 204.926 282.706 204.698C282.394 204.458 281.944 204.338 281.356 204.338H279.97ZM277.774 199.658H279.97V202.646H281.356C282.64 202.646 283.636 202.898 284.344 203.402C285.064 203.906 285.424 204.686 285.424 205.742C285.424 206.294 285.322 206.774 285.118 207.182C284.914 207.59 284.626 207.932 284.254 208.208C283.894 208.472 283.456 208.67 282.94 208.802C282.436 208.934 281.884 209 281.284 209H277.774V199.658ZM296.528 201.422H292.82V209H290.642V199.658H298.706V209H296.528V201.422ZM305.186 209.18C304.526 209.18 303.914 209.072 303.35 208.856C302.786 208.64 302.294 208.328 301.874 207.92C301.466 207.5 301.142 206.99 300.902 206.39C300.662 205.79 300.542 205.1 300.542 204.32C300.542 203.54 300.662 202.85 300.902 202.25C301.142 201.65 301.466 201.146 301.874 200.738C302.294 200.318 302.786 200.006 303.35 199.802C303.914 199.586 304.526 199.478 305.186 199.478C305.846 199.478 306.464 199.586 307.04 199.802C307.616 200.006 308.114 200.318 308.534 200.738C308.954 201.146 309.284 201.65 309.524 202.25C309.764 202.85 309.884 203.54 309.884 204.32C309.884 205.1 309.764 205.79 309.524 206.39C309.284 206.99 308.954 207.5 308.534 207.92C308.114 208.328 307.616 208.64 307.04 208.856C306.464 209.072 305.846 209.18 305.186 209.18ZM305.186 207.398C305.894 207.398 306.476 207.152 306.932 206.66C307.4 206.156 307.634 205.376 307.634 204.32C307.634 203.804 307.568 203.354 307.436 202.97C307.316 202.586 307.148 202.268 306.932 202.016C306.716 201.764 306.458 201.578 306.158 201.458C305.858 201.326 305.534 201.26 305.186 201.26C304.502 201.26 303.932 201.512 303.476 202.016C303.02 202.508 302.792 203.276 302.792 204.32C302.792 205.376 303.02 206.156 303.476 206.66C303.932 207.152 304.502 207.398 305.186 207.398ZM311.7 199.658H313.86V206.12L318.324 199.658H320.466V209H318.306V202.556L313.86 209H311.7V199.658ZM327.272 209.18C326.528 209.18 325.85 209.072 325.238 208.856C324.626 208.64 324.104 208.328 323.672 207.92C323.24 207.5 322.904 206.99 322.664 206.39C322.424 205.79 322.304 205.106 322.304 204.338C322.304 203.582 322.424 202.904 322.664 202.304C322.904 201.692 323.24 201.182 323.672 200.774C324.104 200.354 324.62 200.036 325.22 199.82C325.82 199.592 326.474 199.478 327.182 199.478C327.83 199.478 328.394 199.55 328.874 199.694C329.366 199.826 329.762 200 330.062 200.216L329.612 201.908C329.3 201.728 328.958 201.578 328.586 201.458C328.226 201.326 327.776 201.26 327.236 201.26C326.408 201.26 325.754 201.518 325.274 202.034C324.794 202.538 324.554 203.306 324.554 204.338C324.554 205.334 324.8 206.09 325.292 206.606C325.784 207.122 326.468 207.38 327.344 207.38C327.836 207.38 328.256 207.32 328.604 207.2C328.952 207.08 329.282 206.93 329.594 206.75L330.044 208.442C329.732 208.646 329.354 208.82 328.91 208.964C328.466 209.108 327.92 209.18 327.272 209.18ZM334.938 205.238H334.128V209H331.95V199.658H334.128V203.492H334.992L337.908 199.658H340.176L336.702 204.14L340.356 209H337.764L334.938 205.238ZM349.937 207.38C350.657 207.38 351.239 207.128 351.683 206.624C352.139 206.108 352.367 205.34 352.367 204.32C352.367 203.3 352.139 202.538 351.683 202.034C351.239 201.518 350.657 201.26 349.937 201.26C349.577 201.26 349.241 201.326 348.929 201.458C348.629 201.578 348.365 201.764 348.137 202.016C347.921 202.268 347.747 202.586 347.615 202.97C347.483 203.354 347.417 203.804 347.417 204.32C347.417 204.836 347.483 205.286 347.615 205.67C347.747 206.054 347.921 206.372 348.137 206.624C348.365 206.876 348.629 207.068 348.929 207.2C349.241 207.32 349.577 207.38 349.937 207.38ZM350.477 209.18C349.769 209.18 349.163 209.024 348.659 208.712C348.155 208.388 347.747 207.956 347.435 207.416V212.186H345.257V199.658H347.273L347.399 201.278C347.711 200.726 348.119 200.288 348.623 199.964C349.139 199.64 349.769 199.478 350.513 199.478C351.065 199.478 351.587 199.58 352.079 199.784C352.583 199.976 353.021 200.276 353.393 200.684C353.765 201.08 354.059 201.584 354.275 202.196C354.503 202.796 354.617 203.504 354.617 204.32C354.617 205.148 354.503 205.868 354.275 206.48C354.059 207.08 353.759 207.584 353.375 207.992C353.003 208.388 352.565 208.688 352.061 208.892C351.557 209.084 351.029 209.18 350.477 209.18ZM359.372 207.506C359.66 207.506 359.918 207.464 360.146 207.38C360.374 207.296 360.578 207.194 360.758 207.074C360.95 206.942 361.112 206.798 361.244 206.642C361.388 206.486 361.508 206.33 361.604 206.174V204.752H360.542C359.642 204.752 359 204.884 358.616 205.148C358.232 205.412 358.04 205.772 358.04 206.228C358.04 206.624 358.154 206.936 358.382 207.164C358.61 207.392 358.94 207.506 359.372 207.506ZM361.838 209C361.814 208.844 361.784 208.64 361.748 208.388C361.724 208.136 361.706 207.896 361.694 207.668C361.562 207.86 361.406 208.046 361.226 208.226C361.046 208.406 360.836 208.568 360.596 208.712C360.356 208.856 360.08 208.97 359.768 209.054C359.468 209.138 359.132 209.18 358.76 209.18C358.364 209.18 357.986 209.12 357.626 209C357.278 208.892 356.972 208.724 356.708 208.496C356.444 208.268 356.234 207.986 356.078 207.65C355.934 207.314 355.862 206.918 355.862 206.462C355.862 205.454 356.234 204.686 356.978 204.158C357.722 203.618 358.874 203.348 360.434 203.348H361.604V202.88C361.604 202.268 361.442 201.848 361.118 201.62C360.794 201.38 360.302 201.26 359.642 201.26C359.066 201.26 358.538 201.338 358.058 201.494C357.59 201.65 357.164 201.83 356.78 202.034L356.33 200.306C356.714 200.102 357.212 199.916 357.824 199.748C358.448 199.568 359.138 199.478 359.894 199.478C361.13 199.478 362.09 199.736 362.774 200.252C363.458 200.756 363.8 201.572 363.8 202.7V207.488C363.8 207.596 363.8 207.722 363.8 207.866C363.812 207.998 363.818 208.136 363.818 208.28C363.83 208.424 363.836 208.562 363.836 208.694C363.848 208.814 363.86 208.916 363.872 209H361.838ZM370.479 209.18C369.783 209.18 369.141 209.066 368.553 208.838C367.977 208.61 367.473 208.262 367.041 207.794C366.621 207.326 366.291 206.738 366.051 206.03C365.823 205.322 365.709 204.494 365.709 203.546C365.709 202.694 365.745 201.92 365.817 201.224C365.889 200.528 366.009 199.904 366.177 199.352C366.357 198.8 366.591 198.314 366.879 197.894C367.179 197.474 367.557 197.114 368.013 196.814C368.565 196.466 369.147 196.232 369.759 196.112C370.371 195.992 371.007 195.92 371.667 195.896C372.255 195.86 372.747 195.806 373.143 195.734C373.539 195.662 373.869 195.56 374.133 195.428L374.439 197.336C374.187 197.504 373.869 197.624 373.485 197.696C373.101 197.756 372.543 197.81 371.811 197.858C371.211 197.894 370.671 197.948 370.191 198.02C369.711 198.092 369.279 198.26 368.895 198.524C368.439 198.836 368.103 199.28 367.887 199.856C367.671 200.432 367.533 201.134 367.473 201.962C368.037 200.462 369.195 199.712 370.947 199.712C371.499 199.712 372.021 199.82 372.513 200.036C373.005 200.24 373.437 200.54 373.809 200.936C374.181 201.332 374.475 201.818 374.691 202.394C374.919 202.97 375.033 203.624 375.033 204.356C375.033 205.136 374.913 205.826 374.673 206.426C374.445 207.026 374.127 207.53 373.719 207.938C373.311 208.346 372.825 208.658 372.261 208.874C371.709 209.078 371.115 209.18 370.479 209.18ZM370.407 207.38C371.091 207.38 371.655 207.14 372.099 206.66C372.555 206.168 372.783 205.412 372.783 204.392C372.783 203.888 372.723 203.456 372.603 203.096C372.483 202.724 372.315 202.418 372.099 202.178C371.883 201.926 371.625 201.74 371.325 201.62C371.025 201.5 370.701 201.44 370.353 201.44C369.657 201.44 369.081 201.68 368.625 202.16C368.169 202.64 367.941 203.378 367.941 204.374C367.941 205.406 368.175 206.168 368.643 206.66C369.111 207.14 369.699 207.38 370.407 207.38ZM380.948 209.18C380.288 209.18 379.676 209.072 379.112 208.856C378.548 208.64 378.056 208.328 377.636 207.92C377.228 207.5 376.904 206.99 376.664 206.39C376.424 205.79 376.304 205.1 376.304 204.32C376.304 203.54 376.424 202.85 376.664 202.25C376.904 201.65 377.228 201.146 377.636 200.738C378.056 200.318 378.548 200.006 379.112 199.802C379.676 199.586 380.288 199.478 380.948 199.478C381.608 199.478 382.226 199.586 382.802 199.802C383.378 200.006 383.876 200.318 384.296 200.738C384.716 201.146 385.046 201.65 385.286 202.25C385.526 202.85 385.646 203.54 385.646 204.32C385.646 205.1 385.526 205.79 385.286 206.39C385.046 206.99 384.716 207.5 384.296 207.92C383.876 208.328 383.378 208.64 382.802 208.856C382.226 209.072 381.608 209.18 380.948 209.18ZM380.948 207.398C381.656 207.398 382.238 207.152 382.694 206.66C383.162 206.156 383.396 205.376 383.396 204.32C383.396 203.804 383.33 203.354 383.198 202.97C383.078 202.586 382.91 202.268 382.694 202.016C382.478 201.764 382.22 201.578 381.92 201.458C381.62 201.326 381.296 201.26 380.948 201.26C380.264 201.26 379.694 201.512 379.238 202.016C378.782 202.508 378.554 203.276 378.554 204.32C378.554 205.376 378.782 206.156 379.238 206.66C379.694 207.152 380.264 207.398 380.948 207.398ZM391.517 201.422V209H389.339V201.422H386.585V199.658H394.325V201.422H391.517ZM406.785 209H404.589V199.658H406.785V209ZM398.271 204.338V207.308H399.459C400.023 207.308 400.479 207.194 400.827 206.966C401.175 206.738 401.349 206.36 401.349 205.832C401.349 205.304 401.193 204.926 400.881 204.698C400.569 204.458 400.119 204.338 399.531 204.338H398.271ZM396.093 199.658H398.271V202.646H399.531C400.815 202.646 401.811 202.898 402.519 203.402C403.239 203.906 403.599 204.686 403.599 205.742C403.599 206.294 403.497 206.774 403.293 207.182C403.089 207.59 402.801 207.932 402.429 208.208C402.069 208.472 401.631 208.67 401.115 208.802C400.611 208.934 400.059 209 399.459 209H396.093V199.658ZM411.402 195.392V211.16H409.638V195.392H411.402Z" fill="white"/>
<path d="M392 0L394.15 5.8504L400 8L394.15 10.1496L392 16L389.85 10.1496L384 8L389.85 5.8504L392 0Z" fill="#7F67D2"/>
<path d="M165 274L166.612 278.388L171 280L166.612 281.612L165 286L163.388 281.612L159 280L163.388 278.388L165 274Z" fill="#7F67D2"/>
<path d="M403 253L404.612 257.388L409 259L404.612 260.612L403 265L401.388 260.612L397 259L401.388 257.388L403 253Z" fill="#5A9BFF"/>
<path d="M158 94L160.418 100.582L167 103L160.418 105.418L158 112L155.582 105.418L149 103L155.582 100.582L158 94Z" fill="#F1F6FF"/>
<path d="M274 80L275.344 83.6565L279 85L275.344 86.3435L274 90L272.656 86.3435L269 85L272.656 83.6565L274 80Z" fill="#FFBFFD" fill-opacity="0.87"/>
<rect x="185" y="12" width="104" height="36" rx="18" fill="#87CC9E"/>
<path d="M206.316 34.12C205.652 34.12 205.052 34.02 204.516 33.82C203.98 33.62 203.52 33.332 203.136 32.956C202.76 32.572 202.468 32.108 202.26 31.564C202.06 31.012 201.96 30.392 201.96 29.704C201.96 29.008 202.056 28.388 202.248 27.844C202.448 27.3 202.732 26.84 203.1 26.464C203.476 26.08 203.932 25.788 204.468 25.588C205.004 25.388 205.616 25.288 206.304 25.288C206.896 25.288 207.4 25.348 207.816 25.468C208.24 25.58 208.576 25.712 208.824 25.864V27.16C208.512 26.96 208.136 26.808 207.696 26.704C207.264 26.592 206.816 26.536 206.352 26.536C205.384 26.536 204.664 26.8 204.192 27.328C203.728 27.848 203.496 28.64 203.496 29.704C203.496 31.816 204.472 32.872 206.424 32.872C206.88 32.872 207.308 32.816 207.708 32.704C208.116 32.592 208.488 32.416 208.824 32.176V33.46C208.6 33.628 208.276 33.78 207.852 33.916C207.428 34.052 206.916 34.12 206.316 34.12ZM212.943 28.9V34H211.551V28.9H209.667V27.772H214.863V28.9H212.943ZM219.36 32.908C219.296 33.052 219.208 33.196 219.096 33.34C218.992 33.484 218.86 33.616 218.7 33.736C218.548 33.848 218.364 33.94 218.148 34.012C217.932 34.084 217.68 34.12 217.392 34.12C217.12 34.12 216.868 34.08 216.636 34C216.404 33.928 216.2 33.816 216.024 33.664C215.856 33.512 215.72 33.324 215.616 33.1C215.52 32.868 215.472 32.604 215.472 32.308C215.472 31.628 215.724 31.12 216.228 30.784C216.732 30.44 217.444 30.268 218.364 30.268H219.312V29.884C219.312 29.476 219.208 29.196 219 29.044C218.792 28.884 218.448 28.804 217.968 28.804C217.56 28.804 217.176 28.864 216.816 28.984C216.464 29.096 216.152 29.228 215.88 29.38V28.216C216.128 28.08 216.456 27.952 216.864 27.832C217.272 27.712 217.716 27.652 218.196 27.652C218.996 27.652 219.612 27.82 220.044 28.156C220.484 28.484 220.704 29.012 220.704 29.74V32.992C220.704 33.064 220.704 33.148 220.704 33.244C220.712 33.332 220.716 33.424 220.716 33.52C220.724 33.616 220.732 33.708 220.74 33.796C220.748 33.876 220.756 33.944 220.764 34H219.48C219.456 33.888 219.432 33.732 219.408 33.532C219.392 33.332 219.38 33.152 219.372 32.992L219.36 32.908ZM217.776 33.04C218.072 33.04 218.316 32.98 218.508 32.86C218.708 32.732 218.868 32.588 218.988 32.428C219.108 32.26 219.192 32.096 219.24 31.936C219.288 31.776 219.312 31.664 219.312 31.6V31.18H218.448C217.896 31.18 217.492 31.268 217.236 31.444C216.98 31.612 216.852 31.852 216.852 32.164C216.852 32.436 216.928 32.652 217.08 32.812C217.24 32.964 217.472 33.04 217.776 33.04ZM226.802 27.772V30.34H227.318L229.106 27.772H230.534L228.41 30.76L230.654 34H229.022L227.282 31.468H226.802V34H225.41V31.468H224.93L223.154 34H221.57L223.814 30.82L221.678 27.772H223.154L224.906 30.34H225.41V27.772H226.802ZM232.961 32.116L235.841 27.772H237.209V34H235.829V29.68L232.973 34H231.581V27.772H232.961V32.116ZM242.208 34.12C241.736 34.12 241.328 34.016 240.984 33.808C240.648 33.592 240.376 33.304 240.168 32.944V36.124H238.776V27.772H240.048L240.144 28.876C240.352 28.5 240.628 28.204 240.972 27.988C241.316 27.764 241.736 27.652 242.232 27.652C242.6 27.652 242.948 27.72 243.276 27.856C243.612 27.984 243.904 28.184 244.152 28.456C244.4 28.72 244.596 29.056 244.74 29.464C244.892 29.864 244.968 30.336 244.968 30.88C244.968 31.432 244.892 31.912 244.74 32.32C244.596 32.72 244.396 33.056 244.14 33.328C243.892 33.592 243.6 33.792 243.264 33.928C242.928 34.056 242.576 34.12 242.208 34.12ZM241.872 32.956C242.368 32.956 242.768 32.788 243.072 32.452C243.384 32.108 243.54 31.584 243.54 30.88C243.54 30.184 243.384 29.664 243.072 29.32C242.768 28.976 242.372 28.804 241.884 28.804C241.636 28.804 241.408 28.848 241.2 28.936C240.992 29.016 240.808 29.144 240.648 29.32C240.496 29.496 240.376 29.716 240.288 29.98C240.2 30.236 240.156 30.536 240.156 30.88C240.156 31.232 240.2 31.54 240.288 31.804C240.376 32.06 240.496 32.276 240.648 32.452C240.8 32.62 240.98 32.748 241.188 32.836C241.404 32.916 241.632 32.956 241.872 32.956ZM248.847 34.12C248.407 34.12 247.999 34.048 247.623 33.904C247.247 33.76 246.919 33.552 246.639 33.28C246.367 33 246.151 32.66 245.991 32.26C245.839 31.86 245.763 31.4 245.763 30.88C245.763 30.36 245.839 29.9 245.991 29.5C246.151 29.1 246.367 28.764 246.639 28.492C246.919 28.212 247.247 28.004 247.623 27.868C247.999 27.724 248.407 27.652 248.847 27.652C249.287 27.652 249.695 27.724 250.071 27.868C250.447 28.004 250.775 28.212 251.055 28.492C251.335 28.764 251.555 29.1 251.715 29.5C251.875 29.9 251.955 30.36 251.955 30.88C251.955 31.4 251.875 31.86 251.715 32.26C251.555 32.66 251.335 33 251.055 33.28C250.775 33.552 250.447 33.76 250.071 33.904C249.695 34.048 249.287 34.12 248.847 34.12ZM248.847 32.956C249.327 32.956 249.723 32.788 250.035 32.452C250.355 32.116 250.515 31.592 250.515 30.88C250.515 30.176 250.355 29.656 250.035 29.32C249.723 28.976 249.327 28.804 248.847 28.804C248.375 28.804 247.979 28.976 247.659 29.32C247.347 29.656 247.191 30.176 247.191 30.88C247.191 31.592 247.347 32.116 247.659 32.452C247.979 32.788 248.375 32.956 248.847 32.956ZM253.12 27.772H255.664C257.24 27.772 258.028 28.292 258.028 29.332C258.028 29.716 257.92 30.02 257.704 30.244C257.496 30.46 257.188 30.624 256.78 30.736C257.284 30.808 257.66 30.964 257.908 31.204C258.156 31.444 258.28 31.784 258.28 32.224C258.28 32.528 258.216 32.792 258.088 33.016C257.96 33.24 257.78 33.424 257.548 33.568C257.324 33.712 257.048 33.82 256.72 33.892C256.392 33.964 256.032 34 255.64 34H253.12V27.772ZM254.5 28.84V30.316H255.52C255.856 30.316 256.128 30.256 256.336 30.136C256.544 30.008 256.648 29.824 256.648 29.584C256.648 29.304 256.556 29.112 256.372 29.008C256.196 28.896 255.936 28.84 255.592 28.84H254.5ZM254.5 31.3V32.932H255.568C255.952 32.932 256.26 32.876 256.492 32.764C256.732 32.652 256.852 32.444 256.852 32.14C256.852 31.836 256.744 31.62 256.528 31.492C256.32 31.364 255.988 31.3 255.532 31.3H254.5ZM261.579 31.468H261.039V34H259.647V27.772H261.039V30.34H261.627L263.607 27.772H265.071L262.719 30.772L265.167 34H263.523L261.579 31.468ZM267.473 32.116L270.353 27.772H271.721V34H270.341V29.68L267.485 34H266.093V27.772H267.473V32.116Z" fill="#1A1B22"/>
<rect x="329" y="88" width="100" height="36" rx="18" fill="#FFF9D3"/>
<path d="M350.277 107.108L352.833 101.396H354.633V110H353.169V103.532L350.853 108.68L350.049 108.692H349.533L347.265 103.448V110H345.945V101.396H347.889L350.277 107.108ZM359.913 108.908C359.849 109.052 359.761 109.196 359.649 109.34C359.545 109.484 359.413 109.616 359.253 109.736C359.101 109.848 358.917 109.94 358.701 110.012C358.485 110.084 358.233 110.12 357.945 110.12C357.673 110.12 357.421 110.08 357.189 110C356.957 109.928 356.753 109.816 356.577 109.664C356.409 109.512 356.273 109.324 356.169 109.1C356.073 108.868 356.025 108.604 356.025 108.308C356.025 107.628 356.277 107.12 356.781 106.784C357.285 106.44 357.997 106.268 358.917 106.268H359.865V105.884C359.865 105.476 359.761 105.196 359.553 105.044C359.345 104.884 359.001 104.804 358.521 104.804C358.113 104.804 357.729 104.864 357.369 104.984C357.017 105.096 356.705 105.228 356.433 105.38V104.216C356.681 104.08 357.009 103.952 357.417 103.832C357.825 103.712 358.269 103.652 358.749 103.652C359.549 103.652 360.165 103.82 360.597 104.156C361.037 104.484 361.257 105.012 361.257 105.74V108.992C361.257 109.064 361.257 109.148 361.257 109.244C361.265 109.332 361.269 109.424 361.269 109.52C361.277 109.616 361.285 109.708 361.293 109.796C361.301 109.876 361.309 109.944 361.317 110H360.033C360.009 109.888 359.985 109.732 359.961 109.532C359.945 109.332 359.933 109.152 359.925 108.992L359.913 108.908ZM358.329 109.04C358.625 109.04 358.869 108.98 359.061 108.86C359.261 108.732 359.421 108.588 359.541 108.428C359.661 108.26 359.745 108.096 359.793 107.936C359.841 107.776 359.865 107.664 359.865 107.6V107.18H359.001C358.449 107.18 358.045 107.268 357.789 107.444C357.533 107.612 357.405 107.852 357.405 108.164C357.405 108.436 357.481 108.652 357.633 108.812C357.793 108.964 358.025 109.04 358.329 109.04ZM365.627 110.12C365.123 110.12 364.671 110.048 364.271 109.904C363.871 109.752 363.531 109.54 363.251 109.268C362.971 108.988 362.755 108.648 362.603 108.248C362.451 107.848 362.375 107.392 362.375 106.88C362.375 106.376 362.451 105.924 362.603 105.524C362.755 105.124 362.971 104.788 363.251 104.516C363.531 104.236 363.875 104.024 364.283 103.88C364.691 103.728 365.147 103.652 365.651 103.652C366.083 103.652 366.459 103.7 366.779 103.796C367.107 103.892 367.367 104.012 367.559 104.156V105.308C367.311 105.148 367.039 105.024 366.743 104.936C366.455 104.848 366.119 104.804 365.735 104.804C364.447 104.804 363.803 105.496 363.803 106.88C363.803 108.264 364.435 108.956 365.699 108.956C366.107 108.956 366.455 108.912 366.743 108.824C367.039 108.728 367.311 108.608 367.559 108.464V109.616C367.351 109.752 367.091 109.872 366.779 109.976C366.467 110.072 366.083 110.12 365.627 110.12ZM371.625 104.9V110H370.233V104.9H368.349V103.772H373.545V104.9H371.625ZM379.662 109.544C379.574 109.6 379.466 109.664 379.338 109.736C379.21 109.8 379.058 109.86 378.882 109.916C378.706 109.972 378.502 110.02 378.27 110.06C378.038 110.1 377.774 110.12 377.478 110.12C376.334 110.12 375.478 109.836 374.91 109.268C374.35 108.7 374.07 107.904 374.07 106.88C374.07 106.376 374.146 105.924 374.298 105.524C374.45 105.124 374.662 104.788 374.934 104.516C375.206 104.236 375.53 104.024 375.906 103.88C376.282 103.728 376.694 103.652 377.142 103.652C377.606 103.652 378.022 103.728 378.39 103.88C378.766 104.032 379.074 104.26 379.314 104.564C379.554 104.868 379.718 105.244 379.806 105.692C379.902 106.14 379.906 106.664 379.818 107.264H375.51C375.566 107.832 375.754 108.26 376.074 108.548C376.394 108.828 376.894 108.968 377.574 108.968C378.07 108.968 378.482 108.908 378.81 108.788C379.146 108.66 379.43 108.528 379.662 108.392V109.544ZM377.142 104.756C376.734 104.756 376.39 104.88 376.11 105.128C375.83 105.376 375.646 105.744 375.558 106.232H378.486C378.502 105.728 378.39 105.356 378.15 105.116C377.91 104.876 377.574 104.756 377.142 104.756ZM384.542 110.12C384.07 110.12 383.662 110.016 383.318 109.808C382.982 109.592 382.71 109.304 382.502 108.944V112.124H381.11V103.772H382.382L382.478 104.876C382.686 104.5 382.962 104.204 383.306 103.988C383.65 103.764 384.07 103.652 384.566 103.652C384.934 103.652 385.282 103.72 385.61 103.856C385.946 103.984 386.238 104.184 386.486 104.456C386.734 104.72 386.93 105.056 387.074 105.464C387.226 105.864 387.302 106.336 387.302 106.88C387.302 107.432 387.226 107.912 387.074 108.32C386.93 108.72 386.73 109.056 386.474 109.328C386.226 109.592 385.934 109.792 385.598 109.928C385.262 110.056 384.91 110.12 384.542 110.12ZM384.206 108.956C384.702 108.956 385.102 108.788 385.406 108.452C385.718 108.108 385.874 107.584 385.874 106.88C385.874 106.184 385.718 105.664 385.406 105.32C385.102 104.976 384.706 104.804 384.218 104.804C383.97 104.804 383.742 104.848 383.534 104.936C383.326 105.016 383.142 105.144 382.982 105.32C382.83 105.496 382.71 105.716 382.622 105.98C382.534 106.236 382.49 106.536 382.49 106.88C382.49 107.232 382.534 107.54 382.622 107.804C382.71 108.06 382.83 108.276 382.982 108.452C383.134 108.62 383.314 108.748 383.522 108.836C383.738 108.916 383.966 108.956 384.206 108.956ZM391.349 110.12C390.845 110.12 390.393 110.048 389.993 109.904C389.593 109.752 389.253 109.54 388.973 109.268C388.693 108.988 388.477 108.648 388.325 108.248C388.173 107.848 388.097 107.392 388.097 106.88C388.097 106.376 388.173 105.924 388.325 105.524C388.477 105.124 388.693 104.788 388.973 104.516C389.253 104.236 389.597 104.024 390.005 103.88C390.413 103.728 390.869 103.652 391.373 103.652C391.805 103.652 392.181 103.7 392.501 103.796C392.829 103.892 393.089 104.012 393.281 104.156V105.308C393.033 105.148 392.761 105.024 392.465 104.936C392.177 104.848 391.841 104.804 391.457 104.804C390.169 104.804 389.525 105.496 389.525 106.88C389.525 108.264 390.157 108.956 391.421 108.956C391.829 108.956 392.177 108.912 392.465 108.824C392.761 108.728 393.033 108.608 393.281 108.464V109.616C393.073 109.752 392.813 109.872 392.501 109.976C392.189 110.072 391.805 110.12 391.349 110.12ZM396.495 107.468H395.955V110H394.563V103.772H395.955V106.34H396.543L398.523 103.772H399.987L397.635 106.772L400.083 110H398.439L396.495 107.468ZM404.479 108.908C404.415 109.052 404.327 109.196 404.215 109.34C404.111 109.484 403.979 109.616 403.819 109.736C403.667 109.848 403.483 109.94 403.267 110.012C403.051 110.084 402.799 110.12 402.511 110.12C402.239 110.12 401.987 110.08 401.755 110C401.523 109.928 401.319 109.816 401.143 109.664C400.975 109.512 400.839 109.324 400.735 109.1C400.639 108.868 400.591 108.604 400.591 108.308C400.591 107.628 400.843 107.12 401.347 106.784C401.851 106.44 402.563 106.268 403.483 106.268H404.431V105.884C404.431 105.476 404.327 105.196 404.119 105.044C403.911 104.884 403.567 104.804 403.087 104.804C402.679 104.804 402.295 104.864 401.935 104.984C401.583 105.096 401.271 105.228 400.999 105.38V104.216C401.247 104.08 401.575 103.952 401.983 103.832C402.391 103.712 402.835 103.652 403.315 103.652C404.115 103.652 404.731 103.82 405.163 104.156C405.603 104.484 405.823 105.012 405.823 105.74V108.992C405.823 109.064 405.823 109.148 405.823 109.244C405.831 109.332 405.835 109.424 405.835 109.52C405.843 109.616 405.851 109.708 405.859 109.796C405.867 109.876 405.875 109.944 405.883 110H404.599C404.575 109.888 404.551 109.732 404.527 109.532C404.511 109.332 404.499 109.152 404.491 108.992L404.479 108.908ZM402.895 109.04C403.191 109.04 403.435 108.98 403.627 108.86C403.827 108.732 403.987 108.588 404.107 108.428C404.227 108.26 404.311 108.096 404.359 107.936C404.407 107.776 404.431 107.664 404.431 107.6V107.18H403.567C403.015 107.18 402.611 107.268 402.355 107.444C402.099 107.612 401.971 107.852 401.971 108.164C401.971 108.436 402.047 108.652 402.199 108.812C402.359 108.964 402.591 109.04 402.895 109.04ZM407.253 105.812C407.253 105.476 407.317 105.18 407.445 104.924C407.573 104.668 407.749 104.456 407.973 104.288C408.205 104.112 408.481 103.984 408.801 103.904C409.129 103.816 409.489 103.772 409.881 103.772H412.197V110H410.805V107.888H409.917L408.441 110H406.881L408.597 107.588C408.165 107.46 407.833 107.252 407.601 106.964C407.369 106.676 407.253 106.292 407.253 105.812ZM410.805 106.784V104.876H409.989C409.605 104.876 409.289 104.948 409.041 105.092C408.801 105.236 408.681 105.476 408.681 105.812C408.681 106.156 408.789 106.404 409.005 106.556C409.229 106.708 409.545 106.784 409.953 106.784H410.805Z" fill="#1A1B22"/>
<rect x="244" y="284" width="110" height="56" rx="20" fill="#FFBFFD" fill-opacity="0.87"/>
<path d="M271.36 297.396H274.288C275.312 297.396 276.092 297.556 276.628 297.876C277.164 298.196 277.432 298.736 277.432 299.496C277.432 299.808 277.388 300.08 277.3 300.312C277.212 300.536 277.084 300.732 276.916 300.9C276.756 301.06 276.56 301.192 276.328 301.296C276.096 301.4 275.84 301.48 275.56 301.536C276.28 301.624 276.824 301.82 277.192 302.124C277.56 302.428 277.744 302.892 277.744 303.516C277.744 303.964 277.656 304.348 277.48 304.668C277.304 304.98 277.06 305.236 276.748 305.436C276.436 305.628 276.068 305.772 275.644 305.868C275.22 305.956 274.76 306 274.264 306H271.36V297.396ZM272.812 298.656V300.948H274.36C274.84 300.948 275.228 300.848 275.524 300.648C275.82 300.44 275.968 300.116 275.968 299.676C275.968 299.276 275.832 299.008 275.56 298.872C275.296 298.728 274.92 298.656 274.432 298.656H272.812ZM272.812 302.196V304.752H274.408C274.68 304.752 274.928 304.732 275.152 304.692C275.376 304.644 275.568 304.572 275.728 304.476C275.888 304.372 276.012 304.24 276.1 304.08C276.188 303.912 276.232 303.708 276.232 303.468C276.232 302.996 276.076 302.668 275.764 302.484C275.46 302.292 274.968 302.196 274.288 302.196H272.812ZM282.655 304.908C282.591 305.052 282.503 305.196 282.391 305.34C282.287 305.484 282.155 305.616 281.995 305.736C281.843 305.848 281.659 305.94 281.443 306.012C281.227 306.084 280.975 306.12 280.687 306.12C280.415 306.12 280.163 306.08 279.931 306C279.699 305.928 279.495 305.816 279.319 305.664C279.151 305.512 279.015 305.324 278.911 305.1C278.815 304.868 278.767 304.604 278.767 304.308C278.767 303.628 279.019 303.12 279.523 302.784C280.027 302.44 280.739 302.268 281.659 302.268H282.607V301.884C282.607 301.476 282.503 301.196 282.295 301.044C282.087 300.884 281.743 300.804 281.263 300.804C280.855 300.804 280.471 300.864 280.111 300.984C279.759 301.096 279.447 301.228 279.175 301.38V300.216C279.423 300.08 279.751 299.952 280.159 299.832C280.567 299.712 281.011 299.652 281.491 299.652C282.291 299.652 282.907 299.82 283.339 300.156C283.779 300.484 283.999 301.012 283.999 301.74V304.992C283.999 305.064 283.999 305.148 283.999 305.244C284.007 305.332 284.011 305.424 284.011 305.52C284.019 305.616 284.027 305.708 284.035 305.796C284.043 305.876 284.051 305.944 284.059 306H282.775C282.751 305.888 282.727 305.732 282.703 305.532C282.687 305.332 282.675 305.152 282.667 304.992L282.655 304.908ZM281.071 305.04C281.367 305.04 281.611 304.98 281.803 304.86C282.003 304.732 282.163 304.588 282.283 304.428C282.403 304.26 282.487 304.096 282.535 303.936C282.583 303.776 282.607 303.664 282.607 303.6V303.18H281.743C281.191 303.18 280.787 303.268 280.531 303.444C280.275 303.612 280.147 303.852 280.147 304.164C280.147 304.436 280.223 304.652 280.375 304.812C280.535 304.964 280.767 305.04 281.071 305.04ZM287.433 303.468H286.893V306H285.501V299.772H286.893V302.34H287.481L289.461 299.772H290.925L288.573 302.772L291.021 306H289.377L287.433 303.468ZM295.417 304.908C295.353 305.052 295.265 305.196 295.153 305.34C295.049 305.484 294.917 305.616 294.757 305.736C294.605 305.848 294.421 305.94 294.205 306.012C293.989 306.084 293.737 306.12 293.449 306.12C293.177 306.12 292.925 306.08 292.693 306C292.461 305.928 292.257 305.816 292.081 305.664C291.913 305.512 291.777 305.324 291.673 305.1C291.577 304.868 291.529 304.604 291.529 304.308C291.529 303.628 291.781 303.12 292.285 302.784C292.789 302.44 293.501 302.268 294.421 302.268H295.369V301.884C295.369 301.476 295.265 301.196 295.057 301.044C294.849 300.884 294.505 300.804 294.025 300.804C293.617 300.804 293.233 300.864 292.873 300.984C292.521 301.096 292.209 301.228 291.937 301.38V300.216C292.185 300.08 292.513 299.952 292.921 299.832C293.329 299.712 293.773 299.652 294.253 299.652C295.053 299.652 295.669 299.82 296.101 300.156C296.541 300.484 296.761 301.012 296.761 301.74V304.992C296.761 305.064 296.761 305.148 296.761 305.244C296.769 305.332 296.773 305.424 296.773 305.52C296.781 305.616 296.789 305.708 296.797 305.796C296.805 305.876 296.813 305.944 296.821 306H295.537C295.513 305.888 295.489 305.732 295.465 305.532C295.449 305.332 295.437 305.152 295.429 304.992L295.417 304.908ZM293.833 305.04C294.129 305.04 294.373 304.98 294.565 304.86C294.765 304.732 294.925 304.588 295.045 304.428C295.165 304.26 295.249 304.096 295.297 303.936C295.345 303.776 295.369 303.664 295.369 303.6V303.18H294.505C293.953 303.18 293.549 303.268 293.293 303.444C293.037 303.612 292.909 303.852 292.909 304.164C292.909 304.436 292.985 304.652 293.137 304.812C293.297 304.964 293.529 305.04 293.833 305.04ZM302.282 303.372H299.654V306H298.262V299.772H299.654V302.244H302.282V299.772H303.674V306H302.282V303.372ZM308.103 306.12C307.599 306.12 307.147 306.048 306.747 305.904C306.347 305.752 306.007 305.54 305.727 305.268C305.447 304.988 305.231 304.648 305.079 304.248C304.927 303.848 304.851 303.392 304.851 302.88C304.851 302.376 304.927 301.924 305.079 301.524C305.231 301.124 305.447 300.788 305.727 300.516C306.007 300.236 306.351 300.024 306.759 299.88C307.167 299.728 307.623 299.652 308.127 299.652C308.559 299.652 308.935 299.7 309.255 299.796C309.583 299.892 309.843 300.012 310.035 300.156V301.308C309.787 301.148 309.515 301.024 309.219 300.936C308.931 300.848 308.595 300.804 308.211 300.804C306.923 300.804 306.279 301.496 306.279 302.88C306.279 304.264 306.911 304.956 308.175 304.956C308.583 304.956 308.931 304.912 309.219 304.824C309.515 304.728 309.787 304.608 310.035 304.464V305.616C309.827 305.752 309.567 305.872 309.255 305.976C308.943 306.072 308.559 306.12 308.103 306.12ZM312.697 304.116L315.577 299.772H316.945V306H315.565V301.68L312.709 306H311.317V299.772H312.697V304.116ZM319.892 304.116L322.772 299.772H324.14V306H322.76V301.68L319.904 306H318.512V299.772H319.892V304.116ZM263.609 326.12C263.169 326.12 262.761 326.048 262.385 325.904C262.009 325.76 261.681 325.552 261.401 325.28C261.129 325 260.913 324.66 260.753 324.26C260.601 323.86 260.525 323.4 260.525 322.88C260.525 322.36 260.601 321.9 260.753 321.5C260.913 321.1 261.129 320.764 261.401 320.492C261.681 320.212 262.009 320.004 262.385 319.868C262.761 319.724 263.169 319.652 263.609 319.652C264.049 319.652 264.457 319.724 264.833 319.868C265.209 320.004 265.537 320.212 265.817 320.492C266.097 320.764 266.317 321.1 266.477 321.5C266.637 321.9 266.717 322.36 266.717 322.88C266.717 323.4 266.637 323.86 266.477 324.26C266.317 324.66 266.097 325 265.817 325.28C265.537 325.552 265.209 325.76 264.833 325.904C264.457 326.048 264.049 326.12 263.609 326.12ZM263.609 324.956C264.089 324.956 264.485 324.788 264.797 324.452C265.117 324.116 265.277 323.592 265.277 322.88C265.277 322.176 265.117 321.656 264.797 321.32C264.485 320.976 264.089 320.804 263.609 320.804C263.137 320.804 262.741 320.976 262.421 321.32C262.109 321.656 261.953 322.176 261.953 322.88C261.953 323.592 262.109 324.116 262.421 324.452C262.741 324.788 263.137 324.956 263.609 324.956ZM270.513 320.9V326H269.121V320.9H267.237V319.772H272.433V320.9H270.513ZM276.276 317.396H283.008V326H281.544V318.656H277.728V326H276.276V317.396ZM288.286 324.908C288.222 325.052 288.134 325.196 288.022 325.34C287.918 325.484 287.786 325.616 287.626 325.736C287.474 325.848 287.29 325.94 287.074 326.012C286.858 326.084 286.606 326.12 286.318 326.12C286.046 326.12 285.794 326.08 285.562 326C285.33 325.928 285.126 325.816 284.95 325.664C284.782 325.512 284.646 325.324 284.542 325.1C284.446 324.868 284.398 324.604 284.398 324.308C284.398 323.628 284.65 323.12 285.154 322.784C285.658 322.44 286.37 322.268 287.29 322.268H288.238V321.884C288.238 321.476 288.134 321.196 287.926 321.044C287.718 320.884 287.374 320.804 286.894 320.804C286.486 320.804 286.102 320.864 285.742 320.984C285.39 321.096 285.078 321.228 284.806 321.38V320.216C285.054 320.08 285.382 319.952 285.79 319.832C286.198 319.712 286.642 319.652 287.122 319.652C287.922 319.652 288.538 319.82 288.97 320.156C289.41 320.484 289.63 321.012 289.63 321.74V324.992C289.63 325.064 289.63 325.148 289.63 325.244C289.638 325.332 289.642 325.424 289.642 325.52C289.65 325.616 289.658 325.708 289.666 325.796C289.674 325.876 289.682 325.944 289.69 326H288.406C288.382 325.888 288.358 325.732 288.334 325.532C288.318 325.332 288.306 325.152 288.298 324.992L288.286 324.908ZM286.702 325.04C286.998 325.04 287.242 324.98 287.434 324.86C287.634 324.732 287.794 324.588 287.914 324.428C288.034 324.26 288.118 324.096 288.166 323.936C288.214 323.776 288.238 323.664 288.238 323.6V323.18H287.374C286.822 323.18 286.418 323.268 286.162 323.444C285.906 323.612 285.778 323.852 285.778 324.164C285.778 324.436 285.854 324.652 286.006 324.812C286.166 324.964 286.398 325.04 286.702 325.04ZM294.564 326.12C294.092 326.12 293.684 326.016 293.34 325.808C293.004 325.592 292.732 325.304 292.524 324.944V328.124H291.132V319.772H292.404L292.5 320.876C292.708 320.5 292.984 320.204 293.328 319.988C293.672 319.764 294.092 319.652 294.588 319.652C294.956 319.652 295.304 319.72 295.632 319.856C295.968 319.984 296.26 320.184 296.508 320.456C296.756 320.72 296.952 321.056 297.096 321.464C297.248 321.864 297.324 322.336 297.324 322.88C297.324 323.432 297.248 323.912 297.096 324.32C296.952 324.72 296.752 325.056 296.496 325.328C296.248 325.592 295.956 325.792 295.62 325.928C295.284 326.056 294.932 326.12 294.564 326.12ZM294.228 324.956C294.724 324.956 295.124 324.788 295.428 324.452C295.74 324.108 295.896 323.584 295.896 322.88C295.896 322.184 295.74 321.664 295.428 321.32C295.124 320.976 294.728 320.804 294.24 320.804C293.992 320.804 293.764 320.848 293.556 320.936C293.348 321.016 293.164 321.144 293.004 321.32C292.852 321.496 292.732 321.716 292.644 321.98C292.556 322.236 292.512 322.536 292.512 322.88C292.512 323.232 292.556 323.54 292.644 323.804C292.732 324.06 292.852 324.276 293.004 324.452C293.156 324.62 293.336 324.748 293.544 324.836C293.76 324.916 293.988 324.956 294.228 324.956ZM301.169 320.9V326H299.777V320.9H297.893V319.772H303.089V320.9H301.169ZM308.171 323.372H305.543V326H304.151V319.772H305.543V322.244H308.171V319.772H309.563V326H308.171V323.372ZM314.988 318.776C314.756 318.776 314.564 318.7 314.412 318.548C314.26 318.388 314.184 318.2 314.184 317.984C314.184 317.76 314.26 317.572 314.412 317.42C314.564 317.268 314.756 317.192 314.988 317.192C315.22 317.192 315.412 317.268 315.564 317.42C315.716 317.572 315.792 317.76 315.792 317.984C315.792 318.2 315.716 318.388 315.564 318.548C315.412 318.7 315.22 318.776 314.988 318.776ZM312.54 318.776C312.316 318.776 312.128 318.7 311.976 318.548C311.824 318.388 311.748 318.2 311.748 317.984C311.748 317.76 311.824 317.572 311.976 317.42C312.128 317.268 312.316 317.192 312.54 317.192C312.772 317.192 312.964 317.268 313.116 317.42C313.276 317.572 313.356 317.76 313.356 317.984C313.356 318.2 313.276 318.388 313.116 318.548C312.964 318.7 312.772 318.776 312.54 318.776ZM316.332 325.544C316.244 325.6 316.136 325.664 316.008 325.736C315.88 325.8 315.728 325.86 315.552 325.916C315.376 325.972 315.172 326.02 314.94 326.06C314.708 326.1 314.444 326.12 314.148 326.12C313.004 326.12 312.148 325.836 311.58 325.268C311.02 324.7 310.74 323.904 310.74 322.88C310.74 322.376 310.816 321.924 310.968 321.524C311.12 321.124 311.332 320.788 311.604 320.516C311.876 320.236 312.2 320.024 312.576 319.88C312.952 319.728 313.364 319.652 313.812 319.652C314.276 319.652 314.692 319.728 315.06 319.88C315.436 320.032 315.744 320.26 315.984 320.564C316.224 320.868 316.388 321.244 316.476 321.692C316.572 322.14 316.576 322.664 316.488 323.264H312.18C312.236 323.832 312.424 324.26 312.744 324.548C313.064 324.828 313.564 324.968 314.244 324.968C314.74 324.968 315.152 324.908 315.48 324.788C315.816 324.66 316.1 324.528 316.332 324.392V325.544ZM313.812 320.756C313.404 320.756 313.06 320.88 312.78 321.128C312.5 321.376 312.316 321.744 312.228 322.232H315.156C315.172 321.728 315.06 321.356 314.82 321.116C314.58 320.876 314.244 320.756 313.812 320.756ZM321.212 326.12C320.74 326.12 320.332 326.016 319.988 325.808C319.652 325.592 319.38 325.304 319.172 324.944V328.124H317.78V319.772H319.052L319.148 320.876C319.356 320.5 319.632 320.204 319.976 319.988C320.32 319.764 320.74 319.652 321.236 319.652C321.604 319.652 321.952 319.72 322.28 319.856C322.616 319.984 322.908 320.184 323.156 320.456C323.404 320.72 323.6 321.056 323.744 321.464C323.896 321.864 323.972 322.336 323.972 322.88C323.972 323.432 323.896 323.912 323.744 324.32C323.6 324.72 323.4 325.056 323.144 325.328C322.896 325.592 322.604 325.792 322.268 325.928C321.932 326.056 321.58 326.12 321.212 326.12ZM320.876 324.956C321.372 324.956 321.772 324.788 322.076 324.452C322.388 324.108 322.544 323.584 322.544 322.88C322.544 322.184 322.388 321.664 322.076 321.32C321.772 320.976 321.376 320.804 320.888 320.804C320.64 320.804 320.412 320.848 320.204 320.936C319.996 321.016 319.812 321.144 319.652 321.32C319.5 321.496 319.38 321.716 319.292 321.98C319.204 322.236 319.16 322.536 319.16 322.88C319.16 323.232 319.204 323.54 319.292 323.804C319.38 324.06 319.5 324.276 319.652 324.452C319.804 324.62 319.984 324.748 320.192 324.836C320.408 324.916 320.636 324.956 320.876 324.956ZM327.851 326.12C327.411 326.12 327.003 326.048 326.627 325.904C326.251 325.76 325.923 325.552 325.643 325.28C325.371 325 325.155 324.66 324.995 324.26C324.843 323.86 324.767 323.4 324.767 322.88C324.767 322.36 324.843 321.9 324.995 321.5C325.155 321.1 325.371 320.764 325.643 320.492C325.923 320.212 326.251 320.004 326.627 319.868C327.003 319.724 327.411 319.652 327.851 319.652C328.291 319.652 328.699 319.724 329.075 319.868C329.451 320.004 329.779 320.212 330.059 320.492C330.339 320.764 330.559 321.1 330.719 321.5C330.879 321.9 330.959 322.36 330.959 322.88C330.959 323.4 330.879 323.86 330.719 324.26C330.559 324.66 330.339 325 330.059 325.28C329.779 325.552 329.451 325.76 329.075 325.904C328.699 326.048 328.291 326.12 327.851 326.12ZM327.851 324.956C328.331 324.956 328.727 324.788 329.039 324.452C329.359 324.116 329.519 323.592 329.519 322.88C329.519 322.176 329.359 321.656 329.039 321.32C328.727 320.976 328.331 320.804 327.851 320.804C327.379 320.804 326.983 320.976 326.663 321.32C326.351 321.656 326.195 322.176 326.195 322.88C326.195 323.592 326.351 324.116 326.663 324.452C326.983 324.788 327.379 324.956 327.851 324.956ZM332.124 319.772H334.668C336.244 319.772 337.032 320.292 337.032 321.332C337.032 321.716 336.924 322.02 336.708 322.244C336.5 322.46 336.192 322.624 335.784 322.736C336.288 322.808 336.664 322.964 336.912 323.204C337.16 323.444 337.284 323.784 337.284 324.224C337.284 324.528 337.22 324.792 337.092 325.016C336.964 325.24 336.784 325.424 336.552 325.568C336.328 325.712 336.052 325.82 335.724 325.892C335.396 325.964 335.036 326 334.644 326H332.124V319.772ZM333.504 320.84V322.316H334.524C334.86 322.316 335.132 322.256 335.34 322.136C335.548 322.008 335.652 321.824 335.652 321.584C335.652 321.304 335.56 321.112 335.376 321.008C335.2 320.896 334.94 320.84 334.596 320.84H333.504ZM333.504 323.3V324.932H334.572C334.956 324.932 335.264 324.876 335.496 324.764C335.736 324.652 335.856 324.444 335.856 324.14C335.856 323.836 335.748 323.62 335.532 323.492C335.324 323.364 334.992 323.3 334.536 323.3H333.504Z" fill="#1A1B22"/>
</svg>
