<svg width="100" height="100" viewBox="0 0 100 100" fill="none" xmlns="http://www.w3.org/2000/svg">
<path d="M30.6749 44.7233C34.6943 35.1849 34.291 25.9094 29.7741 24.0061C25.2572 22.1027 18.3372 28.2922 14.3178 37.8307C10.2984 47.3691 10.7017 56.6445 15.2186 58.5479C19.7355 60.4513 26.6555 54.2618 30.6749 44.7233Z" fill="#1D6BF3"/>
<path d="M84.7809 58.0017C89.2978 56.0984 89.7011 46.8229 85.6817 37.2845C81.6623 27.746 74.7423 21.5566 70.2254 23.4599C65.7085 25.3633 65.3052 34.6387 69.3246 44.1772C73.344 53.7156 80.264 59.9051 84.7809 58.0017Z" fill="#1A1B22"/>
<path d="M31.6458 32.403C36.8042 33.9488 42.6333 34.8905 42.6333 34.8905L60.0083 44.1113L61.5375 44.4155L70.9083 55.1946C72.4375 56.2363 72.8292 58.4696 71.7875 59.9988C70.7458 61.528 68.6625 61.9196 67.1333 60.878L65.925 60.1655C67.3875 61.2238 67.75 63.2613 66.725 64.7613C65.6833 66.2905 63.6 66.6821 62.0708 65.6405L61.525 65.3196C62.2708 66.4238 62.3125 67.9155 61.5167 69.0821C60.6083 70.4113 58.9125 70.8821 57.4792 70.2905C58.3917 71.4113 58.5042 73.0363 57.6458 74.2905C56.6042 75.8196 54.5208 76.2113 52.9917 75.1696L50.8292 74.0446C42.95 70.4696 26.8917 57.7613 20.9833 52.9863C19.4083 51.7113 18.4833 49.803 18.4667 47.7738C18.4333 43.7321 19.35 37.0488 25.1333 33.2988C27.0583 32.053 29.4417 31.7405 31.6417 32.3988L31.6458 32.403Z" fill="white"/>
<path d="M54.8746 76.0631C54.1621 76.0631 53.4454 75.8589 52.8163 75.4256L50.6871 74.3214C42.8704 70.7756 27.1746 58.3922 20.7913 53.2297C19.1371 51.8922 18.1746 49.9047 18.1579 47.7797C18.1288 43.9422 18.9746 36.9297 24.9704 33.0381C26.9579 31.7506 29.4204 31.4089 31.7371 32.1006C36.8163 33.6256 42.6288 34.5714 42.6871 34.5797L42.7829 34.6131L60.1163 43.8131L61.7038 44.1297L61.7746 44.2089L71.1204 54.9589C72.7413 56.0922 73.1746 58.5214 72.0454 60.1714C70.9788 61.7297 68.9163 62.2089 67.2871 61.3339C67.8121 62.4631 67.7413 63.8256 66.9829 64.9381C65.9246 66.4881 63.8704 66.9672 62.2496 66.1131C62.5746 67.1589 62.4163 68.3131 61.7746 69.2547C60.9663 70.4381 59.5454 71.0214 58.1746 70.8047C58.7329 71.9631 58.6496 73.3714 57.9038 74.4631C57.1954 75.5006 56.0454 76.0589 54.8746 76.0589V76.0631ZM29.3454 32.3756C27.9163 32.3756 26.5163 32.7797 25.3079 33.5631C19.5621 37.2922 18.7538 44.0672 18.7829 47.7756C18.7996 49.7131 19.6746 51.5256 21.1829 52.7464C27.5496 57.8922 43.1954 70.2381 50.9579 73.7631L53.1329 74.8922C53.8329 75.3672 54.6413 75.5381 55.4413 75.3881C56.2371 75.2381 56.9288 74.7839 57.3871 74.1172C58.1371 73.0172 58.0746 71.5256 57.2329 70.4881L56.4579 69.5339L57.5954 70.0006C58.9121 70.5422 60.4538 70.0839 61.2579 68.9048C61.9621 67.8714 61.9663 66.5339 61.2663 65.4964L60.4954 64.3548L62.2329 65.3756C63.6329 66.3298 65.5288 65.9756 66.4704 64.5922C67.4038 63.2256 67.0829 61.3964 65.7413 60.4256L66.0829 59.9047L67.2913 60.6172C68.6913 61.5714 70.5871 61.2172 71.5288 59.8339C72.4788 58.4422 72.1038 56.4006 70.7329 55.4631L70.6746 55.4089L61.3746 44.7089L59.8621 44.3964L42.5329 35.2006C41.9413 35.1047 36.4204 34.1672 31.5538 32.7131C30.8246 32.4964 30.0829 32.3881 29.3454 32.3881V32.3756Z" fill="#1A1B22"/>
<path d="M78.3006 51.2428L71.8048 56.1803C59.9298 44.1469 44.1923 40.4386 44.1923 40.4386C37.7923 50.8594 33.8048 50.0094 32.1214 49.9136C31.5423 49.8803 31.1339 49.3344 31.2589 48.7719C31.8589 46.0261 35.2631 37.1636 40.6214 33.4428C49.3798 29.7219 68.0006 30.9344 74.8964 31.5469C76.8798 31.7219 78.6464 32.8803 79.5756 34.6386C81.0298 37.3844 82.3589 42.0969 80.0923 48.6386C79.7423 49.6511 79.1214 50.5553 78.3006 51.2428Z" fill="white"/>
<path d="M71.7753 56.5963L71.5836 56.4005C60.6628 45.3338 46.2753 41.3046 44.3419 40.8005C38.2211 50.6755 34.2711 50.3838 32.3669 50.2463C32.2753 50.238 32.1919 50.2338 32.1086 50.2296C31.7419 50.2088 31.4044 50.0296 31.1836 49.738C30.9586 49.4421 30.8794 49.0671 30.9586 48.7088C31.5753 45.8963 34.9669 36.9921 40.4461 33.188L40.5003 33.1588C49.2378 29.4505 67.4836 30.5796 74.9253 31.238C77.0336 31.4255 78.8753 32.6421 79.8544 34.4963C81.3628 37.3463 82.6794 42.1338 80.3919 48.7421C80.0211 49.813 79.3669 50.7588 78.5044 51.4838L78.4919 51.4921L71.7753 56.5963ZM44.0461 40.0838L44.2669 40.1338C44.4253 40.1713 60.0544 43.9588 71.8378 55.763L78.1086 50.9963C78.8836 50.3463 79.4669 49.4963 79.8003 48.5338C82.0169 42.138 80.7503 37.5255 79.3003 34.7838C78.4211 33.1171 76.7628 32.0255 74.8669 31.8546C67.4836 31.2005 49.3919 30.0755 40.7711 33.713C35.5253 37.3755 32.1419 46.2005 31.5628 48.8338C31.5211 49.0171 31.5628 49.2046 31.6753 49.3546C31.7878 49.5005 31.9544 49.5921 32.1378 49.6005C32.2211 49.6046 32.3128 49.613 32.4044 49.6171C34.1961 49.7463 37.9336 50.0213 43.9211 40.2713L44.0378 40.0796L44.0461 40.0838Z" fill="#1A1B22"/>
<path d="M43.1538 63.4281C44.1204 63.7906 44.6829 64.8948 44.4621 66.0031L42.8579 74.0823C42.4163 75.9489 40.6204 77.0198 38.9788 76.4031C37.3329 75.7823 36.5454 73.7406 37.2704 71.9781L40.6538 64.5656C41.1163 63.5489 42.1913 63.0614 43.1579 63.4239L43.1538 63.4281Z" fill="white"/>
<path d="M39.9373 76.8937C39.5789 76.8937 39.2164 76.8271 38.8664 76.6979C38.0373 76.3854 37.3748 75.7396 36.9998 74.8771C36.5873 73.9271 36.5789 72.8312 36.9789 71.8646L40.3664 64.4437C40.8998 63.2771 42.1456 62.7187 43.2664 63.1396C44.3748 63.5562 45.0206 64.8146 44.7706 66.0687L43.1664 74.1479C42.9206 75.1937 42.2706 76.0562 41.3873 76.5271C40.9289 76.7729 40.4331 76.8937 39.9373 76.8937ZM42.5039 63.6229C41.8623 63.6229 41.2414 64.0271 40.9331 64.7021L37.5498 72.1146C37.2206 72.9146 37.2248 73.8354 37.5706 74.6312C37.8789 75.3354 38.4164 75.8646 39.0831 76.1187C39.7414 76.3687 40.4539 76.3187 41.0914 75.9812C41.8164 75.5979 42.3456 74.8812 42.5498 74.0229L44.1498 65.9521C44.3414 64.9937 43.8623 64.0396 43.0373 63.7312C42.8581 63.6646 42.6789 63.6312 42.4956 63.6312L42.5039 63.6229Z" fill="#1A1B22"/>
<path d="M41.5105 68.8126L41.3947 68.7782C40.6117 68.546 40.1649 67.7225 40.3972 66.9395L40.9445 65.094C41.0275 64.8144 41.3175 64.657 41.5971 64.7399L43.5465 65.3181C43.8262 65.4011 43.9835 65.6911 43.9006 65.9707L43.3532 67.8163C43.121 68.5992 42.2975 69.046 41.5145 68.8138L41.5105 68.8126Z" fill="#1A1B22"/>
<path d="M40.9124 58.2869C42.0124 59.0328 42.3832 60.5744 41.7749 61.8953L37.3582 71.5036C36.2499 73.6994 33.6874 74.5036 31.8207 73.2369C29.9541 71.9744 29.5791 69.1828 31.0082 67.2036L37.4457 58.9619C38.3291 57.8328 39.8124 57.5411 40.9124 58.2869Z" fill="white"/>
<path d="M33.7706 74.1563C33.0164 74.1563 32.2873 73.9355 31.6456 73.5021C30.7248 72.8771 30.1039 71.8938 29.8956 70.7271C29.6706 69.4438 29.9831 68.0938 30.7539 67.0271L37.1998 58.7771C38.1831 57.5188 39.8539 57.198 41.0873 58.0355C42.3081 58.8646 42.7248 60.5813 42.0581 62.0313L37.6414 71.6396C37.0331 72.8438 35.9873 73.7146 34.7706 74.0271C34.4373 74.1146 34.0998 74.1563 33.7706 74.1563ZM39.5748 58.1938C38.8831 58.1938 38.1789 58.5313 37.6914 59.1605L31.2539 67.4021C30.5873 68.323 30.3164 69.5021 30.5123 70.6188C30.6873 71.6146 31.2164 72.4563 31.9956 72.9855C32.7664 73.5063 33.6956 73.6646 34.6123 73.423C35.6539 73.1521 36.5539 72.4021 37.0789 71.3688L41.4914 61.773C42.0331 60.598 41.7081 59.2146 40.7373 58.5563C40.3831 58.3146 39.9831 58.2021 39.5748 58.2021V58.1938Z" fill="#1A1B22"/>
<path d="M37.2626 64.5269L37.1255 64.4477C36.216 63.9229 35.9047 62.7618 36.4296 61.8524L37.6646 59.7124C37.85 59.3912 38.2654 59.2798 38.5866 59.4651L40.8457 60.7689C41.1669 60.9543 41.2783 61.3697 41.093 61.6909L39.8579 63.8309C39.3331 64.7404 38.172 65.0517 37.2626 64.5269Z" fill="#1A1B22"/>
<path d="M37.1917 55.4266C38.0875 56.4058 38.0917 57.9933 37.1958 59.135L30.675 67.46C29.0875 69.3392 26.4125 69.5308 24.8875 67.8683C23.3625 66.2058 23.6417 63.4058 25.4917 61.81L33.6625 55.2808C34.7833 54.385 36.2958 54.4475 37.1917 55.4266Z" fill="white"/>
<path d="M27.488 69.3143C26.3921 69.3143 25.388 68.8768 24.6546 68.0768C23.9046 67.256 23.5255 66.156 23.5963 64.9727C23.6713 63.6727 24.288 62.431 25.288 61.5685L33.4671 55.0352C34.713 54.0393 36.413 54.1143 37.4213 55.2143C38.4171 56.3018 38.4255 58.0685 37.4421 59.3268L30.9213 67.6518C30.0505 68.6852 28.8338 69.2852 27.5755 69.3102C27.5463 69.3102 27.5171 69.3102 27.488 69.3102V69.3143ZM35.4005 54.9643C34.8713 54.9643 34.3213 55.1518 33.8546 55.5268L25.6838 62.056C24.8213 62.7977 24.2838 63.881 24.2171 65.0143C24.1588 66.0268 24.4755 66.9643 25.113 67.6602C25.7421 68.3477 26.6046 68.7018 27.5588 68.6935C28.638 68.6727 29.6838 68.1518 30.4338 67.2643L36.9463 58.9477C37.7463 57.9268 37.7505 56.506 36.9588 55.6435C36.5505 55.1977 35.988 54.9685 35.4005 54.9685V54.9643Z" fill="#1A1B22"/>
<path d="M32.196 60.6406L32.0809 60.5318C31.3176 59.8108 31.2834 58.6092 32.0044 57.8459L33.7012 56.0498C33.9558 55.7802 34.3858 55.768 34.6554 56.0226L36.5515 57.8138C36.821 58.0684 36.8333 58.4984 36.5786 58.768L34.8819 60.5641C34.1608 61.3274 32.9593 61.3616 32.196 60.6406Z" fill="#1A1B22"/>
<path d="M31.6876 52.4044C32.396 53.3294 32.2751 54.7211 31.4001 55.6502L25.046 62.4211C23.5085 63.9419 21.1543 63.8961 19.9501 62.3253C18.746 60.7503 19.2085 58.3252 20.9543 57.0752L28.6085 52.0044C29.6585 51.3086 30.9751 51.4794 31.6835 52.4086L31.6876 52.4044Z" fill="white"/>
<path d="M22.4377 63.846C22.3543 63.846 22.271 63.846 22.1877 63.8377C21.1877 63.7669 20.3043 63.3002 19.7043 62.5127C19.1043 61.7252 18.8585 60.7252 19.0127 59.6877C19.1835 58.546 19.8252 57.5002 20.771 56.821L28.4377 51.7418C29.621 50.9585 31.1252 51.1585 31.9335 52.2168C32.7335 53.2585 32.6002 54.8293 31.6293 55.8668L25.2752 62.6377C24.4877 63.4169 23.4668 63.8502 22.4377 63.8502V63.846ZM29.9793 51.8918C29.5752 51.8918 29.1585 52.0127 28.7835 52.2627L21.1252 57.3335C20.321 57.9085 19.7752 58.8043 19.6293 59.7793C19.5002 60.6502 19.7002 61.4835 20.2002 62.1335C20.6877 62.7752 21.4127 63.1585 22.2293 63.2127C23.1668 63.2794 24.1085 62.9085 24.8252 62.196L31.171 55.4335C31.9377 54.6168 32.0502 53.396 31.4377 52.5918C31.0835 52.1293 30.546 51.8877 29.9793 51.8877V51.8918Z" fill="#1A1B22"/>
<path d="M26.9047 56.5804L26.8136 56.4775C26.2031 55.7882 26.2641 54.7322 26.9566 54.1189L28.5817 52.6796C28.825 52.4642 29.2014 52.487 29.4169 52.7303L30.9363 54.4458C31.1518 54.6891 31.129 55.0656 30.8857 55.2811L29.2606 56.7203C28.5712 57.3309 27.5153 57.2698 26.902 56.5773L26.9047 56.5804Z" fill="#1A1B22"/>
<path d="M31.2627 47.8745L32.8502 48.4578C33.246 48.6036 33.6835 48.3995 33.8294 48.0078L34.9419 44.987C35.3502 43.8745 34.7835 42.637 33.6669 42.2286C33.6335 42.2161 33.596 42.2036 33.5627 42.1953L31.3419 47.637C31.3085 47.7161 31.2835 47.7995 31.2627 47.8786V47.8745Z" fill="#1A1B22"/>
<path d="M57.4796 70.6018C57.4212 70.6018 57.3629 70.5851 57.3087 70.5518L52.2087 67.1976C52.0629 67.1018 52.0254 66.9101 52.1212 66.7643C52.2171 66.6226 52.4087 66.581 52.5546 66.6768L57.6546 70.031C57.8004 70.1268 57.8379 70.3185 57.7421 70.4643C57.6837 70.556 57.5837 70.606 57.4796 70.606V70.6018Z" fill="#1A1B22"/>
<path d="M61.5253 65.6315C61.467 65.6315 61.4045 65.6149 61.3545 65.5815L55.0378 61.394C54.892 61.2982 54.8545 61.1065 54.9503 60.9607C55.0462 60.8149 55.2378 60.7774 55.3837 60.8732L61.7003 65.0607C61.8462 65.1565 61.8837 65.3482 61.7878 65.494C61.7295 65.5857 61.6295 65.6357 61.5253 65.6357V65.6315Z" fill="#1A1B22"/>
<path d="M65.9251 60.4808C65.8709 60.4808 65.8126 60.4641 65.7626 60.435L57.8751 55.5933C57.7292 55.5016 57.6834 55.3099 57.7709 55.1641C57.8626 55.0183 58.0542 54.9724 58.2001 55.0599L66.0876 59.9016C66.2334 59.9933 66.2792 60.185 66.1917 60.3308C66.1334 60.4266 66.0292 60.4808 65.9251 60.4808Z" fill="#1A1B22"/>
</svg>
