<svg width="879" height="873" viewBox="0 0 879 873" fill="none" xmlns="http://www.w3.org/2000/svg">
<path d="M435.391 93L439.69 104.701L451.391 109L439.69 113.299L435.391 125L431.091 113.299L419.391 109L431.091 104.701L435.391 93Z" fill="#5A9BFF"/>
<path d="M575.969 776L580.268 787.701L591.969 792L580.268 796.299L575.969 808L571.67 796.299L559.969 792L571.67 787.701L575.969 776Z" fill="#7F67D2"/>
<path d="M724 0L729.374 14.626L744 20L729.374 25.374L724 40L718.626 25.374L704 20L718.626 14.626L724 0Z" fill="#FFBFFD" fill-opacity="0.87"/>
<path d="M1287.5 562.5C1287.5 585.428 1274.84 607.334 1251.8 627.321C1228.76 647.306 1195.4 665.327 1154.12 680.471C1071.58 710.758 957.517 729.5 831.501 729.5C705.485 729.5 591.421 710.758 508.879 680.471C467.606 665.327 434.241 647.306 411.203 627.321C388.163 607.334 375.501 585.428 375.501 562.5C375.501 539.572 388.163 517.666 411.203 497.679C434.241 477.694 467.606 459.673 508.879 444.529C591.421 414.243 705.485 395.5 831.501 395.5C957.517 395.5 1071.58 414.243 1154.12 444.529C1195.4 459.673 1228.76 477.694 1251.8 497.679C1274.84 517.666 1287.5 539.572 1287.5 562.5Z" stroke="#B5B5B7"/>
<path d="M1461.73 475.524C1469.63 565.853 1396.61 654.807 1271.77 725.569C1146.97 796.306 970.57 848.752 772.147 866.111C573.723 883.471 390.894 862.454 255.71 814.462C120.48 766.454 33.1187 691.531 25.2159 601.203C17.3132 510.874 90.3372 421.92 215.176 351.158C339.973 280.42 516.374 227.975 714.798 210.615C913.222 193.255 1096.05 214.272 1231.23 262.265C1366.46 310.273 1453.83 385.196 1461.73 475.524Z" stroke="#B5B5B7"/>
<path d="M9 164.258L11.4183 170.84L18 173.258L11.4183 175.676L9 182.258L6.58169 175.676L0 173.258L6.58169 170.84L9 164.258Z" fill="#87CC9E"/>
<path d="M59 363.742L61.4183 370.324L68 372.742L61.4183 375.16L59 381.742L56.5817 375.16L50 372.742L56.5817 370.324L59 363.742Z" fill="#FFF9D3"/>
<path d="M744 290L746.418 296.582L753 299L746.418 301.418L744 308L741.582 301.418L735 299L741.582 296.582L744 290Z" fill="#87CC9E"/>
</svg>
