<svg width="32" height="33" viewBox="0 0 32 33" fill="none" xmlns="http://www.w3.org/2000/svg">
<circle cx="16" cy="16.0234" r="16" fill="white"/>
<path fill-rule="evenodd" clip-rule="evenodd" d="M10.0815 9.99219V14.6464C10.7901 13.8016 11.6393 13.3759 12.6247 13.3759C13.1319 13.3759 13.5869 13.4724 13.9936 13.6651C14.4025 13.8559 14.7084 14.1013 14.914 14.399C15.1216 14.6988 15.2621 15.0279 15.3373 15.3906C15.4131 15.7513 15.4508 16.3131 15.4508 17.0741V22.0511H13.2494V17.5688C13.2494 16.68 13.2095 16.1159 13.1257 15.8769C13.0418 15.6359 12.895 15.4471 12.6833 15.3067C12.4715 15.1642 12.2074 15.0928 11.8888 15.0928C11.524 15.0928 11.1969 15.1851 10.9119 15.3655C10.6227 15.5478 10.4129 15.8204 10.2809 16.1852C10.1465 16.55 10.0794 17.0888 10.0816 17.8016L10.0794 22.0512H7.88025V9.99219H10.0815ZM18.7507 9.99219V14.6464C19.459 13.8016 20.3083 13.3759 21.2935 13.3759C21.7988 13.3759 22.2557 13.4724 22.6648 13.6651C23.0713 13.8559 23.3775 14.1013 23.5828 14.399C23.7904 14.6988 23.9309 15.0279 24.0064 15.3906C24.0819 15.7513 24.1197 16.3131 24.1197 17.0741V22.0511H21.9203V17.5688C21.9203 16.68 21.8786 16.1159 21.7946 15.8769C21.7106 15.6359 21.564 15.4471 21.3521 15.3067C21.1425 15.1642 20.8762 15.0928 20.5576 15.0928C20.1927 15.0928 19.8658 15.1851 19.5806 15.3655C19.2935 15.5478 19.0838 15.8204 18.9495 16.1852C18.8174 16.55 18.7505 17.0888 18.7505 17.8016V22.0512H16.5512V9.99219H18.7506H18.7507Z" fill="#E41B1A"/>
</svg>
