<svg width="24" height="24" viewBox="0 0 24 24" fill="none" xmlns="http://www.w3.org/2000/svg">
<path d="M9.33282 15.9198L5.41382 12.0008C5.22629 11.8133 4.97198 11.708 4.70682 11.708C4.44165 11.708 4.18735 11.8133 3.99982 12.0008C3.81235 12.1883 3.70703 12.4426 3.70703 12.7078C3.70703 12.973 3.81235 13.2273 3.99982 13.4148L7.91882 17.3338C8.10455 17.5196 8.32506 17.667 8.56776 17.7675C8.81047 17.8681 9.07061 17.9199 9.33332 17.9199C9.59603 17.9199 9.85617 17.8681 10.0989 17.7675C10.3416 17.667 10.5621 17.5196 10.7478 17.3338L19.9998 8.08179C20.1873 7.89426 20.2926 7.63995 20.2926 7.37479C20.2926 7.10962 20.1873 6.85531 19.9998 6.66779C19.8123 6.48032 19.558 6.375 19.2928 6.375C19.0277 6.375 18.7733 6.48032 18.5858 6.66779L9.33282 15.9198Z" fill="#5A9BFF"/>
</svg>
