<svg width="62" height="63" viewBox="0 0 62 63" fill="none" xmlns="http://www.w3.org/2000/svg">
<path d="M43.4002 36.4859H43.4014C43.6838 36.4857 43.9648 36.5109 44.2412 36.5609C44.2389 36.5947 44.2368 36.6285 44.2349 36.6623C43.9606 36.6117 43.6813 36.5859 43.4002 36.5859H12.4281C9.87032 36.5859 7.8002 38.6335 7.8002 41.1859C7.8002 45.8156 10.0425 49.289 13.6794 51.6046C17.3139 53.9245 22.3423 55.0859 27.9002 55.0859C30.0947 55.0859 32.1976 54.905 34.161 54.5466C34.1592 54.5811 34.1576 54.6155 34.1563 54.65C32.1791 55.008 30.0756 55.1859 27.9002 55.1859C22.3291 55.1859 17.282 54.0223 13.6248 51.6917C9.96635 49.3594 7.7002 45.851 7.7002 41.1859C7.7002 38.5762 9.8157 36.4859 12.4281 36.4859H43.4002ZM50.377 37.5681C50.2961 37.2494 50.3027 36.9149 50.3958 36.5998L50.4678 36.3975L50.4697 36.393L51.7066 33.4759L51.707 33.4748C52.0201 32.735 52.7111 32.4091 53.3249 32.5244L53.535 32.578L55.0416 33.0601C56.0448 33.3817 56.8612 34.2587 57.1314 35.4271C57.9149 38.8387 57.0191 43.2262 54.0244 48.7202L54.0241 48.7207C51.0265 54.2249 47.9165 57.1911 44.8164 58.1588L44.8162 58.1588C43.9066 58.4428 42.9233 58.2495 42.1619 57.6235L41.9122 57.3917L40.7626 56.2391C40.4932 55.9592 40.3192 55.6013 40.2655 55.2164C40.213 54.8399 40.2783 54.4567 40.452 54.1192L40.582 53.9056L42.3336 51.3333L42.341 51.3226L42.3481 51.3117C42.5059 51.071 42.7323 50.8832 42.998 50.7726C43.2518 50.6669 43.5302 50.6362 43.8004 50.6837L44.0146 50.7415L47.2495 51.8219L48.0014 52.073L48.6324 51.5933C50.1009 50.4771 51.3224 49.0852 52.2892 47.4169C53.1137 45.9971 53.6765 44.5273 53.9369 43.0079L53.9407 42.9854L53.9439 42.9628L54.0369 42.2994L54.144 41.5351L53.5845 41.0036L50.8675 38.4226C50.629 38.188 50.4593 37.8925 50.377 37.5681ZM17.0002 19.4859C17.0002 16.5951 18.1486 13.8226 20.1927 11.7785C22.2369 9.73433 25.0093 8.58594 27.9002 8.58594C30.7911 8.58594 33.5635 9.73433 35.6077 11.7785C37.6518 13.8226 38.8002 16.5951 38.8002 19.4859C38.8002 22.3768 37.6518 25.1493 35.6077 27.1934C33.5635 29.2375 30.7911 30.3859 27.9002 30.3859C25.0093 30.3859 22.2369 29.2375 20.1927 27.1934C18.1486 25.1493 17.0002 22.3768 17.0002 19.4859ZM27.9002 8.68594C25.0359 8.68594 22.2888 9.82379 20.2634 11.8492C18.2381 13.8746 17.1002 16.6216 17.1002 19.4859C17.1002 22.3503 18.2381 25.0973 20.2634 27.1227C22.2888 29.1481 25.0359 30.2859 27.9002 30.2859C30.7645 30.2859 33.5116 29.1481 35.537 27.1227C37.5623 25.0973 38.7002 22.3503 38.7002 19.4859C38.7002 16.6216 37.5623 13.8746 35.537 11.8492C33.5116 9.82379 30.7645 8.68594 27.9002 8.68594Z" fill="#1D6BF3" stroke="#1D6BF3" stroke-width="3"/>
</svg>
