<svg width="80" height="16" viewBox="0 0 80 16" fill="none" xmlns="http://www.w3.org/2000/svg">
<path fill-rule="evenodd" clip-rule="evenodd" d="M6.58824 15C10.2268 15 13.1765 11.866 13.1765 8C13.1765 4.13401 10.2268 1 6.58824 1C2.94965 1 0 4.13401 0 8C0 11.866 2.94965 15 6.58824 15ZM6.89285 4.92026H7.55962V12.207H8.89313V3.807H6.89285C4.89256 3.807 3.84481 4.92026 3.84481 6.53955C3.84481 7.8552 4.41632 8.56365 5.46409 9.37325L3.65431 12.207H5.17831L7.08334 9.06965L6.41661 8.56365C5.55934 7.9564 5.17831 7.4504 5.17831 6.43835C5.17831 5.5275 5.74984 4.92026 6.89285 4.92026Z" fill="white"/>
<path d="M16.7061 2.57812V13.0031H18.4143V3.98812H21.4637V13.0031H23.1719V2.57812H16.7061ZM26.1312 5.45812H24.5783V15.1781H26.2583V12.1181C26.6818 12.7931 27.303 13.1531 28.023 13.1531C29.6606 13.1531 30.7901 11.7581 30.7901 9.22313C30.7901 6.70313 29.6889 5.30812 28.1077 5.30812C27.3171 5.30812 26.6677 5.69812 26.2159 6.43312L26.1312 5.45812ZM27.5995 11.7431C26.7101 11.7431 26.2583 10.9781 26.2583 9.23812C26.2583 7.48312 26.7383 6.71813 27.6842 6.71813C28.6018 6.71813 29.0536 7.48313 29.0536 9.22313C29.0536 10.9781 28.5736 11.7431 27.5995 11.7431ZM37.1522 7.85812C37.1522 6.02812 36.2769 5.33812 34.4981 5.33812C33.3828 5.33812 32.5075 5.71312 31.9992 6.02813V7.51312C32.451 7.15313 33.4392 6.76313 34.3004 6.76313C35.1051 6.76313 35.4722 7.06313 35.4722 7.87313V8.29313H35.2039C32.6345 8.29313 31.491 9.19313 31.491 10.7231C31.491 12.2531 32.3663 13.1081 33.6651 13.1081C34.6534 13.1081 35.0769 12.7631 35.4016 12.4031H35.4722C35.4863 12.5981 35.5428 12.8531 35.5992 13.0031H37.2369C37.1804 12.3881 37.1522 11.7731 37.1522 11.1581V7.85812ZM35.4722 11.2031C35.2604 11.5331 34.8651 11.8031 34.2722 11.8031C33.5663 11.8031 33.2134 11.3531 33.2134 10.6781C33.2134 9.79313 33.7922 9.47813 35.2322 9.47813H35.4722V11.2031ZM42.6677 13.0031H44.5735L41.8771 8.93813L44.2488 5.45812H42.5547L40.1829 8.93813V5.45812H38.5029V13.0031H40.1829V9.29813L42.6677 13.0031ZM50.1371 6.86812V5.45812H44.504V6.86812H46.4805V13.0031H48.1606V6.86812H50.1371ZM51.1315 5.45812V13.0031H52.5856L55.1832 8.33813V13.0031H56.8209V5.45812H55.3668L52.7691 10.1231V5.45812H51.1315ZM62.3964 13.0031H64.3023L61.6058 8.93813L63.9776 5.45812H62.2835L59.9117 8.93813V5.45812H58.2317V13.0031H59.9117V9.29813L62.3964 13.0031ZM65.7804 15.3281C67.3475 15.3281 67.9263 14.1431 68.4063 12.5981L70.6228 5.45812H68.9992L67.4322 11.1281L65.8651 5.45812H64.1004L66.5428 13.3331C66.3592 13.6931 66.091 13.9181 65.6251 13.9181C65.3145 13.9181 65.0463 13.8131 64.8628 13.6181V15.0731C64.8628 15.0731 65.1169 15.3281 65.7804 15.3281ZM77.3169 13.0031H78.9545L78.9263 5.45812H76.6251L75.0863 10.4831L73.7028 5.45812H71.2604V13.0031H72.6863V7.36312L74.2251 13.0031H75.5945L77.3169 7.36312V13.0031Z" fill="white"/>
</svg>
