<svg width="241" height="240" viewBox="0 0 241 240" fill="none" xmlns="http://www.w3.org/2000/svg">
<path d="M126.294 99.7981C124.662 99.6463 123.024 99.5625 121.385 99.5469C88.88 99.5469 62.5437 125.932 62.5437 158.489C62.5437 168.202 64.9324 177.333 69.0837 185.407C66.9191 178.836 65.8141 171.963 65.81 165.044C65.81 130.526 92.4762 102.311 126.294 99.7981" fill="#797981"/>
<path d="M144.999 206.771C139.253 210.619 132.942 213.549 126.294 215.456C135.58 214.313 144.467 211.001 152.236 205.788C179.248 187.631 186.579 151.413 168.613 124.871C167.696 123.545 166.724 122.259 165.699 121.016C182.3 150.014 173.63 187.522 144.999 206.771" fill="#797981"/>
<path d="M167.96 99.4462V66.8287C167.96 65.4637 167.214 64.3163 166.16 63.6038L203 7.5H132.365L120.5 25.2975L108.635 7.5H38L74.8325 63.6C73.7788 64.3125 73.0325 65.4637 73.0325 66.8287V99.4462C56.2287 113.201 45.5 134.093 45.5 157.5C45.5 198.919 79.0813 232.5 120.5 232.5C123.058 232.5 125.578 232.369 128.068 232.118C165.931 228.326 195.5 196.369 195.5 157.5C195.5 134.093 184.764 113.201 167.96 99.4462ZM153.597 11.25H177.328L144.23 60.8963L132.365 43.0987L153.597 11.25ZM156.095 78.6938L159.744 73.2263C159.943 73.695 160.051 74.205 160.051 74.7412V90.5625C160.048 91.0519 159.948 91.5357 159.756 91.9862C159.565 92.4367 159.287 92.845 158.938 93.1875C147.688 86.445 134.57 82.5 120.5 82.5C106.951 82.5022 93.6597 86.1985 82.055 93.1912C81.3517 92.4961 80.9514 91.5513 80.9413 90.5625V74.7412C80.9413 74.205 81.0575 73.6913 81.2488 73.2263L84.8975 78.6975H156.095V78.6938ZM63.6725 11.25H87.4025L129.868 74.9438H106.138L63.6725 11.25ZM120.5 221.25C85.2913 221.25 56.75 192.709 56.75 157.5C56.75 122.295 85.2913 93.75 120.5 93.75C155.701 93.75 184.25 122.295 184.25 157.5C184.25 192.709 155.701 221.25 120.5 221.25Z" fill="#797981"/>
</svg>
