<svg width="62" height="63" viewBox="0 0 62 63" fill="none" xmlns="http://www.w3.org/2000/svg">
<mask id="path-1-inside-1_9254_65958" fill="white">
<path d="M32.4966 26.6665C32.075 26.6273 31.6519 26.6056 31.2285 26.6016C22.8314 26.6016 16.0278 33.4177 16.0278 41.8284C16.0278 44.3374 16.6449 46.6963 17.7173 48.7821C17.1582 47.0846 16.8727 45.309 16.8716 43.5217C16.8716 34.6044 23.7604 27.3155 32.4966 26.6665Z"/>
</mask>
<path d="M32.4966 26.6665C32.075 26.6273 31.6519 26.6056 31.2285 26.6016C22.8314 26.6016 16.0278 33.4177 16.0278 41.8284C16.0278 44.3374 16.6449 46.6963 17.7173 48.7821C17.1582 47.0846 16.8727 45.309 16.8716 43.5217C16.8716 34.6044 23.7604 27.3155 32.4966 26.6665Z" fill="#1D6BF3"/>
<path d="M31.2285 26.6016L31.2571 23.6017L31.2428 23.6016H31.2285V26.6016ZM17.7173 48.7821L15.0493 50.1539L20.5667 47.8434L17.7173 48.7821ZM16.8716 43.5217H13.8716L13.8716 43.5235L16.8716 43.5217ZM32.7744 23.6794C32.27 23.6324 31.7637 23.6065 31.2571 23.6017L31.1999 29.6014C31.5401 29.6047 31.88 29.6221 32.2187 29.6536L32.7744 23.6794ZM31.2285 23.6016C21.1695 23.6016 13.0278 31.7658 13.0278 41.8284H19.0278C19.0278 35.0696 24.4932 29.6016 31.2285 29.6016V23.6016ZM13.0278 41.8284C13.0278 44.8363 13.7689 47.6635 15.0493 50.1539L20.3853 47.4103C19.5209 45.7291 19.0278 43.8385 19.0278 41.8284H13.0278ZM20.5667 47.8434C20.1071 46.4483 19.8725 44.9889 19.8716 43.52L13.8716 43.5235C13.8729 45.629 14.2092 47.7209 14.868 49.7207L20.5667 47.8434ZM19.8716 43.5217C19.8716 36.1868 25.5373 30.1918 32.7189 29.6582L32.2743 23.6747C21.9835 24.4393 13.8716 33.0221 13.8716 43.5217H19.8716Z" fill="#1D6BF3" mask="url(#path-1-inside-1_9254_65958)"/>
<path d="M37.3287 54.3018C35.8443 55.2961 34.214 56.053 32.4966 56.5454C34.8955 56.2501 37.1913 55.3946 39.1984 54.048C46.1763 49.3573 48.0702 40.0011 43.4289 33.1443C43.1921 32.8019 42.941 32.4697 42.6762 32.1484C46.9649 39.6398 44.7251 49.3292 37.3287 54.3018Z" fill="#1D6BF3"/>
<path d="M43.2605 26.5731V18.1469C43.2605 17.7943 43.0677 17.4978 42.7955 17.3138L52.3125 2.82031H34.0651L31 7.418L27.9349 2.82031H9.6875L19.2026 17.3128C18.9303 17.4969 18.7376 17.7943 18.7376 18.1469V26.5731C14.3966 30.1265 11.625 35.5234 11.625 41.5703C11.625 52.2702 20.3002 60.9453 31 60.9453C31.6607 60.9453 32.3117 60.9114 32.9549 60.8465C42.7364 59.8671 50.375 51.6114 50.375 41.5703C50.375 35.5234 47.6015 30.1265 43.2605 26.5731ZM39.5502 3.78906H45.6804L37.1302 16.6143L34.0651 12.0167L39.5502 3.78906ZM40.1954 21.212L41.138 19.7996C41.1893 19.9207 41.2174 20.0524 41.2174 20.191V24.2781C41.2165 24.4045 41.1906 24.5295 41.1413 24.6459C41.0919 24.7623 41.02 24.8678 40.9297 24.9562C38.0234 23.2144 34.6348 22.1953 31 22.1953C27.4999 22.1959 24.0662 23.1508 21.0684 24.9572C20.8867 24.7776 20.7833 24.5336 20.7807 24.2781V20.191C20.7807 20.0524 20.8107 19.9197 20.8601 19.7996L21.8027 21.213H40.1954V21.212ZM16.3196 3.78906H22.4498L33.4199 20.2433H27.2897L16.3196 3.78906ZM31 58.0391C21.9044 58.0391 14.5312 50.6659 14.5312 41.5703C14.5312 32.4757 21.9044 25.1016 31 25.1016C40.0937 25.1016 47.4688 32.4757 47.4688 41.5703C47.4688 50.6659 40.0937 58.0391 31 58.0391Z" fill="#1D6BF3"/>
</svg>
