<svg width="68" height="69" viewBox="0 0 68 69" fill="none" xmlns="http://www.w3.org/2000/svg">
<circle cx="34" cy="34.6094" r="34" fill="#DDE0E4"/>
<g clip-path="url(#clip0_11163_80543)">
<path d="M34 34.6094C35.6811 34.6094 37.3245 34.1109 38.7223 33.1769C40.1202 32.2429 41.2096 30.9154 41.853 29.3622C42.4963 27.809 42.6646 26.0999 42.3367 24.4511C42.0087 22.8023 41.1992 21.2877 40.0104 20.099C38.8217 18.9102 37.3071 18.1007 35.6583 17.7727C34.0094 17.4447 32.3004 17.6131 30.7472 18.2564C29.194 18.8997 27.8665 19.9892 26.9325 21.387C25.9985 22.7848 25.5 24.4282 25.5 26.1094C25.5023 28.363 26.3985 30.5237 27.9921 32.1173C29.5856 33.7109 31.7464 34.6071 34 34.6094ZM34 20.4427C35.1208 20.4427 36.2164 20.7751 37.1482 21.3977C38.0801 22.0204 38.8064 22.9054 39.2353 23.9408C39.6642 24.9763 39.7764 26.1157 39.5578 27.2149C39.3391 28.3141 38.7994 29.3238 38.0069 30.1163C37.2144 30.9088 36.2047 31.4485 35.1055 31.6672C34.0063 31.8858 32.8669 31.7736 31.8315 31.3447C30.796 30.9158 29.911 30.1895 29.2883 29.2576C28.6657 28.3257 28.3333 27.2301 28.3333 26.1094C28.3333 24.6065 28.9304 23.1651 29.9931 22.1024C31.0558 21.0397 32.4971 20.4427 34 20.4427V20.4427Z" fill="#1A1B22"/>
<path d="M34 37.4414C30.6196 37.4452 27.3788 38.7897 24.9885 41.1799C22.5983 43.5702 21.2537 46.811 21.25 50.1914C21.25 50.5671 21.3993 50.9275 21.6649 51.1931C21.9306 51.4588 22.2909 51.6081 22.6667 51.6081C23.0424 51.6081 23.4027 51.4588 23.6684 51.1931C23.9341 50.9275 24.0833 50.5671 24.0833 50.1914C24.0833 47.5613 25.1281 45.039 26.9879 43.1793C28.8476 41.3195 31.3699 40.2747 34 40.2747C36.6301 40.2747 39.1524 41.3195 41.0121 43.1793C42.8719 45.039 43.9167 47.5613 43.9167 50.1914C43.9167 50.5671 44.0659 50.9275 44.3316 51.1931C44.5973 51.4588 44.9576 51.6081 45.3333 51.6081C45.7091 51.6081 46.0694 51.4588 46.3351 51.1931C46.6007 50.9275 46.75 50.5671 46.75 50.1914C46.7462 46.811 45.4017 43.5702 43.0115 41.1799C40.6212 38.7897 37.3804 37.4452 34 37.4414V37.4414Z" fill="#1A1B22"/>
</g>
<defs>
<clipPath id="clip0_11163_80543">
<rect width="34" height="34" fill="white" transform="translate(17 17.6094)"/>
</clipPath>
</defs>
</svg>
