<svg width="367" height="314" viewBox="0 0 367 314" fill="none" xmlns="http://www.w3.org/2000/svg">
<g clip-path="url(#clip0_15584_76438)">
<path d="M365.317 215.945C355.294 165.379 296.568 124.965 285.114 72.272C264.296 5.23201 195.68 -5.36714 151.092 23.7483C80.4422 69.8821 155.811 81.3305 17.2895 190.48C-16.9146 217.432 -6.01566 336.401 101.588 309.098C159.496 294.404 177.1 292.343 203.147 289.923C268.8 283.826 382.143 300.826 365.317 215.945Z" fill="#ACCCFF"/>
<path d="M286.887 228.617L185.413 282.23L84.0931 228.617V147.656H286.887V228.617Z" fill="white"/>
<path d="M185.413 283.051C185.279 283.051 185.147 283.018 185.029 282.955L83.7118 229.341C83.58 229.272 83.4697 229.168 83.3925 229.04C83.3154 228.913 83.2744 228.767 83.2738 228.618V147.654C83.2738 147.436 83.3604 147.227 83.5146 147.073C83.6687 146.919 83.8778 146.832 84.0958 146.832H286.887C287.105 146.832 287.314 146.919 287.468 147.073C287.622 147.227 287.709 147.436 287.709 147.654V228.615C287.708 228.764 287.667 228.91 287.59 229.038C287.513 229.165 287.402 229.269 287.271 229.339L185.797 282.953C185.679 283.016 185.547 283.05 185.413 283.051ZM84.9152 228.121L185.413 281.299L286.065 228.12V148.477H84.9152V228.121Z" fill="#1A1B22"/>
<path d="M286.887 130.284L185.413 76.6707L231.012 54.6836L332.485 108.298L286.887 130.284Z" fill="white"/>
<path d="M286.887 131.106C286.753 131.106 286.621 131.073 286.503 131.011L185.029 77.3968C184.895 77.3256 184.783 77.2185 184.706 77.0874C184.628 76.9564 184.589 76.8064 184.592 76.6543C184.594 76.5022 184.639 76.3538 184.721 76.2257C184.803 76.0975 184.919 75.9947 185.056 75.9285L230.654 53.9414C230.77 53.8852 230.898 53.8571 231.027 53.8595C231.155 53.8619 231.282 53.8947 231.396 53.9552L332.869 107.569C333.003 107.64 333.115 107.747 333.193 107.878C333.27 108.009 333.309 108.159 333.307 108.311C333.304 108.464 333.259 108.612 333.177 108.74C333.095 108.868 332.979 108.971 332.842 109.037L287.244 131.024C287.132 131.078 287.01 131.106 286.887 131.106ZM187.237 76.7021L286.904 129.361L330.661 108.262L230.994 55.6044L187.237 76.7021Z" fill="#1A1B22"/>
<path d="M84.0932 130.284L185.567 76.6707L139.968 54.6836L38.4949 108.298L84.0932 130.284Z" fill="white"/>
<path d="M84.0932 131.106C83.9696 131.106 83.8475 131.078 83.7361 131.024L38.1405 109.037C38.0036 108.971 37.8876 108.868 37.8056 108.74C37.7235 108.612 37.6786 108.464 37.6758 108.311C37.673 108.159 37.7124 108.009 37.7897 107.878C37.867 107.747 37.9791 107.64 38.1136 107.569L139.587 53.9552C139.701 53.8947 139.827 53.8619 139.956 53.8595C140.085 53.8571 140.212 53.8852 140.328 53.9414L185.926 75.9285C186.063 75.9947 186.179 76.0975 186.261 76.2257C186.343 76.3538 186.388 76.5022 186.391 76.6543C186.394 76.8064 186.354 76.9564 186.277 77.0874C186.2 77.2185 186.088 77.3256 185.953 77.3968L84.4799 131.011C84.3607 131.074 84.2279 131.106 84.0932 131.106ZM40.3185 108.263L84.0761 129.362L183.743 76.7034L139.985 55.6044L40.3185 108.263Z" fill="#1A1B22"/>
<path d="M84.0932 130.281L185.567 183.895L133.392 212.46L31.919 158.847L84.0932 130.281Z" fill="white"/>
<path d="M133.392 213.284C133.258 213.284 133.127 213.252 133.008 213.189L31.535 159.575C31.4039 159.505 31.2942 159.402 31.2173 159.275C31.1404 159.148 31.0992 159.003 31.0981 158.854C31.097 158.706 31.1361 158.56 31.2111 158.432C31.2862 158.304 31.3944 158.199 31.5244 158.127L83.6986 129.562C83.8178 129.497 83.9513 129.462 84.0872 129.461C84.2232 129.46 84.3572 129.493 84.4772 129.557L185.951 183.171C186.082 183.24 186.191 183.344 186.268 183.471C186.345 183.598 186.386 183.743 186.387 183.891C186.388 184.04 186.349 184.186 186.274 184.314C186.199 184.441 186.091 184.547 185.961 184.618L133.787 213.184C133.666 213.25 133.53 213.284 133.392 213.284ZM33.655 158.835L133.385 211.528L183.831 183.91L84.1004 131.216L33.655 158.835Z" fill="#1A1B22"/>
<path d="M286.887 130.281L185.413 183.895L237.587 212.46L339.061 158.847L286.887 130.281Z" fill="white"/>
<path d="M237.589 213.284C237.451 213.284 237.315 213.25 237.194 213.184L185.02 184.618C184.89 184.547 184.782 184.441 184.707 184.314C184.632 184.186 184.593 184.04 184.594 183.891C184.595 183.743 184.636 183.598 184.713 183.471C184.79 183.344 184.9 183.24 185.031 183.171L286.504 129.557C286.624 129.493 286.758 129.46 286.894 129.461C287.03 129.462 287.163 129.497 287.282 129.562L339.457 158.127C339.587 158.199 339.695 158.304 339.77 158.432C339.845 158.56 339.884 158.706 339.883 158.854C339.882 159.003 339.841 159.148 339.764 159.275C339.687 159.402 339.577 159.505 339.446 159.575L237.973 213.189C237.855 213.252 237.723 213.284 237.589 213.284ZM187.151 183.91L237.597 211.528L337.327 158.835L286.881 131.216L187.151 183.91Z" fill="#1A1B22"/>
<path d="M185.566 76.668L84.0931 130.281L185.413 183.896L286.887 130.281L185.566 76.668Z" fill="#1A1B22"/>
<path d="M186.235 183.898H184.591V282.232H186.235V183.898Z" fill="#1A1B22"/>
<path d="M128.56 125.418C128.424 125.418 128.291 125.375 128.18 125.296C128.038 125.195 127.942 125.042 127.912 124.87C127.883 124.698 127.923 124.521 128.024 124.379C128.145 124.207 140.03 107.019 126.762 91.3494C124.414 88.5616 121.485 86.3212 118.18 84.7853C114.875 83.2493 111.274 82.455 107.63 82.4581H107.451C108.711 86.8366 108.486 90.7298 106.702 93.7164C105.942 95.0659 104.82 96.1764 103.463 96.9225C102.106 97.6687 100.568 98.021 99.0212 97.9397C97.7412 97.8348 96.5195 97.3588 95.5058 96.5698C94.4921 95.7809 93.7304 94.7134 93.3139 93.498C91.8547 89.6904 93.3797 85.9986 97.3989 83.6191C99.9451 82.2145 102.774 81.4004 105.677 81.2371C104.733 78.7323 103.505 76.3439 102.017 74.1186C97.2266 66.7994 88.4958 61.7327 78.0624 60.2177C69.2204 58.9343 60.7466 60.446 56.4716 64.0681C56.3384 64.1808 56.166 64.2359 55.9921 64.2215C55.8183 64.207 55.6574 64.124 55.5447 63.9908C55.432 63.8576 55.3769 63.685 55.3914 63.5111C55.4059 63.3373 55.4888 63.1763 55.622 63.0635C60.1712 59.2092 69.0533 57.5798 78.2511 58.9191C89.0574 60.4887 98.1203 65.7666 103.118 73.4009C104.738 75.822 106.056 78.4325 107.043 81.1739C110.974 81.0795 114.876 81.8685 118.462 83.4829C122.048 85.0973 125.226 87.496 127.763 90.5021C141.699 106.961 129.221 124.963 129.093 125.143C129.032 125.228 128.952 125.297 128.859 125.345C128.767 125.393 128.664 125.418 128.56 125.418ZM106.104 82.5061C103.29 82.6261 100.541 83.3947 98.0716 84.7519C94.6022 86.8057 93.3172 89.8226 94.545 93.0276C94.8776 94.0096 95.4892 94.8734 96.3049 95.5132C97.1205 96.153 98.1049 96.5411 99.1376 96.6299C100.438 96.6882 101.729 96.3835 102.866 95.7499C104.003 95.1163 104.941 94.1787 105.576 93.0421C107.214 90.2989 107.363 86.6525 106.102 82.5061H106.104Z" fill="#1A1B22"/>
<path d="M45.1222 74.6753C44.0047 75.0112 42.8003 74.8974 41.7654 74.3581C40.7306 73.8189 39.947 72.8969 39.5816 71.7883C39.2162 70.6798 39.2977 69.4723 39.8089 68.4231C40.3201 67.3738 41.2206 66.5656 42.3186 66.1706C43.4165 65.7755 44.6253 65.8249 45.6874 66.3081C46.7496 66.7913 47.5812 67.6702 48.0053 68.7576C48.4293 69.8451 48.4123 71.0551 47.9578 72.1302C47.5033 73.2053 46.6473 74.0604 45.572 74.5135C45.4251 74.5756 45.2749 74.6296 45.1222 74.6753ZM42.9357 67.3654C42.8291 67.3974 42.7244 67.4352 42.622 67.4785C41.8654 67.7977 41.2632 68.3997 40.9437 69.1565C40.6242 69.9132 40.6127 70.7648 40.9116 71.5299C41.2105 72.295 41.7961 72.9131 42.5439 73.2526C43.2916 73.5921 44.1422 73.6262 44.9147 73.3475C45.6871 73.0689 46.3203 72.4996 46.6794 71.7608C47.0384 71.0221 47.095 70.1723 46.837 69.3924C46.579 68.6126 46.0269 67.9643 45.2981 67.5857C44.5694 67.2071 43.7218 67.128 42.9357 67.3654Z" fill="#1A1B22"/>
<path d="M45.1143 64.3653C44.0572 64.681 42.9207 64.5947 41.9234 64.123C40.9261 63.6512 40.1383 62.8273 39.7115 61.8096C39.3693 60.9937 39.2766 60.0946 39.4452 59.2261C39.6138 58.3575 40.0361 57.5585 40.6587 56.93C41.2812 56.3016 42.0761 55.8719 42.9428 55.6954C43.8095 55.5189 44.709 55.6034 45.5276 55.9384C46.3462 56.2733 47.0472 56.8436 47.5418 57.5771C48.0365 58.3105 48.3026 59.1743 48.3065 60.0591C48.3104 60.9438 48.0519 61.8099 47.5638 62.5477C47.0756 63.2855 46.3797 63.862 45.5641 64.2041C45.417 64.2656 45.2669 64.3194 45.1143 64.3653ZM42.9304 57.0547C42.8226 57.087 42.7166 57.125 42.6128 57.1685C41.8413 57.4926 41.2301 58.11 40.9135 58.8848C40.5968 59.6595 40.6006 60.5284 40.9241 61.3004C41.16 61.8631 41.5538 62.3454 42.058 62.689C42.5621 63.0325 43.155 63.2225 43.7648 63.2361C44.3746 63.2497 44.9753 63.0862 45.4942 62.7654C46.0131 62.4446 46.428 61.9803 46.6887 61.4286C46.9493 60.8769 47.0446 60.2615 46.963 59.6567C46.8814 59.052 46.6264 58.4839 46.2288 58.0211C45.8312 57.5583 45.3081 57.2207 44.7227 57.0491C44.1373 56.8774 43.5148 56.8792 42.9304 57.054V57.0547Z" fill="#1A1B22"/>
<path d="M43.8379 69.017C47.0673 69.017 49.6852 67.2678 49.6852 65.1101C49.6852 62.9523 47.0673 61.2031 43.8379 61.2031C40.6085 61.2031 37.9905 62.9523 37.9905 65.1101C37.9905 67.2678 40.6085 69.017 43.8379 69.017Z" fill="white"/>
<path d="M46.4262 69.3036C45.5878 69.5515 44.718 69.6765 43.8438 69.6747C40.1955 69.6747 37.3336 67.6748 37.3336 65.1152C37.3336 62.5555 40.1869 60.5484 43.8339 60.5445C45.424 60.514 46.9883 60.9484 48.3352 61.7944C48.9401 62.1096 49.447 62.5847 49.801 63.1679C50.1551 63.7511 50.3425 64.4202 50.3432 65.1025C50.3438 65.7848 50.1575 66.4543 49.8045 67.0381C49.4516 67.622 48.9454 68.0979 48.3411 68.4142C47.7503 68.8039 47.105 69.1036 46.4262 69.3036ZM41.6507 62.1733C39.8936 62.6996 38.6481 63.8357 38.6488 65.1119C38.6488 66.8729 41.0273 68.359 43.8438 68.3563C45.1742 68.3844 46.484 68.0241 47.6131 67.3196C48.0366 67.1245 48.3952 66.8119 48.6465 66.4191C48.8977 66.0262 49.0311 65.5694 49.0307 65.103C49.0302 64.6366 48.8961 64.1801 48.6441 63.7877C48.3922 63.3953 48.033 63.0834 47.6092 62.889C46.4793 62.186 45.1688 61.828 43.8385 61.8588C43.0979 61.8569 42.3609 61.9628 41.6507 62.1733Z" fill="#1A1B22"/>
<path d="M45.2721 68.897L45.134 61.299L43.2454 61.2227L43.1132 68.9858L45.2721 68.897Z" fill="#1A1B22"/>
<path d="M36.0802 66.7625C36.4136 66.7625 36.6839 66.4921 36.6839 66.1586C36.6839 65.8251 36.4136 65.5547 36.0802 65.5547C35.7468 65.5547 35.4766 65.8251 35.4766 66.1586C35.4766 66.4921 35.7468 66.7625 36.0802 66.7625Z" fill="#1A1B22"/>
<path d="M36.5517 63.532C36.8851 63.532 37.1554 63.2616 37.1554 62.9281C37.1554 62.5946 36.8851 62.3242 36.5517 62.3242C36.2183 62.3242 35.9481 62.5946 35.9481 62.9281C35.9481 63.2616 36.2183 63.532 36.5517 63.532Z" fill="#1A1B22"/>
<path d="M231.884 87.479C231.743 87.479 231.606 87.4338 231.493 87.3501C231.38 87.2664 231.297 87.1486 231.255 87.0139C229.074 78.8657 228.492 70.3718 229.542 62.0021C231.242 49.7663 237.987 33.7077 260.468 26.676C263.632 25.6586 266.876 24.9145 270.167 24.4518C271.226 17.8333 275.256 10.6536 284.268 5.70003C305.681 -6.07008 320.144 4.49026 320.288 4.59815C320.427 4.70283 320.52 4.85867 320.544 5.03139C320.569 5.20411 320.524 5.37955 320.419 5.51913C320.315 5.6587 320.159 5.75098 319.986 5.77565C319.814 5.80033 319.638 5.75538 319.499 5.6507C319.362 5.54807 305.539 -4.49126 284.902 6.85389C276.481 11.4831 272.626 18.1273 271.53 24.2953C281.446 23.3184 286.194 26.6273 288.325 29.1265C289.644 30.6293 290.491 32.4871 290.762 34.4684C291.033 36.4496 290.714 38.4667 289.847 40.2683C289.162 41.7245 288.051 42.9385 286.661 43.75C285.272 44.5615 283.669 44.9322 282.064 44.8134C276.527 44.4884 271.944 39.8282 270.391 32.9406C269.878 30.6091 269.742 28.2105 269.987 25.8359C266.892 26.2807 263.84 26.9829 260.862 27.9351C243.34 33.4156 233.243 44.9403 230.844 62.187C229.816 70.3668 230.383 78.6683 232.513 86.6324C232.543 86.7308 232.55 86.8348 232.532 86.9362C232.515 87.0376 232.474 87.1335 232.413 87.2162C232.352 87.299 232.272 87.3662 232.18 87.4125C232.088 87.4588 231.987 87.483 231.884 87.483V87.479ZM271.328 25.6715C271.054 28.0009 271.171 30.3597 271.674 32.6505C273.095 38.9513 277.204 43.2095 282.141 43.4996C283.487 43.5961 284.831 43.2834 285.996 42.6025C287.161 41.9216 288.093 40.9044 288.67 39.6842C289.422 38.1131 289.695 36.3555 289.456 34.6303C289.216 32.905 288.475 31.2884 287.323 29.9816C284.248 26.3721 278.637 24.9143 271.328 25.6715Z" fill="#1A1B22"/>
<path d="M335.606 11.2482C334.72 11.2463 333.853 10.9939 333.105 10.5202C332.356 10.0465 331.757 9.37064 331.376 8.57075C330.995 7.77087 330.848 6.87952 330.951 5.99958C331.055 5.11964 331.406 4.28698 331.962 3.5977C332.519 2.90842 333.259 2.39062 334.097 2.10406C334.935 1.81751 335.837 1.77387 336.699 1.97819C337.561 2.18251 338.347 2.62646 338.967 3.2588C339.588 3.89114 340.017 4.6861 340.205 5.55191C340.352 6.23826 340.344 6.94889 340.182 7.63177C340.019 8.31465 339.706 8.9525 339.265 9.49861C338.824 10.0447 338.267 10.4853 337.633 10.788C337 11.0907 336.308 11.2479 335.606 11.2482ZM335.616 3.16724C334.916 3.16722 334.234 3.38422 333.663 3.78834C333.092 4.19245 332.66 4.76377 332.428 5.42357C332.195 6.08337 332.172 6.79916 332.363 7.47229C332.554 8.14541 332.949 8.74273 333.494 9.18193C334.038 9.62112 334.705 9.88056 335.403 9.9245C336.101 9.96843 336.796 9.79469 337.391 9.42723C337.986 9.05977 338.453 8.51667 338.727 7.87279C339 7.22891 339.068 6.51594 338.919 5.83216C338.759 5.07562 338.343 4.3975 337.741 3.91207C337.139 3.42664 336.389 3.16359 335.616 3.16724Z" fill="#1A1B22"/>
<path d="M333.626 21.9854C332.421 21.9854 331.261 21.523 330.386 20.6936C329.512 19.8642 328.988 18.7309 328.923 17.5269C328.859 16.3229 329.258 15.14 330.039 14.2215C330.819 13.3031 331.923 12.7191 333.121 12.5897C334.319 12.4603 335.521 12.7955 336.48 13.5261C337.439 14.2568 338.081 15.3273 338.275 16.5174C338.468 17.7075 338.198 18.9265 337.521 19.9235C336.843 20.9205 335.809 21.6196 334.631 21.8769C334.301 21.949 333.964 21.9854 333.626 21.9854ZM333.642 13.9039C333.399 13.904 333.156 13.9302 332.919 13.9821C332.079 14.1667 331.342 14.6663 330.859 15.3782C330.376 16.09 330.184 16.96 330.322 17.8091C330.461 18.6582 330.92 19.4218 331.604 19.9428C332.289 20.4638 333.147 20.7027 334.002 20.6101C334.857 20.5176 335.644 20.1007 336.201 19.4453C336.758 18.79 337.043 17.9459 336.997 17.0868C336.951 16.2276 336.577 15.4188 335.953 14.8268C335.329 14.2347 334.502 13.9044 333.642 13.9039Z" fill="#1A1B22"/>
<path d="M340.688 13.1718C341.103 10.9248 338.712 8.60001 335.349 7.97923C331.987 7.35844 328.924 8.67674 328.51 10.9237C328.095 13.1707 330.486 15.4954 333.849 16.1162C337.211 16.737 340.274 15.4187 340.688 13.1718Z" fill="white"/>
<path d="M335.505 16.9273C334.909 16.9263 334.315 16.8713 333.729 16.7628C332.075 16.4883 330.537 15.7371 329.304 14.6012C328.764 14.1404 328.349 13.551 328.097 12.8873C327.846 12.2236 327.765 11.5071 327.863 10.8041C328.023 10.1123 328.353 9.47183 328.825 8.94178C329.297 8.41174 329.895 8.00923 330.564 7.77144C332.128 7.18042 333.824 7.02847 335.469 7.33202C337.113 7.63557 338.643 8.38306 339.893 9.49367C340.433 9.95441 340.848 10.5439 341.1 11.2075C341.352 11.8712 341.432 12.5877 341.334 13.2907C341.175 13.9825 340.844 14.623 340.372 15.153C339.9 15.6831 339.302 16.0856 338.633 16.3234C337.642 16.7339 336.578 16.9393 335.505 16.9273ZM333.688 8.48191C332.795 8.47055 331.909 8.63994 331.084 8.97989C330.616 9.13636 330.195 9.40696 329.859 9.76717C329.522 10.1274 329.281 10.5659 329.157 11.0429C329.103 11.5329 329.172 12.0286 329.358 12.4852C329.543 12.9418 329.84 13.3448 330.221 13.6578C331.284 14.5865 332.578 15.2119 333.967 15.4683C335.355 15.7246 336.787 15.6026 338.112 15.1149C338.579 14.9585 339 14.6879 339.337 14.3277C339.673 13.9674 339.914 13.529 340.039 13.0519C340.093 12.5619 340.024 12.0661 339.838 11.6094C339.653 11.1528 339.356 10.7498 338.975 10.437C337.928 9.48168 336.625 8.85233 335.226 8.62598C334.72 8.53162 334.206 8.4834 333.691 8.48191H333.688Z" fill="#1A1B22"/>
<path d="M333.84 7.82422L332.517 15.7617L334.468 16.2064L336.104 8.14853L333.84 7.82422Z" fill="#1A1B22"/>
<path d="M341.767 16.3648C342.12 16.3648 342.406 16.0785 342.406 15.7254C342.406 15.3722 342.12 15.0859 341.767 15.0859C341.414 15.0859 341.128 15.3722 341.128 15.7254C341.128 16.0785 341.414 16.3648 341.767 16.3648Z" fill="#1A1B22"/>
<path d="M342.881 13.0913C343.234 13.0913 343.52 12.8051 343.52 12.4519C343.52 12.0988 343.234 11.8125 342.881 11.8125C342.528 11.8125 342.242 12.0988 342.242 12.4519C342.242 12.8051 342.528 13.0913 342.881 13.0913Z" fill="#1A1B22"/>
</g>
<defs>
<clipPath id="clip0_15584_76438">
<rect width="367" height="313" fill="white" transform="translate(0 0.140625)"/>
</clipPath>
</defs>
</svg>
