<svg width="738" height="574" viewBox="0 0 738 574" fill="none" xmlns="http://www.w3.org/2000/svg">
<rect x="29.8467" y="225.59" width="13.8626" height="359.206" transform="rotate(-16.1149 29.8467 225.59)" fill="#B5B5B7"/>
<rect x="329.373" y="0.236328" width="13.3454" height="407.09" transform="rotate(53.8292 329.373 0.236328)" fill="#B5B5B7"/>
<rect x="374.414" y="65.0698" width="27" height="77.964" transform="rotate(146.261 374.414 65.0698)" fill="#B5B5B7"/>
<ellipse cx="355.245" cy="79.7085" rx="46.5" ry="36.5" fill="#B5B5B7"/>
<path d="M269.169 145.449C265.836 115.256 287.609 88.0789 317.802 84.7459L396.325 76.0776C426.517 72.7446 453.695 94.5184 457.027 124.711L457.357 127.693L269.498 148.431L269.169 145.449Z" fill="#B5B5B7"/>
<circle cx="396.245" cy="482.736" r="35.5" fill="white"/>
<rect x="399.808" y="461.158" width="7.68053" height="43.4117" fill="#1A1B22"/>
<path d="M387.619 504.494H379.771L389.289 489.967C387.285 488.632 382.777 484.624 381.274 480.283C379.771 475.942 379.938 470.933 384.28 465.59C387.753 461.316 396.635 460.915 400.642 461.249V467.26C394.298 466.258 386.45 469.764 387.619 476.276C388.554 481.485 395.355 486.461 398.639 488.298L387.619 504.494Z" fill="#1A1B22"/>
<rect x="97.7451" y="544.236" width="640" height="29" fill="#B5B5B7"/>
<path d="M513.245 528.236C513.412 527.403 515.045 525.436 520.245 524.236" stroke="#1A1B22" stroke-width="3"/>
<path d="M255.745 560.736C260.652 555.641 259.013 542.261 254.924 538.831C256.968 535.075 257.48 527.17 243.168 525.602C228.856 524.034 224.256 527.888 223.745 530.012L231.412 558.43C231.923 559.899 233.968 563.231 238.057 564.799C243.168 566.759 249.612 567.106 255.745 560.736Z" fill="#1A1B22"/>
<path d="M230.145 527.236C233.146 528.973 237.193 534.045 241.245 545.16C246.311 559.053 233.245 560.824 233.245 554.236C233.245 546.393 223.39 533.657 221.702 534.236C220.013 534.815 233.245 547.817 233.245 558.236C233.245 568.437 215.169 547.797 210.713 541.493L221.702 557.316C218.316 557.791 211.397 556.786 206.533 550.276L208.193 553.264C204.816 557.316 196.599 560.21 190.745 539.371C196.749 525.478 213.934 500.934 234.647 513.901C260.538 530.109 256.036 537.634 254.347 539.371C252.658 541.108 251.533 533.582 243.09 526.057C240.245 524.236 230.145 521.679 230.145 527.236Z" fill="white" stroke="#1A1B22" stroke-width="3"/>
<path d="M498.745 550.236L570.745 549.736C572.345 528.136 547.745 516.07 536.245 512.736C502.645 511.136 497.578 537.236 498.745 550.236Z" fill="white" stroke="#1A1B22" stroke-width="3"/>
<path d="M168.745 499.752C168.745 480.178 261.539 367.061 271.054 359.572C326.745 315.737 429.245 327.737 474.173 331.026C506.912 329.803 527.074 349.547 533.063 359.572C554.224 373.437 607.424 458.803 631.379 499.752C636.969 522.589 624.059 543.59 616.906 551.237H568.245C569.443 532.886 545.706 518.103 533.063 513.006V496.237L524.245 466.737L508.745 551.237L282.033 544.737V448.268L248.596 499.752L240.745 516.237C215.245 505.237 201.85 520.992 189.706 543.081C181.222 527.279 168.745 524.22 168.745 499.752Z" fill="#1D6BF3"/>
<path d="M519.564 537.309C520.241 537.182 520.869 537.085 521.428 537.024C520.861 537.109 520.236 537.205 519.564 537.309Z" fill="#B5B5B7"/>
<path d="M521.428 546.988C516.994 547.984 507.549 549.077 505.244 545.477C502.94 541.877 515.767 537.644 521.428 537.024C513.834 538.154 495.94 541.411 493.427 537.024C490.915 532.637 499.421 529.127 503.987 527.92C510.046 526.67 523.769 524.271 530.19 524.679" stroke="#1A1B22" stroke-width="3"/>
<path d="M274.745 408.236H524.745L510.856 561.236H287.792L274.745 408.236Z" fill="#1A1B22"/>
<circle cx="403.245" cy="490.736" r="29.5" fill="white"/>
<rect x="406.206" y="472.805" width="6.38241" height="36.0745" fill="#1A1B22"/>
<path d="M396.077 508.817H389.556L397.464 496.746C395.799 495.636 392.053 492.306 390.804 488.698C389.556 485.091 389.694 480.928 393.302 476.488C396.188 472.936 403.569 472.603 406.899 472.881V477.876C401.627 477.043 395.106 479.957 396.077 485.368C396.854 489.697 402.505 493.832 405.234 495.358L396.077 508.817Z" fill="#1A1B22"/>
<path d="M354.963 303.707C350.266 296.397 405.334 311.821 404.171 303.249C466.466 290.88 443.4 297.606 453.365 319.713C452.812 327.299 441.351 352.648 413.422 354.792C360.883 358.825 360.833 312.845 354.963 303.707Z" fill="white"/>
<path d="M407.854 338.236C380.867 338.236 357.262 304.579 352.623 279.336C352.623 287.308 338.707 289.522 335.228 267.822C332.444 250.462 342.331 251.295 348.709 254.691C348.709 246.129 351.642 206.862 380.867 190.919C417.397 170.991 440.447 194.905 451.319 205.533C460.017 214.036 462.361 242.579 461.346 251.436C473.088 244.351 477.002 255.865 473.523 267.822C470.74 277.388 465.09 280.665 459.147 279.336C457.697 302.217 434.842 338.236 407.854 338.236Z" fill="white" stroke="#1A1B22" stroke-width="3"/>
<path d="M345.145 263.468C342.199 265.735 338.503 270.99 347.293 273.882" stroke="#1A1B22" stroke-width="3" stroke-linejoin="round"/>
<path d="M464.112 270.681C466.402 269.489 470.031 265.736 466.232 260.262" stroke="#1A1B22" stroke-width="3" stroke-linejoin="round"/>
<path d="M352.712 258.71C353.773 246.012 362.588 222.882 366.863 212.905C369.959 205.314 384.553 200.207 399.146 195.672C413.74 191.136 413.298 183.88 422.585 195.672C431.871 207.463 429.218 194.311 444.254 207.916C456.283 218.801 459.879 242.081 460.174 252.361C479.279 204.107 452.214 186.601 436.294 183.88C436.294 180.554 433.552 171.998 422.585 164.379C408.875 154.855 411.971 170.275 399.146 167.554C386.321 164.832 388.533 163.018 375.266 164.379C361.999 165.739 356.692 176.17 363.768 173.903C369.428 172.089 371.433 179.798 371.728 183.88C359.788 193.555 337.499 219.164 343.867 244.198C350.235 269.232 352.417 264.304 352.712 258.71Z" fill="#1A1B22" stroke="#1A1B22" stroke-width="3" stroke-linejoin="round"/>
<path d="M368.845 313.236L360.745 351.236" stroke="#1A1B22" stroke-width="3" stroke-linejoin="round"/>
<path d="M442.173 318.236L446.71 347.702" stroke="#1A1B22" stroke-width="3" stroke-linejoin="round"/>
<path d="M364.397 329.683C364.397 331.618 368.571 336.335 372.745 359.192C361.615 367.9 357.441 346.694 356.745 335.003C359.528 332.584 364.397 327.748 364.397 329.683Z" fill="#1D6BF3"/>
<path d="M438.441 368.604C439.515 367.418 439.908 362.513 450.368 346.49C461.131 346.521 451.587 361.533 445.47 369.034C442.645 369.175 437.367 369.79 438.441 368.604Z" fill="#1D6BF3"/>
<path d="M446.764 329.236H453.764C461.764 329.736 452.042 358.152 442.745 352.236C437.245 348.736 446.587 338.567 446.764 329.236Z" fill="#1D6BF3"/>
<ellipse cx="385.745" cy="256.236" rx="3" ry="4" fill="#1A1B22"/>
<ellipse cx="430.745" cy="256.236" rx="3" ry="4" fill="#1A1B22"/>
<path d="M372.855 246.189C375.759 241.586 378.909 238.902 384.392 237.805C385.742 237.535 388.139 237.096 389.382 237.925" stroke="#1A1B22" stroke-width="3" stroke-linecap="round"/>
<path d="M423.155 238.643C427.58 236.93 431.606 237.28 435.73 239.342C437.272 240.113 439.399 240.251 440.76 241.158" stroke="#1A1B22" stroke-width="3" stroke-linecap="round"/>
<path d="M406.759 244.323C407.403 252.53 409.317 262.443 405.106 270.047C404.247 271.597 402.99 273.258 402.396 274.916C402.065 275.839 402.073 276.722 401.477 277.488C400.76 278.41 408.044 280.293 408.413 280.382C411.894 281.227 413.706 281.857 414.615 278.223" stroke="#1A1B22" stroke-width="3" stroke-linecap="round"/>
<path d="M392.34 300.93C400.457 304.001 409.565 305.924 418.271 303.966C421.924 303.144 425.465 301.049 428.026 298.317C428.876 297.41 429.216 295.954 430.415 295.554" stroke="#1A1B22" stroke-width="3" stroke-linecap="round"/>
<path d="M390.835 303.359C391.397 301.411 392.516 299.448 392.799 297.467" stroke="#1A1B22" stroke-width="3" stroke-linecap="round"/>
<path d="M427.901 293.294C429.394 294.408 430.714 295.695 432.156 296.867C432.439 297.097 432.662 297.171 432.81 297.467" stroke="#1A1B22" stroke-width="3" stroke-linecap="round"/>
<path d="M648.745 469.236H713.745L706.245 553.236H659.245L648.745 469.236Z" fill="#B5B5B7"/>
<path d="M724.745 500.236C724.745 509.555 718.018 516.236 710.745 516.236C703.472 516.236 696.745 509.555 696.745 500.236C696.745 490.917 703.472 484.236 710.745 484.236C718.018 484.236 724.745 490.917 724.745 500.236Z" stroke="#B5B5B7" stroke-width="10"/>
<path d="M676.225 454.97C677.442 458.625 680.763 460.513 684.728 461.236C685.349 459.859 685.228 459.536 685.349 458.889C685.512 458.02 685.745 457.363 685.745 456.431C685.745 454.709 684.012 452.616 682.907 451.262C681.579 449.635 683.056 446.696 683.201 444.885C683.321 443.391 683.421 441.694 682.738 440.28C682.285 439.344 682.149 437.983 681.313 437.238C681.278 437.207 681.259 437.667 681.256 437.691C681.204 438.16 681.085 438.624 681.019 439.092C680.734 441.127 680.305 443.218 679.233 445.056C678.194 446.838 676.674 448.439 676.022 450.376C675.533 451.826 675.749 453.539 676.225 454.97Z" fill="#B5B5B7"/>
<path d="M684.728 461.236L684.458 462.712C685.136 462.836 685.811 462.482 686.095 461.854L684.728 461.236ZM676.225 454.97L674.802 455.444L674.802 455.444L676.225 454.97ZM676.022 450.376L674.6 449.897H674.6L676.022 450.376ZM679.233 445.056L680.528 445.812L679.233 445.056ZM681.019 439.092L679.534 438.883L679.534 438.883L681.019 439.092ZM681.256 437.691L682.747 437.858L682.747 437.858L681.256 437.691ZM681.313 437.238L680.315 438.358L681.313 437.238ZM682.738 440.28L684.088 439.627V439.627L682.738 440.28ZM683.201 444.885L681.706 444.765L683.201 444.885ZM682.907 451.262L684.069 450.314L682.907 451.262ZM685.349 458.889L683.875 458.613L685.349 458.889ZM684.997 459.761C681.293 459.085 678.619 457.41 677.648 454.496L674.802 455.444C676.266 459.84 680.232 461.941 684.458 462.712L684.997 459.761ZM677.648 454.496C677.225 453.224 677.1 451.873 677.443 450.854L674.6 449.897C673.967 451.778 674.272 453.853 674.802 455.444L677.648 454.496ZM677.443 450.854C677.701 450.089 678.147 449.344 678.72 448.504C679.256 447.721 679.973 446.763 680.528 445.812L677.937 444.3C677.453 445.13 676.891 445.864 676.244 446.811C675.635 447.702 674.994 448.726 674.6 449.897L677.443 450.854ZM680.528 445.812C681.755 443.709 682.214 441.374 682.505 439.3L679.534 438.883C679.254 440.879 678.855 442.726 677.937 444.3L680.528 445.812ZM682.505 439.3C682.531 439.112 682.568 438.923 682.616 438.674C682.661 438.44 682.714 438.156 682.747 437.858L679.766 437.524C679.747 437.695 679.714 437.877 679.669 438.11C679.628 438.326 679.573 438.603 679.534 438.883L682.505 439.3ZM682.747 437.858C682.751 437.827 682.752 437.801 682.753 437.798C682.753 437.789 682.754 437.781 682.754 437.776C682.755 437.766 682.755 437.756 682.756 437.749C682.757 437.731 682.758 437.715 682.759 437.693C682.761 437.651 682.764 437.606 682.768 437.567C682.772 437.516 682.773 437.516 682.768 437.546C682.766 437.557 682.762 437.582 682.754 437.616C682.747 437.643 682.729 437.715 682.693 437.806C682.683 437.831 682.568 438.146 682.249 438.404C682.051 438.565 681.706 438.753 681.25 438.735C680.802 438.717 680.486 438.51 680.315 438.358L682.311 436.118C682.138 435.964 681.819 435.756 681.37 435.738C680.911 435.719 680.565 435.909 680.364 436.071C680.041 436.332 679.922 436.654 679.908 436.689C679.841 436.858 679.816 437.009 679.811 437.038C679.793 437.147 679.783 437.258 679.778 437.32C679.772 437.395 679.767 437.468 679.764 437.518C679.758 437.624 679.761 437.571 679.766 437.524L682.747 437.858ZM680.315 438.358C680.436 438.465 680.577 438.685 680.755 439.188C680.847 439.447 680.912 439.665 681.017 439.985C681.111 440.27 681.229 440.607 681.387 440.934L684.088 439.627C684.019 439.486 683.951 439.302 683.866 439.044C683.793 438.823 683.686 438.478 683.583 438.186C683.371 437.589 683.026 436.755 682.311 436.118L680.315 438.358ZM681.387 440.934C681.867 441.925 681.83 443.212 681.706 444.765L684.696 445.005C684.811 443.57 684.976 441.463 684.088 439.627L681.387 440.934ZM681.706 444.765C681.681 445.079 681.592 445.491 681.452 446.055C681.322 446.576 681.149 447.226 681.028 447.862C680.802 449.051 680.615 450.826 681.745 452.211L684.069 450.314C683.871 450.071 683.759 449.562 683.975 448.423C684.076 447.894 684.216 447.369 684.363 446.778C684.499 446.231 684.649 445.596 684.696 445.005L681.706 444.765ZM681.745 452.211C682.31 452.903 682.958 453.692 683.471 454.508C684.01 455.364 684.245 456.013 684.245 456.431H687.245C687.245 455.127 686.614 453.869 686.01 452.91C685.381 451.91 684.609 450.975 684.069 450.314L681.745 452.211ZM684.245 456.431C684.245 457.18 684.083 457.503 683.875 458.613L686.824 459.165C686.941 458.536 687.245 457.546 687.245 456.431H684.245ZM683.875 458.613C683.833 458.84 683.812 459.036 683.797 459.174C683.782 459.318 683.771 459.409 683.752 459.512C683.717 459.698 683.637 460.006 683.36 460.619L686.095 461.854C686.44 461.089 686.61 460.548 686.701 460.065C686.744 459.834 686.765 459.637 686.78 459.496C686.796 459.348 686.806 459.261 686.824 459.165L683.875 458.613Z" fill="#B5B5B7"/>
<path d="M326.046 396.374H334.423" stroke="white" stroke-width="3" stroke-linecap="round"/>
<path d="M332.101 391.175H339.047" stroke="white" stroke-width="3" stroke-linecap="round"/>
</svg>
