<svg width="32" height="33" viewBox="0 0 32 33" fill="none" xmlns="http://www.w3.org/2000/svg">
<circle cx="16" cy="16.9805" r="16" fill="white"/>
<path d="M16.2192 9.48047C16.1414 9.48033 16.0646 9.49815 15.9944 9.53262C15.9242 9.5671 15.8624 9.61735 15.8135 9.67967L15.721 9.75036C13.9266 9.17845 11.8795 9.59828 10.4544 11.012C9.85764 11.595 9.41369 12.3239 9.16381 13.1309C8.91394 13.9379 8.86625 14.7969 9.02518 15.6279C9.00751 15.644 8.99017 15.6604 8.97317 15.6772L8.16285 16.4805C8.0061 16.6336 7.88127 16.8179 7.79597 17.0223C7.71066 17.2267 7.66667 17.4468 7.66667 17.6692C7.66667 17.8917 7.71066 18.1118 7.79597 18.3162C7.88127 18.5206 8.0061 18.7049 8.16285 18.858C8.57685 19.2693 9.15104 19.4235 9.68466 19.3207C9.7502 19.6302 9.90311 19.9248 10.1455 20.1647C10.4648 20.4817 10.8799 20.6455 11.298 20.6573C11.3095 21.0718 11.4749 21.483 11.7942 21.8001C12.1135 22.1171 12.5296 22.282 12.9478 22.2927C12.9582 22.7072 13.1246 23.1195 13.444 23.4365C13.7497 23.7352 14.1502 23.9098 14.5713 23.9279C14.9924 23.9461 15.4056 23.8065 15.7345 23.5351L16.189 23.9849C16.8548 24.6457 17.9345 24.6457 18.6002 23.9849C18.9185 23.67 19.0839 23.2609 19.0985 22.8475C19.5261 22.8361 19.9341 22.6608 20.2427 22.3559C20.561 22.04 20.7264 21.6308 20.7389 21.2174C21.1616 21.2022 21.5641 21.0272 21.8696 20.7259C22.1224 20.4763 22.2784 20.1668 22.3387 19.8434C22.6065 19.8917 22.8815 19.8746 23.1417 19.7935C23.4018 19.7124 23.6399 19.5695 23.8366 19.3764C23.9935 19.2233 24.1185 19.0389 24.2039 18.8344C24.2893 18.6299 24.3333 18.4097 24.3333 18.1871C24.3333 17.9645 24.2893 17.7442 24.2039 17.5398C24.1185 17.3353 23.9935 17.1509 23.8366 16.9977L23.0877 16.2555L23.2406 15.6665C23.5499 14.4623 23.3933 13.1814 22.8037 12.0937C21.9341 10.4808 20.2469 9.48475 18.4224 9.48475H17.1429C17.0878 9.48194 17.0327 9.48051 16.9775 9.48047H16.2192ZM18.7708 13.4603L21.2725 15.9417L21.2756 15.9439L23.0866 17.741C23.1455 17.7984 23.1923 17.8676 23.2243 17.9443C23.2563 18.021 23.2728 18.1036 23.2728 18.1871C23.2728 18.2705 23.2563 18.3531 23.2243 18.4298C23.1923 18.5065 23.1455 18.5757 23.0866 18.6331C22.9651 18.7516 22.8041 18.8177 22.6367 18.8177C22.4694 18.8177 22.3084 18.7516 22.1868 18.6331L20.8127 17.2708C20.712 17.1714 20.5778 17.1158 20.4383 17.1158C20.2987 17.1158 20.1645 17.1714 20.0638 17.2708L20.0492 17.2837C20.0002 17.3315 19.9611 17.3892 19.9344 17.4531C19.9077 17.5169 19.894 17.5858 19.894 17.6553C19.894 17.7249 19.9077 17.7937 19.9344 17.8576C19.9611 17.9215 20.0002 17.9791 20.0492 18.027L21.1206 19.0894C21.3703 19.3357 21.3703 19.7363 21.1206 19.9837C21.0102 20.0914 20.8667 20.1563 20.7148 20.167C20.563 20.1778 20.4122 20.1338 20.2885 20.0426C20.1852 19.9657 20.059 19.9286 19.9319 19.9376C19.8047 19.9466 19.6847 20.0012 19.5926 20.0918C19.5026 20.1804 19.4482 20.3007 19.4403 20.4286C19.4324 20.5566 19.4715 20.683 19.5499 20.7826C19.6433 20.903 19.6894 21.0552 19.679 21.2089C19.6686 21.3626 19.6025 21.5067 19.4938 21.6126C19.3817 21.722 19.2357 21.7872 19.0816 21.7966C18.9274 21.806 18.775 21.759 18.6512 21.664C18.5484 21.5847 18.4217 21.5452 18.2934 21.5527C18.1652 21.5601 18.0436 21.614 17.9501 21.7047C17.8589 21.7932 17.8036 21.914 17.7953 22.0427C17.787 22.1714 17.8263 22.2986 17.9054 22.3987C18.0009 22.5208 18.0483 22.6754 18.0381 22.8318C18.0279 22.9882 17.9608 23.1349 17.8502 23.2427C17.7271 23.363 17.5639 23.43 17.3941 23.43C17.2244 23.43 17.0611 23.363 16.938 23.2427L16.4876 22.7961L16.6519 22.6333C16.8088 22.4802 16.9338 22.2957 17.0192 22.0913C17.1046 21.8868 17.1487 21.6665 17.1487 21.4439C17.1487 21.2214 17.1046 21.0011 17.0192 20.7966C16.9338 20.5922 16.8088 20.4077 16.6519 20.2546C16.3411 19.9479 15.9299 19.7721 15.4994 19.762C15.4868 19.3283 15.3085 18.9173 15.0032 18.6181C14.6919 18.3115 14.2803 18.1361 13.8496 18.1266C13.837 17.6929 13.6587 17.2819 13.3535 16.9827C13.1536 16.7869 12.9114 16.6429 12.6467 16.5626C12.3821 16.4824 12.1027 16.4681 11.8316 16.5211C11.7631 16.1989 11.6026 15.905 11.3708 15.6772C11.1931 15.5026 10.9814 15.369 10.7497 15.2852C10.518 15.2013 10.2716 15.1692 10.0269 15.191C9.94494 14.5634 10.0088 13.9248 10.2131 13.3275C10.4174 12.7302 10.7564 12.1914 11.2023 11.7552C11.6529 11.3121 12.1931 10.977 12.7842 10.7741C13.3753 10.5711 14.0027 10.5053 14.6215 10.5814L13.108 11.7274C12.9143 11.8723 12.7512 12.0561 12.6285 12.2676C12.5057 12.4792 12.4259 12.7142 12.3938 12.9585C12.3617 13.2027 12.378 13.4511 12.4418 13.6886C12.5055 13.9262 12.6154 14.148 12.7647 14.3406C13.0667 14.7305 13.503 14.9854 13.9829 15.0524C14.4628 15.1195 14.9494 14.9934 15.3413 14.7005L16.9806 13.4613H18.7698L18.7708 13.4603ZM13.7238 12.5895L16.42 10.5515H16.9775C17.0285 10.5512 17.0795 10.5526 17.1304 10.5557H18.4224C19.8828 10.5557 21.2153 11.3536 21.8946 12.6142C22.3543 13.4667 22.475 14.4574 22.2347 15.3923L22.2316 15.403L19.3606 12.5467C19.2633 12.4462 19.1313 12.3896 18.9934 12.3893H16.809C16.6986 12.3895 16.5911 12.4259 16.5021 12.4932L14.7255 13.8362C14.551 13.9648 14.3353 14.02 14.1226 13.9903C13.9099 13.9607 13.7162 13.8484 13.5813 13.6766C13.5184 13.5968 13.472 13.5046 13.445 13.4057C13.418 13.3068 13.411 13.2032 13.4243 13.1014C13.4377 12.9995 13.4711 12.9016 13.5226 12.8136C13.5741 12.7255 13.6426 12.6493 13.7238 12.5895ZM14.1835 21.8108L14.1939 21.8001L15.0032 20.9968L15.0126 20.9882C15.1348 20.8738 15.2945 20.8113 15.4596 20.813C15.6248 20.8148 15.7832 20.8809 15.903 20.9979C15.9618 21.0553 16.0087 21.1245 16.0407 21.2012C16.0727 21.2779 16.0892 21.3605 16.0892 21.4439C16.0892 21.5274 16.0727 21.61 16.0407 21.6867C16.0087 21.7634 15.9618 21.8326 15.903 21.89L15.0927 22.6933C14.9712 22.8117 14.8101 22.8778 14.6428 22.8778C14.4754 22.8778 14.3144 22.8117 14.1929 22.6933C14.1348 22.6367 14.0884 22.5687 14.0564 22.4933C14.0243 22.4178 14.0073 22.3366 14.0063 22.2543C14.0054 22.172 14.0205 22.0903 14.0507 22.0141C14.081 21.9379 14.1258 21.8688 14.1825 21.8108H14.1835ZM14.2636 20.245L14.2532 20.2546L13.444 21.0579L13.4336 21.0675C13.3113 21.1814 13.1517 21.2436 12.9868 21.2417C12.8219 21.2397 12.6638 21.1736 12.5442 21.0568C12.486 21 12.4396 20.9316 12.4076 20.8559C12.3756 20.7802 12.3588 20.6986 12.3581 20.6161C12.3574 20.5335 12.3729 20.4516 12.4036 20.3754C12.4343 20.2991 12.4797 20.23 12.5369 20.1721L12.5442 20.1647L13.3535 19.3614L13.3607 19.3539C13.4828 19.2386 13.6428 19.1753 13.8084 19.1767C13.9741 19.178 14.133 19.2441 14.2532 19.3614C14.3114 19.418 14.358 19.4861 14.3902 19.5616C14.4223 19.6371 14.4394 19.7185 14.4403 19.8009C14.4413 19.8834 14.4262 19.9651 14.3958 20.0414C14.3654 20.1177 14.3205 20.1869 14.2636 20.245ZM12.6045 18.6181L11.7942 19.4214L11.7869 19.4289C11.6649 19.5442 11.5049 19.6075 11.3392 19.6061C11.1736 19.6047 11.0146 19.5387 10.8944 19.4214C10.8356 19.3639 10.7887 19.2948 10.7567 19.2181C10.7247 19.1414 10.7082 19.0588 10.7082 18.9753C10.7082 18.8918 10.7247 18.8092 10.7567 18.7326C10.7887 18.6559 10.8356 18.5867 10.8944 18.5293L11.7037 17.726C11.8253 17.6072 11.9865 17.541 12.1541 17.541C12.3217 17.541 12.4829 17.6072 12.6045 17.726C12.6628 17.7829 12.7094 17.8512 12.7415 17.9271C12.7736 18.0029 12.7904 18.0846 12.7911 18.1673C12.7918 18.25 12.7763 18.3319 12.7455 18.4083C12.7146 18.4847 12.6692 18.5539 12.6118 18.6117L12.6045 18.6181ZM10.6219 17.3126L9.81261 18.1159C9.69115 18.2349 9.52989 18.3013 9.3622 18.3013C9.19451 18.3013 9.03325 18.2349 8.91179 18.1159C8.8528 18.0584 8.80581 17.9892 8.7737 17.9124C8.74158 17.8356 8.72502 17.7529 8.72502 17.6692C8.72502 17.5856 8.74158 17.5029 8.7737 17.4261C8.80581 17.3493 8.8528 17.2801 8.91179 17.2226L9.72211 16.4194C9.84363 16.3009 10.0046 16.2349 10.172 16.2349C10.3394 16.2349 10.5004 16.3009 10.6219 16.4194C10.6809 16.4769 10.7279 16.5461 10.76 16.6229C10.7921 16.6997 10.8087 16.7824 10.8087 16.866C10.8087 16.9496 10.7921 17.0323 10.76 17.1091C10.7279 17.1859 10.6809 17.2552 10.6219 17.3126Z" fill="#1A1B22"/>
</svg>
