<svg width="62" height="63" viewBox="0 0 62 63" fill="none" xmlns="http://www.w3.org/2000/svg">
<mask id="path-1-inside-1_9254_65953" fill="white">
<path d="M31.6794 8.63282C31.4383 8.63237 31.2001 8.68762 30.9824 8.79449C30.7648 8.90137 30.5732 9.05714 30.4218 9.25035L30.1348 9.46947C24.5723 7.69656 18.2262 8.99802 13.8085 13.3805C11.9585 15.1879 10.5823 17.4474 9.80766 19.9492C9.03304 22.4509 8.88521 25.1137 9.37788 27.69C9.32312 27.7397 9.26937 27.7907 9.21665 27.8427L6.70466 30.3328C6.21874 30.8074 5.83177 31.3789 5.56733 32.0125C5.30288 32.646 5.1665 33.3284 5.1665 34.018C5.1665 34.7076 5.30288 35.39 5.56733 36.0236C5.83177 36.6572 6.21874 37.2287 6.70466 37.7033C7.98806 38.9782 9.76806 39.4563 11.4223 39.1376C11.6254 40.0971 12.0995 41.0101 12.8508 41.7538C13.8408 42.7365 15.1274 43.2445 16.4237 43.281C16.4592 44.5659 16.9719 45.8408 17.9618 46.8235C18.9518 47.8063 20.2416 48.3176 21.5379 48.3507C21.5702 49.6356 22.0861 50.9138 23.0761 51.8966C24.0238 52.8226 25.2653 53.3638 26.5708 53.42C27.8762 53.4761 29.1572 53.0434 30.1767 52.202L31.5859 53.5965C33.6496 55.6449 36.9968 55.6449 39.0606 53.5965C40.0473 52.6204 40.56 51.3521 40.6051 50.0705C41.9306 50.0354 43.1956 49.4919 44.1522 48.5466C45.139 47.5672 45.6517 46.299 45.6904 45.0174C47.0009 44.9701 48.2487 44.4276 49.1955 43.4935C49.9791 42.7199 50.4628 41.7604 50.6499 40.7578C51.4799 40.9076 52.3325 40.8547 53.139 40.6033C53.9455 40.3518 54.6834 39.9089 55.2933 39.3102C55.7797 38.8356 56.1671 38.2639 56.4319 37.63C56.6966 36.9961 56.8332 36.3133 56.8332 35.6233C56.8332 34.9333 56.6966 34.2505 56.4319 33.6166C56.1671 32.9827 55.7797 32.411 55.2933 31.9363L52.9716 29.6355L53.4456 27.8095C54.4045 24.0763 53.9189 20.1057 52.0913 16.7338C49.3955 11.7338 44.1651 8.6461 38.5091 8.6461H34.5429C34.3721 8.63738 34.2011 8.63295 34.0301 8.63282H31.6794ZM39.5894 20.9702L47.3446 28.6628L47.3543 28.6694L52.9684 34.2405C53.1507 34.4185 53.296 34.633 53.3952 34.8707C53.4945 35.1084 53.5457 35.3645 53.5457 35.6233C53.5457 35.8821 53.4945 36.1381 53.3952 36.3759C53.296 36.6136 53.1507 36.828 52.9684 37.0061C52.5916 37.3734 52.0925 37.5781 51.5737 37.5781C51.0549 37.5781 50.5558 37.3734 50.1791 37.0061L45.9193 32.783C45.6071 32.4745 45.1912 32.3023 44.7585 32.3023C44.3258 32.3023 43.9098 32.4745 43.5976 32.783L43.5525 32.8228C43.4004 32.9711 43.2793 33.1497 43.1966 33.3478C43.1138 33.5459 43.0712 33.7593 43.0712 33.9749C43.0712 34.1905 43.1138 34.4039 43.1966 34.6019C43.2793 34.8 43.4004 34.9786 43.5525 35.1269L46.8738 38.4204C47.6477 39.1841 47.6477 40.4258 46.8738 41.1927C46.5313 41.5268 46.0865 41.7278 45.6158 41.7611C45.1451 41.7945 44.6778 41.658 44.2941 41.3753C43.9739 41.1371 43.5828 41.0219 43.1886 41.0498C42.7945 41.0777 42.4224 41.2469 42.1368 41.528C41.8578 41.8027 41.6893 42.1755 41.6648 42.5722C41.6403 42.9689 41.7616 43.3606 42.0046 43.6695C42.2941 44.0428 42.4368 44.5144 42.4046 44.9909C42.3723 45.4675 42.1675 45.9141 41.8305 46.2425C41.4832 46.5817 41.0306 46.7836 40.5528 46.8128C40.0749 46.8419 39.6024 46.6964 39.2186 46.4019C38.8999 46.1558 38.5072 46.0335 38.1095 46.0566C37.7118 46.0797 37.3349 46.2466 37.0452 46.528C36.7625 46.8023 36.591 47.1766 36.5653 47.5757C36.5396 47.9748 36.6615 48.3691 36.9065 48.6794C37.2028 49.0577 37.3497 49.5371 37.318 50.022C37.2863 50.5068 37.0784 50.9616 36.7356 51.2957C36.3539 51.6686 35.8478 51.8765 35.3216 51.8765C34.7954 51.8765 34.2893 51.6686 33.9076 51.2957L32.5113 49.9112L33.0208 49.4065C33.5073 48.9319 33.8947 48.3602 34.1594 47.7263C34.4242 47.0924 34.5607 46.4096 34.5607 45.7196C34.5607 45.0296 34.4242 44.3468 34.1594 43.7129C33.8947 43.079 33.5073 42.5073 33.0208 42.0327C32.0571 41.0817 30.7824 40.5368 29.4479 40.5054C29.4088 39.1611 28.8561 37.8869 27.9098 36.9596C26.9448 36.0091 25.6689 35.4654 24.3337 35.4357C24.2945 34.0913 23.7418 32.8171 22.7955 31.8899C22.176 31.2828 21.425 30.8364 20.6047 30.5875C19.7843 30.3387 18.9181 30.2946 18.0779 30.4589C17.8654 29.4599 17.3679 28.5489 16.6494 27.8427C16.0986 27.3015 15.4422 26.8872 14.7239 26.6273C14.0056 26.3674 13.2417 26.2679 12.4832 26.3354C12.2291 24.3899 12.427 22.4101 13.0604 20.5586C13.6938 18.7071 14.7448 17.0367 16.127 15.6846C17.5237 14.3108 19.1984 13.272 21.0308 12.6429C22.8633 12.0138 24.8083 11.8099 26.7264 12.0458L22.0345 15.5983C21.4342 16.0474 20.9285 16.6171 20.548 17.273C20.1675 17.929 19.9201 18.6575 19.8206 19.4146C19.7212 20.1717 19.7718 20.9417 19.9694 21.6782C20.167 22.4146 20.5075 23.1021 20.9704 23.6993C21.9065 24.9078 23.2591 25.6981 24.7469 25.9059C26.2346 26.1137 27.7428 25.7229 28.9578 24.8148L34.0398 20.9735H39.5862L39.5894 20.9702ZM23.9435 18.271L32.3017 11.9529H34.0301C34.1882 11.952 34.3463 11.9564 34.5042 11.9662H38.5091C43.0365 11.9662 47.1673 14.4396 49.2729 18.3473C50.6982 20.9901 51.0723 24.0612 50.3274 26.9596L50.3177 26.9928L41.4178 18.1382C41.1161 17.8266 40.7067 17.6511 40.2795 17.6501H33.5077C33.1655 17.6508 32.8323 17.7636 32.5565 17.9722L27.0488 22.1355C26.5078 22.5344 25.8392 22.7053 25.1799 22.6133C24.5205 22.5214 23.9202 22.1735 23.5017 21.6408C23.3067 21.3935 23.163 21.1077 23.0793 20.801C22.9956 20.4943 22.9738 20.1733 23.0152 19.8576C23.0566 19.5419 23.1603 19.2383 23.3199 18.9654C23.4796 18.6925 23.6918 18.4562 23.9435 18.271ZM25.3688 46.8567L25.401 46.8235L27.9098 44.3335L27.9388 44.3069C28.3176 43.9523 28.8127 43.7583 29.3247 43.7638C29.8366 43.7694 30.3276 43.974 30.6991 44.3368C30.8815 44.5149 31.0267 44.7293 31.126 44.967C31.2252 45.2048 31.2764 45.4608 31.2764 45.7196C31.2764 45.9784 31.2252 46.2344 31.126 46.4722C31.0267 46.7099 30.8815 46.9243 30.6991 47.1024L28.1871 49.5925C27.8104 49.9598 27.3113 50.1645 26.7925 50.1645C26.2736 50.1645 25.7745 49.9598 25.3978 49.5925C25.2178 49.417 25.0739 49.2062 24.9746 48.9724C24.8752 48.7387 24.8225 48.4868 24.8195 48.2316C24.8165 47.9765 24.8632 47.7233 24.9571 47.4871C25.0509 47.251 25.1898 47.0366 25.3656 46.8567H25.3688ZM25.6171 42.0028L25.5848 42.0327L23.0761 44.5227L23.0438 44.5526C22.6648 44.9058 22.1702 45.0987 21.659 45.0925C21.1478 45.0864 20.6577 44.8817 20.2868 44.5194C20.1065 44.3432 19.9624 44.1314 19.8633 43.8967C19.7642 43.662 19.7121 43.4091 19.71 43.1531C19.7079 42.8972 19.7559 42.6434 19.8511 42.407C19.9463 42.1706 20.0868 41.9563 20.2642 41.777L20.2868 41.7538L22.7955 39.2637L22.8181 39.2405C23.1965 38.8831 23.6924 38.6867 24.2059 38.691C24.7194 38.6953 25.2122 38.9 25.5848 39.2637C25.7653 39.4392 25.9097 39.6502 26.0093 39.8843C26.1089 40.1184 26.1618 40.3707 26.1649 40.6262C26.1679 40.8818 26.1209 41.1353 26.0268 41.3718C25.9327 41.6083 25.7934 41.8229 25.6171 42.0028ZM20.4738 36.9596L17.9618 39.4497L17.9393 39.4729C17.5609 39.8303 17.0649 40.0267 16.5514 40.0224C16.038 40.0181 15.5452 39.8134 15.1725 39.4497C14.9902 39.2716 14.8449 39.0572 14.7457 38.8194C14.6464 38.5817 14.5952 38.3256 14.5952 38.0668C14.5952 37.8081 14.6464 37.552 14.7457 37.3143C14.8449 37.0765 14.9902 36.8621 15.1725 36.684L17.6813 34.194C18.0582 33.8257 18.558 33.6204 19.0775 33.6204C19.5971 33.6204 20.0969 33.8257 20.4738 34.194C20.6546 34.3702 20.7991 34.5822 20.8985 34.8172C20.9979 35.0523 21.0502 35.3056 21.0523 35.5619C21.0544 35.8182 21.0063 36.0724 20.9107 36.3091C20.8152 36.5459 20.6743 36.7603 20.4964 36.9397L20.4738 36.9596ZM14.3277 32.9124L11.8189 35.4025C11.4424 35.7715 10.9425 35.9773 10.4227 35.9773C9.90283 35.9773 9.4029 35.7715 9.02639 35.4025C8.84352 35.2244 8.69785 35.0098 8.5983 34.7717C8.49874 34.5337 8.4474 34.2772 8.4474 34.018C8.4474 33.7589 8.49874 33.5024 8.5983 33.2644C8.69785 33.0263 8.84352 32.8117 9.02639 32.6336L11.5384 30.1435C11.9151 29.7762 12.4142 29.5715 12.933 29.5715C13.4519 29.5715 13.951 29.7762 14.3277 30.1435C14.5106 30.3216 14.6562 30.5363 14.7558 30.7743C14.8553 31.0124 14.9067 31.2688 14.9067 31.528C14.9067 31.7872 14.8553 32.0436 14.7558 32.2817C14.6562 32.5197 14.5106 32.7343 14.3277 32.9124Z"/>
</mask>
<path d="M31.6794 8.63282C31.4383 8.63237 31.2001 8.68762 30.9824 8.79449C30.7648 8.90137 30.5732 9.05714 30.4218 9.25035L30.1348 9.46947C24.5723 7.69656 18.2262 8.99802 13.8085 13.3805C11.9585 15.1879 10.5823 17.4474 9.80766 19.9492C9.03304 22.4509 8.88521 25.1137 9.37788 27.69C9.32312 27.7397 9.26937 27.7907 9.21665 27.8427L6.70466 30.3328C6.21874 30.8074 5.83177 31.3789 5.56733 32.0125C5.30288 32.646 5.1665 33.3284 5.1665 34.018C5.1665 34.7076 5.30288 35.39 5.56733 36.0236C5.83177 36.6572 6.21874 37.2287 6.70466 37.7033C7.98806 38.9782 9.76806 39.4563 11.4223 39.1376C11.6254 40.0971 12.0995 41.0101 12.8508 41.7538C13.8408 42.7365 15.1274 43.2445 16.4237 43.281C16.4592 44.5659 16.9719 45.8408 17.9618 46.8235C18.9518 47.8063 20.2416 48.3176 21.5379 48.3507C21.5702 49.6356 22.0861 50.9138 23.0761 51.8966C24.0238 52.8226 25.2653 53.3638 26.5708 53.42C27.8762 53.4761 29.1572 53.0434 30.1767 52.202L31.5859 53.5965C33.6496 55.6449 36.9968 55.6449 39.0606 53.5965C40.0473 52.6204 40.56 51.3521 40.6051 50.0705C41.9306 50.0354 43.1956 49.4919 44.1522 48.5466C45.139 47.5672 45.6517 46.299 45.6904 45.0174C47.0009 44.9701 48.2487 44.4276 49.1955 43.4935C49.9791 42.7199 50.4628 41.7604 50.6499 40.7578C51.4799 40.9076 52.3325 40.8547 53.139 40.6033C53.9455 40.3518 54.6834 39.9089 55.2933 39.3102C55.7797 38.8356 56.1671 38.2639 56.4319 37.63C56.6966 36.9961 56.8332 36.3133 56.8332 35.6233C56.8332 34.9333 56.6966 34.2505 56.4319 33.6166C56.1671 32.9827 55.7797 32.411 55.2933 31.9363L52.9716 29.6355L53.4456 27.8095C54.4045 24.0763 53.9189 20.1057 52.0913 16.7338C49.3955 11.7338 44.1651 8.6461 38.5091 8.6461H34.5429C34.3721 8.63738 34.2011 8.63295 34.0301 8.63282H31.6794ZM39.5894 20.9702L47.3446 28.6628L47.3543 28.6694L52.9684 34.2405C53.1507 34.4185 53.296 34.633 53.3952 34.8707C53.4945 35.1084 53.5457 35.3645 53.5457 35.6233C53.5457 35.8821 53.4945 36.1381 53.3952 36.3759C53.296 36.6136 53.1507 36.828 52.9684 37.0061C52.5916 37.3734 52.0925 37.5781 51.5737 37.5781C51.0549 37.5781 50.5558 37.3734 50.1791 37.0061L45.9193 32.783C45.6071 32.4745 45.1912 32.3023 44.7585 32.3023C44.3258 32.3023 43.9098 32.4745 43.5976 32.783L43.5525 32.8228C43.4004 32.9711 43.2793 33.1497 43.1966 33.3478C43.1138 33.5459 43.0712 33.7593 43.0712 33.9749C43.0712 34.1905 43.1138 34.4039 43.1966 34.6019C43.2793 34.8 43.4004 34.9786 43.5525 35.1269L46.8738 38.4204C47.6477 39.1841 47.6477 40.4258 46.8738 41.1927C46.5313 41.5268 46.0865 41.7278 45.6158 41.7611C45.1451 41.7945 44.6778 41.658 44.2941 41.3753C43.9739 41.1371 43.5828 41.0219 43.1886 41.0498C42.7945 41.0777 42.4224 41.2469 42.1368 41.528C41.8578 41.8027 41.6893 42.1755 41.6648 42.5722C41.6403 42.9689 41.7616 43.3606 42.0046 43.6695C42.2941 44.0428 42.4368 44.5144 42.4046 44.9909C42.3723 45.4675 42.1675 45.9141 41.8305 46.2425C41.4832 46.5817 41.0306 46.7836 40.5528 46.8128C40.0749 46.8419 39.6024 46.6964 39.2186 46.4019C38.8999 46.1558 38.5072 46.0335 38.1095 46.0566C37.7118 46.0797 37.3349 46.2466 37.0452 46.528C36.7625 46.8023 36.591 47.1766 36.5653 47.5757C36.5396 47.9748 36.6615 48.3691 36.9065 48.6794C37.2028 49.0577 37.3497 49.5371 37.318 50.022C37.2863 50.5068 37.0784 50.9616 36.7356 51.2957C36.3539 51.6686 35.8478 51.8765 35.3216 51.8765C34.7954 51.8765 34.2893 51.6686 33.9076 51.2957L32.5113 49.9112L33.0208 49.4065C33.5073 48.9319 33.8947 48.3602 34.1594 47.7263C34.4242 47.0924 34.5607 46.4096 34.5607 45.7196C34.5607 45.0296 34.4242 44.3468 34.1594 43.7129C33.8947 43.079 33.5073 42.5073 33.0208 42.0327C32.0571 41.0817 30.7824 40.5368 29.4479 40.5054C29.4088 39.1611 28.8561 37.8869 27.9098 36.9596C26.9448 36.0091 25.6689 35.4654 24.3337 35.4357C24.2945 34.0913 23.7418 32.8171 22.7955 31.8899C22.176 31.2828 21.425 30.8364 20.6047 30.5875C19.7843 30.3387 18.9181 30.2946 18.0779 30.4589C17.8654 29.4599 17.3679 28.5489 16.6494 27.8427C16.0986 27.3015 15.4422 26.8872 14.7239 26.6273C14.0056 26.3674 13.2417 26.2679 12.4832 26.3354C12.2291 24.3899 12.427 22.4101 13.0604 20.5586C13.6938 18.7071 14.7448 17.0367 16.127 15.6846C17.5237 14.3108 19.1984 13.272 21.0308 12.6429C22.8633 12.0138 24.8083 11.8099 26.7264 12.0458L22.0345 15.5983C21.4342 16.0474 20.9285 16.6171 20.548 17.273C20.1675 17.929 19.9201 18.6575 19.8206 19.4146C19.7212 20.1717 19.7718 20.9417 19.9694 21.6782C20.167 22.4146 20.5075 23.1021 20.9704 23.6993C21.9065 24.9078 23.2591 25.6981 24.7469 25.9059C26.2346 26.1137 27.7428 25.7229 28.9578 24.8148L34.0398 20.9735H39.5862L39.5894 20.9702ZM23.9435 18.271L32.3017 11.9529H34.0301C34.1882 11.952 34.3463 11.9564 34.5042 11.9662H38.5091C43.0365 11.9662 47.1673 14.4396 49.2729 18.3473C50.6982 20.9901 51.0723 24.0612 50.3274 26.9596L50.3177 26.9928L41.4178 18.1382C41.1161 17.8266 40.7067 17.6511 40.2795 17.6501H33.5077C33.1655 17.6508 32.8323 17.7636 32.5565 17.9722L27.0488 22.1355C26.5078 22.5344 25.8392 22.7053 25.1799 22.6133C24.5205 22.5214 23.9202 22.1735 23.5017 21.6408C23.3067 21.3935 23.163 21.1077 23.0793 20.801C22.9956 20.4943 22.9738 20.1733 23.0152 19.8576C23.0566 19.5419 23.1603 19.2383 23.3199 18.9654C23.4796 18.6925 23.6918 18.4562 23.9435 18.271ZM25.3688 46.8567L25.401 46.8235L27.9098 44.3335L27.9388 44.3069C28.3176 43.9523 28.8127 43.7583 29.3247 43.7638C29.8366 43.7694 30.3276 43.974 30.6991 44.3368C30.8815 44.5149 31.0267 44.7293 31.126 44.967C31.2252 45.2048 31.2764 45.4608 31.2764 45.7196C31.2764 45.9784 31.2252 46.2344 31.126 46.4722C31.0267 46.7099 30.8815 46.9243 30.6991 47.1024L28.1871 49.5925C27.8104 49.9598 27.3113 50.1645 26.7925 50.1645C26.2736 50.1645 25.7745 49.9598 25.3978 49.5925C25.2178 49.417 25.0739 49.2062 24.9746 48.9724C24.8752 48.7387 24.8225 48.4868 24.8195 48.2316C24.8165 47.9765 24.8632 47.7233 24.9571 47.4871C25.0509 47.251 25.1898 47.0366 25.3656 46.8567H25.3688ZM25.6171 42.0028L25.5848 42.0327L23.0761 44.5227L23.0438 44.5526C22.6648 44.9058 22.1702 45.0987 21.659 45.0925C21.1478 45.0864 20.6577 44.8817 20.2868 44.5194C20.1065 44.3432 19.9624 44.1314 19.8633 43.8967C19.7642 43.662 19.7121 43.4091 19.71 43.1531C19.7079 42.8972 19.7559 42.6434 19.8511 42.407C19.9463 42.1706 20.0868 41.9563 20.2642 41.777L20.2868 41.7538L22.7955 39.2637L22.8181 39.2405C23.1965 38.8831 23.6924 38.6867 24.2059 38.691C24.7194 38.6953 25.2122 38.9 25.5848 39.2637C25.7653 39.4392 25.9097 39.6502 26.0093 39.8843C26.1089 40.1184 26.1618 40.3707 26.1649 40.6262C26.1679 40.8818 26.1209 41.1353 26.0268 41.3718C25.9327 41.6083 25.7934 41.8229 25.6171 42.0028ZM20.4738 36.9596L17.9618 39.4497L17.9393 39.4729C17.5609 39.8303 17.0649 40.0267 16.5514 40.0224C16.038 40.0181 15.5452 39.8134 15.1725 39.4497C14.9902 39.2716 14.8449 39.0572 14.7457 38.8194C14.6464 38.5817 14.5952 38.3256 14.5952 38.0668C14.5952 37.8081 14.6464 37.552 14.7457 37.3143C14.8449 37.0765 14.9902 36.8621 15.1725 36.684L17.6813 34.194C18.0582 33.8257 18.558 33.6204 19.0775 33.6204C19.5971 33.6204 20.0969 33.8257 20.4738 34.194C20.6546 34.3702 20.7991 34.5822 20.8985 34.8172C20.9979 35.0523 21.0502 35.3056 21.0523 35.5619C21.0544 35.8182 21.0063 36.0724 20.9107 36.3091C20.8152 36.5459 20.6743 36.7603 20.4964 36.9397L20.4738 36.9596ZM14.3277 32.9124L11.8189 35.4025C11.4424 35.7715 10.9425 35.9773 10.4227 35.9773C9.90283 35.9773 9.4029 35.7715 9.02639 35.4025C8.84352 35.2244 8.69785 35.0098 8.5983 34.7717C8.49874 34.5337 8.4474 34.2772 8.4474 34.018C8.4474 33.7589 8.49874 33.5024 8.5983 33.2644C8.69785 33.0263 8.84352 32.8117 9.02639 32.6336L11.5384 30.1435C11.9151 29.7762 12.4142 29.5715 12.933 29.5715C13.4519 29.5715 13.951 29.7762 14.3277 30.1435C14.5106 30.3216 14.6562 30.5363 14.7558 30.7743C14.8553 31.0124 14.9067 31.2688 14.9067 31.528C14.9067 31.7872 14.8553 32.0436 14.7558 32.2817C14.6562 32.5197 14.5106 32.7343 14.3277 32.9124Z" fill="#1A1B22" stroke="#1D6BF3" stroke-width="6" mask="url(#path-1-inside-1_9254_65953)"/>
</svg>
