<svg width="126" height="26" viewBox="0 0 126 26" fill="none" xmlns="http://www.w3.org/2000/svg">
<g clip-path="url(#clip0_14187_114359)">
<path fill-rule="evenodd" clip-rule="evenodd" d="M10.9308 23.9375C16.6161 23.9375 21.225 19.0406 21.225 13C21.225 6.95938 16.6161 2.0625 10.9308 2.0625C5.24555 2.0625 0.636719 6.95938 0.636719 13C0.636719 19.0406 5.24555 23.9375 10.9308 23.9375ZM11.4068 8.18791H12.4486V19.5734H14.5322V6.44845H11.4068C8.28135 6.44845 6.64423 8.18791 6.64423 10.718C6.64423 12.7737 7.53721 13.8807 9.17437 15.1457L6.34657 19.5734H8.72782L11.7044 14.6713L10.6627 13.8807C9.32319 12.9319 8.72782 12.1413 8.72782 10.5599C8.72782 9.13672 9.62084 8.18791 11.4068 8.18791Z" fill="white"/>
<path d="M26.7393 4.52344V20.8125H29.4084V6.72656H34.1731V20.8125H36.8422V4.52344H26.7393ZM41.4661 9.02344H39.0396V24.2109H41.6646V19.4297C42.3264 20.4844 43.297 21.0469 44.422 21.0469C46.9808 21.0469 48.7455 18.8672 48.7455 14.9063C48.7455 10.9688 47.0249 8.78906 44.5543 8.78906C43.319 8.78906 42.3043 9.39844 41.5985 10.5469L41.4661 9.02344ZM43.7602 18.8438C42.3705 18.8438 41.6646 17.6484 41.6646 14.9297C41.6646 12.1875 42.4146 10.9922 43.8926 10.9922C45.3264 10.9922 46.0323 12.1875 46.0323 14.9063C46.0323 17.6484 45.2823 18.8438 43.7602 18.8438ZM58.6863 12.7734C58.6863 9.91406 57.3187 8.83594 54.5393 8.83594C52.7966 8.83594 51.429 9.42188 50.6348 9.91406V12.2344C51.3407 11.6719 52.8848 11.0625 54.2304 11.0625C55.4878 11.0625 56.0613 11.5313 56.0613 12.7969V13.4531H55.6422C51.6275 13.4531 49.8407 14.8594 49.8407 17.25C49.8407 19.6406 51.2084 20.9766 53.2378 20.9766C54.7819 20.9766 55.4437 20.4375 55.951 19.875H56.0613C56.0834 20.1797 56.1716 20.5781 56.2598 20.8125H58.8187C58.7304 19.8516 58.6863 18.8906 58.6863 17.9297V12.7734ZM56.0613 18C55.7304 18.5156 55.1128 18.9375 54.1863 18.9375C53.0834 18.9375 52.5319 18.2344 52.5319 17.1797C52.5319 15.7969 53.4363 15.3047 55.6863 15.3047H56.0613V18ZM67.3043 20.8125H70.2822L66.069 14.4609L69.7748 9.02344H67.1278L63.4219 14.4609V9.02344H60.7969V20.8125H63.4219V15.0234L67.3043 20.8125ZM78.9753 11.2266V9.02344H70.1736V11.2266H73.2618V20.8125H75.8871V11.2266H78.9753ZM80.529 9.02344V20.8125H82.801L86.8599 13.5234V20.8125H89.4187V9.02344H87.1466L83.0878 16.3125V9.02344H80.529ZM98.1304 20.8125H101.108L96.8951 14.4609L100.601 9.02344H97.954L94.2481 14.4609V9.02344H91.6231V20.8125H94.2481V15.0234L98.1304 20.8125ZM103.418 24.4453C105.866 24.4453 106.771 22.5938 107.521 20.1797L110.984 9.02344H108.447L105.999 17.8828L103.55 9.02344H100.793L104.609 21.3281C104.322 21.8906 103.903 22.2422 103.175 22.2422C102.69 22.2422 102.271 22.0781 101.984 21.7734V24.0469C101.984 24.0469 102.381 24.4453 103.418 24.4453ZM121.444 20.8125H124.002L123.958 9.02344H120.363L117.958 16.875L115.797 9.02344H111.98V20.8125H114.208V12L116.613 20.8125H118.753L121.444 12V20.8125Z" fill="white"/>
</g>
<defs>
<clipPath id="clip0_14187_114359">
<rect width="125" height="25" fill="white" transform="translate(0.636719 0.5)"/>
</clipPath>
</defs>
</svg>
