<svg width="334" height="330" viewBox="0 0 334 330" fill="none" xmlns="http://www.w3.org/2000/svg">
<path d="M97.3598 182.894L119.277 175.505L129.19 204.213C130.754 208.741 128.307 213.663 123.724 215.209L118.39 217.007C113.806 218.552 108.825 216.134 107.261 211.606L97.3467 182.898L97.3598 182.894Z" fill="white"/>
<path d="M115.55 218.609C114.047 218.609 112.558 218.265 111.18 217.605C108.801 216.45 107.019 214.443 106.156 211.968L95.8721 182.171L120.004 174.031L130.288 203.828C132.055 208.943 129.272 214.539 124.095 216.285L118.765 218.086C117.707 218.444 116.622 218.622 115.55 218.622V218.609ZM98.8363 183.601L108.369 211.211C109.023 213.109 110.387 214.635 112.21 215.529C114.033 216.409 116.093 216.546 118.013 215.9L123.344 214.099C127.31 212.765 129.425 208.489 128.075 204.57L118.542 176.96L98.8363 183.601Z" fill="#1A1B22"/>
<path d="M156.396 79.0938C156.396 79.0938 129.983 124.249 86.4373 135.812L65.9241 141.258C53.2043 144.64 45.6754 157.565 49.085 170.133L51.6317 179.51C55.0552 192.078 68.1369 199.516 80.8567 196.147L101.064 190.785C101.064 190.785 158.567 175.165 187.208 192.325L156.396 79.1075V79.0938Z" fill="white"/>
<path d="M74.6355 198.113C70.3074 198.113 66.035 196.999 62.194 194.799C56.4047 191.499 52.2575 186.178 50.5318 179.798L47.9851 170.421C44.4085 157.262 52.3271 143.677 65.6453 140.143L86.1585 134.698C128.716 123.396 155.143 78.9694 155.408 78.5156L156.813 76.1094L189.114 194.799L186.623 193.314C158.748 176.608 101.954 191.733 101.397 191.898L81.1903 197.274C79.0332 197.852 76.8343 198.127 74.6494 198.127L74.6355 198.113ZM155.965 81.9669C149.841 91.3581 124.582 126.888 86.743 136.939L66.2298 142.384C54.1502 145.588 46.9692 157.908 50.2257 169.843L52.7724 179.221C56.015 191.156 68.4843 198.237 80.564 195.033L100.771 189.671C103.067 189.052 156.02 174.931 185.37 189.987L155.978 81.9806L155.965 81.9669Z" fill="#1A1B22"/>
<path d="M229.625 120.191C240.494 155.831 231.755 189.959 210.114 196.407C195.321 200.807 178.329 191.155 165.581 173.211C159.68 164.906 154.684 154.814 151.233 143.525C147.795 132.236 146.32 121.099 146.585 110.951C147.183 89.0337 155.951 71.7087 170.744 67.3087C192.384 60.86 218.757 84.5375 229.625 120.191Z" fill="#1A1B22" stroke="#1A1B22" stroke-width="1.5" stroke-miterlimit="10"/>
<path d="M193.122 131.078C198.452 148.568 189.559 166.677 173.235 171.531C171.398 172.081 169.547 172.425 167.696 172.59C161.796 164.285 156.799 154.192 153.348 142.903C149.911 131.615 148.436 120.477 148.7 110.33C150.328 109.463 152.068 108.748 153.905 108.198C170.215 103.345 187.764 113.575 193.108 131.065L193.122 131.078Z" fill="#1D6BF3"/>
<path d="M96.7073 192.667C65.2834 169.306 79.6176 137.144 79.7707 136.828L81.8999 137.777C81.3293 139.028 68.2198 168.591 98.1268 190.811L96.7212 192.653L96.7073 192.667Z" fill="#1A1B22"/>
<path d="M158.541 196.311L158.47 196.147C156.926 192.562 152.734 190.893 149.106 192.418L131.523 199.81C127.895 201.335 126.206 205.477 127.749 209.062L127.82 209.227C129.364 212.811 133.557 214.481 137.185 212.955L154.767 205.564C158.395 204.038 160.085 199.896 158.541 196.311Z" fill="white"/>
<path d="M134.407 214.671C131.179 214.671 128.103 212.801 126.753 209.68L126.683 209.515C125.821 207.507 125.793 205.266 126.628 203.231C127.463 201.196 129.035 199.601 131.081 198.748L148.658 191.351C152.875 189.577 157.759 191.53 159.555 195.682L159.624 195.847C160.501 197.868 160.515 200.096 159.694 202.131C158.859 204.166 157.286 205.761 155.24 206.613L137.664 213.997C136.606 214.437 135.507 214.657 134.421 214.657L134.407 214.671ZM128.91 208.772C130.204 211.77 133.697 213.158 136.731 211.893L154.308 204.51C157.342 203.231 158.747 199.766 157.467 196.768L157.398 196.603C156.103 193.606 152.596 192.203 149.562 193.482L131.986 200.88C128.952 202.158 127.546 205.623 128.827 208.607L128.896 208.772H128.91Z" fill="#1A1B22"/>
<path d="M160.654 210.999L160.583 210.834C159.04 207.25 154.847 205.58 151.219 207.106L133.637 214.497C130.009 216.023 128.319 220.165 129.863 223.75L129.934 223.914C131.477 227.499 135.67 229.168 139.298 227.643L156.88 220.251C160.508 218.726 162.198 214.583 160.654 210.999Z" fill="white"/>
<path d="M136.522 229.362C133.294 229.362 130.218 227.492 128.868 224.371L128.799 224.206C127.936 222.185 127.908 219.957 128.743 217.922C129.578 215.887 131.151 214.292 133.196 213.44L150.773 206.056C154.99 204.296 159.875 206.235 161.67 210.387L161.739 210.552C162.602 212.573 162.63 214.801 161.795 216.836C160.96 218.871 159.388 220.466 157.342 221.318L139.765 228.716C138.707 229.156 137.608 229.376 136.522 229.376V229.362ZM131.025 223.463C132.32 226.461 135.827 227.85 138.847 226.585L156.423 219.187C157.885 218.568 159.026 217.427 159.624 215.97C160.223 214.512 160.209 212.903 159.582 211.46L159.513 211.295C158.232 208.311 154.712 206.908 151.692 208.173L134.115 215.557C132.654 216.176 131.512 217.317 130.914 218.775C130.316 220.232 130.33 221.841 130.956 223.285L131.025 223.45V223.463Z" fill="#1A1B22"/>
<path d="M162.985 225.499L162.914 225.334C161.371 221.75 157.178 220.08 153.55 221.606L135.968 228.997C132.34 230.523 130.65 234.665 132.194 238.25L132.265 238.414C133.808 241.999 138.001 243.668 141.629 242.143L159.211 234.751C162.839 233.226 164.529 229.083 162.985 225.499Z" fill="white"/>
<path d="M138.847 243.858C135.618 243.858 132.542 241.988 131.192 238.867L131.123 238.702C130.26 236.681 130.232 234.453 131.067 232.418C131.902 230.383 133.475 228.788 135.521 227.936L153.097 220.538C157.314 218.765 162.199 220.717 163.994 224.87L164.064 225.035C164.926 227.056 164.954 229.283 164.119 231.318C163.284 233.353 161.712 234.948 159.666 235.801L142.089 243.198C141.032 243.638 139.932 243.858 138.847 243.858ZM133.35 237.96C134.644 240.957 138.151 242.346 141.171 241.081L158.747 233.683C160.209 233.065 161.35 231.923 161.948 230.466C162.547 229.008 162.533 227.4 161.907 225.956L161.837 225.791C160.557 222.807 157.036 221.405 154.016 222.67L136.439 230.067C134.978 230.686 133.837 231.827 133.238 233.285C132.64 234.742 132.654 236.351 133.28 237.795L133.35 237.96Z" fill="#1A1B22"/>
<path d="M139.667 255.272L120.476 264.223C117.178 265.763 114.353 268.142 112.293 271.112L107.144 278.551C105.961 280.27 103.818 281.067 101.772 280.558C97.792 279.568 90.8615 276.805 82.9846 269.16C74.5929 261.02 72.4497 254.145 71.9348 250.556C71.7121 249.016 72.241 247.448 73.3543 246.348L89.1497 230.783C91.0424 228.927 92.4201 226.631 93.1716 224.101L97.5693 209.388C99.1836 203.985 103.901 200.052 109.565 199.392C119.084 198.292 132.695 197.137 134.685 199.213C137.538 202.197 139.333 230.563 131.609 238.387C130.399 239.611 128.395 239.666 127.128 238.497C121.409 233.19 121.617 217.638 121.617 217.638C121.617 217.638 121.84 228.611 111.82 233.685" fill="white"/>
<path d="M102.997 281.848C102.496 281.848 101.995 281.793 101.494 281.669C97.0268 280.555 90.0546 277.626 82.1777 269.968C73.452 261.511 71.2949 254.265 70.78 250.704C70.5017 248.806 71.1697 246.868 72.5335 245.52L88.3289 229.955C90.0685 228.236 91.3627 226.091 92.0586 223.754L96.4562 209.041C98.2097 203.184 103.303 198.935 109.44 198.234C132.793 195.539 134.783 197.629 135.534 198.399C138.805 201.809 140.642 230.863 132.445 239.168C130.789 240.845 128.047 240.914 126.335 239.305C123.121 236.321 121.659 230.505 120.991 225.638C119.558 228.855 116.983 232.334 112.349 234.671L111.291 232.623C119.892 228.278 120.421 219.175 120.462 217.8C120.462 217.69 120.462 217.621 120.462 217.594H122.8C122.8 217.594 122.8 217.704 122.8 217.841C122.8 219.711 123.023 233.063 127.936 237.628C128.729 238.37 129.995 238.329 130.775 237.559C138.025 230.216 136.467 202.73 133.836 199.98C133.642 199.774 131.276 198.028 109.705 200.516C104.5 201.121 100.172 204.724 98.6829 209.688L94.2852 224.4C93.4781 227.109 91.9751 229.584 89.9572 231.578L74.1617 247.143C73.3128 247.981 72.8953 249.191 73.0623 250.374C73.5355 253.646 75.5534 260.329 83.7782 268.318C91.2932 275.605 97.8479 278.383 102.037 279.428C103.595 279.813 105.252 279.194 106.156 277.888L111.305 270.449C113.476 267.314 116.468 264.784 119.948 263.161L139.139 254.21L140.141 256.3L120.95 265.251C117.846 266.695 115.174 268.95 113.24 271.741L108.091 279.18C106.922 280.871 104.987 281.848 102.969 281.848H102.997Z" fill="#1A1B22"/>
<path d="M143.036 246.087L151.511 268.926C153.376 274.316 150.453 280.173 145.012 282.002L142.827 282.731C137.372 284.573 131.443 281.686 129.592 276.309L116.246 236.984" fill="white"/>
<path d="M139.459 284.461C137.705 284.461 135.966 284.063 134.351 283.279C131.568 281.931 129.495 279.594 128.493 276.692L115.146 237.354L117.359 236.625L130.705 275.95C132.347 280.721 137.622 283.279 142.451 281.643L144.636 280.9C146.974 280.116 148.867 278.466 149.952 276.28C151.038 274.094 151.205 271.605 150.397 269.295L141.922 246.47L144.121 245.673L152.596 268.511C153.612 271.426 153.403 274.534 152.04 277.284C150.676 280.034 148.31 282.082 145.373 283.072L143.189 283.815C141.964 284.228 140.697 284.434 139.431 284.434L139.459 284.461Z" fill="#1A1B22"/>
<path d="M162.578 240.051L162.518 239.912C161.14 236.712 157.397 235.221 154.157 236.583L138.471 243.178C135.231 244.54 133.723 248.238 135.101 251.438L135.161 251.577C136.539 254.778 140.283 256.268 143.522 254.906L159.209 248.312C162.448 246.95 163.956 243.251 162.578 240.051Z" fill="white"/>
<path d="M141.031 256.56C140.071 256.56 139.125 256.382 138.206 256.01C136.341 255.268 134.88 253.852 134.087 252.023L134.017 251.885C132.389 248.104 134.17 243.718 137.997 242.109L153.695 235.509C155.546 234.739 157.592 234.712 159.471 235.454C161.336 236.197 162.797 237.613 163.59 239.442L163.646 239.579C165.274 243.36 163.493 247.747 159.666 249.355L143.968 255.955C143.021 256.354 142.019 256.547 141.017 256.547L141.031 256.56ZM156.66 237.228C155.964 237.228 155.282 237.365 154.628 237.64L138.93 244.24C137.65 244.777 136.661 245.78 136.147 247.045C135.632 248.324 135.646 249.713 136.188 250.978L136.258 251.129C136.801 252.394 137.817 253.37 139.097 253.879C140.391 254.388 141.797 254.374 143.077 253.838L158.775 247.238C161.419 246.124 162.644 243.099 161.531 240.5L161.475 240.363C160.932 239.098 159.916 238.122 158.636 237.599C158.01 237.352 157.356 237.228 156.688 237.228H156.66Z" fill="#1A1B22"/>
<path d="M232.631 78.5369C232.325 78.5369 232.005 78.4131 231.782 78.1656C231.337 77.6981 231.365 76.9694 231.838 76.5294L265.057 45.8394C265.53 45.4132 266.268 45.4269 266.713 45.8944C267.158 46.3619 267.13 47.0907 266.657 47.5307L233.438 78.2206C233.216 78.4269 232.923 78.5369 232.645 78.5369H232.631Z" fill="#1A1B22"/>
<path d="M285.723 148.472C285.584 148.472 285.431 148.445 285.291 148.39L248.343 134.062C247.744 133.828 247.452 133.155 247.689 132.563C247.925 131.972 248.607 131.683 249.205 131.917L286.154 146.245C286.753 146.478 287.045 147.152 286.808 147.743C286.627 148.197 286.182 148.472 285.723 148.472Z" fill="#1A1B22"/>
<path d="M245.629 105.338C245.128 105.338 244.655 105.008 244.502 104.513C244.321 103.908 244.669 103.262 245.295 103.083L277.457 93.7191C278.083 93.5403 278.723 93.8841 278.904 94.5028C279.085 95.1078 278.737 95.754 278.111 95.9328L245.949 105.297C245.838 105.324 245.727 105.338 245.615 105.338H245.629Z" fill="#1A1B22"/>
</svg>
