<svg width="330" height="257" viewBox="0 0 330 257" fill="none" xmlns="http://www.w3.org/2000/svg">
<rect width="6.19277" height="161.056" transform="matrix(0.960384 -0.278679 0.276454 0.961027 13.0078 101.074)" fill="#B5B5B7"/>
<rect width="5.97664" height="182.073" transform="matrix(0.587578 0.809168 -0.805341 0.592812 146.768 0)" fill="#B5B5B7"/>
<rect width="12.0737" height="34.9216" transform="matrix(-0.830463 0.557073 -0.553738 -0.832691 166.883 29.082)" fill="#B5B5B7"/>
<ellipse cx="158.324" cy="35.6404" rx="20.7657" ry="16.3709" fill="#B5B5B7"/>
<path d="M120.028 66.4663C118.458 52.1859 128.761 39.326 143.04 37.7429L175.224 34.1745C189.503 32.5914 202.351 42.8846 203.92 57.165L120.028 66.4663Z" fill="#B5B5B7"/>
<ellipse cx="176.631" cy="216.411" rx="15.8534" ry="15.9224" fill="white"/>
<rect x="178.225" y="206.734" width="3.42992" height="19.4709" fill="#1A1B22"/>
<path d="M172.78 226.171H169.275L173.526 219.656C172.631 219.057 170.618 217.26 169.946 215.313C169.275 213.365 169.35 211.119 171.289 208.722C172.84 206.805 176.806 206.626 178.596 206.775V209.471C175.762 209.022 172.258 210.595 172.78 213.515C173.197 215.852 176.235 218.083 177.701 218.907L172.78 226.171Z" fill="#1A1B22"/>
<rect x="43.3301" y="243.992" width="285.807" height="13.007" fill="#B5B5B7"/>
<path d="M228.881 236.818C228.955 236.444 229.685 235.562 232.007 235.023" stroke="#1A1B22" stroke-width="3"/>
<path d="M113.888 251.395C116.079 249.11 115.347 243.108 113.521 241.57C114.434 239.885 114.663 236.34 108.271 235.637C101.88 234.933 99.8259 236.662 99.5977 237.614L103.022 250.36C103.25 251.02 104.163 252.514 105.989 253.217C108.271 254.096 111.149 254.252 113.888 251.395Z" fill="#1A1B22"/>
<path d="M102.458 236.367C103.799 237.146 105.606 239.421 107.415 244.406C109.677 250.637 103.843 251.432 103.843 248.477C103.843 244.959 99.4418 239.247 98.6877 239.507C97.9337 239.766 103.843 245.598 103.843 250.271C103.843 254.846 95.7704 245.589 93.7803 242.761L98.6877 249.858C97.1759 250.071 94.0857 249.62 91.9139 246.701L92.6552 248.041C91.1471 249.858 87.4774 251.156 84.8633 241.81C87.5444 235.578 95.219 224.57 104.469 230.386C116.031 237.655 114.02 241.031 113.266 241.81C112.512 242.588 112.009 239.213 108.239 235.838C106.969 235.021 102.458 233.875 102.458 236.367Z" fill="white" stroke="#1A1B22" stroke-width="3"/>
<path d="M222.404 246.683L254.558 246.459C255.272 236.771 244.287 231.359 239.151 229.864C224.146 229.146 221.883 240.852 222.404 246.683Z" fill="white" stroke="#1A1B22" stroke-width="3"/>
<path d="M75.0371 224.04C75.0371 215.261 116.476 164.526 120.725 161.167C145.596 141.506 191.37 146.888 211.433 148.363C226.054 147.815 235.058 156.67 237.732 161.167C247.182 167.385 270.94 205.673 281.637 224.04C284.134 234.283 278.369 243.702 275.174 247.132H253.443C253.978 238.901 243.378 232.271 237.732 229.984V222.463L233.794 209.232L226.872 247.132L125.629 244.216V200.948L110.696 224.04L107.19 231.434C95.8028 226.5 89.8208 233.566 84.3976 243.474C80.6089 236.386 75.0371 235.014 75.0371 224.04Z" fill="#1D6BF3"/>
<path d="M231.704 240.889C232.007 240.832 232.287 240.788 232.537 240.761C232.283 240.799 232.004 240.842 231.704 240.889Z" fill="#B5B5B7"/>
<path d="M232.537 245.23C230.556 245.677 226.338 246.167 225.309 244.552C224.28 242.937 230.008 241.039 232.537 240.761C229.145 241.268 221.154 242.729 220.032 240.761C218.91 238.793 222.709 237.219 224.748 236.678C227.454 236.117 233.582 235.041 236.449 235.224" stroke="#1A1B22" stroke-width="3"/>
<path d="M122.373 182.992H234.017L227.814 251.615H128.2L122.373 182.992Z" fill="#1A1B22"/>
<ellipse cx="179.758" cy="220.001" rx="13.1739" ry="13.2313" fill="white"/>
<rect x="181.082" y="211.961" width="2.85022" height="16.18" fill="#1A1B22"/>
<path d="M176.559 228.113H173.646L177.178 222.699C176.435 222.201 174.762 220.707 174.204 219.089C173.646 217.471 173.708 215.604 175.319 213.613C176.608 212.02 179.905 211.87 181.392 211.995V214.235C179.037 213.862 176.125 215.169 176.559 217.596C176.906 219.537 179.43 221.392 180.648 222.076L176.559 228.113Z" fill="#1A1B22"/>
<path d="M158.193 136.116C156.095 132.837 180.687 139.756 180.168 135.91C207.987 130.363 197.687 133.38 202.136 143.295C201.89 146.697 196.771 158.067 184.299 159.029C160.837 160.837 160.814 140.215 158.193 136.116Z" fill="white"/>
<path d="M181.817 151.598C169.765 151.598 159.224 136.503 157.152 125.181C157.152 128.756 150.937 129.749 149.384 120.016C148.141 112.23 152.556 112.604 155.404 114.127C155.404 110.286 156.714 92.6746 169.765 85.524C186.078 76.5857 196.371 87.3117 201.227 92.0788C205.111 95.8924 206.158 108.694 205.705 112.667C210.948 109.489 212.696 114.653 211.142 120.016C209.9 124.307 207.377 125.777 204.723 125.181C204.075 135.443 193.869 151.598 181.817 151.598Z" fill="white" stroke="#1A1B22" stroke-width="3"/>
<path d="M153.814 118.063C152.497 119.08 150.846 121.437 154.773 122.734" stroke="#1A1B22" stroke-width="3" stroke-linejoin="round"/>
<path d="M206.939 121.297C207.962 120.763 209.585 119.08 207.886 116.624" stroke="#1A1B22" stroke-width="3" stroke-linejoin="round"/>
<path d="M157.189 115.926C157.663 110.23 161.6 99.8564 163.509 95.3814C164.891 91.9766 171.408 89.6859 177.926 87.6518C184.443 85.6177 184.245 82.3632 188.392 87.6518C192.54 92.9405 191.355 87.0416 198.069 93.1439C203.441 98.0257 205.047 108.467 205.179 113.078C213.711 91.4353 201.624 83.5836 194.515 82.3632C194.515 80.8715 193.29 77.0338 188.392 73.6165C182.27 69.3449 183.653 76.2609 177.926 75.0404C172.198 73.8199 173.186 73.0063 167.261 73.6165C161.336 74.2268 158.967 78.9052 162.126 77.8881C164.654 77.0745 165.55 80.5325 165.681 82.3632C160.349 86.7026 150.396 98.1884 153.239 109.417C156.083 120.645 157.057 118.435 157.189 115.926Z" fill="#1A1B22" stroke="#1A1B22" stroke-width="3" stroke-linejoin="round"/>
<path d="M164.394 140.382L160.776 157.426" stroke="#1A1B22" stroke-width="3" stroke-linejoin="round"/>
<path d="M197.142 142.625L199.169 155.84" stroke="#1A1B22" stroke-width="3" stroke-linejoin="round"/>
<path d="M161.544 147.541C161.544 148.409 165.262 148.519 166.139 161C160.298 164.906 158.107 155.396 157.742 150.152C159.203 149.067 161.544 146.673 161.544 147.541Z" fill="#1D6BF3"/>
<path d="M195.475 165.218C195.955 164.686 196.131 162.486 200.802 155.299C205.608 155.313 201.346 162.046 198.615 165.411C197.353 165.474 194.996 165.75 195.475 165.218Z" fill="#1D6BF3"/>
<path d="M199.193 147.566H202.319C205.892 147.791 201.55 160.536 197.398 157.882C194.942 156.312 199.114 151.751 199.193 147.566Z" fill="#1D6BF3"/>
<ellipse cx="171.943" cy="114.825" rx="1.33972" ry="1.79407" fill="#1A1B22"/>
<ellipse cx="192.039" cy="114.825" rx="1.33972" ry="1.79407" fill="#1A1B22"/>
<path d="M166.188 110.312C167.484 108.248 168.891 107.044 171.34 106.552C171.943 106.431 173.013 106.234 173.568 106.606" stroke="#1A1B22" stroke-width="3" stroke-linecap="round"/>
<path d="M188.648 106.932C190.625 106.164 192.422 106.32 194.264 107.245C194.953 107.591 195.903 107.653 196.51 108.06" stroke="#1A1B22" stroke-width="3" stroke-linecap="round"/>
<path d="M181.327 109.48C181.614 113.161 182.469 117.608 180.588 121.018C180.205 121.713 179.643 122.458 179.378 123.202C179.23 123.616 179.234 124.012 178.967 124.356C178.647 124.769 181.9 125.614 182.065 125.654C183.62 126.033 184.429 126.315 184.834 124.686" stroke="#1A1B22" stroke-width="3" stroke-linecap="round"/>
<path d="M174.887 134.868C178.512 136.246 182.579 137.108 186.467 136.23C188.098 135.861 189.679 134.921 190.823 133.696C191.203 133.289 191.355 132.636 191.89 132.457" stroke="#1A1B22" stroke-width="3" stroke-linecap="round"/>
<path d="M174.217 135.955C174.468 135.081 174.968 134.201 175.095 133.312" stroke="#1A1B22" stroke-width="3" stroke-linecap="round"/>
<path d="M190.768 131.441C191.434 131.941 192.024 132.518 192.668 133.044C192.794 133.147 192.894 133.18 192.96 133.313" stroke="#1A1B22" stroke-width="3" stroke-linecap="round"/>
<path d="M289.393 210.352H318.42L315.071 248.027H294.082L289.393 210.352Z" fill="#B5B5B7"/>
<mask id="path-40-inside-1_14187_114374" fill="white">
<ellipse cx="317.081" cy="224.259" rx="8.48491" ry="9.41887"/>
</mask>
<path d="M315.566 224.259C315.566 224.425 315.507 224.385 315.651 224.226C315.727 224.141 315.878 224.005 316.133 223.885C316.4 223.76 316.73 223.678 317.081 223.678V243.678C328.246 243.678 335.566 233.976 335.566 224.259H315.566ZM317.081 223.678C317.431 223.678 317.762 223.76 318.028 223.885C318.283 224.005 318.435 224.141 318.511 224.226C318.655 224.385 318.596 224.425 318.596 224.259H298.596C298.596 233.976 305.915 243.678 317.081 243.678V223.678ZM318.596 224.259C318.596 224.093 318.655 224.132 318.511 224.292C318.435 224.376 318.283 224.512 318.028 224.632C317.762 224.757 317.431 224.84 317.081 224.84V204.84C305.915 204.84 298.596 214.542 298.596 224.259H318.596ZM317.081 224.84C316.73 224.84 316.4 224.757 316.133 224.632C315.878 224.512 315.727 224.376 315.651 224.292C315.507 224.132 315.566 224.093 315.566 224.259H335.566C335.566 214.542 328.246 204.84 317.081 204.84V224.84Z" fill="#B5B5B7" mask="url(#path-40-inside-1_14187_114374)"/>
<path d="M301.666 203.954C302.209 205.593 303.692 206.44 305.462 206.764C305.74 206.147 305.686 206.002 305.74 205.712C305.813 205.322 305.917 205.027 305.917 204.609C305.917 203.837 305.143 202.898 304.65 202.291C304.056 201.561 304.716 200.243 304.781 199.43C304.834 198.76 304.879 197.999 304.574 197.365C304.372 196.946 304.311 196.335 303.938 196.001C303.922 195.987 303.914 196.193 303.912 196.204C303.889 196.414 303.836 196.622 303.806 196.832C303.679 197.745 303.487 198.683 303.009 199.507C302.545 200.306 301.866 201.025 301.575 201.893C301.357 202.544 301.453 203.312 301.666 203.954Z" fill="#B5B5B7"/>
<path d="M305.462 206.764L305.192 208.24C305.871 208.364 306.547 208.009 306.831 207.38L305.462 206.764ZM301.666 203.954L303.089 203.482V203.482L301.666 203.954ZM301.575 201.893L300.152 201.416L300.152 201.416L301.575 201.893ZM303.009 199.507L301.711 198.754L301.711 198.754L303.009 199.507ZM303.806 196.832L302.321 196.625V196.625L303.806 196.832ZM303.912 196.204L305.403 196.371L305.403 196.371L303.912 196.204ZM303.938 196.001L304.938 194.883L304.938 194.883L303.938 196.001ZM304.574 197.365L303.222 198.016V198.016L304.574 197.365ZM304.781 199.43L303.286 199.311V199.311L304.781 199.43ZM304.65 202.291L303.485 203.237L304.65 202.291ZM305.74 205.712L304.266 205.437L304.266 205.437L305.74 205.712ZM305.733 205.289C304.226 205.013 303.387 204.381 303.089 203.482L300.242 204.426C301.031 206.805 303.157 207.867 305.192 208.24L305.733 205.289ZM303.089 203.482C302.929 202.999 302.923 202.591 302.997 202.37L300.152 201.416C299.791 202.496 299.976 203.625 300.242 204.426L303.089 203.482ZM302.997 202.37C303.075 202.138 303.22 201.88 303.467 201.518C303.675 201.212 304.039 200.721 304.306 200.26L301.711 198.754C301.515 199.093 301.307 199.36 300.987 199.83C300.705 200.244 300.366 200.78 300.152 201.416L302.997 202.37ZM304.306 200.26C304.938 199.172 305.159 197.992 305.292 197.04L302.321 196.625C302.199 197.498 302.037 198.193 301.711 198.754L304.306 200.26ZM305.292 197.04C305.3 196.98 305.312 196.92 305.335 196.799C305.355 196.694 305.384 196.539 305.403 196.371L302.422 196.037C302.417 196.079 302.408 196.133 302.388 196.238C302.371 196.325 302.342 196.474 302.321 196.625L305.292 197.04ZM305.403 196.371C305.407 196.34 305.408 196.315 305.409 196.312C305.409 196.304 305.41 196.297 305.41 196.294C305.41 196.287 305.411 196.28 305.411 196.276C305.411 196.266 305.412 196.262 305.412 196.253C305.413 196.236 305.414 196.224 305.415 196.216C305.416 196.196 305.415 196.226 305.406 196.278C305.406 196.279 305.387 196.407 305.325 196.561C305.314 196.588 305.2 196.906 304.88 197.165C304.681 197.327 304.335 197.517 303.876 197.499C303.426 197.481 303.108 197.271 302.937 197.118L304.938 194.883C304.766 194.729 304.448 194.519 303.997 194.501C303.536 194.483 303.19 194.674 302.99 194.836C302.668 195.097 302.552 195.417 302.539 195.449C302.474 195.612 302.452 195.754 302.449 195.772C302.434 195.859 302.427 195.939 302.425 195.97C302.421 196.014 302.419 196.054 302.417 196.079C302.413 196.159 302.416 196.087 302.422 196.037L305.403 196.371ZM302.937 197.118C302.828 197.02 302.835 196.95 302.905 197.15C302.943 197.257 302.961 197.32 303.017 197.491C303.061 197.626 303.128 197.819 303.222 198.016L305.925 196.714C305.919 196.702 305.902 196.661 305.867 196.553C305.843 196.481 305.784 196.292 305.734 196.152C305.631 195.858 305.421 195.315 304.938 194.883L302.937 197.118ZM303.222 198.016C303.325 198.23 303.344 198.582 303.286 199.311L306.276 199.55C306.325 198.939 306.433 197.769 305.925 196.714L303.222 198.016ZM303.286 199.311C303.28 199.376 303.257 199.5 303.194 199.757C303.14 199.972 303.054 200.298 302.995 200.613C302.891 201.159 302.725 202.301 303.485 203.237L305.814 201.345C305.903 201.455 305.908 201.548 305.905 201.522C305.902 201.479 305.904 201.374 305.942 201.171C305.982 200.963 306.035 200.762 306.106 200.478C306.165 200.237 306.249 199.891 306.276 199.55L303.286 199.311ZM303.485 203.237C303.745 203.556 304 203.87 304.197 204.185C304.293 204.338 304.355 204.46 304.391 204.551C304.428 204.646 304.417 204.659 304.417 204.609H307.417C307.417 203.781 307.027 203.051 306.739 202.592C306.426 202.092 306.048 201.633 305.814 201.345L303.485 203.237ZM304.417 204.609C304.417 204.686 304.409 204.759 304.385 204.875C304.372 204.942 304.357 205.006 304.335 205.105C304.314 205.197 304.289 205.311 304.266 205.437L307.215 205.986C307.243 205.836 307.417 205.21 307.417 204.609H304.417ZM304.266 205.437C304.24 205.574 304.228 205.692 304.222 205.752C304.215 205.817 304.213 205.829 304.211 205.84C304.21 205.842 304.199 205.916 304.094 206.149L306.831 207.38C307.003 206.995 307.104 206.688 307.16 206.39C307.186 206.252 307.198 206.134 307.205 206.072C307.212 206.003 307.213 205.994 307.215 205.986L304.266 205.437Z" fill="#B5B5B7"/>
<path d="M145.281 177.672H149.022" stroke="white" stroke-width="3" stroke-linecap="round"/>
<path d="M147.984 175.344H151.086" stroke="white" stroke-width="3" stroke-linecap="round"/>
</svg>
