<svg width="25" height="25" viewBox="0 0 25 25" fill="none" xmlns="http://www.w3.org/2000/svg">
<path d="M22.6397 3.01274C22.355 2.77587 22.0114 2.62064 21.6454 2.56355C21.2795 2.50645 20.9049 2.54965 20.5616 2.68853L2.64066 9.92388C2.25741 10.0816 1.93118 10.3521 1.70526 10.6995C1.47934 11.0469 1.36443 11.4548 1.37576 11.8691C1.3871 12.2834 1.52416 12.6844 1.76874 13.0189C2.01332 13.3535 2.35386 13.6058 2.74516 13.7422L6.37016 15.003L8.39066 21.6846C8.41812 21.7739 8.45797 21.8588 8.50904 21.937C8.51679 21.949 8.52772 21.9579 8.53596 21.9696C8.59496 22.0519 8.66627 22.1247 8.74739 22.1854C8.77046 22.2029 8.79255 22.2194 8.81721 22.235C8.91214 22.298 9.01728 22.3441 9.12794 22.3712L9.13978 22.3722L9.14649 22.375C9.21302 22.3886 9.28074 22.3954 9.34864 22.3955C9.35517 22.3955 9.36097 22.3924 9.36744 22.3923C9.4699 22.3905 9.57147 22.3729 9.66853 22.34C9.69111 22.3323 9.71046 22.3194 9.73237 22.3101C9.80475 22.2801 9.87332 22.2417 9.93666 22.1956C9.98738 22.1528 10.0381 22.1101 10.0889 22.0674L12.791 19.084L16.8213 22.2061C17.1761 22.4823 17.6129 22.6325 18.0625 22.6328C18.5337 22.6322 18.9904 22.4697 19.3559 22.1724C19.7215 21.8751 19.9737 21.4612 20.0704 21L23.333 4.98345C23.407 4.62297 23.3815 4.24917 23.2594 3.90204C23.1373 3.55491 22.9231 3.24752 22.6397 3.01274ZM9.74516 15.3213C9.6065 15.4594 9.51172 15.6354 9.4727 15.8272L9.16319 17.3312L8.37913 14.7381L12.4444 12.6212L9.74516 15.3213ZM18.0469 20.625L13.2842 16.9356C13.085 16.7816 12.835 16.7083 12.5842 16.7304C12.3333 16.7525 12.1 16.8683 11.9307 17.0547L11.0653 18.0099L11.3711 16.5235L18.4541 9.44045C18.6232 9.27161 18.7262 9.04781 18.7445 8.80957C18.7628 8.57134 18.6951 8.33443 18.5538 8.14177C18.4125 7.9491 18.2069 7.81341 17.9742 7.75929C17.7414 7.70516 17.497 7.73617 17.2852 7.8467L7.11991 13.1393L3.39555 11.7764L21.374 4.58401L18.0469 20.625Z" fill="#1A1B22"/>
</svg>
