<svg width="234" height="260" viewBox="0 0 234 260" fill="none" xmlns="http://www.w3.org/2000/svg">
<g clip-path="url(#clip0_13523_97595)">
<path d="M75.9267 91.8164L45.1881 215.827C43.8929 221.043 44.2813 226.535 46.2976 231.516C48.3138 236.496 51.8542 240.709 56.4106 243.55C68.136 250.852 87.5209 258.754 117.164 259.661C148.585 260.621 169.488 251.583 181.848 243.379C186.217 240.477 189.581 236.293 191.48 231.4C193.379 226.508 193.72 221.147 192.455 216.053L161.659 91.8164" fill="#F1F6FF"/>
<path d="M118.793 97.5761C159.547 97.5761 192.585 86.4204 192.585 72.6591C192.585 58.8979 159.547 47.7422 118.793 47.7422C78.0383 47.7422 45.0002 58.8979 45.0002 72.6591C45.0002 86.4204 78.0383 97.5761 118.793 97.5761Z" fill="#1A1B22"/>
<path d="M118.793 97.9912C99.038 97.9912 80.4602 95.3918 66.4815 90.6704C52.3626 85.9029 44.5868 79.5066 44.5868 72.6597C44.5868 65.8127 52.3619 59.4164 66.4815 54.649C80.4602 49.929 99.038 47.3281 118.793 47.3281C138.547 47.3281 157.125 49.9279 171.104 54.649C185.222 59.4164 192.998 65.8127 192.998 72.6597C192.998 79.5066 185.223 85.9029 171.104 90.6704C157.125 95.3918 138.547 97.9912 118.793 97.9912ZM118.793 48.1573C99.1253 48.1573 80.6414 50.7414 66.745 55.4336C52.9889 60.0785 45.4128 66.1966 45.4128 72.6607C45.4128 79.1249 52.9889 85.243 66.745 89.8879C80.6414 94.5801 99.1257 97.1641 118.793 97.1641C138.46 97.1641 156.944 94.5801 170.84 89.8879C184.596 85.243 192.172 79.1249 192.172 72.6607C192.172 66.1966 184.596 60.0785 170.84 55.4336C156.944 50.7414 138.46 48.1573 118.793 48.1573Z" fill="#1A1B22"/>
<path d="M118.793 88.0855C172.339 88.0855 215.746 76.1284 215.746 61.3787C215.746 46.6289 172.339 34.6719 118.793 34.6719C65.2468 34.6719 21.8391 46.6289 21.8391 61.3787C21.8391 76.1284 65.2468 88.0855 118.793 88.0855Z" fill="#1D6BF3"/>
<path d="M118.793 88.5003C92.8593 88.5003 68.473 85.7169 50.1264 80.663C31.6185 75.5649 21.4257 68.7168 21.4257 61.3789C21.4257 54.0409 31.6185 47.1939 50.1264 42.0947C68.473 37.0408 92.8593 34.2578 118.793 34.2578C144.726 34.2578 169.112 37.0408 187.459 42.0947C205.967 47.1928 216.159 54.0412 216.159 61.3789C216.159 68.7165 205.967 75.5638 187.459 80.663C169.112 85.7169 144.726 88.5003 118.793 88.5003ZM118.793 35.0867C92.9313 35.0867 68.6228 37.8597 50.3454 42.8943C41.4821 45.3355 34.5306 48.1742 29.6829 51.3311C24.7518 54.5426 22.2517 57.9234 22.2517 61.3799C22.2517 64.8364 24.7518 68.2176 29.6829 71.4288C34.5306 74.5857 41.4821 77.4244 50.3454 79.8659C68.6228 84.9013 92.9299 87.6732 118.793 87.6732C144.656 87.6732 168.962 84.9005 187.24 79.8659C196.103 77.4244 203.055 74.5857 207.902 71.4288C212.833 68.2176 215.333 64.8364 215.333 61.3799C215.333 57.9234 212.833 54.5426 207.902 51.3311C203.055 48.1742 196.103 45.3355 187.24 42.8943C168.962 37.8597 144.654 35.0881 118.793 35.0881V35.0867Z" fill="#1A1B22"/>
<path d="M163.402 45.8146C163.402 57.6212 142.966 60.4024 121.655 60.9077C98.4366 61.458 74.1841 57.4405 74.1841 45.8146C74.2175 33.99 78.9322 22.6611 87.2945 14.3116C95.6568 5.96214 106.984 1.27344 118.794 1.27344C130.603 1.27344 141.931 5.96214 150.293 14.3116C158.656 22.6611 163.37 33.99 163.404 45.8146H163.402Z" fill="white"/>
<path d="M157.612 43.4761C157.505 43.476 157.402 43.4342 157.325 43.3594C157.248 43.2846 157.203 43.1828 157.2 43.0754C157.074 38.8373 156.238 34.6506 154.726 30.6903C154.687 30.5879 154.69 30.4741 154.734 30.3739C154.779 30.2737 154.861 30.1954 154.964 30.1562C155.066 30.117 155.18 30.1201 155.28 30.1648C155.38 30.2095 155.458 30.2922 155.497 30.3946C157.042 34.4414 157.897 38.7195 158.025 43.05C158.029 43.1596 157.989 43.266 157.914 43.3459C157.839 43.4258 157.735 43.4726 157.626 43.4761H157.612Z" fill="#1A1B22"/>
<path d="M151.444 23.7589C151.375 23.759 151.307 23.7419 151.247 23.7091C151.186 23.6763 151.135 23.6288 151.097 23.5711C145.647 15.2411 137.165 9.37049 127.457 7.20951C127.352 7.18366 127.262 7.11805 127.205 7.02664C127.148 6.93523 127.129 6.82522 127.152 6.72001C127.175 6.6148 127.238 6.52268 127.328 6.46324C127.417 6.4038 127.527 6.38173 127.632 6.40172C137.553 8.60951 146.22 14.6078 151.789 23.1193C151.83 23.1817 151.853 23.2538 151.856 23.3282C151.859 23.4026 151.842 23.4765 151.806 23.542C151.771 23.6075 151.719 23.6622 151.655 23.7004C151.591 23.7386 151.518 23.7588 151.444 23.7589Z" fill="#1A1B22"/>
<path d="M117.329 61.3707C97.6064 61.3707 82.5912 58.0496 76.7082 52.3C74.7584 50.3937 73.7701 48.2111 73.7701 45.813C73.7534 39.8823 74.9056 34.0066 77.1608 28.5225C79.4159 23.0384 82.7296 18.0538 86.912 13.8542C91.0943 9.65461 96.0632 6.32264 101.534 4.04918C107.005 1.77572 112.869 0.605469 118.793 0.605469C124.716 0.605469 130.581 1.77572 136.051 4.04918C141.522 6.32264 146.491 9.65461 150.673 13.8542C154.856 18.0538 158.169 23.0384 160.424 28.5225C162.679 34.0066 163.832 39.8823 163.815 45.813C163.815 51.3822 159.38 55.4808 150.634 57.9949C143.904 59.9294 134.428 61.0168 121.665 61.3193C120.197 61.3536 118.751 61.3707 117.329 61.3707ZM118.792 1.55871C107.074 1.57195 95.8401 6.2386 87.5544 14.5349C79.2687 22.8312 74.608 34.0796 74.5947 45.8123C74.5947 47.9793 75.4995 49.9627 77.2842 51.7076C83.4336 57.721 100.015 61.004 121.644 60.4926C139.393 60.0723 162.991 58.0924 162.991 45.8134C162.978 34.0804 158.317 22.8317 150.031 14.5354C141.745 6.23901 130.511 1.57254 118.793 1.55978L118.792 1.55871Z" fill="#1A1B22"/>
<path d="M46.6035 64.956C49.8027 64.956 52.3962 62.3591 52.3962 59.1557C52.3962 55.9523 49.8027 53.3555 46.6035 53.3555C43.4042 53.3555 40.8107 55.9523 40.8107 59.1557C40.8107 62.3591 43.4042 64.956 46.6035 64.956Z" fill="white"/>
<path d="M46.6034 65.369C45.376 65.369 44.1762 65.0046 43.1556 64.3218C42.1351 63.639 41.3397 62.6685 40.87 61.5331C40.4003 60.3977 40.2774 59.1483 40.5168 57.9429C40.7563 56.7376 41.3473 55.6304 42.2152 54.7614C43.0831 53.8924 44.1889 53.3006 45.3927 53.0608C46.5965 52.821 47.8443 52.9441 48.9782 53.4144C50.1122 53.8847 51.0814 54.6811 51.7633 55.703C52.4452 56.7249 52.8092 57.9262 52.8092 59.1552C52.8073 60.8026 52.1528 62.382 50.9894 63.5469C49.826 64.7118 48.2487 65.3671 46.6034 65.369ZM46.6034 53.7681C45.5393 53.7681 44.4991 54.0841 43.6143 54.676C42.7296 55.268 42.04 56.1093 41.6328 57.0937C41.2256 58.078 41.119 59.1612 41.3266 60.2062C41.5342 61.2512 42.0466 62.211 42.799 62.9644C43.5515 63.7178 44.5101 64.2309 45.5538 64.4388C46.5974 64.6466 47.6792 64.5399 48.6623 64.1322C49.6454 63.7245 50.4856 63.034 51.0768 62.1481C51.668 61.2622 51.9835 60.2207 51.9835 59.1552C51.9821 57.7269 51.4148 56.3575 50.4061 55.3475C49.3975 54.3376 48.0298 53.7695 46.6034 53.7681Z" fill="#1A1B22"/>
<path d="M118.793 81.5653C121.992 81.5653 124.586 78.9685 124.586 75.7651C124.586 72.5617 121.992 69.9648 118.793 69.9648C115.594 69.9648 113 72.5617 113 75.7651C113 78.9685 115.594 81.5653 118.793 81.5653Z" fill="white"/>
<path d="M118.793 81.9784C117.565 81.9784 116.365 81.6139 115.345 80.9312C114.324 80.2484 113.529 79.2779 113.059 78.1425C112.59 77.0071 112.467 75.7577 112.706 74.5523C112.946 73.347 113.537 72.2398 114.405 71.3708C115.272 70.5017 116.378 69.9099 117.582 69.6702C118.786 69.4304 120.034 69.5535 121.168 70.0238C122.302 70.4941 123.271 71.2905 123.953 72.3124C124.635 73.3342 124.998 74.5356 124.998 75.7646C124.997 77.412 124.342 78.9914 123.179 80.1563C122.015 81.3212 120.438 81.9765 118.793 81.9784ZM118.793 70.3779C117.729 70.3779 116.689 70.6938 115.804 71.2857C114.919 71.8776 114.23 72.7189 113.822 73.7032C113.415 74.6875 113.309 75.7705 113.516 76.8155C113.724 77.8604 114.236 78.8202 114.989 79.5736C115.741 80.3269 116.7 80.8399 117.743 81.0478C118.787 81.2556 119.868 81.149 120.851 80.7412C121.834 80.3335 122.675 79.6431 123.266 78.7573C123.857 77.8714 124.172 76.83 124.172 75.7646C124.171 74.3364 123.604 72.9671 122.595 71.9573C121.587 70.9474 120.219 70.3794 118.793 70.3779Z" fill="#1A1B22"/>
<path d="M190.969 64.956C194.169 64.956 196.762 62.3591 196.762 59.1557C196.762 55.9523 194.169 53.3555 190.969 53.3555C187.77 53.3555 185.177 55.9523 185.177 59.1557C185.177 62.3591 187.77 64.956 190.969 64.956Z" fill="white"/>
<path d="M190.969 65.369C189.742 65.369 188.542 65.0046 187.521 64.3218C186.501 63.639 185.706 62.6685 185.236 61.5331C184.766 60.3977 184.643 59.1483 184.883 57.9429C185.122 56.7376 185.713 55.6304 186.581 54.7614C187.449 53.8924 188.555 53.3006 189.759 53.0608C190.962 52.821 192.21 52.9441 193.344 53.4144C194.478 53.8847 195.447 54.6811 196.129 55.703C196.811 56.7249 197.175 57.9262 197.175 59.1552C197.173 60.8026 196.519 62.382 195.355 63.5469C194.192 64.7118 192.615 65.3671 190.969 65.369ZM190.969 53.7681C189.905 53.7681 188.865 54.0841 187.98 54.676C187.095 55.268 186.406 56.1093 185.999 57.0937C185.591 58.078 185.485 59.1612 185.692 60.2062C185.9 61.2512 186.412 62.211 187.165 62.9644C187.917 63.7178 188.876 64.2309 189.92 64.4388C190.963 64.6466 192.045 64.5399 193.028 64.1322C194.011 63.7245 194.851 63.034 195.443 62.1481C196.034 61.2622 196.349 60.2207 196.349 59.1552C196.348 57.7269 195.781 56.3575 194.772 55.3475C193.763 54.3376 192.396 53.7695 190.969 53.7681Z" fill="#1A1B22"/>
<path d="M160.184 75.7646C163.383 75.7646 165.977 73.1677 165.977 69.9643C165.977 66.7609 163.383 64.1641 160.184 64.1641C156.985 64.1641 154.391 66.7609 154.391 69.9643C154.391 73.1677 156.985 75.7646 160.184 75.7646Z" fill="white"/>
<path d="M160.184 76.1776C158.957 76.1776 157.757 75.8131 156.736 75.1304C155.716 74.4476 154.92 73.4771 154.451 72.3417C153.981 71.2063 153.858 69.9569 154.097 68.7515C154.337 67.5462 154.928 66.439 155.796 65.57C156.664 64.701 157.769 64.1092 158.973 63.8694C160.177 63.6296 161.425 63.7527 162.559 64.223C163.693 64.6933 164.662 65.4897 165.344 66.5116C166.026 67.5334 166.39 68.7348 166.39 69.9638C166.388 71.6112 165.733 73.1906 164.57 74.3555C163.407 75.5204 161.829 76.1757 160.184 76.1776ZM160.184 64.5767C159.12 64.5767 158.08 64.8925 157.195 65.4844C156.31 66.0763 155.62 66.9177 155.213 67.902C154.806 68.8864 154.699 69.9695 154.907 71.0145C155.114 72.0595 155.627 73.0195 156.379 73.7729C157.132 74.5263 158.09 75.0394 159.134 75.2473C160.177 75.4552 161.259 75.3485 162.242 74.9408C163.226 74.5331 164.066 73.8426 164.657 72.9567C165.248 72.0708 165.564 71.0293 165.564 69.9638C165.562 68.5355 164.995 67.1662 163.986 66.1562C162.978 65.1463 161.61 64.5782 160.184 64.5767Z" fill="#1A1B22"/>
<path d="M77.4012 76.5536C80.6004 76.5536 83.194 73.9568 83.194 70.7534C83.194 67.55 80.6004 64.9531 77.4012 64.9531C74.2019 64.9531 71.6084 67.55 71.6084 70.7534C71.6084 73.9568 74.2019 76.5536 77.4012 76.5536Z" fill="white"/>
<path d="M77.4011 76.9666C76.1737 76.9666 74.9739 76.6022 73.9534 75.9194C72.9328 75.2366 72.1374 74.2662 71.6677 73.1308C71.198 71.9953 71.0751 70.746 71.3146 69.5406C71.554 68.3352 72.1451 67.2281 73.013 66.359C73.8808 65.49 74.9866 64.8982 76.1904 64.6585C77.3942 64.4187 78.642 64.5418 79.776 65.0121C80.9099 65.4824 81.8791 66.2788 82.561 67.3007C83.2429 68.3225 83.6069 69.5239 83.6069 70.7529C83.605 72.4003 82.9506 73.9797 81.7872 75.1446C80.6238 76.3095 79.0464 76.9648 77.4011 76.9666ZM77.4011 65.3658C76.3369 65.3654 75.2965 65.6811 74.4115 66.2728C73.5265 66.8646 72.8367 67.7058 72.4292 68.6902C72.0217 69.6745 71.915 70.7577 72.1224 71.8029C72.3298 72.848 72.8421 73.808 73.5945 74.5616C74.3469 75.3151 75.3056 75.8284 76.3493 76.0363C77.393 76.2443 78.4749 76.1377 79.458 75.7299C80.4412 75.3222 81.2816 74.6317 81.8728 73.7457C82.464 72.8597 82.7795 71.8181 82.7795 70.7525C82.778 69.3246 82.2109 67.9555 81.2026 66.9457C80.1943 65.9359 78.8272 65.3677 77.4011 65.3658Z" fill="#1A1B22"/>
<path d="M180.218 40.7154C179.786 42.0247 178.903 43.1372 177.726 43.8536C176.549 44.5699 175.157 44.8432 173.797 44.6246C172.437 44.4059 171.2 43.7096 170.307 42.6603C169.413 41.6111 168.923 40.2776 168.922 38.8988C168.922 38.7692 168.927 38.6424 168.936 38.5156C172.892 39.1774 176.661 39.9105 180.218 40.7154Z" fill="white"/>
<path d="M174.714 45.1114C173.069 45.1098 171.491 44.4546 170.328 43.2896C169.164 42.1247 168.51 40.5451 168.509 38.8976C168.509 38.759 168.514 38.623 168.523 38.4873L168.553 38.0312L169.003 38.1066C172.981 38.7719 176.785 39.5136 180.309 40.3107L180.753 40.4114L180.61 40.8439C180.202 42.0867 179.412 43.1687 178.354 43.9351C177.295 44.7015 176.021 45.1133 174.714 45.1114ZM169.336 39.0015C169.36 40.2337 169.805 41.4205 170.597 42.3639C171.389 43.3073 172.48 43.9503 173.688 44.1857C174.896 44.4211 176.148 44.2346 177.236 43.6574C178.323 43.0802 179.18 42.1472 179.664 41.0139C176.426 40.2907 172.956 39.6147 169.336 39.0015Z" fill="#1A1B22"/>
<path d="M68.0409 38.8996C68.0406 40.2667 67.5581 41.5898 66.6785 42.6354C65.7989 43.681 64.5788 44.382 63.2334 44.6148C61.888 44.8475 60.5037 44.597 59.3248 43.9075C58.1458 43.2179 57.248 42.1337 56.7896 40.8459C60.3326 40.0353 64.0878 39.291 68.0327 38.6211C68.0381 38.7122 68.0409 38.8057 68.0409 38.8996Z" fill="white"/>
<path d="M62.2484 45.1129C60.9677 45.1111 59.7188 44.7137 58.672 43.975C57.6252 43.2362 56.8316 42.1921 56.3993 40.9851L56.243 40.5465L56.6963 40.443C60.2568 39.6284 64.0474 38.8784 67.9624 38.2139L68.416 38.1367L68.4438 38.5963C68.4499 38.6956 68.4528 38.7977 68.4528 38.8999C68.4509 40.547 67.7966 42.1261 66.6335 43.2908C65.4704 44.4556 63.8934 45.1109 62.2484 45.1129ZM57.3547 41.1415C57.8584 42.2429 58.718 43.1423 59.7948 43.6944C60.8717 44.2465 62.103 44.4191 63.2898 44.1843C64.4767 43.9496 65.55 43.3212 66.3364 42.4007C67.1227 41.4801 67.5763 40.321 67.6239 39.1106C64.0659 39.7227 60.6163 40.4048 57.3547 41.1415Z" fill="#1A1B22"/>
<path d="M127.804 241.38L74.8497 211.175L115.829 139.145L152.446 160.03L159.477 185.708L127.804 241.38Z" fill="white"/>
<path opacity="0.3" d="M136.394 205.504C138.136 205.504 139.549 204.09 139.549 202.346C139.549 200.602 138.136 199.188 136.394 199.188C134.652 199.188 133.24 200.602 133.24 202.346C133.24 204.09 134.652 205.504 136.394 205.504Z" fill="#1D6BF3"/>
<path opacity="0.3" d="M103.107 188.867C104.849 188.867 106.261 187.453 106.261 185.709C106.261 183.965 104.849 182.551 103.107 182.551C101.365 182.551 99.9524 183.965 99.9524 185.709C99.9524 187.453 101.365 188.867 103.107 188.867Z" fill="#1D6BF3"/>
<path d="M127.958 241.945L74.2865 211.331L115.675 138.582L152.799 159.759L159.92 185.767L127.958 241.945ZM75.4128 211.022L127.65 240.817L159.035 185.654L152.095 160.306L115.984 139.71L75.4128 211.022Z" fill="#1A1B22"/>
<path opacity="0.3" d="M152.446 160.031L143.139 176.39L159.477 185.709L152.446 160.031Z" fill="#1D6BF3"/>
<path d="M159.477 186.123C159.405 186.123 159.335 186.104 159.273 186.069L142.935 176.75C142.84 176.696 142.77 176.606 142.741 176.5C142.712 176.394 142.726 176.281 142.781 176.186L152.088 159.826C152.128 159.755 152.188 159.698 152.261 159.661C152.335 159.624 152.417 159.61 152.498 159.62C152.579 159.631 152.655 159.665 152.717 159.718C152.778 159.772 152.823 159.843 152.844 159.922L159.875 185.598C159.892 185.659 159.895 185.724 159.882 185.786C159.87 185.849 159.844 185.907 159.805 185.958C159.767 186.008 159.717 186.049 159.66 186.078C159.603 186.106 159.541 186.121 159.477 186.121V186.123ZM143.703 176.236L158.815 184.856L152.312 161.104L143.703 176.236Z" fill="#1A1B22"/>
<path d="M113.708 181.556C115.083 181.556 116.198 180.44 116.198 179.063C116.198 177.686 115.083 176.57 113.708 176.57C112.333 176.57 111.219 177.686 111.219 179.063C111.219 180.44 112.333 181.556 113.708 181.556Z" fill="#1A1B22"/>
<path d="M137.059 192.185C138.434 192.185 139.548 191.069 139.548 189.692C139.548 188.315 138.434 187.199 137.059 187.199C135.684 187.199 134.569 188.315 134.569 189.692C134.569 191.069 135.684 192.185 137.059 192.185Z" fill="#1A1B22"/>
<path d="M126.478 207.475C126.371 207.475 126.268 207.433 126.19 207.358C126.113 207.283 126.069 207.181 126.066 207.073C126.014 205.08 125.454 203.133 124.441 201.416C123.427 199.7 121.992 198.271 120.273 197.265C118.554 196.259 116.606 195.71 114.615 195.668C112.624 195.627 110.655 196.095 108.896 197.028C108.848 197.055 108.795 197.072 108.74 197.078C108.685 197.084 108.63 197.079 108.577 197.064C108.524 197.048 108.475 197.022 108.433 196.987C108.39 196.952 108.355 196.909 108.329 196.86C108.303 196.811 108.288 196.758 108.283 196.703C108.278 196.648 108.284 196.593 108.301 196.54C108.318 196.488 108.345 196.439 108.381 196.398C108.417 196.356 108.46 196.322 108.51 196.297C110.394 195.298 112.501 194.798 114.632 194.843C116.764 194.887 118.848 195.476 120.689 196.553C122.529 197.63 124.065 199.159 125.15 200.996C126.236 202.833 126.835 204.917 126.891 207.051C126.894 207.16 126.854 207.267 126.778 207.346C126.703 207.426 126.599 207.472 126.49 207.475H126.478Z" fill="#1A1B22"/>
<path d="M115.874 176.513C114.533 176.496 113.225 176.097 112.102 175.362C112.014 175.299 111.954 175.203 111.936 175.095C111.918 174.987 111.943 174.877 112.006 174.788C112.069 174.699 112.165 174.638 112.272 174.62C112.379 174.601 112.49 174.625 112.579 174.687C112.612 174.71 115.035 176.375 117.742 175.34C117.843 175.304 117.955 175.309 118.053 175.354C118.151 175.399 118.227 175.481 118.266 175.582C118.304 175.683 118.302 175.795 118.259 175.894C118.216 175.993 118.136 176.071 118.036 176.112C117.346 176.378 116.613 176.513 115.874 176.513Z" fill="#1A1B22"/>
<path d="M141.373 188.396C141.327 188.396 141.281 188.388 141.237 188.373C137.756 187.159 137.36 184.47 137.345 184.356C137.33 184.248 137.359 184.137 137.426 184.05C137.492 183.962 137.591 183.905 137.7 183.89C137.808 183.876 137.919 183.905 138.006 183.972C138.093 184.038 138.15 184.137 138.165 184.246C138.179 184.344 138.532 186.552 141.511 187.592C141.603 187.625 141.681 187.688 141.73 187.772C141.78 187.856 141.798 187.955 141.782 188.052C141.765 188.148 141.716 188.235 141.641 188.298C141.567 188.361 141.472 188.396 141.375 188.396H141.373Z" fill="#1A1B22"/>
<path d="M4.21465 92.2324C4.16042 92.2324 4.10672 92.2217 4.05663 92.2009C4.00653 92.1801 3.96102 92.1496 3.92269 92.1112C3.88436 92.0728 3.85397 92.0272 3.83325 91.977C3.81253 91.9269 3.80189 91.8731 3.80194 91.8188V80.1523C3.80031 80.0969 3.80979 80.0419 3.82981 79.9903C3.84983 79.9387 3.87998 79.8917 3.91848 79.852C3.95698 79.8123 4.00305 79.7808 4.05395 79.7592C4.10485 79.7377 4.15956 79.7266 4.21483 79.7266C4.27009 79.7266 4.3248 79.7377 4.3757 79.7592C4.4266 79.7808 4.47267 79.8123 4.51117 79.852C4.54967 79.8917 4.57982 79.9387 4.59984 79.9903C4.61986 80.0419 4.62934 80.0969 4.62771 80.1523V91.8188C4.62776 91.8731 4.61711 91.9269 4.59637 91.9771C4.57562 92.0273 4.5452 92.0729 4.50683 92.1113C4.46847 92.1498 4.42291 92.1802 4.37278 92.201C4.32264 92.2217 4.2689 92.2324 4.21465 92.2324Z" fill="#1A1B22"/>
<path d="M8.01653 86.3977H0.413006C0.30347 86.3977 0.19842 86.3541 0.120967 86.2765C0.043513 86.1989 0 86.0937 0 85.984C0 85.8743 0.043513 85.7691 0.120967 85.6915C0.19842 85.6139 0.30347 85.5703 0.413006 85.5703H8.01653C8.12606 85.5703 8.23111 85.6139 8.30856 85.6915C8.38602 85.7691 8.42953 85.8743 8.42953 85.984C8.42953 86.0937 8.38602 86.1989 8.30856 86.2765C8.23111 86.3541 8.12606 86.3977 8.01653 86.3977Z" fill="#1A1B22"/>
<path d="M202.544 157.21C202.435 157.21 202.33 157.167 202.252 157.089C202.175 157.012 202.131 156.906 202.131 156.797V139.05C202.131 138.941 202.175 138.835 202.252 138.758C202.33 138.68 202.435 138.637 202.544 138.637C202.654 138.637 202.759 138.68 202.836 138.758C202.914 138.835 202.957 138.941 202.957 139.05V156.797C202.957 156.906 202.914 157.011 202.836 157.089C202.759 157.167 202.654 157.21 202.544 157.21Z" fill="#1A1B22"/>
<path d="M208.328 148.339H196.762C196.653 148.339 196.548 148.296 196.47 148.218C196.393 148.14 196.349 148.035 196.349 147.925C196.349 147.816 196.393 147.71 196.47 147.633C196.548 147.555 196.653 147.512 196.762 147.512H208.328C208.438 147.512 208.543 147.555 208.62 147.633C208.698 147.71 208.741 147.816 208.741 147.925C208.741 148.035 208.698 148.14 208.62 148.218C208.543 148.296 208.438 148.339 208.328 148.339Z" fill="#1A1B22"/>
<path d="M230.696 101.107C230.641 101.107 230.588 101.096 230.538 101.075C230.487 101.054 230.442 101.024 230.403 100.986C230.365 100.947 230.335 100.902 230.314 100.851C230.293 100.801 230.283 100.747 230.283 100.693V91.8198C230.283 91.7101 230.326 91.6049 230.404 91.5274C230.481 91.4498 230.586 91.4062 230.696 91.4062C230.805 91.4062 230.91 91.4498 230.988 91.5274C231.065 91.6049 231.109 91.7101 231.109 91.8198V100.693C231.109 100.747 231.098 100.801 231.077 100.851C231.057 100.902 231.026 100.947 230.988 100.986C230.949 101.024 230.904 101.054 230.854 101.075C230.804 101.096 230.75 101.107 230.696 101.107Z" fill="#1A1B22"/>
<path d="M233.587 96.6711H227.804C227.75 96.6711 227.696 96.6604 227.646 96.6396C227.596 96.6188 227.551 96.5884 227.512 96.5499C227.474 96.5115 227.443 96.4659 227.423 96.4157C227.402 96.3656 227.391 96.3118 227.391 96.2574C227.391 96.2031 227.402 96.1493 227.423 96.0991C227.443 96.0489 227.474 96.0033 227.512 95.9649C227.551 95.9265 227.596 95.896 227.646 95.8752C227.696 95.8544 227.75 95.8437 227.804 95.8438H233.587C233.697 95.8438 233.802 95.8873 233.879 95.9649C233.957 96.0425 234 96.1477 234 96.2574C234 96.3671 233.957 96.4724 233.879 96.5499C233.802 96.6275 233.697 96.6711 233.587 96.6711Z" fill="#1A1B22"/>
</g>
<defs>
<clipPath id="clip0_13523_97595">
<rect width="234" height="259" fill="white" transform="translate(0 0.734375)"/>
</clipPath>
</defs>
</svg>
