<svg width="24" height="24" viewBox="0 0 24 24" fill="none" xmlns="http://www.w3.org/2000/svg">
<path d="M20.6703 3.69345C18.4051 1.32907 15.2709 -0.00527207 11.9965 0.000752736C5.3794 -0.00758157 0.00834381 5.34992 9.49964e-06 11.9671C-0.00410745 15.2391 1.33009 18.3704 3.69271 20.6339C3.69959 20.6408 3.70215 20.6511 3.70898 20.6571C3.77836 20.7239 3.85377 20.7805 3.92406 20.8448C4.11686 21.0161 4.30965 21.1935 4.51274 21.3589C4.62154 21.4446 4.73465 21.5302 4.84606 21.6091C5.038 21.7521 5.22994 21.8952 5.43042 22.0272C5.56668 22.1129 5.7072 22.1986 5.84683 22.2843C6.03189 22.3957 6.21615 22.5079 6.40724 22.6099C6.5692 22.6956 6.73453 22.7692 6.89906 22.8472C7.079 22.9329 7.25638 23.0186 7.44059 23.0957C7.6248 23.1728 7.80991 23.2328 7.99668 23.2996C8.18345 23.3664 8.34456 23.4281 8.52365 23.483C8.72588 23.5438 8.93323 23.5909 9.13888 23.6415C9.31024 23.6834 9.47647 23.7314 9.653 23.7657C9.88947 23.8129 10.1294 23.8429 10.3693 23.8754C10.5176 23.896 10.6624 23.9251 10.8123 23.9397C11.2048 23.9783 11.6006 23.9997 11.9999 23.9997C12.3992 23.9997 12.7951 23.9783 13.1875 23.9397C13.3375 23.9251 13.4823 23.896 13.6305 23.8754C13.8704 23.8429 14.1103 23.8129 14.3468 23.7657C14.5182 23.7314 14.6896 23.68 14.8609 23.6415C15.0666 23.5909 15.2739 23.5438 15.4762 23.483C15.6553 23.4281 15.8283 23.3613 16.0031 23.2996C16.178 23.2379 16.3767 23.1711 16.5592 23.0957C16.7417 23.0203 16.9208 22.932 17.1008 22.8472C17.2653 22.7692 17.4307 22.6955 17.5926 22.6099C17.7837 22.5079 17.9679 22.3956 18.153 22.2843C18.2927 22.1986 18.4332 22.1206 18.5694 22.0272C18.7699 21.8953 18.9619 21.7522 19.1538 21.6091C19.2652 21.5234 19.3782 21.4462 19.4871 21.3589C19.6902 21.1961 19.883 21.023 20.0758 20.8448C20.146 20.7805 20.2214 20.724 20.2908 20.6571C20.2977 20.6511 20.3003 20.6408 20.3071 20.6339C25.0855 16.0562 25.248 8.47167 20.6703 3.69345ZM18.7444 19.7368C18.5884 19.8739 18.4273 20.0042 18.2645 20.1301C18.1686 20.2038 18.0726 20.2766 17.9741 20.3469C17.819 20.4592 17.6613 20.5654 17.5011 20.6674C17.3845 20.7419 17.2654 20.8139 17.1454 20.8842C16.9946 20.9699 16.8412 21.0555 16.6862 21.1412C16.549 21.2115 16.4094 21.2775 16.2689 21.3426C16.1284 21.4077 15.9733 21.4771 15.8216 21.538C15.6699 21.5988 15.5089 21.6562 15.3503 21.7093C15.2055 21.759 15.0607 21.8104 14.9142 21.8541C14.7428 21.9055 14.5637 21.9475 14.3863 21.9904C14.2475 22.0229 14.1104 22.0598 13.9699 22.0872C13.7668 22.1266 13.5595 22.1541 13.3513 22.1823C13.233 22.1977 13.1157 22.2192 12.9965 22.2312C12.6675 22.2628 12.3341 22.2817 11.9974 22.2817C11.6607 22.2817 11.3273 22.2629 10.9983 22.2312C10.8792 22.2192 10.7618 22.1977 10.6435 22.1823C10.4353 22.1541 10.228 22.1266 10.0249 22.0872C9.88435 22.0598 9.74724 22.023 9.60847 21.9904C9.43108 21.9476 9.25456 21.9047 9.08064 21.8541C8.93414 21.8104 8.78929 21.759 8.6445 21.7093C8.48599 21.6545 8.32744 21.5988 8.17321 21.538C8.01897 21.4771 7.87332 21.4103 7.72591 21.3426C7.57851 21.2749 7.44571 21.2115 7.30865 21.1412C7.15356 21.0607 7.00018 20.9759 6.84936 20.8842C6.72941 20.8139 6.61027 20.7419 6.49374 20.6674C6.33353 20.5654 6.17583 20.4592 6.02075 20.3469C5.92219 20.2767 5.82624 20.2038 5.73025 20.1301C5.56743 20.0042 5.40637 19.8731 5.25042 19.7368C5.21272 19.7085 5.17843 19.6725 5.14163 19.64C5.17993 16.7251 7.05249 14.1513 9.81411 13.2178C11.1949 13.8746 12.7981 13.8746 14.179 13.2178C16.9405 14.1513 18.8131 16.7251 18.8515 19.64C18.8155 19.6725 18.7812 19.7051 18.7444 19.7368ZM9.00859 6.87094C9.93636 5.22094 12.026 4.63548 13.676 5.56325C15.326 6.49102 15.9115 8.58067 14.9837 10.2307C14.6759 10.7781 14.2235 11.2305 13.676 11.5384C13.6717 11.5384 13.6666 11.5384 13.6614 11.5435C13.4342 11.6699 13.1941 11.7717 12.9451 11.8468C12.9006 11.8597 12.8594 11.8768 12.8123 11.8879C12.7266 11.9102 12.6366 11.9256 12.5484 11.9411C12.3822 11.9701 12.214 11.987 12.0454 11.9916H11.9477C11.7791 11.987 11.6109 11.9701 11.4447 11.9411C11.359 11.9256 11.2682 11.9102 11.1808 11.8879C11.1354 11.8768 11.0951 11.8597 11.048 11.8468C10.7991 11.7717 10.5589 11.67 10.3317 11.5435L10.3163 11.5384C8.66629 10.6106 8.08083 8.52093 9.00859 6.87094ZM20.3715 17.9409C19.8217 15.3761 18.1328 13.2018 15.7839 12.0345C17.704 9.94288 17.565 6.69064 15.4733 4.77049C13.3816 2.85033 10.1294 2.98941 8.20925 5.08107C6.40412 7.04746 6.40412 10.0682 8.20925 12.0345C5.86033 13.2019 4.17148 15.3761 3.62162 17.9409C0.335892 13.3127 1.42417 6.89714 6.05238 3.61142C10.6806 0.32569 17.0961 1.41397 20.3818 6.04217C21.617 7.78199 22.28 9.8631 22.2789 11.9968C22.2789 14.1286 21.612 16.207 20.3715 17.9409Z" fill="#B5B5B7"/>
</svg>
