<svg width="100" height="100" viewBox="0 0 100 100" fill="none" xmlns="http://www.w3.org/2000/svg">
<path d="M35.8877 65.4609L37.5002 71.4568H37.521C38.6544 73.9484 47.3294 76.3693 56.746 73.8359C66.1627 71.3026 72.8502 64.7526 72.5752 62.0234H72.596L70.9835 56.0234L35.8919 65.4609H35.8877Z" fill="#1D6BF3"/>
<path d="M78.0459 58.349C78.0459 58.349 78.0251 58.349 78.0126 58.349L72.3292 57.7615C72.1501 57.7449 72.0209 57.5824 72.0376 57.4032C72.0542 57.224 72.2126 57.0907 72.3959 57.1115L78.0792 57.699C78.2584 57.7157 78.3876 57.8782 78.3709 58.0574C78.3542 58.224 78.2126 58.349 78.0459 58.349Z" fill="#1A1B22"/>
<path d="M38.7416 30.056C46.7332 25.4227 59.0207 25.6393 65.5749 33.081C66.1957 33.7852 67.1832 34.0393 68.0541 33.6893C69.8082 32.9768 72.9499 31.4435 76.9374 28.3893C80.9957 25.2768 84.5957 24.2977 86.6291 23.9935C87.2874 23.8935 87.7416 24.6352 87.3666 25.1852C86.0332 27.1227 83.7207 31.1935 82.5749 37.3602C81.2957 44.2393 75.9416 46.5643 73.5082 47.2727C72.8416 47.4685 72.3999 48.1018 72.4457 48.7935C72.6666 52.156 72.0666 61.5727 59.4749 66.8393C46.1957 72.3935 36.8832 66.2852 33.8582 63.7977C33.3041 63.3435 32.4916 63.4144 32.0166 63.9519C30.3541 65.831 25.7999 68.8518 16.2082 62.406C12.7499 60.0185 7.83741 58.5144 6.40824 57.481C5.50824 56.831 5.46657 55.4977 6.33324 54.8018C7.95408 53.506 11.1832 52.0352 16.0749 51.8518C21.1749 51.6602 24.4916 50.3852 26.2374 49.4727C27.1207 49.0102 27.6874 48.1143 27.7374 47.1227C27.9082 43.831 29.3166 35.5185 38.7416 30.056Z" fill="white"/>
<path d="M48.7583 69.4509C41.2708 69.4509 36.0125 65.9967 33.6458 64.0551C33.2291 63.7134 32.6166 63.7634 32.2541 64.1759C30.6833 65.9509 25.9583 69.3634 16.0208 62.6842C13.9875 61.2801 11.4416 60.1842 9.39997 59.3051C7.9583 58.6842 6.8208 58.1926 6.21663 57.7551C5.69997 57.3801 5.3958 56.8051 5.37913 56.1676C5.36247 55.5384 5.63747 54.9509 6.12913 54.5551C7.17497 53.7176 10.2375 51.7509 16.0625 51.5342C20.9916 51.3509 24.2333 50.1592 26.0875 49.1926C26.8583 48.7884 27.3708 47.9926 27.4166 47.1134C27.5916 43.7467 29.0333 35.3176 38.5833 29.7801C46.3875 25.2551 59.0208 25.1509 65.825 32.8717C66.3583 33.4801 67.2083 33.6884 67.9375 33.3926C69.8208 32.6301 72.8791 31.1009 76.7416 28.1342C80.7416 25.0676 84.3 24.0176 86.5833 23.6759C87.0166 23.6134 87.4291 23.8009 87.6625 24.1717C87.8958 24.5467 87.8875 25.0092 87.6375 25.3717C86.3583 27.2342 84.0416 31.2759 82.8958 37.4217C81.5708 44.5342 75.9541 46.9009 73.6 47.5884C73.0833 47.7384 72.7333 48.2384 72.7708 48.7718C73.0166 52.5343 72.2291 61.8551 59.6 67.1384C55.6125 68.8051 51.9791 69.4426 48.7625 69.4426L48.7583 69.4509ZM33.0166 63.1759C33.3833 63.1759 33.7541 63.3009 34.0625 63.5509C37.3541 66.2551 46.4 71.9592 59.3458 66.5426C71.5875 61.4217 72.3541 52.4426 72.1166 48.8176C72.0625 47.9801 72.6083 47.2009 73.4125 46.9634C75.65 46.3092 80.9916 44.0592 82.25 37.3051C83.4166 31.0384 85.7875 26.9051 87.0958 25.0009C87.2 24.8509 87.2041 24.6676 87.1083 24.5134C87.0125 24.3634 86.8541 24.2884 86.6791 24.3134C84.8708 24.5842 81.2291 25.5051 77.1375 28.6426C73.2125 31.6509 70.1 33.2092 68.1791 33.9842C67.1958 34.3842 66.05 34.1051 65.3333 33.2926C58.75 25.8217 46.4916 25.9384 38.9083 30.3342C29.6333 35.7093 28.2333 43.8759 28.0666 47.1384C28.0083 48.2467 27.3666 49.2509 26.3916 49.7634C24.4791 50.7593 21.1416 51.9884 16.0916 52.1759C10.4625 52.3884 7.53747 54.2593 6.54163 55.0551C6.21247 55.3218 6.02497 55.7176 6.03747 56.1426C6.0458 56.5718 6.25413 56.9634 6.60413 57.2176C7.15413 57.6134 8.31663 58.1176 9.66663 58.6967C11.7375 59.5884 14.3125 60.7009 16.3958 62.1384C25.9041 68.5259 30.3166 65.3843 31.775 63.7384C32.1041 63.3634 32.5625 63.1717 33.0208 63.1717L33.0166 63.1759Z" fill="#1A1B22"/>
<path d="M71.1085 41.6984L70.6294 40.0859C70.2252 38.7151 70.5919 37.2359 71.5877 36.2109C73.6002 34.1443 77.3419 30.6651 81.8377 28.2026C82.3794 27.9068 82.9669 28.5151 82.6544 29.0443C81.5127 30.9693 79.8794 34.2234 79.2294 37.9859C78.7085 41.0109 76.8835 42.6276 75.1877 43.4901C73.4919 44.3526 71.621 43.4276 71.1085 41.6943V41.6984Z" fill="#1A1B22"/>
<path d="M29.0335 57.869L28.2377 56.3898C27.5585 55.1315 26.2544 54.3398 24.8294 54.319C21.946 54.2731 16.8377 54.4398 11.9127 55.8606C11.321 56.0315 11.3294 56.8773 11.9294 57.0315C14.096 57.5898 17.5502 58.7481 20.6585 60.9606C23.1627 62.7398 25.596 62.5981 27.4085 62.0148C29.1252 61.4606 29.8919 59.4565 29.0377 57.869H29.0335Z" fill="#1A1B22"/>
<path d="M53.4168 49.4525C53.3085 50.0859 53.1876 51.0817 53.2585 51.9942C53.321 52.7692 54.0126 53.3442 54.7835 53.2567C55.4335 53.1817 56.2418 52.9817 56.946 52.4859C57.5835 52.0359 57.7126 51.1317 57.2293 50.5192C56.8835 50.0817 56.321 49.4942 55.4168 48.7234C55.0626 48.4192 54.5626 48.3442 54.1335 48.5317C53.7543 48.6984 53.4835 49.04 53.4126 49.4484L53.4168 49.4525Z" fill="#1A1B22"/>
<path d="M54.5376 58.648C54.4626 58.648 54.3876 58.648 54.3126 58.6439C52.0501 58.5355 50.5501 56.8355 50.4876 56.7647C50.371 56.6272 50.3835 56.423 50.521 56.3064C50.6543 56.1897 50.8626 56.2022 50.9793 56.3355C50.9918 56.3522 52.371 57.898 54.3501 57.9897C55.6335 58.0439 56.9126 57.4897 58.1376 56.323C58.2668 56.198 58.4751 56.2022 58.6001 56.3355C58.7251 56.4647 58.7168 56.673 58.5876 56.798C57.296 58.0272 55.9335 58.648 54.5376 58.648Z" fill="#1A1B22"/>
<path d="M43.6624 52.8911C45.0454 52.8911 46.1665 51.77 46.1665 50.387C46.1665 49.004 45.0454 47.8828 43.6624 47.8828C42.2794 47.8828 41.1582 49.004 41.1582 50.387C41.1582 51.77 42.2794 52.8911 43.6624 52.8911Z" fill="#1A1B22"/>
<path d="M39.45 51.648C38.8834 51.848 38.2834 51.4688 38.2084 50.8688C37.8917 48.3855 39.3334 45.9355 41.7875 45.0688C44.2417 44.2022 46.9042 45.2063 48.2125 47.3397C48.5292 47.8522 48.3 48.5272 47.7334 48.7272L39.45 51.648Z" fill="white"/>
<path d="M39.1375 52.024C38.9083 52.024 38.6791 51.9615 38.4791 51.8365C38.15 51.6324 37.9333 51.2949 37.8833 50.9074C37.5416 48.2407 39.1375 45.6532 41.6791 44.7615C44.2166 43.8657 47.0833 44.8782 48.4916 47.1699C48.6958 47.5032 48.7375 47.9032 48.6083 48.2699C48.4791 48.6282 48.2 48.9074 47.8416 49.0365L39.5583 51.9574C39.4208 52.0074 39.2791 52.0282 39.1375 52.0282V52.024ZM43.575 45.0865C43.0125 45.0865 42.4458 45.1782 41.8916 45.374C39.6416 46.1699 38.225 48.4615 38.5291 50.824C38.5541 51.0157 38.6583 51.1824 38.8208 51.2824C38.975 51.3782 39.1666 51.399 39.3416 51.3365L47.625 48.4157C47.8 48.3532 47.9333 48.2199 47.9958 48.0449C48.0583 47.8657 48.0375 47.6699 47.9375 47.5074C46.9958 45.974 45.3166 45.0865 43.5791 45.0865H43.575Z" fill="#1A1B22"/>
<path d="M48.3664 58.9219C48.3331 58.9219 48.2998 58.9178 48.2706 58.9053C48.0998 58.8511 48.0039 58.6677 48.0581 58.4969L49.9706 52.3761C50.0248 52.2052 50.2081 52.1094 50.3789 52.1636C50.5498 52.2177 50.6456 52.4011 50.5914 52.5719L48.6789 58.6927C48.6373 58.8344 48.5081 58.9219 48.3664 58.9219Z" fill="#1A1B22"/>
<path d="M63.3707 54.388C63.2874 54.388 63.1999 54.3547 63.1374 54.288L58.6416 49.6964C58.5166 49.5672 58.5166 49.363 58.6457 49.2339C58.7749 49.1089 58.9791 49.1089 59.1082 49.238L63.6041 53.8297C63.7291 53.9589 63.7291 54.163 63.5999 54.2922C63.5374 54.3547 63.4541 54.3839 63.3707 54.3839V54.388Z" fill="#1A1B22"/>
<path d="M84.275 70.7557C89.9889 70.7557 94.6209 67.4053 94.6209 63.2724C94.6209 59.1395 89.9889 55.7891 84.275 55.7891C78.5612 55.7891 73.9292 59.1395 73.9292 63.2724C73.9292 67.4053 78.5612 70.7557 84.275 70.7557Z" fill="#1A1B22"/>
<path d="M81.396 46.687L82.5627 44.9829C82.8502 44.562 83.471 44.5704 83.7502 44.9954L84.8585 46.687H81.396Z" fill="#1A1B22"/>
<path d="M82.2624 54.4208C82.2624 54.4208 77.9458 46.9792 82.9499 46C85.2333 46.0083 85.3916 47.4875 85.6833 49.225C85.9749 50.9625 86.7374 52.375 88.8416 54.425C92.6541 58.1375 92.4083 66.3042 85.6833 66.7708C80.0499 67.1625 79.5416 65.5625 78.5499 60.6125C77.5583 55.6625 82.2624 54.425 82.2624 54.425V54.4208Z" fill="white"/>
<path d="M84.2334 67.1427C79.7751 67.1427 79.1543 65.2844 78.2334 60.6677C77.3709 56.351 80.6418 54.6844 81.7918 54.2344C81.2001 53.1177 79.5168 49.5885 80.5209 47.376C80.9293 46.4719 81.7293 45.901 82.8876 45.6719H82.9501C85.4251 45.676 85.7043 47.3552 85.9709 48.976L86.0001 49.1594C86.2959 50.9344 87.1293 52.2969 89.0626 54.1802C91.3751 56.4302 92.2709 60.2094 91.1876 63.1594C90.3293 65.5052 88.3793 66.8969 85.6959 67.0844C85.1626 67.1219 84.6751 67.1385 84.2209 67.1385L84.2334 67.1427ZM82.9834 46.3219C82.0459 46.5135 81.4334 46.9469 81.1168 47.651C80.0751 49.9427 82.5209 54.2135 82.5459 54.2552L82.7584 54.6219L82.3459 54.7302C82.1668 54.7802 77.9543 55.9552 78.8709 60.5385C79.8668 65.5177 80.3418 66.8052 85.6626 66.4344C88.0709 66.2677 89.8209 65.026 90.5834 62.9344C91.5668 60.2552 90.7168 56.6927 88.6126 54.6469C86.5668 52.6552 85.6834 51.1969 85.3626 49.2677L85.3334 49.0844C85.0584 47.4344 84.8793 46.3385 82.9834 46.3177V46.3219Z" fill="#1A1B22"/>
<path d="M85.2333 60.6141H79.1666C77.8708 60.6141 76.8208 59.5099 76.8208 58.1474V57.8807C76.8208 56.5182 77.8708 55.4141 79.1666 55.4141H85.2333" fill="white"/>
<path d="M85.2334 60.9359H79.1667C77.6917 60.9359 76.4917 59.6859 76.4917 58.1443V57.8776C76.4917 56.3401 77.6917 55.0859 79.1667 55.0859H85.2334C85.4125 55.0859 85.5584 55.2318 85.5584 55.4109C85.5584 55.5901 85.4125 55.7359 85.2334 55.7359H79.1667C78.05 55.7359 77.1459 56.6943 77.1459 57.8734V58.1401C77.1459 59.3193 78.0542 60.2776 79.1667 60.2776H85.2334C85.4125 60.2776 85.5584 60.4234 85.5584 60.6026C85.5584 60.7818 85.4125 60.9276 85.2334 60.9276V60.9359Z" fill="#1A1B22"/>
<path d="M85.2333 65.8094H79.1666C77.8708 65.8094 76.8208 64.7052 76.8208 63.3427V63.076C76.8208 61.7135 77.8708 60.6094 79.1666 60.6094H85.2333" fill="white"/>
<path d="M85.2334 66.1312H79.1667C77.6917 66.1312 76.4917 64.8812 76.4917 63.3396V63.0729C76.4917 61.5354 77.6917 60.2812 79.1667 60.2812H85.2334C85.4125 60.2812 85.5584 60.4271 85.5584 60.6062C85.5584 60.7854 85.4125 60.9312 85.2334 60.9312H79.1667C78.05 60.9312 77.1459 61.8896 77.1459 63.0688V63.3354C77.1459 64.5146 78.0542 65.4729 79.1667 65.4729H85.2334C85.4125 65.4729 85.5584 65.6187 85.5584 65.7979C85.5584 65.9771 85.4125 66.1229 85.2334 66.1229V66.1312Z" fill="#1A1B22"/>
<path d="M26.6251 76.3388C26.5335 76.3388 26.4418 76.3013 26.3793 76.2263C26.2626 76.0888 26.2793 75.8846 26.4126 75.768L35.3626 68.0638C35.5001 67.9471 35.7043 67.9596 35.821 68.0971C35.9376 68.2346 35.921 68.4388 35.7876 68.5555L26.8376 76.2596C26.7751 76.3138 26.7001 76.3388 26.6251 76.3388Z" fill="#1A1B22"/>
<path d="M43.8959 55.28C42.2918 55.28 41.0459 54.4967 40.9793 54.455C40.8293 54.3592 40.7834 54.155 40.8793 54.005C40.9751 53.855 41.1793 53.8091 41.3293 53.905C41.3459 53.9175 43.0834 55.0008 44.9543 54.4883C46.2126 54.1425 47.2584 53.155 48.0626 51.555C48.1418 51.3925 48.3376 51.33 48.5001 51.4091C48.6584 51.4883 48.7251 51.6842 48.6459 51.8467C47.7501 53.6217 46.5626 54.7217 45.1209 55.1175C44.7001 55.2342 44.2876 55.28 43.8959 55.28Z" fill="#1A1B22"/>
<path d="M62.2376 45.9849C63.6206 45.9849 64.7417 44.8637 64.7417 43.4807C64.7417 42.0977 63.6206 40.9766 62.2376 40.9766C60.8545 40.9766 59.7334 42.0977 59.7334 43.4807C59.7334 44.8637 60.8545 45.9849 62.2376 45.9849Z" fill="#1A1B22"/>
<path d="M58.0247 44.7418C57.4581 44.9418 56.8581 44.5626 56.7831 43.9626C56.4664 41.4793 57.9081 39.0293 60.3622 38.1626C62.8164 37.2959 65.4789 38.3001 66.7872 40.4334C67.1039 40.9459 66.8747 41.6209 66.3081 41.8209L58.0247 44.7418Z" fill="white"/>
<path d="M57.7166 45.122C57.4874 45.122 57.2582 45.0595 57.0582 44.9345C56.7291 44.7303 56.5124 44.3928 56.4624 44.0053C56.1207 41.3386 57.7166 38.7511 60.2582 37.8553C62.7957 36.9595 65.6624 37.972 67.0707 40.2636C67.2749 40.597 67.3166 40.997 67.1874 41.3636C67.0582 41.722 66.7791 42.0011 66.4207 42.1303L58.1374 45.0511C57.9999 45.1011 57.8582 45.122 57.7166 45.122ZM62.1541 38.1845C61.5916 38.1845 61.0249 38.2761 60.4749 38.472C58.2249 39.2678 56.8082 41.5595 57.1124 43.922C57.1374 44.1136 57.2416 44.2803 57.4041 44.3803C57.5624 44.4761 57.7499 44.497 57.9249 44.4345L66.2082 41.5136C66.3832 41.4511 66.5166 41.3178 66.5791 41.1428C66.6416 40.9636 66.6207 40.7678 66.5207 40.6053C65.5791 39.072 63.8957 38.1845 62.1624 38.1845H62.1541Z" fill="#1A1B22"/>
<path d="M62.4707 48.3815C60.8665 48.3815 59.6207 47.5982 59.554 47.5565C59.404 47.4607 59.3582 47.2565 59.454 47.1065C59.5498 46.9524 59.754 46.9107 59.904 47.0065C59.9207 47.019 61.6623 48.1024 63.529 47.5899C64.7873 47.244 65.8332 46.2565 66.6373 44.6565C66.7165 44.494 66.9123 44.4315 67.0748 44.5107C67.2332 44.5899 67.2998 44.7857 67.2207 44.9482C66.3248 46.7232 65.1373 47.8232 63.6957 48.219C63.2748 48.3357 62.8623 48.3815 62.4707 48.3815Z" fill="#1A1B22"/>
<path d="M37.0124 43.0549C36.9499 43.0549 36.8874 43.0382 36.8332 43.0007C36.6832 42.9007 36.6415 42.6966 36.7415 42.5507C36.8165 42.4382 44.3457 31.4632 58.9499 34.9007C59.1248 34.9424 59.2332 35.1174 59.1915 35.2924C59.1499 35.4674 58.9748 35.5757 58.7999 35.5341C44.6415 32.2007 37.354 42.8049 37.2832 42.9132C37.2207 43.0091 37.1165 43.0591 37.0124 43.0591V43.0549Z" fill="#1A1B22"/>
<path d="M37.6625 36.1349C37.5833 36.1349 37.5042 36.1058 37.4417 36.0474C37.3125 35.9224 37.3042 35.7183 37.425 35.5891C37.4917 35.5183 44.1917 28.5099 53.6417 30.7808C53.8167 30.8224 53.925 30.9974 53.8833 31.1724C53.8417 31.3474 53.6667 31.4558 53.4917 31.4141C44.4167 29.2308 37.9667 35.9641 37.9042 36.0349C37.8417 36.1016 37.7542 36.1391 37.6667 36.1391L37.6625 36.1349Z" fill="#1A1B22"/>
</svg>
